<?xml version="1.0" encoding="UTF-8" standalone="no"?>
<!-- Created with Inkscape (http://www.inkscape.org/) -->

<svg
   width="25.4mm"
   height="128.5mm"
   viewBox="0 0 25.400002 128.50002"
   version="1.1"
   id="svg8"
   inkscape:version="1.1.2 (b8e25be8, 2022-02-05)"
   sodipodi:docname="BuffMult.svg"
   xmlns:inkscape="http://www.inkscape.org/namespaces/inkscape"
   xmlns:sodipodi="http://sodipodi.sourceforge.net/DTD/sodipodi-0.dtd"
   xmlns="http://www.w3.org/2000/svg"
   xmlns:svg="http://www.w3.org/2000/svg"
   xmlns:rdf="http://www.w3.org/1999/02/22-rdf-syntax-ns#"
   xmlns:cc="http://creativecommons.org/ns#"
   xmlns:dc="http://purl.org/dc/elements/1.1/">
  <defs
     id="defs2">
    <inkscape:path-effect
       effect="fillet_chamfer"
       id="path-effect1836"
       is_visible="true"
       lpeversion="1"
       satellites_param="F,0,0,1,0,1.4332636,0,1 @ F,0,0,1,0,1.2740121,0,1 @ F,0,0,1,0,1.369563,0,1 @ F,0,0,1,0,1.4014133,0,1"
       unit="px"
       method="auto"
       mode="F"
       radius="0"
       chamfer_steps="1"
       flexible="false"
       use_knot_distance="true"
       apply_no_radius="true"
       apply_with_radius="true"
       only_selected="false"
       hide_knots="false" />
    <inkscape:path-effect
       effect="fillet_chamfer"
       id="path-effect1830"
       is_visible="true"
       lpeversion="1"
       satellites_param="F,0,0,1,0,1.4332636,0,1 @ F,0,0,1,0,1.2740121,0,1 @ F,0,0,1,0,1.369563,0,1 @ F,0,0,1,0,1.4014133,0,1"
       unit="px"
       method="auto"
       mode="F"
       radius="0"
       chamfer_steps="1"
       flexible="false"
       use_knot_distance="true"
       apply_no_radius="true"
       apply_with_radius="true"
       only_selected="false"
       hide_knots="false" />
    <inkscape:path-effect
       effect="fillet_chamfer"
       id="path-effect1824"
       is_visible="true"
       lpeversion="1"
       satellites_param="F,0,0,1,0,1.4332636,0,1 @ F,0,0,1,0,1.2740121,0,1 @ F,0,0,1,0,1.369563,0,1 @ F,0,0,1,0,1.4014133,0,1"
       unit="px"
       method="auto"
       mode="F"
       radius="0"
       chamfer_steps="1"
       flexible="false"
       use_knot_distance="true"
       apply_no_radius="true"
       apply_with_radius="true"
       only_selected="false"
       hide_knots="false" />
    <inkscape:path-effect
       effect="fillet_chamfer"
       id="path-effect1818"
       is_visible="true"
       lpeversion="1"
       satellites_param="F,0,0,1,0,1.4332636,0,1 @ F,0,0,1,0,1.2740121,0,1 @ F,0,0,1,0,1.369563,0,1 @ F,0,0,1,0,1.4014133,0,1"
       unit="px"
       method="auto"
       mode="F"
       radius="0"
       chamfer_steps="1"
       flexible="false"
       use_knot_distance="true"
       apply_no_radius="true"
       apply_with_radius="true"
       only_selected="false"
       hide_knots="false" />
    <inkscape:path-effect
       effect="fillet_chamfer"
       id="path-effect1812"
       is_visible="true"
       lpeversion="1"
       satellites_param="F,0,0,1,0,1.4332636,0,1 @ F,0,0,1,0,1.2740121,0,1 @ F,0,0,1,0,1.369563,0,1 @ F,0,0,1,0,1.4014133,0,1"
       unit="px"
       method="auto"
       mode="F"
       radius="0"
       chamfer_steps="1"
       flexible="false"
       use_knot_distance="true"
       apply_no_radius="true"
       apply_with_radius="true"
       only_selected="false"
       hide_knots="false" />
    <inkscape:path-effect
       effect="fillet_chamfer"
       id="path-effect1806"
       is_visible="true"
       lpeversion="1"
       satellites_param="F,0,0,1,0,1.4332636,0,1 @ F,0,0,1,0,1.2740121,0,1 @ F,0,0,1,0,1.369563,0,1 @ F,0,0,1,0,1.4014133,0,1"
       unit="px"
       method="auto"
       mode="F"
       radius="0"
       chamfer_steps="1"
       flexible="false"
       use_knot_distance="true"
       apply_no_radius="true"
       apply_with_radius="true"
       only_selected="false"
       hide_knots="false" />
    <inkscape:path-effect
       effect="fillet_chamfer"
       id="path-effect420"
       is_visible="true"
       lpeversion="1"
       satellites_param="F,0,0,1,0,1.4332636,0,1 @ F,0,0,1,0,1.2740121,0,1 @ F,0,0,1,0,1.369563,0,1 @ F,0,0,1,0,1.4014133,0,1"
       unit="px"
       method="auto"
       mode="F"
       radius="0"
       chamfer_steps="1"
       flexible="false"
       use_knot_distance="true"
       apply_no_radius="true"
       apply_with_radius="true"
       only_selected="false"
       hide_knots="false" />
  </defs>
  <sodipodi:namedview
     id="base"
     pagecolor="#ffffff"
     bordercolor="#666666"
     borderopacity="1.0"
     inkscape:pageopacity="0.0"
     inkscape:pageshadow="2"
     inkscape:zoom="1.7998538"
     inkscape:cx="40.55885"
     inkscape:cy="276.13354"
     inkscape:document-units="mm"
     inkscape:current-layer="layer1"
     showgrid="false"
     units="mm"
     inkscape:snap-bbox="true"
     inkscape:snap-page="true"
     inkscape:bbox-nodes="false"
     inkscape:snap-bbox-edge-midpoints="false"
     inkscape:window-width="1920"
     inkscape:window-height="956"
     inkscape:window-x="1920"
     inkscape:window-y="25"
     inkscape:window-maximized="0"
     inkscape:snap-bbox-midpoints="true"
     inkscape:snap-nodes="false"
     inkscape:pagecheckerboard="0" />
  <metadata
     id="metadata5">
    <rdf:RDF>
      <cc:Work
         rdf:about="">
        <dc:format>image/svg+xml</dc:format>
        <dc:type
           rdf:resource="http://purl.org/dc/dcmitype/StillImage" />
      </cc:Work>
    </rdf:RDF>
  </metadata>
  <g
     inkscape:label="Layer 1"
     inkscape:groupmode="layer"
     id="layer1"
     transform="translate(0,-168.49998)"
     style="display:inline">
    <rect
       style="display:inline;opacity:1;vector-effect:none;fill:#00659b;fill-opacity:1;fill-rule:evenodd;stroke:none;stroke-width:0.59278;stroke-linecap:butt;stroke-linejoin:miter;stroke-miterlimit:4;stroke-dasharray:none;stroke-dashoffset:0;stroke-opacity:1;paint-order:normal"
       id="rect420"
       width="25.4"
       height="128.5"
       x="5.9211732e-17"
       y="168.49997" />
    <path
       style="display:inline;fill:#ffffff;stroke-width:0.247591"
       id="path416"
       width="8.5019999"
       height="8.5019999"
       x="8.4489994"
       y="195.714"
       sodipodi:type="rect"
       inkscape:path-effect="#path-effect420"
       d="m 9.882263,195.714 h 5.794724 a 1.2740121,1.2740121 45 0 1 1.274012,1.27402 v 5.85842 A 1.369563,1.369563 135 0 1 15.581436,204.216 H 9.8504127 a 1.4014133,1.4014133 45 0 1 -1.4014133,-1.40141 v -5.66732 A 1.4332636,1.4332636 135 0 1 9.882263,195.714 Z" />
    <rect
       style="display:inline;fill:#ff7522;fill-opacity:1;stroke:#ff7522;stroke-width:0.1968;stroke-opacity:1"
       id="rect1043-5"
       width="25.203199"
       height="0.50696516"
       x="0.098400116"
       y="294.19839" />
    <rect
       style="display:inline;fill:#ff7522;fill-opacity:1;stroke:#ff7522;stroke-width:0.1968;stroke-opacity:1"
       id="rect1043"
       width="25.203199"
       height="0.50696516"
       x="0.098400116"
       y="170.59837" />
    <path
       style="display:inline;fill:#ffffff;stroke-width:0.247591"
       id="path1802"
       width="8.5019999"
       height="8.5019999"
       x="8.4489994"
       y="208.43871"
       sodipodi:type="rect"
       inkscape:path-effect="#path-effect1806"
       d="m 9.882263,208.43871 h 5.794724 a 1.2740121,1.2740121 45 0 1 1.274012,1.27401 v 5.85842 a 1.369563,1.369563 135 0 1 -1.369563,1.36957 H 9.8504127 a 1.4014133,1.4014133 45 0 1 -1.4014133,-1.40142 v -5.66732 a 1.4332636,1.4332636 135 0 1 1.4332636,-1.43326 z" />
    <path
       style="display:inline;fill:#ffffff;stroke-width:0.247591"
       id="path1808"
       width="8.5019999"
       height="8.5019999"
       x="8.4489994"
       y="221.16342"
       sodipodi:type="rect"
       inkscape:path-effect="#path-effect1812"
       d="m 9.882263,221.16342 h 5.794724 a 1.2740121,1.2740121 45 0 1 1.274012,1.27401 v 5.85843 a 1.369563,1.369563 135 0 1 -1.369563,1.36956 H 9.8504127 a 1.4014133,1.4014133 45 0 1 -1.4014133,-1.40141 v -5.66732 a 1.4332636,1.4332636 135 0 1 1.4332636,-1.43327 z" />
    <path
       style="display:inline;fill:#ffffff;stroke-width:0.247591"
       id="path1814"
       width="8.5019999"
       height="8.5019999"
       x="8.4489994"
       y="246.61284"
       sodipodi:type="rect"
       inkscape:path-effect="#path-effect1818"
       d="m 9.882263,246.61284 h 5.794724 a 1.2740121,1.2740121 45 0 1 1.274012,1.27401 v 5.85843 a 1.369563,1.369563 135 0 1 -1.369563,1.36956 H 9.8504127 a 1.4014133,1.4014133 45 0 1 -1.4014133,-1.40141 v -5.66733 a 1.4332636,1.4332636 135 0 1 1.4332636,-1.43326 z" />
    <path
       style="display:inline;fill:#ffffff;stroke-width:0.247591"
       id="path1820"
       width="8.5019999"
       height="8.5019999"
       x="8.4489994"
       y="259.33752"
       sodipodi:type="rect"
       inkscape:path-effect="#path-effect1824"
       d="m 9.882263,259.33752 h 5.794724 a 1.2740121,1.2740121 45 0 1 1.274012,1.27402 v 5.85842 a 1.369563,1.369563 135 0 1 -1.369563,1.36956 H 9.8504127 a 1.4014133,1.4014133 45 0 1 -1.4014133,-1.40141 v -5.66732 a 1.4332636,1.4332636 135 0 1 1.4332636,-1.43327 z" />
    <path
       style="display:inline;fill:#ffffff;stroke-width:0.247591"
       id="path1826"
       width="8.5019999"
       height="8.5019999"
       x="8.4489994"
       y="272.06226"
       sodipodi:type="rect"
       inkscape:path-effect="#path-effect1830"
       d="m 9.882263,272.06226 h 5.794724 a 1.2740121,1.2740121 45 0 1 1.274012,1.27401 v 5.85842 a 1.369563,1.369563 135 0 1 -1.369563,1.36957 H 9.8504127 a 1.4014133,1.4014133 45 0 1 -1.4014133,-1.40142 v -5.66732 a 1.4332636,1.4332636 135 0 1 1.4332636,-1.43326 z" />
  </g>
  <g
     inkscape:groupmode="layer"
     id="layer4"
     inkscape:label="graphics"
     style="display:inline">
    <g
       id="g2492"
       transform="translate(-2.1166667)"
       style="fill:#ffffff;stroke:#ffffff;stroke-width:0;stroke-miterlimit:4;stroke-dasharray:none">
      <path
         style="display:inline;fill:#ffffff;stroke:#ffffff;stroke-width:0;stroke-linecap:butt;stroke-linejoin:miter;stroke-opacity:1;stroke-miterlimit:4;stroke-dasharray:none"
         d="m 18.737133,187.61471 5.027977,3.36542 v 8.57317 h -4.872358 v 0.66035 h 4.872358 v 12.11275 h -5.030392 v 0.70227 h 4.969921 l 0.03951,8.21995 -4.990884,4.02988 -10e-7,0.76033 c -0.03951,0.15803 5.677027,-4.30644 5.677027,-4.30644 l -1e-6,-31.23603 -5.553669,-3.69114 z"
         id="path230"
         transform="translate(0,-168.49998)"
         sodipodi:nodetypes="ccccccccccccccccc" />
      <path
         sodipodi:type="star"
         style="fill:#ffffff;stroke:#ffffff;stroke-width:0;stroke-miterlimit:4;stroke-dasharray:none"
         id="path2110"
         inkscape:flatsided="true"
         sodipodi:sides="3"
         sodipodi:cx="80.528915"
         sodipodi:cy="77.116203"
         sodipodi:r1="4.2643762"
         sodipodi:r2="2.1321881"
         sodipodi:arg1="2.7299213"
         sodipodi:arg2="3.7771189"
         inkscape:rounded="0"
         inkscape:randomized="0"
         d="m 76.620814,78.822558 4.384406,-5.944047 2.955492,6.769031 z"
         transform="matrix(0.26458333,0,0,0.26458333,0.05097275,-0.00728182)"
         inkscape:transform-center-x="0.063011423"
         inkscape:transform-center-y="-0.22573674" />
      <path
         sodipodi:type="star"
         style="fill:#ffffff;stroke:#ffffff;stroke-width:0;stroke-miterlimit:4;stroke-dasharray:none"
         id="path2294"
         inkscape:flatsided="true"
         sodipodi:sides="3"
         sodipodi:cx="80.528915"
         sodipodi:cy="77.116203"
         sodipodi:r1="4.2643762"
         sodipodi:r2="2.1321881"
         sodipodi:arg1="2.7299213"
         sodipodi:arg2="3.7771189"
         inkscape:rounded="0"
         inkscape:randomized="0"
         d="m 76.620814,78.822558 4.384406,-5.944047 2.955492,6.769031 z"
         transform="matrix(-0.21401491,0.15556978,-0.15556978,-0.21401491,50.588922,35.364559)"
         inkscape:transform-center-x="0.27865933"
         inkscape:transform-center-y="0.0039293276" />
      <path
         sodipodi:type="star"
         style="fill:#ffffff;stroke:#ffffff;stroke-width:0;stroke-miterlimit:4;stroke-dasharray:none"
         id="path2296"
         inkscape:flatsided="true"
         sodipodi:sides="3"
         sodipodi:cx="80.528915"
         sodipodi:cy="77.116203"
         sodipodi:r1="4.2643762"
         sodipodi:r2="2.1321881"
         sodipodi:arg1="2.7299213"
         sodipodi:arg2="3.7771189"
         inkscape:rounded="0"
         inkscape:randomized="0"
         d="m 76.620814,78.822558 4.384406,-5.944047 2.955492,6.769031 z"
         transform="matrix(-0.21401491,0.15556978,-0.15556978,-0.21401491,50.583429,48.152449)"
         inkscape:transform-center-x="0.27865933"
         inkscape:transform-center-y="0.0039293276" />
      <path
         sodipodi:type="star"
         style="fill:#ffffff;stroke:#ffffff;stroke-width:0;stroke-miterlimit:4;stroke-dasharray:none"
         id="path2391"
         inkscape:flatsided="true"
         sodipodi:sides="3"
         sodipodi:cx="80.528915"
         sodipodi:cy="77.116203"
         sodipodi:r1="4.2643762"
         sodipodi:r2="2.1321881"
         sodipodi:arg1="2.7299213"
         sodipodi:arg2="3.7771189"
         inkscape:rounded="0"
         inkscape:randomized="0"
         d="m 76.620814,78.822558 4.384406,-5.944047 2.955492,6.769031 z"
         transform="matrix(-0.07563962,0.2535409,-0.2535409,-0.07563962,46.951525,40.640686)"
         inkscape:transform-center-x="-0.068511875"
         inkscape:transform-center-y="-0.22065086" />
    </g>
    <g
       id="g2504"
       transform="translate(-2.1166667,50.862377)"
       style="stroke:#ffffff;stroke-width:0;stroke-miterlimit:4;stroke-dasharray:none">
      <path
         style="display:inline;fill:#ffffff;stroke:#ffffff;stroke-width:0;stroke-linecap:butt;stroke-linejoin:miter;stroke-opacity:1;stroke-miterlimit:4;stroke-dasharray:none"
         d="m 18.737133,187.61471 5.027977,3.36542 v 8.57317 h -4.872358 v 0.66035 h 4.872358 v 12.11275 h -5.030392 v 0.70227 h 4.969921 l 0.03951,8.21995 -4.990884,4.02988 -10e-7,0.76033 c -0.03951,0.15803 5.677027,-4.30644 5.677027,-4.30644 l -1e-6,-31.23603 -5.553669,-3.69114 z"
         id="path2494"
         transform="translate(0,-168.49998)"
         sodipodi:nodetypes="ccccccccccccccccc" />
      <path
         sodipodi:type="star"
         style="fill:#ffffff;stroke:#ffffff;stroke-width:0;stroke-miterlimit:4;stroke-dasharray:none"
         id="path2496"
         inkscape:flatsided="true"
         sodipodi:sides="3"
         sodipodi:cx="80.528915"
         sodipodi:cy="77.116203"
         sodipodi:r1="4.2643762"
         sodipodi:r2="2.1321881"
         sodipodi:arg1="2.7299213"
         sodipodi:arg2="3.7771189"
         inkscape:rounded="0"
         inkscape:randomized="0"
         d="m 76.620814,78.822558 4.384406,-5.944047 2.955492,6.769031 z"
         transform="matrix(0.26458333,0,0,0.26458333,0.05097275,-0.00728182)"
         inkscape:transform-center-x="0.063011423"
         inkscape:transform-center-y="-0.22573674" />
      <path
         sodipodi:type="star"
         style="fill:#ffffff;stroke:#ffffff;stroke-width:0;stroke-miterlimit:4;stroke-dasharray:none"
         id="path2498"
         inkscape:flatsided="true"
         sodipodi:sides="3"
         sodipodi:cx="80.528915"
         sodipodi:cy="77.116203"
         sodipodi:r1="4.2643762"
         sodipodi:r2="2.1321881"
         sodipodi:arg1="2.7299213"
         sodipodi:arg2="3.7771189"
         inkscape:rounded="0"
         inkscape:randomized="0"
         d="m 76.620814,78.822558 4.384406,-5.944047 2.955492,6.769031 z"
         transform="matrix(-0.21401491,0.15556978,-0.15556978,-0.21401491,50.588922,35.364559)"
         inkscape:transform-center-x="0.27865933"
         inkscape:transform-center-y="0.0039293276" />
      <path
         sodipodi:type="star"
         style="fill:#ffffff;stroke:#ffffff;stroke-width:0;stroke-miterlimit:4;stroke-dasharray:none"
         id="path2500"
         inkscape:flatsided="true"
         sodipodi:sides="3"
         sodipodi:cx="80.528915"
         sodipodi:cy="77.116203"
         sodipodi:r1="4.2643762"
         sodipodi:r2="2.1321881"
         sodipodi:arg1="2.7299213"
         sodipodi:arg2="3.7771189"
         inkscape:rounded="0"
         inkscape:randomized="0"
         d="m 76.620814,78.822558 4.384406,-5.944047 2.955492,6.769031 z"
         transform="matrix(-0.21401491,0.15556978,-0.15556978,-0.21401491,50.583429,48.152449)"
         inkscape:transform-center-x="0.27865933"
         inkscape:transform-center-y="0.0039293276" />
      <path
         sodipodi:type="star"
         style="fill:#ffffff;stroke:#ffffff;stroke-width:0;stroke-miterlimit:4;stroke-dasharray:none"
         id="path2502"
         inkscape:flatsided="true"
         sodipodi:sides="3"
         sodipodi:cx="80.528915"
         sodipodi:cy="77.116203"
         sodipodi:r1="4.2643762"
         sodipodi:r2="2.1321881"
         sodipodi:arg1="2.7299213"
         sodipodi:arg2="3.7771189"
         inkscape:rounded="0"
         inkscape:randomized="0"
         d="m 76.620814,78.822558 4.384406,-5.944047 2.955492,6.769031 z"
         transform="matrix(-0.07563962,0.2535409,-0.2535409,-0.07563962,46.951525,40.640686)"
         inkscape:transform-center-x="-0.068511875"
         inkscape:transform-center-y="-0.22065086" />
    </g>
  </g>
  <g
     inkscape:groupmode="layer"
     id="layer2"
     inkscape:label="components"
     style="display:none">
    <circle
       r="4"
       cy="69.639145"
       cx="12.7"
       id="circle4956"
       style="display:inline;opacity:1;vector-effect:none;fill:#00ff00;fill-opacity:1;fill-rule:evenodd;stroke:none;stroke-width:1;stroke-linecap:butt;stroke-linejoin:miter;stroke-miterlimit:4;stroke-dasharray:none;stroke-dashoffset:0;stroke-opacity:1;paint-order:normal"
       inkscape:label="AudioCVIn2" />
    <circle
       style="display:inline;opacity:1;vector-effect:none;fill:#0000ff;fill-opacity:1;fill-rule:evenodd;stroke:none;stroke-width:1;stroke-linecap:butt;stroke-linejoin:miter;stroke-miterlimit:4;stroke-dasharray:none;stroke-dashoffset:0;stroke-opacity:1;paint-order:normal"
       id="circle4958"
       cx="12.7"
       cy="107.81326"
       r="4"
       inkscape:label="AudioCVOut6" />
    <circle
       r="4"
       cy="18.740318"
       cx="12.7"
       id="circle527"
       style="display:inline;opacity:1;vector-effect:none;fill:#00ff00;fill-opacity:1;fill-rule:evenodd;stroke:none;stroke-width:1;stroke-linecap:butt;stroke-linejoin:miter;stroke-miterlimit:4;stroke-dasharray:none;stroke-dashoffset:0;stroke-opacity:1;paint-order:normal"
       inkscape:label="AudioCVIn1" />
    <circle
       r="4"
       cy="31.465025"
       cx="12.7"
       id="circle529"
       style="display:inline;opacity:1;vector-effect:none;fill:#0000ff;fill-opacity:1;fill-rule:evenodd;stroke:none;stroke-width:1;stroke-linecap:butt;stroke-linejoin:miter;stroke-miterlimit:4;stroke-dasharray:none;stroke-dashoffset:0;stroke-opacity:1;paint-order:normal"
       inkscape:label="AudioCVOut1" />
    <circle
       r="4"
       cy="44.189732"
       cx="12.7"
       id="circle531"
       style="display:inline;opacity:1;vector-effect:none;fill:#0000ff;fill-opacity:1;fill-rule:evenodd;stroke:none;stroke-width:1;stroke-linecap:butt;stroke-linejoin:miter;stroke-miterlimit:4;stroke-dasharray:none;stroke-dashoffset:0;stroke-opacity:1;paint-order:normal"
       inkscape:label="AudioCVOut2" />
    <circle
       r="4"
       cy="82.363853"
       cx="12.7"
       id="circle533"
       style="display:inline;opacity:1;vector-effect:none;fill:#0000ff;fill-opacity:1;fill-rule:evenodd;stroke:none;stroke-width:1;stroke-linecap:butt;stroke-linejoin:miter;stroke-miterlimit:4;stroke-dasharray:none;stroke-dashoffset:0;stroke-opacity:1;paint-order:normal"
       inkscape:label="AudioCVOut4" />
    <circle
       r="4"
       cy="95.088539"
       cx="12.7"
       id="circle535"
       style="display:inline;opacity:1;vector-effect:none;fill:#0000ff;fill-opacity:1;fill-rule:evenodd;stroke:none;stroke-width:1;stroke-linecap:butt;stroke-linejoin:miter;stroke-miterlimit:4;stroke-dasharray:none;stroke-dashoffset:0;stroke-opacity:1;paint-order:normal"
       inkscape:label="AudioCVOut5" />
    <circle
       style="display:inline;opacity:1;vector-effect:none;fill:#0000ff;fill-opacity:1;fill-rule:evenodd;stroke:none;stroke-width:1;stroke-linecap:butt;stroke-linejoin:miter;stroke-miterlimit:4;stroke-dasharray:none;stroke-dashoffset:0;stroke-opacity:1;paint-order:normal"
       id="circle537"
       cx="12.7"
       cy="56.914436"
       r="4"
       inkscape:label="AudioCVOut3" />
    <circle
       r="4"
       cy="31.465025"
       cx="12.7"
       id="circle1800"
       style="display:inline;opacity:1;vector-effect:none;fill:#0000ff;fill-opacity:1;fill-rule:evenodd;stroke:none;stroke-width:1;stroke-linecap:butt;stroke-linejoin:miter;stroke-miterlimit:4;stroke-dasharray:none;stroke-dashoffset:0;stroke-opacity:1;paint-order:normal"
       inkscape:label="AudioCVOut1" />
  </g>
  <g
     inkscape:groupmode="layer"
     id="layer3"
     inkscape:label="text"
     style="display:inline">
    <g
       aria-label="Input 1 "
       id="text741"
       style="font-size:2.46944px;line-height:1.25;font-family:Excluded;-inkscape-font-specification:'Excluded, Normal';display:inline;fill:#ffffff;stroke-width:0.264583"
       transform="matrix(0.89910601,0,0,0.89910601,-1.0023672,1.2706123)">
      <path
         d="m 10.286737,13.951736 v -1.358192 h 0.454377 v 1.358192 z"
         id="path11045" />
      <path
         d="m 12.660602,12.593544 v 1.086554 q 0,0.113594 -0.07902,0.192616 -0.07902,0.07902 -0.192616,0.07902 h -0.232127 l -0.674158,-0.842079 v 0.842079 h -0.451907 v -1.086553 q 0,-0.113594 0.07902,-0.192616 0.07902,-0.07902 0.192616,-0.07902 h 0.232128 l 0.674157,0.842079 v -0.842079 z"
         id="path11047" />
      <path
         d="m 14.366445,12.593544 q 0.113595,0 0.192617,0.07902 0.07902,0.07902 0.07902,0.192616 v 0.363008 q 0,0.111124 -0.07902,0.192616 -0.07902,0.07902 -0.192617,0.07902 h -0.906284 v 0.451907 h -0.451908 v -1.358192 z m -0.180269,0.543277 v -0.180269 h -0.726015 v 0.180269 z"
         id="path11049" />
      <path
         d="m 16.605687,12.593544 v 1.086554 q 0,0.113594 -0.07902,0.192616 -0.07902,0.07902 -0.192616,0.07902 h -1.086554 q -0.113594,0 -0.192616,-0.07902 -0.07902,-0.07902 -0.07902,-0.192616 v -1.086554 h 0.451907 v 0.995185 h 0.726016 v -0.995185 z"
         id="path11051" />
      <path
         d="m 18.610332,12.593544 v 0.363008 h -0.590196 v 0.995184 h -0.451908 v -0.995184 h -0.587726 v -0.363008 z"
         id="path11053" />
      <path
         d="m 20.193244,12.593544 v 1.358192 h -0.451908 v -0.995184 h -0.363008 v -0.363008 z"
         id="path11055" />
    </g>
    <g
       aria-label="Input 2 "
       id="text741-6"
       style="font-size:2.46944px;line-height:1.25;font-family:Excluded;-inkscape-font-specification:'Excluded, Normal';display:inline;fill:#ffffff;stroke-width:0.264583"
       transform="matrix(0.9046366,0,0,0.9046366,-1.0866535,6.0493495)">
      <path
         d="M 9.9953432,64.792892 V 63.4347 H 10.44972 v 1.358192 z"
         id="path10987" />
      <path
         d="m 12.369208,63.4347 v 1.086554 q 0,0.113594 -0.07902,0.192616 -0.07902,0.07902 -0.192616,0.07902 H 11.865444 L 11.191287,63.950811 V 64.79289 H 10.73938 v -1.086553 q 0,-0.113594 0.07902,-0.192616 0.07902,-0.07902 0.192616,-0.07902 h 0.232127 l 0.674158,0.842079 V 63.4347 Z"
         id="path10989" />
      <path
         d="m 14.075051,63.4347 q 0.113594,0 0.192616,0.07902 0.07902,0.07902 0.07902,0.192616 v 0.363008 q 0,0.111124 -0.07902,0.192616 -0.07902,0.07902 -0.192616,0.07902 h -0.906284 v 0.451907 H 12.716859 V 63.4347 Z m -0.180269,0.543277 v -0.180269 h -0.726015 v 0.180269 z"
         id="path10991" />
      <path
         d="m 16.314293,63.4347 v 1.086554 q 0,0.113594 -0.07902,0.192616 -0.07902,0.07902 -0.192616,0.07902 h -1.086554 q -0.113594,0 -0.192616,-0.07902 -0.07902,-0.07902 -0.07902,-0.192616 V 63.4347 h 0.451907 v 0.995185 H 15.86239 V 63.4347 Z"
         id="path10993" />
      <path
         d="m 18.318938,63.4347 v 0.363008 h -0.590196 v 0.995184 H 17.276834 V 63.797708 H 16.689107 V 63.4347 Z"
         id="path10995" />
      <path
         d="m 20.484637,63.4347 v 0.587727 q 0,0.113594 -0.08149,0.192616 -0.07902,0.07902 -0.190147,0.07902 h -0.634646 v 0.135819 h 0.906284 v 0.363007 h -1.358192 v -0.587726 q 0,-0.113594 0.07902,-0.192617 0.07902,-0.07902 0.192617,-0.07902 H 20.03273 V 63.797708 H 19.126445 V 63.4347 Z"
         id="path10997" />
    </g>
    <g
       aria-label="Output 1 "
       id="text741-5"
       style="font-size:2.46944px;line-height:1.25;font-family:Excluded;-inkscape-font-specification:'Excluded, Normal';display:inline;fill:#ffffff;stroke-width:0.264583"
       transform="matrix(0.92373252,0,0,0.92373252,-1.377672,1.9298591)">
      <path
         d="M 9.8591932,26.299018 V 25.666841 H 9.1331778 v 0.632177 z m 0.1802688,-0.995185 q 0.113595,0 0.192617,0.07902 0.07902,0.07902 0.07902,0.192616 v 0.814915 q 0,0.113594 -0.07902,0.192616 -0.07902,0.07902 -0.192617,0.07902 H 8.9529087 q -0.1135942,0 -0.1926163,-0.07902 -0.079022,-0.07902 -0.079022,-0.192616 v -0.814915 q 0,-0.113594 0.079022,-0.192616 0.079022,-0.07902 0.1926163,-0.07902 z"
         id="path11030" />
      <path
         d="m 12.278704,25.303833 v 1.086554 q 0,0.113594 -0.07902,0.192616 -0.07902,0.07902 -0.192616,0.07902 h -1.086554 q -0.113594,0 -0.192616,-0.07902 -0.07902,-0.07902 -0.07902,-0.192616 v -1.086554 h 0.451907 v 0.995185 h 0.726016 v -0.995185 z"
         id="path11032" />
      <path
         d="m 14.283349,25.303833 v 0.363008 h -0.590196 v 0.995184 h -0.451907 v -0.995184 h -0.587727 v -0.363008 z"
         id="path11034" />
      <path
         d="m 15.971906,25.303833 q 0.113594,0 0.192616,0.07902 0.07902,0.07902 0.07902,0.192616 v 0.363008 q 0,0.111124 -0.07902,0.192616 -0.07902,0.07902 -0.192616,0.07902 h -0.906285 v 0.451907 h -0.451907 v -1.358192 z m -0.180269,0.543277 v -0.180269 h -0.726016 v 0.180269 z"
         id="path11036" />
      <path
         d="m 18.211148,25.303833 v 1.086554 q 0,0.113594 -0.07902,0.192616 -0.07902,0.07902 -0.192616,0.07902 h -1.086554 q -0.113594,0 -0.192616,-0.07902 -0.07902,-0.07902 -0.07902,-0.192616 v -1.086554 h 0.451907 v 0.995185 h 0.726015 v -0.995185 z"
         id="path11038" />
      <path
         d="m 20.215793,25.303833 v 0.363008 h -0.590196 v 0.995184 h -0.451908 v -0.995184 h -0.587726 v -0.363008 z"
         id="path11040" />
      <path
         d="m 21.798704,25.303833 v 1.358192 h -0.451908 v -0.995184 h -0.363008 v -0.363008 z"
         id="path11042" />
    </g>
    <g
       aria-label="Output 2 "
       id="text741-5-6"
       style="font-size:2.46944px;line-height:1.25;font-family:Excluded;-inkscape-font-specification:'Excluded, Normal';display:inline;fill:#ffffff;stroke-width:0.264583"
       transform="matrix(0.92699228,0,0,0.92699228,-1.4273505,2.775324)">
      <path
         d="M 9.5677989,39.009307 V 38.37713 H 8.8417836 v 0.632177 z m 0.1802692,-0.995185 q 0.1135942,0 0.1926163,0.07902 0.079022,0.07902 0.079022,0.192616 v 0.814915 q 0,0.113594 -0.079022,0.192616 -0.079022,0.07902 -0.1926163,0.07902 H 8.6615145 q -0.1135943,0 -0.1926164,-0.07902 -0.079022,-0.07902 -0.079022,-0.192616 v -0.814915 q 0,-0.113594 0.079022,-0.192616 0.079022,-0.07902 0.1926164,-0.07902 z"
         id="path11015" />
      <path
         d="m 11.98731,38.014122 v 1.086554 q 0,0.113594 -0.07902,0.192616 -0.07902,0.07902 -0.192616,0.07902 H 10.62912 q -0.113594,0 -0.192616,-0.07902 -0.07902,-0.07902 -0.07902,-0.192616 v -1.086554 h 0.451907 v 0.995185 h 0.726015 v -0.995185 z"
         id="path11017" />
      <path
         d="m 13.991955,38.014122 v 0.363008 h -0.590196 v 0.995184 H 12.949851 V 38.37713 h -0.587726 v -0.363008 z"
         id="path11019" />
      <path
         d="m 15.680512,38.014122 q 0.113594,0 0.192616,0.07902 0.07902,0.07902 0.07902,0.192616 v 0.363008 q 0,0.111124 -0.07902,0.192616 -0.07902,0.07902 -0.192616,0.07902 h -0.906285 v 0.451907 H 14.32232 v -1.358192 z m -0.180269,0.543277 V 38.37713 h -0.726016 v 0.180269 z"
         id="path11021" />
      <path
         d="m 17.919754,38.014122 v 1.086554 q 0,0.113594 -0.07902,0.192616 -0.07902,0.07902 -0.192617,0.07902 h -1.086553 q -0.113595,0 -0.192617,-0.07902 -0.07902,-0.07902 -0.07902,-0.192616 v -1.086554 h 0.451908 v 0.995185 h 0.726015 v -0.995185 z"
         id="path11023" />
      <path
         d="m 19.924399,38.014122 v 0.363008 h -0.590196 v 0.995184 H 18.882295 V 38.37713 h -0.587727 v -0.363008 z"
         id="path11025" />
      <path
         d="m 22.090097,38.014122 v 0.587727 q 0,0.113594 -0.08149,0.192616 -0.07902,0.07902 -0.190147,0.07902 h -0.634646 v 0.135819 h 0.906284 v 0.363007 h -1.358192 v -0.587726 q 0,-0.113595 0.07902,-0.192617 0.07902,-0.07902 0.192617,-0.07902 H 21.63819 V 38.37713 h -0.906285 v -0.363008 z"
         id="path11027" />
    </g>
    <g
       aria-label="Output 3 "
       id="text741-5-4"
       style="font-size:2.46944px;line-height:1.25;font-family:Excluded;-inkscape-font-specification:'Excluded, Normal';display:inline;fill:#ffffff;stroke-width:0.264583"
       transform="matrix(0.85406582,0,0,0.85406582,-0.3159518,7.4024232)">
      <path
         d="M 9.5665639,51.719596 V 51.087419 H 8.8405486 v 0.632177 z M 9.746833,50.724411 q 0.1135943,0 0.1926164,0.07902 0.079022,0.07902 0.079022,0.192616 v 0.814915 q 0,0.113594 -0.079022,0.192616 -0.079022,0.07902 -0.1926164,0.07902 H 8.6602795 q -0.1135943,0 -0.1926164,-0.07902 -0.079022,-0.07902 -0.079022,-0.192616 V 50.99605 q 0,-0.113594 0.079022,-0.192616 0.079022,-0.07902 0.1926164,-0.07902 z"
         id="path11000" />
      <path
         d="m 11.986075,50.724411 v 1.086554 q 0,0.113594 -0.07902,0.192616 -0.07902,0.07902 -0.192616,0.07902 h -1.086554 q -0.113594,0 -0.192616,-0.07902 -0.07902,-0.07902 -0.07902,-0.192616 v -1.086554 h 0.451907 v 0.995185 h 0.726015 v -0.995185 z"
         id="path11002" />
      <path
         d="m 13.99072,50.724411 v 0.363008 h -0.590196 v 0.995184 H 12.948616 V 51.087419 H 12.36089 v -0.363008 z"
         id="path11004" />
      <path
         d="m 15.679277,50.724411 q 0.113594,0 0.192616,0.07902 0.07902,0.07902 0.07902,0.192616 v 0.363008 q 0,0.111124 -0.07902,0.192616 -0.07902,0.07902 -0.192616,0.07902 h -0.906285 v 0.451907 h -0.451907 v -1.358192 z m -0.180269,0.543277 v -0.180269 h -0.726016 v 0.180269 z"
         id="path11006" />
      <path
         d="m 17.918519,50.724411 v 1.086554 q 0,0.113594 -0.07902,0.192616 -0.07902,0.07902 -0.192617,0.07902 h -1.086553 q -0.113595,0 -0.192617,-0.07902 -0.07902,-0.07902 -0.07902,-0.192616 V 50.724411 H 16.7406 v 0.995185 h 0.726015 v -0.995185 z"
         id="path11008" />
      <path
         d="m 19.923164,50.724411 v 0.363008 h -0.590196 v 0.995184 H 18.88106 v -0.995184 h -0.587727 v -0.363008 z"
         id="path11010" />
      <path
         d="m 22.091332,50.99605 v 0.814915 q 0,0.113594 -0.07902,0.192616 -0.07902,0.07902 -0.192617,0.07902 H 20.73314 v -0.363007 h 0.906284 V 51.583777 H 20.73314 v -0.360539 h 0.906284 V 51.087419 H 20.73314 v -0.363008 h 1.086553 q 0.113595,0 0.192617,0.07902 0.07902,0.07902 0.07902,0.192616 z m -1.358192,0.698851 z"
         id="path11012" />
    </g>
    <g
       aria-label="Output 4 "
       id="text741-5-1"
       style="font-size:2.46944px;line-height:1.25;font-family:Excluded;-inkscape-font-specification:'Excluded, Normal';display:inline;fill:#ffffff;stroke-width:0.264583"
       transform="matrix(0.92696158,0,0,0.92696158,-1.4268827,5.561509)">
      <path
         d="M 9.570269,77.140174 V 76.507997 H 8.8442536 v 0.632177 z m 0.1802691,-0.995185 q 0.1135942,0 0.1926163,0.07902 0.079022,0.07902 0.079022,0.192616 v 0.814915 q 0,0.113594 -0.079022,0.192616 -0.079022,0.07902 -0.1926163,0.07902 H 8.6639845 q -0.1135943,0 -0.1926163,-0.07902 -0.079022,-0.07902 -0.079022,-0.192616 v -0.814915 q 0,-0.113594 0.079022,-0.192616 0.079022,-0.07902 0.1926163,-0.07902 z"
         id="path10972" />
      <path
         d="m 11.98978,76.144989 v 1.086554 q 0,0.113594 -0.07902,0.192616 -0.07902,0.07902 -0.192616,0.07902 H 10.63159 q -0.113594,0 -0.192616,-0.07902 -0.07902,-0.07902 -0.07902,-0.192616 v -1.086554 h 0.451907 v 0.995185 h 0.726015 v -0.995185 z"
         id="path10974" />
      <path
         d="m 13.994425,76.144989 v 0.363008 h -0.590196 v 0.995184 h -0.451908 v -0.995184 h -0.587726 v -0.363008 z"
         id="path10976" />
      <path
         d="m 15.682982,76.144989 q 0.113594,0 0.192616,0.07902 0.07902,0.07902 0.07902,0.192616 v 0.363008 q 0,0.111124 -0.07902,0.192616 -0.07902,0.07902 -0.192616,0.07902 h -0.906285 v 0.451907 H 14.32479 v -1.358192 z m -0.180269,0.543277 v -0.180269 h -0.726016 v 0.180269 z"
         id="path10978" />
      <path
         d="m 17.922224,76.144989 v 1.086554 q 0,0.113594 -0.07902,0.192616 -0.07902,0.07902 -0.192617,0.07902 h -1.086553 q -0.113595,0 -0.192617,-0.07902 -0.07902,-0.07902 -0.07902,-0.192616 v -1.086554 h 0.451908 v 0.995185 h 0.726015 v -0.995185 z"
         id="path10980" />
      <path
         d="m 19.926869,76.144989 v 0.363008 h -0.590196 v 0.995184 h -0.451908 v -0.995184 h -0.587726 v -0.363008 z"
         id="path10982" />
      <path
         d="m 22.087628,76.144989 v 1.358192 h -0.451907 v -0.498826 h -0.634646 q -0.113594,0 -0.192617,-0.07902 -0.07902,-0.07902 -0.07902,-0.192617 v -0.587727 h 0.451908 v 0.498827 h 0.454377 v -0.498827 z"
         id="path10984" />
    </g>
    <g
       aria-label="Output 5 "
       id="text741-5-7"
       style="font-size:2.46944px;line-height:1.25;font-family:Excluded;-inkscape-font-specification:'Excluded, Normal';display:inline;fill:#ffffff;stroke-width:0.264583"
       transform="matrix(0.92704406,0,0,0.92704406,-1.4281401,6.48252)">
      <path
         d="M 9.5665639,89.850463 V 89.218286 H 8.8405486 v 0.632177 z M 9.746833,88.855278 q 0.1135943,0 0.1926164,0.07902 0.079022,0.07902 0.079022,0.192616 v 0.814915 q 0,0.113594 -0.079022,0.192616 -0.079022,0.07902 -0.1926164,0.07902 H 8.6602795 q -0.1135943,0 -0.1926164,-0.07902 -0.079022,-0.07902 -0.079022,-0.192616 v -0.814915 q 0,-0.113594 0.079022,-0.192616 0.079022,-0.07902 0.1926164,-0.07902 z"
         id="path10957" />
      <path
         d="m 11.986075,88.855278 v 1.086554 q 0,0.113594 -0.07902,0.192616 -0.07902,0.07902 -0.192616,0.07902 h -1.086554 q -0.113594,0 -0.192616,-0.07902 -0.07902,-0.07902 -0.07902,-0.192616 v -1.086554 h 0.451907 v 0.995185 h 0.726015 v -0.995185 z"
         id="path10959" />
      <path
         d="m 13.99072,88.855278 v 0.363008 H 13.400524 V 90.21347 H 12.948616 V 89.218286 H 12.36089 v -0.363008 z"
         id="path10961" />
      <path
         d="m 15.679277,88.855278 q 0.113594,0 0.192616,0.07902 0.07902,0.07902 0.07902,0.192616 v 0.363008 q 0,0.111124 -0.07902,0.192616 -0.07902,0.07902 -0.192616,0.07902 h -0.906285 v 0.451907 h -0.451907 v -1.358192 z m -0.180269,0.543277 v -0.180269 h -0.726016 v 0.180269 z"
         id="path10963" />
      <path
         d="m 17.918519,88.855278 v 1.086554 q 0,0.113594 -0.07902,0.192616 -0.07902,0.07902 -0.192617,0.07902 h -1.086553 q -0.113595,0 -0.192617,-0.07902 -0.07902,-0.07902 -0.07902,-0.192616 V 88.855278 H 16.7406 v 0.995185 h 0.726015 v -0.995185 z"
         id="path10965" />
      <path
         d="m 19.923164,88.855278 v 0.363008 H 19.332968 V 90.21347 H 18.88106 v -0.995184 h -0.587727 v -0.363008 z"
         id="path10967" />
      <path
         d="m 21.185047,89.218286 v 0.135819 h 0.634646 q 0.113595,0 0.192617,0.07902 0.07902,0.07902 0.07902,0.192617 v 0.587728 h -1.35819 v -0.363007 h 0.906284 v -0.135819 h -0.634646 q -0.113594,0 -0.192616,-0.07902 -0.07902,-0.07902 -0.07902,-0.192617 V 88.85528 h 1.358192 v 0.363008 z"
         id="path10969" />
    </g>
    <g
       aria-label="Output 6 "
       id="text741-5-9"
       style="font-size:2.46944px;line-height:1.25;font-family:Excluded;-inkscape-font-specification:'Excluded, Normal';display:inline;fill:#ffffff;stroke-width:0.264583"
       transform="matrix(0.92704406,0,0,0.92704406,-1.4281401,7.4098096)">
      <path
         d="m 9.5665639,102.56076 v -0.63218 H 8.8405486 v 0.63218 z m 0.1802691,-0.99518 q 0.1135943,0 0.1926164,0.079 0.079022,0.079 0.079022,0.19261 v 0.81492 q 0,0.11359 -0.079022,0.19262 -0.079022,0.079 -0.1926164,0.079 H 8.6602795 q -0.1135943,0 -0.1926164,-0.079 -0.079022,-0.079 -0.079022,-0.19262 v -0.81492 q 0,-0.11359 0.079022,-0.19261 0.079022,-0.079 0.1926164,-0.079 z"
         id="path10942" />
      <path
         d="m 11.986075,101.56558 v 1.08655 q 0,0.11359 -0.07902,0.19262 -0.07902,0.079 -0.192616,0.079 h -1.086554 q -0.113594,0 -0.192616,-0.079 -0.07902,-0.079 -0.07902,-0.19262 v -1.08655 h 0.451907 v 0.99518 h 0.726015 v -0.99518 z"
         id="path10944" />
      <path
         d="m 13.99072,101.56558 v 0.363 h -0.590196 v 0.99519 h -0.451908 v -0.99519 H 12.36089 v -0.363 z"
         id="path10946" />
      <path
         d="m 15.679277,101.56558 q 0.113594,0 0.192616,0.079 0.07902,0.079 0.07902,0.19261 v 0.36301 q 0,0.11113 -0.07902,0.19262 -0.07902,0.079 -0.192616,0.079 h -0.906285 v 0.45191 h -0.451907 v -1.35819 z m -0.180269,0.54327 v -0.18027 h -0.726016 v 0.18027 z"
         id="path10948" />
      <path
         d="m 17.918519,101.56558 v 1.08655 q 0,0.11359 -0.07902,0.19262 -0.07902,0.079 -0.192617,0.079 h -1.086553 q -0.113595,0 -0.192617,-0.079 -0.07902,-0.079 -0.07902,-0.19262 v -1.08655 H 16.7406 v 0.99518 h 0.726015 v -0.99518 z"
         id="path10950" />
      <path
         d="m 19.923164,101.56558 v 0.363 h -0.590196 v 0.99519 H 18.88106 v -0.99519 h -0.587727 v -0.363 z"
         id="path10952" />
      <path
         d="m 22.091332,101.92858 h -0.906285 v 0.13582 h 0.906285 v 0.85937 h -1.086554 q -0.113594,0 -0.192616,-0.079 -0.07902,-0.079 -0.07902,-0.19262 v -1.08655 h 1.358192 z m -0.451908,0.49636 h -0.454377 v 0.13582 h 0.454377 z"
         id="path10954" />
    </g>
    <path
       d="m 15.333102,116.03451 c -0.03019,0.0358 -0.05506,0.0932 -0.05506,0.12674 0,0.034 -0.01135,0.0614 -0.0249,0.0615 -0.02991,0 -0.108083,0.17575 -0.108083,0.2424 v 0.0479 h -0.0332 -0.0332 v 0.0728 0.0728 h -0.03317 -0.0332 v 0.0728 0.0728 h -0.0332 -0.03322 v 0.0529 c 0,0.0295 -0.03218,0.11489 -0.07154,0.19024 -0.03936,0.0761 -0.128222,0.25694 -0.197513,0.4035 -0.06935,0.14654 -0.149739,0.29506 -0.178775,0.33006 l -0.05272,0.0633 0.0087,0.53955 0.009,0.53958 0.557443,0.01 0.557443,0.01 -0.0222,0.0987 c -0.01217,0.0541 -0.03483,0.10418 -0.05028,0.11084 -0.01558,0.008 -0.02813,0.0435 -0.02813,0.0811 v 0.0694 h -0.0332 -0.03317 v 0.0502 c 0,0.061 -0.138674,0.36045 -0.174599,0.37786 -0.01375,0.008 -0.0249,0.0336 -0.0249,0.0587 0,0.0251 -0.0598,0.17314 -0.133025,0.32811 -0.07319,0.15497 -0.133026,0.30397 -0.133026,0.33111 0,0.027 -0.01135,0.0493 -0.02541,0.0493 -0.014,0 -0.05232,0.0619 -0.08502,0.13587 -0.0329,0.0754 -0.09605,0.20924 -0.140537,0.29892 -0.08317,0.16767 -0.0964,0.24166 -0.06128,0.34127 l 0.02026,0.0575 h 0.05634 c 0.03096,0 0.07054,0.014 0.08781,0.0317 0.04553,0.0454 0.481437,0.29488 0.514404,0.29488 0.02971,0 0.13238,-0.20482 0.13238,-0.26402 0,-0.0202 0.02612,-0.0627 0.05822,-0.0943 0.07498,-0.0767 0.14134,-0.2052 0.14134,-0.27512 v -0.0547 h 0.0332 0.03317 v -0.0728 -0.0728 h 0.03322 0.0332 v -0.0728 -0.0728 h 0.0308 c 0.03556,0 0.135452,-0.20468 0.135452,-0.27729 v -0.0488 h 0.0332 0.0332 v -0.0728 -0.0728 h 0.0332 0.03317 v -0.0728 -0.0728 h 0.03322 0.0332 v -0.0849 -0.0848 l 0.165414,-0.35407 0.165462,-0.35405 0.07032,-0.0659 0.07031,-0.0659 0.0077,-0.35535 c 0.0053,-0.19538 0.0025,-0.43274 -0.007,-0.52738 l -0.0147,-0.17214 h -0.521385 -0.522074 l -0.03496,-0.0375 -0.03495,-0.0375 0.01558,-0.0893 0.01558,-0.0893 h 0.02935 0.02938 v -0.0728 -0.0728 h 0.0332 0.0332 l 0.0036,-0.0637 c 0.0025,-0.035 0.04646,-0.14496 0.09948,-0.24462 0.05306,-0.0996 0.10586,-0.20966 0.117286,-0.24453 0.01135,-0.035 0.03401,-0.0635 0.05005,-0.0635 h 0.02938 v -0.05 c 0,-0.0279 0.04488,-0.14369 0.09977,-0.25736 l 0.09977,-0.20665 v -0.0873 -0.0873 h -0.06658 -0.06657 v -0.027 c 0,-0.0335 -0.161542,-0.11777 -0.223543,-0.11777 h -0.04426 l -0.01905,-0.0541 -0.01904,-0.0541 h -0.06099 c -0.03353,0 -0.07027,-0.0165 -0.08159,-0.0356 l -0.02041,-0.0357 h -0.07607 -0.07604 l -0.05512,0.0657 m -6.3816139,0.53844 -0.058199,0.017 v 1.64148 1.64148 l 0.1039032,0.0222 0.1039256,0.022 h 0.9351521 0.935265 l 0.07604,-0.0218 0.07607,-0.0217 -0.0093,-0.33056 -0.0093,-0.33062 -0.736218,-0.01 -0.7361936,-0.01 -0.01979,-0.0804 -0.01979,-0.0803 v -1.21906 -1.21906 l -0.052599,-0.0212 c -0.059169,-0.0243 -0.4979764,-0.0221 -0.5875187,0.003 m -3.2363913,0.0599 c -0.0093,0.0263 -0.012679,0.19363 -0.0074,0.37138 l 0.00978,0.32327 0.8085077,0.01 0.8085087,0.01 0.081025,0.0888 0.081025,0.0888 v 0.0764 0.0762 l -0.081025,0.0888 -0.081025,0.0888 -0.8085087,0.01 -0.8085077,0.01 v 0.41668 0.41671 l 0.8131988,0.01 0.8132436,0.01 0.076336,0.0776 0.076289,0.0778 v 0.0737 0.0737 l -0.089341,0.10162 -0.089365,0.10164 H 6.5098486 5.7000952 l 0.00955,0.33516 0.00955,0.33516 1.0128691,0.01 1.0128702,0.01 0.1011469,-0.052 c 0.1619682,-0.0841 0.3837811,-0.37872 0.3837811,-0.50971 v -0.0547 h 0.033259 0.033279 v -0.0728 -0.0728 h 0.03323 0.033259 v -0.27174 -0.27179 h -0.033259 -0.03323 v -0.0728 -0.0728 h -0.03328 -0.033258 v -0.0547 c 0,-0.0305 -0.01868,-0.0899 -0.041549,-0.13154 l -0.04159,-0.0771 0.04159,-0.0168 c 0.02285,-0.01 0.041549,-0.0359 0.041549,-0.0611 0,-0.0637 0.078917,-0.23912 0.1080827,-0.23946 h 0.024939 v -0.24864 -0.24861 l -0.1320868,-0.28055 -0.1320924,-0.27981 -0.09132,-0.0778 c -0.050219,-0.0434 -0.127156,-0.0989 -0.1709938,-0.12389 l -0.079679,-0.0457 H 6.7452207 5.7337286 l -0.016891,0.0484 m 5.8800844,0.0117 -0.04147,0.0188 v 1.22679 1.22683 l 0.03317,0.0219 0.0332,0.0218 v 0.0703 0.0704 h 0.0332 0.03317 v 0.0538 0.0538 l 0.196672,0.21761 0.196668,0.21764 h 0.05269 0.05269 v 0.0359 0.0356 h 0.06454 0.06456 l 0.02043,0.0359 0.02039,0.0357 h 0.445003 0.445002 l 0.0204,-0.0357 0.02041,-0.0359 h 0.06456 0.06454 v -0.0356 -0.0359 h 0.05474 0.05471 l 0.19469,-0.22296 0.194692,-0.22292 v -0.049 -0.049 h 0.03317 0.0332 v -0.0728 -0.0728 h 0.03322 0.0332 v -1.24941 -1.2494 l -0.07551,-0.0207 c -0.04147,-0.0109 -0.179953,-0.016 -0.307598,-0.01 l -0.232083,0.0104 -0.0079,1.14668 -0.0079,1.14669 -0.136492,0.14869 -0.136448,0.1487 h -0.34141 -0.341233 l -0.137027,-0.14491 -0.137025,-0.14487 v -1.13758 -1.13752 l -0.0526,-0.0215 c -0.06214,-0.0257 -0.477612,-0.0239 -0.537679,0.003 m 5.519865,0.003 -0.07512,0.016 0.0079,1.65514 0.0079,1.6552 h 0.332543 0.332537 l 0.01665,-0.60407 0.01665,-0.60404 0.02752,-0.0304 0.02755,-0.0304 0.436311,-0.0117 0.43631,-0.0117 0.142206,0.0226 0.142182,0.0225 0.0087,0.62298 0.0086,0.62298 h 0.349146 0.34919 l 0.0079,-1.65312 0.0079,-1.65315 -0.104263,-0.0222 c -0.05733,-0.0122 -0.183711,-0.022 -0.280836,-0.022 h -0.176232 l -0.08455,0.0349 -0.08455,0.0352 -0.0087,0.60816 -0.0087,0.60817 -0.565156,0.01 -0.565152,0.01 -0.04168,-0.0627 -0.0417,-0.0624 v -0.56862 -0.56857 l -0.0749,-0.0216 c -0.08207,-0.0234 -0.429797,-0.0219 -0.549015,0.003 m 0.06415,3.75449 -0.105439,0.11852 v 0.0688 0.0687 l 0.03994,-0.0437 0.03993,-0.0437 h 0.143007 0.143003 v 0.0359 c 0,0.0204 0.01483,0.0358 0.03317,0.0358 h 0.0332 v -0.0635 -0.0635 l -0.11035,-0.11678 -0.110374,-0.1168 -0.105434,0.11852 m 0.526384,0.01 v 0.1294 l 0.04748,0.0512 0.04748,0.0511 h 0.140026 0.140072 l 0.04419,-0.0634 0.04416,-0.0632 v -0.0975 -0.0975 l -0.03126,-0.0211 -0.03126,-0.0211 -0.01047,0.13661 -0.01047,0.13663 -0.157946,0.0107 -0.157968,0.0107 v -0.14692 -0.14693 h -0.0332 -0.0332 v 0.12941 m 0.654011,-0.10526 c -0.01217,0.0132 -0.0222,0.0946 -0.0222,0.18118 v 0.15697 h 0.185289 0.185266 l 0.04751,-0.0511 0.04748,-0.0512 v -0.0774 -0.0772 l -0.04748,-0.0511 -0.04751,-0.0511 h -0.163026 c -0.08969,0 -0.173086,0.0104 -0.185268,0.0236 m 0.64292,0.15703 v 0.18544 l 0.0332,-0.022 0.0332,-0.0219 v -0.14062 -0.14068 l -0.0332,-0.0219 -0.0332,-0.0217 v 0.18545 m 0.27434,-0.127 -0.04151,0.0508 v 0.0768 0.0769 l 0.04748,0.0512 0.04748,0.0511 h 0.137758 0.137784 l 0.04748,-0.0511 0.04745,-0.0512 v -0.0776 -0.0776 l -0.04745,-0.0511 -0.04748,-0.0511 -0.143718,0.003 -0.143697,0.003 -0.04151,0.0507 m -1.903805,0.14248 c 0,0.0109 -0.03735,0.0209 -0.0832,0.0209 h -0.0832 v -0.0291 c 0,-0.0163 0.01716,-0.0482 0.03778,-0.0701 l 0.03775,-0.041 0.04542,0.0491 c 0.02492,0.0271 0.04543,0.0591 0.04543,0.0702 m 1.363417,-0.0158 v 0.10872 h -0.165598 -0.166259 v -0.0846 c 0,-0.11666 0.02305,-0.13285 0.188446,-0.13285 h 0.144071 v 0.10869 m 0.897875,0 v 0.10822 h -0.16612 -0.166257 v -0.1087 -0.10871 h 0.166257 0.166281 v 0.10871"
       id="gge1502"
       stroke="none"
       layerid="3"
       style="display:inline;fill:#ffffff;fill-opacity:1;stroke:none;stroke-width:0.222301;stroke-linecap:round;stroke-linejoin:round;shape-rendering:crispEdges" />
    <g
       aria-label="Buff Mult"
       id="text3019"
       style="font-size:3.52778px;line-height:1.25;font-family:Excluded;-inkscape-font-specification:'Excluded, Normal';display:inline;fill:#ffffff;stroke-width:0.264583"
       transform="matrix(0.90898665,0,0,0.90898665,-1.1182716,-152.45548)">
      <path
         d="m 5.606198,176.28746 q 0.1622779,0 0.2751669,0.11289 0.1128889,0.11289 0.1128889,0.27516 v 0.39864 q 0,0.0564 -0.038806,0.11289 -0.035278,0.0529 -0.091722,0.0706 0.056445,0.0176 0.091722,0.0741 0.038806,0.0529 0.038806,0.10936 v 0.39864 q 0,0.16228 -0.1128889,0.27517 -0.112889,0.11289 -0.2751669,0.11289 H 3.665919 v -1.94028 z m -0.2575279,1.42169 v -0.19402 H 4.3115028 v 0.19402 z m 0,-0.70908 v -0.19403 H 4.3115028 v 0.19403 z"
         id="path407" />
      <path
         d="m 8.8051227,176.28746 v 1.55222 q 0,0.16228 -0.1128889,0.27517 -0.112889,0.11289 -0.2751669,0.11289 H 6.8648437 q -0.1622779,0 -0.2751668,-0.11289 -0.112889,-0.11289 -0.112889,-0.27517 v -1.55222 h 0.6455838 v 1.42169 H 8.159539 v -1.42169 z"
         id="path409" />
      <path
         d="m 9.9614628,176.80604 v 0.25753 h 1.4252232 v 0.51858 H 9.9614628 v 0.64559 H 9.315879 v -1.55223 q 0,-0.16227 0.112889,-0.27516 0.112889,-0.11289 0.2751669,-0.11289 h 1.9402791 v 0.51858 z"
         id="path411" />
      <path
         d="m 12.786443,176.80604 v 0.25753 h 1.425223 v 0.51858 h -1.425223 v 0.64559 h -0.645584 v -1.55223 q 0,-0.16227 0.112889,-0.27516 0.112889,-0.11289 0.275167,-0.11289 h 1.940279 v 0.51858 z"
         id="path413" />
      <path
         d="m 18.254502,176.67551 v 1.55223 H 17.60539 v -1.016 l -0.645584,1.016 -0.645583,-1.016 v 1.016 h -0.649112 v -1.55223 q 0,-0.16227 0.112889,-0.27516 0.116417,-0.11289 0.275167,-0.11289 h 0.28575 l 0.620889,0.97719 0.62089,-0.97719 h 0.28575 q 0.15875,0 0.271639,0.11289 0.116417,0.11289 0.116417,0.27516 z"
         id="path415" />
      <path
         d="m 21.049,176.28746 v 1.55222 q 0,0.16228 -0.112889,0.27517 -0.112889,0.11289 -0.275167,0.11289 h -1.552223 q -0.162278,0 -0.275167,-0.11289 -0.112889,-0.11289 -0.112889,-0.27517 v -1.55222 h 0.645584 v 1.42169 h 1.037167 v -1.42169 z"
         id="path417" />
      <path
         d="m 23.888091,177.70915 v 0.51859 h -1.940279 q -0.162278,0 -0.275167,-0.11289 -0.112889,-0.11289 -0.112889,-0.27517 v -1.55222 h 0.645584 v 1.42169 z"
         id="path419" />
      <path
         d="m 26.737765,176.28746 v 0.51858 h -0.843139 v 1.4217 h -0.645584 v -1.4217 H 24.40943 v -0.51858 z"
         id="path421" />
    </g>
  </g>
</svg>
