<?xml version="1.0" encoding="UTF-8" standalone="no"?>
<!-- Created with Inkscape (http://www.inkscape.org/) -->

<svg
   width="30.48mm"
   height="128.5mm"
   viewBox="0 0 30.480002 128.50002"
   version="1.1"
   id="svg8"
   inkscape:version="1.1.2 (b8e25be8, 2022-02-05)"
   sodipodi:docname="BuffMult.svg"
   xmlns:inkscape="http://www.inkscape.org/namespaces/inkscape"
   xmlns:sodipodi="http://sodipodi.sourceforge.net/DTD/sodipodi-0.dtd"
   xmlns="http://www.w3.org/2000/svg"
   xmlns:svg="http://www.w3.org/2000/svg"
   xmlns:rdf="http://www.w3.org/1999/02/22-rdf-syntax-ns#"
   xmlns:cc="http://creativecommons.org/ns#"
   xmlns:dc="http://purl.org/dc/elements/1.1/">
  <defs
     id="defs2" />
  <sodipodi:namedview
     id="base"
     pagecolor="#ffffff"
     bordercolor="#666666"
     borderopacity="1.0"
     inkscape:pageopacity="0.0"
     inkscape:pageshadow="2"
     inkscape:zoom="1.2965455"
     inkscape:cx="128.41817"
     inkscape:cy="263.77786"
     inkscape:document-units="mm"
     inkscape:current-layer="layer3"
     showgrid="false"
     units="mm"
     inkscape:snap-bbox="true"
     inkscape:snap-page="true"
     inkscape:bbox-nodes="false"
     inkscape:snap-bbox-edge-midpoints="false"
     inkscape:window-width="1920"
     inkscape:window-height="956"
     inkscape:window-x="1920"
     inkscape:window-y="25"
     inkscape:window-maximized="0"
     inkscape:snap-bbox-midpoints="true"
     inkscape:snap-nodes="false"
     inkscape:pagecheckerboard="0" />
  <metadata
     id="metadata5">
    <rdf:RDF>
      <cc:Work
         rdf:about="">
        <dc:format>image/svg+xml</dc:format>
        <dc:type
           rdf:resource="http://purl.org/dc/dcmitype/StillImage" />
        <dc:title />
      </cc:Work>
    </rdf:RDF>
  </metadata>
  <g
     inkscape:label="Layer 1"
     inkscape:groupmode="layer"
     id="layer1"
     transform="translate(0,-168.49998)"
     style="display:inline">
    <rect
       style="display:inline;opacity:1;vector-effect:none;fill:#000000;fill-opacity:1;fill-rule:evenodd;stroke:none;stroke-width:0.649358;stroke-linecap:butt;stroke-linejoin:miter;stroke-miterlimit:4;stroke-dasharray:none;stroke-dashoffset:0;stroke-opacity:1;paint-order:normal"
       id="rect420"
       width="30.48"
       height="128.5"
       x="5.9211732e-17"
       y="168.49997" />
  </g>
  <g
     inkscape:groupmode="layer"
     id="layer2"
     inkscape:label="components"
     style="display:none">
    <circle
       r="4"
       cy="69.639145"
       cx="15.24"
       id="circle4956"
       style="display:inline;opacity:1;vector-effect:none;fill:#00ff00;fill-opacity:1;fill-rule:evenodd;stroke:none;stroke-width:1;stroke-linecap:butt;stroke-linejoin:miter;stroke-miterlimit:4;stroke-dasharray:none;stroke-dashoffset:0;stroke-opacity:1;paint-order:normal"
       inkscape:label="AudioCVIn2" />
    <circle
       style="display:inline;opacity:1;vector-effect:none;fill:#0000ff;fill-opacity:1;fill-rule:evenodd;stroke:none;stroke-width:1;stroke-linecap:butt;stroke-linejoin:miter;stroke-miterlimit:4;stroke-dasharray:none;stroke-dashoffset:0;stroke-opacity:1;paint-order:normal"
       id="circle4958"
       cx="15.24"
       cy="107.81326"
       r="4"
       inkscape:label="AudioCVOut6" />
    <circle
       r="4"
       cy="18.740318"
       cx="15.24"
       id="circle527"
       style="display:inline;opacity:1;vector-effect:none;fill:#00ff00;fill-opacity:1;fill-rule:evenodd;stroke:none;stroke-width:1;stroke-linecap:butt;stroke-linejoin:miter;stroke-miterlimit:4;stroke-dasharray:none;stroke-dashoffset:0;stroke-opacity:1;paint-order:normal"
       inkscape:label="AudioCVIn1" />
    <circle
       r="4"
       cy="31.465025"
       cx="15.24"
       id="circle529"
       style="display:inline;opacity:1;vector-effect:none;fill:#0000ff;fill-opacity:1;fill-rule:evenodd;stroke:none;stroke-width:1;stroke-linecap:butt;stroke-linejoin:miter;stroke-miterlimit:4;stroke-dasharray:none;stroke-dashoffset:0;stroke-opacity:1;paint-order:normal"
       inkscape:label="AudioCVOut1" />
    <circle
       r="4"
       cy="44.189732"
       cx="15.24"
       id="circle531"
       style="display:inline;opacity:1;vector-effect:none;fill:#0000ff;fill-opacity:1;fill-rule:evenodd;stroke:none;stroke-width:1;stroke-linecap:butt;stroke-linejoin:miter;stroke-miterlimit:4;stroke-dasharray:none;stroke-dashoffset:0;stroke-opacity:1;paint-order:normal"
       inkscape:label="AudioCVOut2" />
    <circle
       r="4"
       cy="82.363853"
       cx="15.24"
       id="circle533"
       style="display:inline;opacity:1;vector-effect:none;fill:#0000ff;fill-opacity:1;fill-rule:evenodd;stroke:none;stroke-width:1;stroke-linecap:butt;stroke-linejoin:miter;stroke-miterlimit:4;stroke-dasharray:none;stroke-dashoffset:0;stroke-opacity:1;paint-order:normal"
       inkscape:label="AudioCVOut4" />
    <circle
       r="4"
       cy="95.088539"
       cx="15.24"
       id="circle535"
       style="display:inline;opacity:1;vector-effect:none;fill:#0000ff;fill-opacity:1;fill-rule:evenodd;stroke:none;stroke-width:1;stroke-linecap:butt;stroke-linejoin:miter;stroke-miterlimit:4;stroke-dasharray:none;stroke-dashoffset:0;stroke-opacity:1;paint-order:normal"
       inkscape:label="AudioCVOut5" />
    <circle
       style="display:inline;opacity:1;vector-effect:none;fill:#0000ff;fill-opacity:1;fill-rule:evenodd;stroke:none;stroke-width:1;stroke-linecap:butt;stroke-linejoin:miter;stroke-miterlimit:4;stroke-dasharray:none;stroke-dashoffset:0;stroke-opacity:1;paint-order:normal"
       id="circle537"
       cx="15.24"
       cy="56.914436"
       r="4"
       inkscape:label="AudioCVOut3" />
  </g>
  <g
     inkscape:groupmode="layer"
     id="layer3"
     inkscape:label="text"
     style="display:inline">
    <g
       aria-label="Input 1
"
       id="text741"
       style="font-size:2.46944px;line-height:1.25;font-family:Excluded;-inkscape-font-specification:'Excluded, Normal';display:inline;fill:#ffffff;stroke-width:0.264583">
      <path
         d="m 10.286737,13.951736 v -1.358192 h 0.454377 v 1.358192 z"
         id="path11045" />
      <path
         d="m 12.660602,12.593544 v 1.086554 q 0,0.113594 -0.07902,0.192616 -0.07902,0.07902 -0.192616,0.07902 h -0.232127 l -0.674158,-0.842079 v 0.842079 h -0.451907 v -1.086553 q 0,-0.113594 0.07902,-0.192616 0.07902,-0.07902 0.192616,-0.07902 h 0.232128 l 0.674157,0.842079 v -0.842079 z"
         id="path11047" />
      <path
         d="m 14.366445,12.593544 q 0.113595,0 0.192617,0.07902 0.07902,0.07902 0.07902,0.192616 v 0.363008 q 0,0.111124 -0.07902,0.192616 -0.07902,0.07902 -0.192617,0.07902 h -0.906284 v 0.451907 h -0.451908 v -1.358192 z m -0.180269,0.543277 v -0.180269 h -0.726015 v 0.180269 z"
         id="path11049" />
      <path
         d="m 16.605687,12.593544 v 1.086554 q 0,0.113594 -0.07902,0.192616 -0.07902,0.07902 -0.192616,0.07902 h -1.086554 q -0.113594,0 -0.192616,-0.07902 -0.07902,-0.07902 -0.07902,-0.192616 v -1.086554 h 0.451907 v 0.995185 h 0.726016 v -0.995185 z"
         id="path11051" />
      <path
         d="m 18.610332,12.593544 v 0.363008 h -0.590196 v 0.995184 h -0.451908 v -0.995184 h -0.587726 v -0.363008 z"
         id="path11053" />
      <path
         d="m 20.193244,12.593544 v 1.358192 h -0.451908 v -0.995184 h -0.363008 v -0.363008 z"
         id="path11055" />
    </g>
    <g
       aria-label="Input 2
"
       id="text741-6"
       style="font-size:2.46944px;line-height:1.25;font-family:Excluded;-inkscape-font-specification:'Excluded, Normal';display:inline;fill:#ffffff;stroke-width:0.264583">
      <path
         d="M 9.9953432,64.792892 V 63.4347 H 10.44972 v 1.358192 z"
         id="path10987" />
      <path
         d="m 12.369208,63.4347 v 1.086554 q 0,0.113594 -0.07902,0.192616 -0.07902,0.07902 -0.192616,0.07902 H 11.865444 L 11.191287,63.950811 V 64.79289 H 10.73938 v -1.086553 q 0,-0.113594 0.07902,-0.192616 0.07902,-0.07902 0.192616,-0.07902 h 0.232127 l 0.674158,0.842079 V 63.4347 Z"
         id="path10989" />
      <path
         d="m 14.075051,63.4347 q 0.113594,0 0.192616,0.07902 0.07902,0.07902 0.07902,0.192616 v 0.363008 q 0,0.111124 -0.07902,0.192616 -0.07902,0.07902 -0.192616,0.07902 h -0.906284 v 0.451907 H 12.716859 V 63.4347 Z m -0.180269,0.543277 v -0.180269 h -0.726015 v 0.180269 z"
         id="path10991" />
      <path
         d="m 16.314293,63.4347 v 1.086554 q 0,0.113594 -0.07902,0.192616 -0.07902,0.07902 -0.192616,0.07902 h -1.086554 q -0.113594,0 -0.192616,-0.07902 -0.07902,-0.07902 -0.07902,-0.192616 V 63.4347 h 0.451907 v 0.995185 H 15.86239 V 63.4347 Z"
         id="path10993" />
      <path
         d="m 18.318938,63.4347 v 0.363008 h -0.590196 v 0.995184 H 17.276834 V 63.797708 H 16.689107 V 63.4347 Z"
         id="path10995" />
      <path
         d="m 20.484637,63.4347 v 0.587727 q 0,0.113594 -0.08149,0.192616 -0.07902,0.07902 -0.190147,0.07902 h -0.634646 v 0.135819 h 0.906284 v 0.363007 h -1.358192 v -0.587726 q 0,-0.113594 0.07902,-0.192617 0.07902,-0.07902 0.192617,-0.07902 H 20.03273 V 63.797708 H 19.126445 V 63.4347 Z"
         id="path10997" />
    </g>
    <g
       aria-label="Output 1
"
       id="text741-5"
       style="font-size:2.46944px;line-height:1.25;font-family:Excluded;-inkscape-font-specification:'Excluded, Normal';display:inline;fill:#ffffff;stroke-width:0.264583">
      <path
         d="M 9.8591932,26.299018 V 25.666841 H 9.1331778 v 0.632177 z m 0.1802688,-0.995185 q 0.113595,0 0.192617,0.07902 0.07902,0.07902 0.07902,0.192616 v 0.814915 q 0,0.113594 -0.07902,0.192616 -0.07902,0.07902 -0.192617,0.07902 H 8.9529087 q -0.1135942,0 -0.1926163,-0.07902 -0.079022,-0.07902 -0.079022,-0.192616 v -0.814915 q 0,-0.113594 0.079022,-0.192616 0.079022,-0.07902 0.1926163,-0.07902 z"
         id="path11030" />
      <path
         d="m 12.278704,25.303833 v 1.086554 q 0,0.113594 -0.07902,0.192616 -0.07902,0.07902 -0.192616,0.07902 h -1.086554 q -0.113594,0 -0.192616,-0.07902 -0.07902,-0.07902 -0.07902,-0.192616 v -1.086554 h 0.451907 v 0.995185 h 0.726016 v -0.995185 z"
         id="path11032" />
      <path
         d="m 14.283349,25.303833 v 0.363008 h -0.590196 v 0.995184 h -0.451907 v -0.995184 h -0.587727 v -0.363008 z"
         id="path11034" />
      <path
         d="m 15.971906,25.303833 q 0.113594,0 0.192616,0.07902 0.07902,0.07902 0.07902,0.192616 v 0.363008 q 0,0.111124 -0.07902,0.192616 -0.07902,0.07902 -0.192616,0.07902 h -0.906285 v 0.451907 h -0.451907 v -1.358192 z m -0.180269,0.543277 v -0.180269 h -0.726016 v 0.180269 z"
         id="path11036" />
      <path
         d="m 18.211148,25.303833 v 1.086554 q 0,0.113594 -0.07902,0.192616 -0.07902,0.07902 -0.192616,0.07902 h -1.086554 q -0.113594,0 -0.192616,-0.07902 -0.07902,-0.07902 -0.07902,-0.192616 v -1.086554 h 0.451907 v 0.995185 h 0.726015 v -0.995185 z"
         id="path11038" />
      <path
         d="m 20.215793,25.303833 v 0.363008 h -0.590196 v 0.995184 h -0.451908 v -0.995184 h -0.587726 v -0.363008 z"
         id="path11040" />
      <path
         d="m 21.798704,25.303833 v 1.358192 h -0.451908 v -0.995184 h -0.363008 v -0.363008 z"
         id="path11042" />
    </g>
    <g
       aria-label="Output 2
"
       id="text741-5-6"
       style="font-size:2.46944px;line-height:1.25;font-family:Excluded;-inkscape-font-specification:'Excluded, Normal';display:inline;fill:#ffffff;stroke-width:0.264583">
      <path
         d="M 9.5677989,39.009307 V 38.37713 H 8.8417836 v 0.632177 z m 0.1802692,-0.995185 q 0.1135942,0 0.1926163,0.07902 0.079022,0.07902 0.079022,0.192616 v 0.814915 q 0,0.113594 -0.079022,0.192616 -0.079022,0.07902 -0.1926163,0.07902 H 8.6615145 q -0.1135943,0 -0.1926164,-0.07902 -0.079022,-0.07902 -0.079022,-0.192616 v -0.814915 q 0,-0.113594 0.079022,-0.192616 0.079022,-0.07902 0.1926164,-0.07902 z"
         id="path11015" />
      <path
         d="m 11.98731,38.014122 v 1.086554 q 0,0.113594 -0.07902,0.192616 -0.07902,0.07902 -0.192616,0.07902 H 10.62912 q -0.113594,0 -0.192616,-0.07902 -0.07902,-0.07902 -0.07902,-0.192616 v -1.086554 h 0.451907 v 0.995185 h 0.726015 v -0.995185 z"
         id="path11017" />
      <path
         d="m 13.991955,38.014122 v 0.363008 h -0.590196 v 0.995184 H 12.949851 V 38.37713 h -0.587726 v -0.363008 z"
         id="path11019" />
      <path
         d="m 15.680512,38.014122 q 0.113594,0 0.192616,0.07902 0.07902,0.07902 0.07902,0.192616 v 0.363008 q 0,0.111124 -0.07902,0.192616 -0.07902,0.07902 -0.192616,0.07902 h -0.906285 v 0.451907 H 14.32232 v -1.358192 z m -0.180269,0.543277 V 38.37713 h -0.726016 v 0.180269 z"
         id="path11021" />
      <path
         d="m 17.919754,38.014122 v 1.086554 q 0,0.113594 -0.07902,0.192616 -0.07902,0.07902 -0.192617,0.07902 h -1.086553 q -0.113595,0 -0.192617,-0.07902 -0.07902,-0.07902 -0.07902,-0.192616 v -1.086554 h 0.451908 v 0.995185 h 0.726015 v -0.995185 z"
         id="path11023" />
      <path
         d="m 19.924399,38.014122 v 0.363008 h -0.590196 v 0.995184 H 18.882295 V 38.37713 h -0.587727 v -0.363008 z"
         id="path11025" />
      <path
         d="m 22.090097,38.014122 v 0.587727 q 0,0.113594 -0.08149,0.192616 -0.07902,0.07902 -0.190147,0.07902 h -0.634646 v 0.135819 h 0.906284 v 0.363007 h -1.358192 v -0.587726 q 0,-0.113595 0.07902,-0.192617 0.07902,-0.07902 0.192617,-0.07902 H 21.63819 V 38.37713 h -0.906285 v -0.363008 z"
         id="path11027" />
    </g>
    <g
       aria-label="Output 3
"
       id="text741-5-4"
       style="font-size:2.46944px;line-height:1.25;font-family:Excluded;-inkscape-font-specification:'Excluded, Normal';display:inline;fill:#ffffff;stroke-width:0.264583">
      <path
         d="M 9.5665639,51.719596 V 51.087419 H 8.8405486 v 0.632177 z M 9.746833,50.724411 q 0.1135943,0 0.1926164,0.07902 0.079022,0.07902 0.079022,0.192616 v 0.814915 q 0,0.113594 -0.079022,0.192616 -0.079022,0.07902 -0.1926164,0.07902 H 8.6602795 q -0.1135943,0 -0.1926164,-0.07902 -0.079022,-0.07902 -0.079022,-0.192616 V 50.99605 q 0,-0.113594 0.079022,-0.192616 0.079022,-0.07902 0.1926164,-0.07902 z"
         id="path11000" />
      <path
         d="m 11.986075,50.724411 v 1.086554 q 0,0.113594 -0.07902,0.192616 -0.07902,0.07902 -0.192616,0.07902 h -1.086554 q -0.113594,0 -0.192616,-0.07902 -0.07902,-0.07902 -0.07902,-0.192616 v -1.086554 h 0.451907 v 0.995185 h 0.726015 v -0.995185 z"
         id="path11002" />
      <path
         d="m 13.99072,50.724411 v 0.363008 h -0.590196 v 0.995184 H 12.948616 V 51.087419 H 12.36089 v -0.363008 z"
         id="path11004" />
      <path
         d="m 15.679277,50.724411 q 0.113594,0 0.192616,0.07902 0.07902,0.07902 0.07902,0.192616 v 0.363008 q 0,0.111124 -0.07902,0.192616 -0.07902,0.07902 -0.192616,0.07902 h -0.906285 v 0.451907 h -0.451907 v -1.358192 z m -0.180269,0.543277 v -0.180269 h -0.726016 v 0.180269 z"
         id="path11006" />
      <path
         d="m 17.918519,50.724411 v 1.086554 q 0,0.113594 -0.07902,0.192616 -0.07902,0.07902 -0.192617,0.07902 h -1.086553 q -0.113595,0 -0.192617,-0.07902 -0.07902,-0.07902 -0.07902,-0.192616 V 50.724411 H 16.7406 v 0.995185 h 0.726015 v -0.995185 z"
         id="path11008" />
      <path
         d="m 19.923164,50.724411 v 0.363008 h -0.590196 v 0.995184 H 18.88106 v -0.995184 h -0.587727 v -0.363008 z"
         id="path11010" />
      <path
         d="m 22.091332,50.99605 v 0.814915 q 0,0.113594 -0.07902,0.192616 -0.07902,0.07902 -0.192617,0.07902 H 20.73314 v -0.363007 h 0.906284 V 51.583777 H 20.73314 v -0.360539 h 0.906284 V 51.087419 H 20.73314 v -0.363008 h 1.086553 q 0.113595,0 0.192617,0.07902 0.07902,0.07902 0.07902,0.192616 z m -1.358192,0.698851 z"
         id="path11012" />
    </g>
    <g
       aria-label="Output 4
"
       id="text741-5-1"
       style="font-size:2.46944px;line-height:1.25;font-family:Excluded;-inkscape-font-specification:'Excluded, Normal';display:inline;fill:#ffffff;stroke-width:0.264583">
      <path
         d="M 9.570269,77.140174 V 76.507997 H 8.8442536 v 0.632177 z m 0.1802691,-0.995185 q 0.1135942,0 0.1926163,0.07902 0.079022,0.07902 0.079022,0.192616 v 0.814915 q 0,0.113594 -0.079022,0.192616 -0.079022,0.07902 -0.1926163,0.07902 H 8.6639845 q -0.1135943,0 -0.1926163,-0.07902 -0.079022,-0.07902 -0.079022,-0.192616 v -0.814915 q 0,-0.113594 0.079022,-0.192616 0.079022,-0.07902 0.1926163,-0.07902 z"
         id="path10972" />
      <path
         d="m 11.98978,76.144989 v 1.086554 q 0,0.113594 -0.07902,0.192616 -0.07902,0.07902 -0.192616,0.07902 H 10.63159 q -0.113594,0 -0.192616,-0.07902 -0.07902,-0.07902 -0.07902,-0.192616 v -1.086554 h 0.451907 v 0.995185 h 0.726015 v -0.995185 z"
         id="path10974" />
      <path
         d="m 13.994425,76.144989 v 0.363008 h -0.590196 v 0.995184 h -0.451908 v -0.995184 h -0.587726 v -0.363008 z"
         id="path10976" />
      <path
         d="m 15.682982,76.144989 q 0.113594,0 0.192616,0.07902 0.07902,0.07902 0.07902,0.192616 v 0.363008 q 0,0.111124 -0.07902,0.192616 -0.07902,0.07902 -0.192616,0.07902 h -0.906285 v 0.451907 H 14.32479 v -1.358192 z m -0.180269,0.543277 v -0.180269 h -0.726016 v 0.180269 z"
         id="path10978" />
      <path
         d="m 17.922224,76.144989 v 1.086554 q 0,0.113594 -0.07902,0.192616 -0.07902,0.07902 -0.192617,0.07902 h -1.086553 q -0.113595,0 -0.192617,-0.07902 -0.07902,-0.07902 -0.07902,-0.192616 v -1.086554 h 0.451908 v 0.995185 h 0.726015 v -0.995185 z"
         id="path10980" />
      <path
         d="m 19.926869,76.144989 v 0.363008 h -0.590196 v 0.995184 h -0.451908 v -0.995184 h -0.587726 v -0.363008 z"
         id="path10982" />
      <path
         d="m 22.087628,76.144989 v 1.358192 h -0.451907 v -0.498826 h -0.634646 q -0.113594,0 -0.192617,-0.07902 -0.07902,-0.07902 -0.07902,-0.192617 v -0.587727 h 0.451908 v 0.498827 h 0.454377 v -0.498827 z"
         id="path10984" />
    </g>
    <g
       aria-label="Output 5
"
       id="text741-5-7"
       style="font-size:2.46944px;line-height:1.25;font-family:Excluded;-inkscape-font-specification:'Excluded, Normal';display:inline;fill:#ffffff;stroke-width:0.264583">
      <path
         d="M 9.5665639,89.850463 V 89.218286 H 8.8405486 v 0.632177 z M 9.746833,88.855278 q 0.1135943,0 0.1926164,0.07902 0.079022,0.07902 0.079022,0.192616 v 0.814915 q 0,0.113594 -0.079022,0.192616 -0.079022,0.07902 -0.1926164,0.07902 H 8.6602795 q -0.1135943,0 -0.1926164,-0.07902 -0.079022,-0.07902 -0.079022,-0.192616 v -0.814915 q 0,-0.113594 0.079022,-0.192616 0.079022,-0.07902 0.1926164,-0.07902 z"
         id="path10957" />
      <path
         d="m 11.986075,88.855278 v 1.086554 q 0,0.113594 -0.07902,0.192616 -0.07902,0.07902 -0.192616,0.07902 h -1.086554 q -0.113594,0 -0.192616,-0.07902 -0.07902,-0.07902 -0.07902,-0.192616 v -1.086554 h 0.451907 v 0.995185 h 0.726015 v -0.995185 z"
         id="path10959" />
      <path
         d="m 13.99072,88.855278 v 0.363008 H 13.400524 V 90.21347 H 12.948616 V 89.218286 H 12.36089 v -0.363008 z"
         id="path10961" />
      <path
         d="m 15.679277,88.855278 q 0.113594,0 0.192616,0.07902 0.07902,0.07902 0.07902,0.192616 v 0.363008 q 0,0.111124 -0.07902,0.192616 -0.07902,0.07902 -0.192616,0.07902 h -0.906285 v 0.451907 h -0.451907 v -1.358192 z m -0.180269,0.543277 v -0.180269 h -0.726016 v 0.180269 z"
         id="path10963" />
      <path
         d="m 17.918519,88.855278 v 1.086554 q 0,0.113594 -0.07902,0.192616 -0.07902,0.07902 -0.192617,0.07902 h -1.086553 q -0.113595,0 -0.192617,-0.07902 -0.07902,-0.07902 -0.07902,-0.192616 V 88.855278 H 16.7406 v 0.995185 h 0.726015 v -0.995185 z"
         id="path10965" />
      <path
         d="m 19.923164,88.855278 v 0.363008 H 19.332968 V 90.21347 H 18.88106 v -0.995184 h -0.587727 v -0.363008 z"
         id="path10967" />
      <path
         d="m 21.185047,89.218286 v 0.135819 h 0.634646 q 0.113595,0 0.192617,0.07902 0.07902,0.07902 0.07902,0.192617 v 0.587728 h -1.35819 v -0.363007 h 0.906284 v -0.135819 h -0.634646 q -0.113594,0 -0.192616,-0.07902 -0.07902,-0.07902 -0.07902,-0.192617 V 88.85528 h 1.358192 v 0.363008 z"
         id="path10969" />
    </g>
    <g
       aria-label="Output 6
"
       id="text741-5-9"
       style="font-size:2.46944px;line-height:1.25;font-family:Excluded;-inkscape-font-specification:'Excluded, Normal';display:inline;fill:#ffffff;stroke-width:0.264583">
      <path
         d="m 9.5665639,102.56076 v -0.63218 H 8.8405486 v 0.63218 z m 0.1802691,-0.99518 q 0.1135943,0 0.1926164,0.079 0.079022,0.079 0.079022,0.19261 v 0.81492 q 0,0.11359 -0.079022,0.19262 -0.079022,0.079 -0.1926164,0.079 H 8.6602795 q -0.1135943,0 -0.1926164,-0.079 -0.079022,-0.079 -0.079022,-0.19262 v -0.81492 q 0,-0.11359 0.079022,-0.19261 0.079022,-0.079 0.1926164,-0.079 z"
         id="path10942" />
      <path
         d="m 11.986075,101.56558 v 1.08655 q 0,0.11359 -0.07902,0.19262 -0.07902,0.079 -0.192616,0.079 h -1.086554 q -0.113594,0 -0.192616,-0.079 -0.07902,-0.079 -0.07902,-0.19262 v -1.08655 h 0.451907 v 0.99518 h 0.726015 v -0.99518 z"
         id="path10944" />
      <path
         d="m 13.99072,101.56558 v 0.363 h -0.590196 v 0.99519 h -0.451908 v -0.99519 H 12.36089 v -0.363 z"
         id="path10946" />
      <path
         d="m 15.679277,101.56558 q 0.113594,0 0.192616,0.079 0.07902,0.079 0.07902,0.19261 v 0.36301 q 0,0.11113 -0.07902,0.19262 -0.07902,0.079 -0.192616,0.079 h -0.906285 v 0.45191 h -0.451907 v -1.35819 z m -0.180269,0.54327 v -0.18027 h -0.726016 v 0.18027 z"
         id="path10948" />
      <path
         d="m 17.918519,101.56558 v 1.08655 q 0,0.11359 -0.07902,0.19262 -0.07902,0.079 -0.192617,0.079 h -1.086553 q -0.113595,0 -0.192617,-0.079 -0.07902,-0.079 -0.07902,-0.19262 v -1.08655 H 16.7406 v 0.99518 h 0.726015 v -0.99518 z"
         id="path10950" />
      <path
         d="m 19.923164,101.56558 v 0.363 h -0.590196 v 0.99519 H 18.88106 v -0.99519 h -0.587727 v -0.363 z"
         id="path10952" />
      <path
         d="m 22.091332,101.92858 h -0.906285 v 0.13582 h 0.906285 v 0.85937 h -1.086554 q -0.113594,0 -0.192616,-0.079 -0.07902,-0.079 -0.07902,-0.19262 v -1.08655 h 1.358192 z m -0.451908,0.49636 h -0.454377 v 0.13582 h 0.454377 z"
         id="path10954" />
    </g>
    <path
       d="m 18.246633,284.5439 c -0.03457,0.0416 -0.06286,0.10683 -0.06286,0.14488 0,0.0381 -0.01295,0.0694 -0.0285,0.0695 -0.03411,0 -0.123495,0.20083 -0.123495,0.27701 v 0.0539 h -0.038 -0.038 v 0.0828 0.0828 h -0.03797 -0.038 v 0.0828 0.0828 h -0.038 -0.03802 v 0.0609 c 0,0.0335 -0.03678,0.13127 -0.08174,0.21732 -0.04496,0.0861 -0.146507,0.29358 -0.225679,0.46104 -0.07917,0.16746 -0.171095,0.33716 -0.204268,0.37714 l -0.06032,0.0726 0.01041,0.61649 0.01067,0.61651 0.636933,0.0114 0.636932,0.0114 -0.0254,0.11282 c -0.01397,0.0621 -0.03983,0.11905 -0.05748,0.12665 -0.01778,0.008 -0.03213,0.0495 -0.03213,0.0931 v 0.0794 h -0.038 -0.03797 v 0.0582 c 0,0.069 -0.158446,0.41186 -0.199493,0.43172 -0.01575,0.008 -0.0285,0.0376 -0.0285,0.0667 0,0.0291 -0.0684,0.19781 -0.151994,0.3749 -0.08359,0.17704 -0.151995,0.3473 -0.151995,0.37831 0,0.031 -0.01295,0.0564 -0.02901,0.0564 -0.016,0 -0.05972,0.0699 -0.09721,0.15527 -0.03752,0.0854 -0.109754,0.23907 -0.16058,0.34153 -0.09497,0.19159 -0.11016,0.27612 -0.07008,0.38994 l 0.02311,0.0655 h 0.06434 c 0.03536,0 0.08054,0.016 0.100406,0.0357 0.05202,0.0514 0.55009,0.33693 0.587758,0.33693 0.03391,0 0.151258,-0.23403 0.151258,-0.30167 0,-0.0224 0.02992,-0.0709 0.0665,-0.10793 0.08562,-0.0868 0.161494,-0.23447 0.161494,-0.31435 v -0.0627 h 0.038 0.03797 v -0.0828 -0.0828 h 0.03802 0.038 v -0.0828 -0.0828 h 0.0352 c 0.04056,0 0.154763,-0.23388 0.154763,-0.31686 v -0.0558 h 0.038 0.038 v -0.0828 -0.0828 h 0.038 0.03797 v -0.0828 -0.0828 h 0.03802 0.038 v -0.0969 -0.0968 l 0.189002,-0.40457 0.189053,-0.40452 0.08032,-0.0759 0.08031,-0.0759 0.0097,-0.406 c 0.0053,-0.22329 0.0025,-0.49448 -0.0071,-0.60261 l -0.01676,-0.19668 h -0.596496 -0.59652 l -0.03996,-0.0435 -0.03995,-0.0435 0.01778,-0.1014 0.01778,-0.10137 h 0.03355 0.03358 v -0.0828 -0.0828 h 0.038 0.038 l 0.0036,-0.0725 c 0.0025,-0.0399 0.05306,-0.16561 0.113666,-0.27948 0.06066,-0.11384 0.120955,-0.2396 0.134011,-0.27945 0.01295,-0.0398 0.03881,-0.0724 0.05725,-0.0724 h 0.03358 v -0.0579 c 0,-0.0319 0.05128,-0.16414 0.113996,-0.29401 l 0.113995,-0.23612 v -0.0993 -0.0993 h -0.07602 -0.07597 v -0.031 c 0,-0.0375 -0.184582,-0.13457 -0.255423,-0.13457 h -0.05062 l -0.02184,-0.0621 -0.02184,-0.0621 h -0.06965 c -0.03833,0 -0.08027,-0.0185 -0.09319,-0.0414 l -0.02337,-0.0414 h -0.08687 -0.08684 l -0.06292,0.0757 m -7.291625,0.61525 -0.0665,0.019 v 1.87554 1.87554 l 0.11872,0.0259 0.118745,0.0259 h 1.068551 1.068632 l 0.08684,-0.0254 0.08687,-0.0254 -0.01092,-0.37772 -0.01092,-0.37775 -0.8412,-0.0112 -0.841174,-0.0112 -0.02261,-0.0924 -0.02261,-0.0923 v -1.39289 -1.39286 l -0.0601,-0.0251 c -0.06761,-0.0283 -0.568987,-0.0257 -0.671298,0.003 m -3.6978962,0.0679 c -0.01067,0.0303 -0.01448,0.22124 -0.0084,0.42436 l 0.01118,0.36935 0.9238,0.0112 0.923801,0.0112 0.09258,0.10089 0.09258,0.10089 v 0.0866 0.0866 l -0.09258,0.10084 -0.09258,0.10089 -0.923801,0.0112 -0.9238,0.0112 v 0.4761 0.47613 l 0.92916,0.0112 0.929211,0.0112 0.08722,0.0893 0.08717,0.0892 v 0.0837 0.0837 l -0.102083,0.1161 -0.102109,0.11613 h -0.92519 -0.925223 l 0.01092,0.38296 0.01092,0.38295 1.157303,0.0109 1.157304,0.0109 0.11557,-0.06 c 0.185065,-0.0961 0.4385082,-0.43272 0.4385082,-0.5824 v -0.0627 h 0.038 0.03802 v -0.0828 -0.0828 h 0.03797 0.038 v -0.31049 -0.31054 h -0.038 -0.03797 v -0.0828 -0.0828 h -0.03802 -0.038 v -0.0627 c 0,-0.0345 -0.02134,-0.10209 -0.04747,-0.15032 l -0.04752,-0.0877 0.04752,-0.0188 c 0.02611,-0.0104 0.04747,-0.0414 0.04747,-0.0691 0,-0.0735 0.09017,-0.27323 0.123495,-0.27361 h 0.0285 v -0.2841 -0.28407 l -0.150927,-0.31974 -0.1509282,-0.31968 -0.104344,-0.0897 c -0.05738,-0.0493 -0.145288,-0.11295 -0.195377,-0.14143 l -0.09104,-0.0517 h -1.155745 -1.155729 l -0.0193,0.055 m 6.7185742,0.0137 -0.04747,0.0208 v 1.40178 1.40176 l 0.03797,0.0256 0.038,0.0256 v 0.0803 0.0804 h 0.038 0.03797 v 0.0618 0.0618 l 0.224714,0.24864 0.224715,0.24869 h 0.06028 0.06027 v 0.0414 0.0414 h 0.07374 0.07376 l 0.02337,0.0414 0.02337,0.0414 h 0.508458 0.508459 l 0.02337,-0.0414 0.02337,-0.0414 h 0.07376 0.07374 v -0.0414 -0.0414 h 0.06254 0.06251 l 0.222454,-0.25474 0.222454,-0.25471 v -0.0558 -0.0558 h 0.03797 0.038 v -0.0828 -0.0828 h 0.03802 0.038 v -1.42758 -1.42754 l -0.08631,-0.0236 c -0.04745,-0.0129 -0.205613,-0.018 -0.351461,-0.0112 l -0.265176,0.0124 -0.0099,1.31019 -0.0099,1.31021 -0.155957,0.1699 -0.155906,0.1699 H 15.35494 14.965049 l -0.156566,-0.16556 -0.156566,-0.16555 v -1.29978 -1.29974 l -0.0601,-0.0251 c -0.07094,-0.0297 -0.545721,-0.0279 -0.614352,0.003 m 6.306991,0.003 -0.08585,0.018 0.0099,1.89118 0.0099,1.89119 h 0.37996 0.37996 l 0.01905,-0.69017 0.01905,-0.69017 0.03152,-0.0344 0.03155,-0.0344 0.498527,-0.0137 0.498528,-0.0137 0.162484,0.0266 0.162459,0.0265 0.01041,0.71181 0.01041,0.71179 h 0.398933 0.398985 l 0.0099,-1.88885 0.0099,-1.88888 -0.119127,-0.026 c -0.06553,-0.0142 -0.209906,-0.026 -0.320879,-0.026 h -0.201727 l -0.09655,0.04 -0.09655,0.04 -0.01041,0.69487 -0.01041,0.69489 -0.645746,0.0114 -0.645746,0.0114 -0.04768,-0.0711 -0.0477,-0.071 v -0.64968 -0.64966 l -0.0855,-0.0249 c -0.09378,-0.0274 -0.491085,-0.0254 -0.627305,0.003 m 0.07335,4.28989 -0.120472,0.13541 v 0.0788 0.0787 l 0.04559,-0.0497 0.04559,-0.0497 h 0.163399 0.163398 v 0.0414 c 0,0.0229 0.01702,0.0414 0.03797,0.0414 h 0.038 v -0.0724 -0.0725 l -0.126086,-0.13345 -0.126112,-0.13347 -0.120472,0.13545 m 0.601448,0.0102 v 0.14783 l 0.05428,0.0592 0.05428,0.0591 h 0.159995 0.160046 l 0.05047,-0.0724 0.05044,-0.0724 v -0.11141 -0.11143 l -0.03566,-0.0241 -0.03566,-0.0239 -0.01194,0.15613 -0.01194,0.15609 -0.180467,0.0127 -0.180493,0.0127 v -0.16785 -0.16789 h -0.038 -0.038 v 0.14788 m 0.74727,-0.12027 c -0.01397,0.0152 -0.0254,0.10833 -0.0254,0.20701 v 0.17937 h 0.211709 0.211685 l 0.05431,-0.0591 0.05428,-0.0592 v -0.0887 -0.0887 l -0.05428,-0.0591 -0.05431,-0.0591 h -0.186361 c -0.102489,0 -0.197765,0.0124 -0.211684,0.0276 m 0.734596,0.1794 v 0.21189 l 0.038,-0.0256 0.038,-0.0256 v -0.1607 -0.16073 l -0.038,-0.0256 -0.038,-0.0256 v 0.21192 m 0.313462,-0.14509 -0.0475,0.0588 v 0.0875 0.0875 l 0.05428,0.0592 0.05428,0.0591 h 0.157404 0.15743 l 0.05428,-0.0591 0.05425,-0.0592 v -0.0887 -0.0887 l -0.05425,-0.0591 -0.05428,-0.0591 -0.164212,0.003 -0.164186,0.003 -0.0475,0.0587 m -2.175288,0.16284 c 0,0.0129 -0.04275,0.0236 -0.095,0.0236 h -0.095 v -0.0331 c 0,-0.0183 0.01956,-0.0543 0.04318,-0.0801 l 0.04315,-0.047 0.05182,0.0565 c 0.02852,0.0311 0.05184,0.0671 0.05184,0.0802 m 1.557837,-0.0178 v 0.12421 h -0.18997 -0.189967 v -0.0966 c 0,-0.1333 0.02626,-0.15181 0.215317,-0.15181 h 0.164617 v 0.1242 m 1.025909,0 v 0.12421 H 22.97138 22.781413 v -0.12421 -0.1242 h 0.189967 0.189992 v 0.1242"
       id="gge1502"
       stroke="none"
       layerid="3"
       style="display:inline;fill:#ffffff;fill-opacity:1;stroke:none;stroke-width:0.254001;stroke-linecap:round;stroke-linejoin:round;shape-rendering:crispEdges"
       transform="translate(0,-168.49998)" />
    <g
       aria-label="Buff Mult"
       id="text3019"
       style="font-size:3.52778px;line-height:1.25;font-family:Excluded;-inkscape-font-specification:'Excluded, Normal';display:inline;fill:#ffffff;stroke-width:0.264583"
       transform="translate(0,-168.49998)">
      <path
         d="m 5.606198,176.28746 q 0.1622779,0 0.2751669,0.11289 0.1128889,0.11289 0.1128889,0.27516 v 0.39864 q 0,0.0564 -0.038806,0.11289 -0.035278,0.0529 -0.091722,0.0706 0.056445,0.0176 0.091722,0.0741 0.038806,0.0529 0.038806,0.10936 v 0.39864 q 0,0.16228 -0.1128889,0.27517 -0.112889,0.11289 -0.2751669,0.11289 H 3.665919 v -1.94028 z m -0.2575279,1.42169 v -0.19402 H 4.3115028 v 0.19402 z m 0,-0.70908 v -0.19403 H 4.3115028 v 0.19403 z"
         id="path407" />
      <path
         d="m 8.8051227,176.28746 v 1.55222 q 0,0.16228 -0.1128889,0.27517 -0.112889,0.11289 -0.2751669,0.11289 H 6.8648437 q -0.1622779,0 -0.2751668,-0.11289 -0.112889,-0.11289 -0.112889,-0.27517 v -1.55222 h 0.6455838 v 1.42169 H 8.159539 v -1.42169 z"
         id="path409" />
      <path
         d="m 9.9614628,176.80604 v 0.25753 h 1.4252232 v 0.51858 H 9.9614628 v 0.64559 H 9.315879 v -1.55223 q 0,-0.16227 0.112889,-0.27516 0.112889,-0.11289 0.2751669,-0.11289 h 1.9402791 v 0.51858 z"
         id="path411" />
      <path
         d="m 12.786443,176.80604 v 0.25753 h 1.425223 v 0.51858 h -1.425223 v 0.64559 h -0.645584 v -1.55223 q 0,-0.16227 0.112889,-0.27516 0.112889,-0.11289 0.275167,-0.11289 h 1.940279 v 0.51858 z"
         id="path413" />
      <path
         d="m 18.254502,176.67551 v 1.55223 H 17.60539 v -1.016 l -0.645584,1.016 -0.645583,-1.016 v 1.016 h -0.649112 v -1.55223 q 0,-0.16227 0.112889,-0.27516 0.116417,-0.11289 0.275167,-0.11289 h 0.28575 l 0.620889,0.97719 0.62089,-0.97719 h 0.28575 q 0.15875,0 0.271639,0.11289 0.116417,0.11289 0.116417,0.27516 z"
         id="path415" />
      <path
         d="m 21.049,176.28746 v 1.55222 q 0,0.16228 -0.112889,0.27517 -0.112889,0.11289 -0.275167,0.11289 h -1.552223 q -0.162278,0 -0.275167,-0.11289 -0.112889,-0.11289 -0.112889,-0.27517 v -1.55222 h 0.645584 v 1.42169 h 1.037167 v -1.42169 z"
         id="path417" />
      <path
         d="m 23.888091,177.70915 v 0.51859 h -1.940279 q -0.162278,0 -0.275167,-0.11289 -0.112889,-0.11289 -0.112889,-0.27517 v -1.55222 h 0.645584 v 1.42169 z"
         id="path419" />
      <path
         d="m 26.737765,176.28746 v 0.51858 h -0.843139 v 1.4217 h -0.645584 v -1.4217 H 24.40943 v -0.51858 z"
         id="path421" />
    </g>
  </g>
</svg>
