<?xml version="1.0" encoding="UTF-8" standalone="no"?>
<!-- Created with Inkscape (http://www.inkscape.org/) -->

<svg
   width="25.4mm"
   height="128.5mm"
   viewBox="0 0 25.400002 128.50002"
   version="1.1"
   id="svg8"
   inkscape:version="1.1.2 (b8e25be8, 2022-02-05)"
   sodipodi:docname="BuffMix.svg"
   xmlns:inkscape="http://www.inkscape.org/namespaces/inkscape"
   xmlns:sodipodi="http://sodipodi.sourceforge.net/DTD/sodipodi-0.dtd"
   xmlns="http://www.w3.org/2000/svg"
   xmlns:svg="http://www.w3.org/2000/svg"
   xmlns:rdf="http://www.w3.org/1999/02/22-rdf-syntax-ns#"
   xmlns:cc="http://creativecommons.org/ns#"
   xmlns:dc="http://purl.org/dc/elements/1.1/">
  <defs
     id="defs2">
    <inkscape:path-effect
       effect="fillet_chamfer"
       id="path-effect420"
       is_visible="true"
       lpeversion="1"
       satellites_param="F,0,0,1,0,1.4332636,0,1 @ F,0,0,1,0,1.2740121,0,1 @ F,0,0,1,0,1.369563,0,1 @ F,0,0,1,0,1.4014133,0,1"
       unit="px"
       method="auto"
       mode="F"
       radius="0"
       chamfer_steps="1"
       flexible="false"
       use_knot_distance="true"
       apply_no_radius="true"
       apply_with_radius="true"
       only_selected="false"
       hide_knots="false" />
    <inkscape:path-effect
       effect="fillet_chamfer"
       id="path-effect420-5"
       is_visible="true"
       lpeversion="1"
       satellites_param="F,0,0,1,0,1.4332636,0,1 @ F,0,0,1,0,1.2740121,0,1 @ F,0,0,1,0,1.369563,0,1 @ F,0,0,1,0,1.4014133,0,1"
       unit="px"
       method="auto"
       mode="F"
       radius="0"
       chamfer_steps="1"
       flexible="false"
       use_knot_distance="true"
       apply_no_radius="true"
       apply_with_radius="true"
       only_selected="false"
       hide_knots="false" />
  </defs>
  <sodipodi:namedview
     id="base"
     pagecolor="#ffffff"
     bordercolor="#666666"
     borderopacity="1.0"
     inkscape:pageopacity="0.0"
     inkscape:pageshadow="2"
     inkscape:zoom="1.6961572"
     inkscape:cx="186.30349"
     inkscape:cy="264.12646"
     inkscape:document-units="mm"
     inkscape:current-layer="layer1"
     showgrid="false"
     units="mm"
     inkscape:snap-bbox="true"
     inkscape:snap-page="true"
     inkscape:bbox-nodes="false"
     inkscape:snap-bbox-edge-midpoints="false"
     inkscape:window-width="1920"
     inkscape:window-height="956"
     inkscape:window-x="1920"
     inkscape:window-y="25"
     inkscape:window-maximized="0"
     inkscape:snap-bbox-midpoints="true"
     inkscape:snap-nodes="false"
     inkscape:pagecheckerboard="0" />
  <metadata
     id="metadata5">
    <rdf:RDF>
      <cc:Work
         rdf:about="">
        <dc:format>image/svg+xml</dc:format>
        <dc:type
           rdf:resource="http://purl.org/dc/dcmitype/StillImage" />
      </cc:Work>
    </rdf:RDF>
  </metadata>
  <g
     inkscape:label="Layer 1"
     inkscape:groupmode="layer"
     id="layer1"
     transform="translate(0,-168.49998)"
     style="display:inline">
    <rect
       style="display:inline;opacity:1;vector-effect:none;fill:#00659b;fill-opacity:1;fill-rule:evenodd;stroke:none;stroke-width:0.59278;stroke-linecap:butt;stroke-linejoin:miter;stroke-miterlimit:4;stroke-dasharray:none;stroke-dashoffset:0;stroke-opacity:1;paint-order:normal"
       id="rect420"
       width="25.4"
       height="128.5"
       x="5.9211732e-17"
       y="168.49997" />
    <path
       style="display:inline;fill:#ffffff;stroke-width:0.247591"
       id="path416-6"
       width="8.5019999"
       height="8.5019999"
       x="8.4489994"
       y="272.06226"
       sodipodi:type="rect"
       inkscape:path-effect="#path-effect420-5"
       d="m 9.882263,272.06226 h 5.794724 a 1.2740121,1.2740121 45 0 1 1.274012,1.27401 v 5.85842 a 1.369563,1.369563 135 0 1 -1.369563,1.36957 H 9.8504127 a 1.4014133,1.4014133 45 0 1 -1.4014133,-1.40142 v -5.66732 a 1.4332636,1.4332636 135 0 1 1.4332636,-1.43326 z" />
    <path
       style="display:inline;fill:#ffffff;stroke-width:0.247591"
       id="path416"
       width="8.5019999"
       height="8.5019999"
       x="8.4490004"
       y="221.16342"
       sodipodi:type="rect"
       inkscape:path-effect="#path-effect420"
       d="m 9.882264,221.16342 h 5.794724 a 1.2740121,1.2740121 45 0 1 1.274012,1.27401 v 5.85843 a 1.369563,1.369563 135 0 1 -1.369563,1.36956 H 9.8504137 a 1.4014133,1.4014133 45 0 1 -1.4014133,-1.40141 v -5.66732 a 1.4332636,1.4332636 135 0 1 1.4332636,-1.43327 z" />
    <rect
       style="display:inline;fill:#ff7522;fill-opacity:1;stroke:#ff7522;stroke-width:0.1968;stroke-opacity:1"
       id="rect1043-5-0"
       width="25.203199"
       height="0.50696516"
       x="0.098400116"
       y="294.19839" />
    <rect
       style="display:inline;fill:#ff7522;fill-opacity:1;stroke:#ff7522;stroke-width:0.1968;stroke-opacity:1"
       id="rect1043-5"
       width="25.203199"
       height="0.50696516"
       x="0.098400116"
       y="170.59837" />
  </g>
  <g
     inkscape:groupmode="layer"
     id="layer4"
     inkscape:label="graphics"
     style="display:inline">
    <g
       id="g1312"
       transform="translate(-2.1166667)"
       style="stroke:#ffffff;stroke-width:0;stroke-miterlimit:4;stroke-dasharray:none">
      <path
         style="display:inline;fill:#ffffff;stroke:#ffffff;stroke-width:0;stroke-linecap:butt;stroke-linejoin:miter;stroke-opacity:1;stroke-miterlimit:4;stroke-dasharray:none"
         d="m 18.737133,19.11473 5.027977,3.36542 v 8.57317 h -4.872358 v 0.66035 h 4.872358 v 12.11275 h -5.030392 v 0.70227 h 4.969921 l 0.03951,8.21995 -4.990884,4.02988 -10e-7,0.76033 c -0.03951,0.15803 5.677027,-4.30644 5.677027,-4.30644 l -1e-6,-31.23603 -5.553669,-3.69114 z"
         id="path230"
         sodipodi:nodetypes="ccccccccccccccccc" />
      <path
         sodipodi:type="star"
         style="fill:#ffffff;stroke:#ffffff;stroke-width:0;stroke-miterlimit:4;stroke-dasharray:none"
         id="path2110"
         inkscape:flatsided="true"
         sodipodi:sides="3"
         sodipodi:cx="80.528915"
         sodipodi:cy="77.116203"
         sodipodi:r1="4.2643762"
         sodipodi:r2="2.1321881"
         sodipodi:arg1="2.7299213"
         sodipodi:arg2="3.7771189"
         inkscape:rounded="0"
         inkscape:randomized="0"
         transform="matrix(0.26458333,0,0,0.26458333,0.05097275,-0.00728182)"
         inkscape:transform-center-x="0.063011423"
         inkscape:transform-center-y="-0.22573674"
         d="m 76.620814,78.822558 4.384406,-5.944047 2.955492,6.769031 z" />
      <path
         sodipodi:type="star"
         style="fill:#ffffff;stroke:#ffffff;stroke-width:0;stroke-miterlimit:4;stroke-dasharray:none"
         id="path2294"
         inkscape:flatsided="true"
         sodipodi:sides="3"
         sodipodi:cx="80.528915"
         sodipodi:cy="77.116203"
         sodipodi:r1="4.2643762"
         sodipodi:r2="2.1321881"
         sodipodi:arg1="2.7299213"
         sodipodi:arg2="3.7771189"
         inkscape:rounded="0"
         inkscape:randomized="0"
         transform="matrix(0.21276314,-0.1572774,0.1572774,0.21276314,-7.9046413,27.646302)"
         inkscape:transform-center-x="-0.28156249"
         inkscape:transform-center-y="0.00058532252"
         d="m 76.620814,78.822558 4.384406,-5.944047 2.955492,6.769031 z" />
      <path
         sodipodi:type="star"
         style="fill:#ffffff;stroke:#ffffff;stroke-width:0;stroke-miterlimit:4;stroke-dasharray:none"
         id="path2296"
         inkscape:flatsided="true"
         sodipodi:sides="3"
         sodipodi:cx="80.528915"
         sodipodi:cy="77.116203"
         sodipodi:r1="4.2643762"
         sodipodi:r2="2.1321881"
         sodipodi:arg1="2.7299213"
         sodipodi:arg2="3.7771189"
         inkscape:rounded="0"
         inkscape:randomized="0"
         transform="matrix(0.21070532,-0.16002376,0.16002376,0.21070532,-7.9562087,40.814043)"
         inkscape:transform-center-x="-0.27519871"
         inkscape:transform-center-y="0.0079006617"
         d="m 76.620814,78.822558 4.384406,-5.944047 2.955492,6.769031 z" />
      <path
         sodipodi:type="star"
         style="fill:#ffffff;stroke:#ffffff;stroke-width:0;stroke-miterlimit:4;stroke-dasharray:none"
         id="path2391"
         inkscape:flatsided="true"
         sodipodi:sides="3"
         sodipodi:cx="80.528915"
         sodipodi:cy="77.116203"
         sodipodi:r1="4.2643762"
         sodipodi:r2="2.1321881"
         sodipodi:arg1="2.7299213"
         sodipodi:arg2="3.7771189"
         inkscape:rounded="0"
         inkscape:randomized="0"
         transform="matrix(-0.07563962,0.2535409,-0.2535409,-0.07563962,46.951525,40.640686)"
         inkscape:transform-center-x="-0.068511875"
         inkscape:transform-center-y="-0.22065086"
         d="m 76.620814,78.822558 4.384406,-5.944047 2.955492,6.769031 z" />
    </g>
    <g
       id="g1319"
       transform="translate(-2.1166667)"
       style="stroke:#ffffff;stroke-width:0;stroke-miterlimit:4;stroke-dasharray:none">
      <path
         style="display:inline;fill:#ffffff;stroke:#ffffff;stroke-width:0;stroke-linecap:butt;stroke-linejoin:miter;stroke-opacity:1;stroke-miterlimit:4;stroke-dasharray:none"
         d="m 18.737133,69.97711 5.027977,3.36542 v 8.57317 h -4.872358 v 0.66035 H 23.76511 V 94.6888 h -5.030392 v 0.70227 h 4.969921 l 0.03951,8.21995 -4.990884,4.02988 -10e-7,0.76033 c -0.03951,0.15803 5.677027,-4.30644 5.677027,-4.30644 l -1e-6,-31.23603 -5.553669,-3.69114 z"
         id="path2494"
         sodipodi:nodetypes="ccccccccccccccccc" />
      <path
         sodipodi:type="star"
         style="fill:#ffffff;stroke:#ffffff;stroke-width:0;stroke-miterlimit:4;stroke-dasharray:none"
         id="path2496"
         inkscape:flatsided="true"
         sodipodi:sides="3"
         sodipodi:cx="80.528915"
         sodipodi:cy="77.116203"
         sodipodi:r1="4.2643762"
         sodipodi:r2="2.1321881"
         sodipodi:arg1="2.7299213"
         sodipodi:arg2="3.7771189"
         inkscape:rounded="0"
         inkscape:randomized="0"
         transform="matrix(0.26458333,0,0,0.26458333,0.05097275,50.855095)"
         inkscape:transform-center-x="0.063011423"
         inkscape:transform-center-y="-0.22573674"
         d="m 76.620814,78.822558 4.384406,-5.944047 2.955492,6.769031 z" />
      <path
         sodipodi:type="star"
         style="fill:#ffffff;stroke:#ffffff;stroke-width:0;stroke-miterlimit:4;stroke-dasharray:none"
         id="path2498"
         inkscape:flatsided="true"
         sodipodi:sides="3"
         sodipodi:cx="80.528915"
         sodipodi:cy="77.116203"
         sodipodi:r1="4.2643762"
         sodipodi:r2="2.1321881"
         sodipodi:arg1="2.7299213"
         sodipodi:arg2="3.7771189"
         inkscape:rounded="0"
         inkscape:randomized="0"
         transform="matrix(0.21221664,-0.15801404,0.15801404,0.21221664,-7.917438,78.610145)"
         inkscape:transform-center-x="-0.27986724"
         inkscape:transform-center-y="0.0025421923"
         d="m 76.620814,78.822558 4.384406,-5.944047 2.955492,6.769031 z" />
      <path
         sodipodi:type="star"
         style="fill:#ffffff;stroke:#ffffff;stroke-width:0;stroke-miterlimit:4;stroke-dasharray:none"
         id="path2500"
         inkscape:flatsided="true"
         sodipodi:sides="3"
         sodipodi:cx="80.528915"
         sodipodi:cy="77.116203"
         sodipodi:r1="4.2643762"
         sodipodi:r2="2.1321881"
         sodipodi:arg1="2.7299213"
         sodipodi:arg2="3.7771189"
         inkscape:rounded="0"
         inkscape:randomized="0"
         transform="matrix(0.21366802,-0.15604587,0.15604587,0.21366802,-7.8880312,91.127614)"
         inkscape:transform-center-x="-0.27975083"
         inkscape:transform-center-y="-0.002673443"
         d="m 76.620814,78.822558 4.384406,-5.944047 2.955492,6.769031 z" />
      <path
         sodipodi:type="star"
         style="fill:#ffffff;stroke:#ffffff;stroke-width:0;stroke-miterlimit:4;stroke-dasharray:none"
         id="path2502"
         inkscape:flatsided="true"
         sodipodi:sides="3"
         sodipodi:cx="80.528915"
         sodipodi:cy="77.116203"
         sodipodi:r1="4.2643762"
         sodipodi:r2="2.1321881"
         sodipodi:arg1="2.7299213"
         sodipodi:arg2="3.7771189"
         inkscape:rounded="0"
         inkscape:randomized="0"
         transform="matrix(-0.07563962,0.2535409,-0.2535409,-0.07563962,46.951525,91.503063)"
         inkscape:transform-center-x="-0.068511875"
         inkscape:transform-center-y="-0.22065086"
         d="m 76.620814,78.822558 4.384406,-5.944047 2.955492,6.769031 z" />
    </g>
  </g>
  <g
     inkscape:groupmode="layer"
     id="layer2"
     inkscape:label="components"
     style="display:none">
    <circle
       r="4"
       cy="69.639145"
       cx="12.7"
       id="circle4956"
       style="display:inline;opacity:1;vector-effect:none;fill:#00ff00;fill-opacity:1;fill-rule:evenodd;stroke:none;stroke-width:1;stroke-linecap:butt;stroke-linejoin:miter;stroke-miterlimit:4;stroke-dasharray:none;stroke-dashoffset:0;stroke-opacity:1;paint-order:normal"
       inkscape:label="AudioCVIn2" />
    <circle
       style="display:inline;opacity:1;vector-effect:none;fill:#0000ff;fill-opacity:1;fill-rule:evenodd;stroke:none;stroke-width:1;stroke-linecap:butt;stroke-linejoin:miter;stroke-miterlimit:4;stroke-dasharray:none;stroke-dashoffset:0;stroke-opacity:1;paint-order:normal"
       id="circle4958"
       cx="12.7"
       cy="107.81326"
       r="4"
       inkscape:label="AudioCVOut6" />
    <circle
       r="4"
       cy="18.740318"
       cx="12.7"
       id="circle527"
       style="display:inline;opacity:1;vector-effect:none;fill:#00ff00;fill-opacity:1;fill-rule:evenodd;stroke:none;stroke-width:1;stroke-linecap:butt;stroke-linejoin:miter;stroke-miterlimit:4;stroke-dasharray:none;stroke-dashoffset:0;stroke-opacity:1;paint-order:normal"
       inkscape:label="AudioCVIn1" />
    <circle
       r="4"
       cy="31.465025"
       cx="12.7"
       id="circle529"
       style="display:inline;opacity:1;vector-effect:none;fill:#00ff00;fill-opacity:1;fill-rule:evenodd;stroke:none;stroke-width:1;stroke-linecap:butt;stroke-linejoin:miter;stroke-miterlimit:4;stroke-dasharray:none;stroke-dashoffset:0;stroke-opacity:1;paint-order:normal"
       inkscape:label="AudioCVOut1" />
    <circle
       r="4"
       cy="44.189732"
       cx="12.7"
       id="circle531"
       style="display:inline;opacity:1;vector-effect:none;fill:#00ff00;fill-opacity:1;fill-rule:evenodd;stroke:none;stroke-width:1;stroke-linecap:butt;stroke-linejoin:miter;stroke-miterlimit:4;stroke-dasharray:none;stroke-dashoffset:0;stroke-opacity:1;paint-order:normal"
       inkscape:label="AudioCVOut2" />
    <circle
       r="4"
       cy="82.363853"
       cx="12.7"
       id="circle533"
       style="display:inline;opacity:1;vector-effect:none;fill:#00ff00;fill-opacity:1;fill-rule:evenodd;stroke:none;stroke-width:1;stroke-linecap:butt;stroke-linejoin:miter;stroke-miterlimit:4;stroke-dasharray:none;stroke-dashoffset:0;stroke-opacity:1;paint-order:normal"
       inkscape:label="AudioCVOut4" />
    <circle
       r="4"
       cy="95.088539"
       cx="12.7"
       id="circle535"
       style="display:inline;opacity:1;vector-effect:none;fill:#00ff00;fill-opacity:1;fill-rule:evenodd;stroke:none;stroke-width:1;stroke-linecap:butt;stroke-linejoin:miter;stroke-miterlimit:4;stroke-dasharray:none;stroke-dashoffset:0;stroke-opacity:1;paint-order:normal"
       inkscape:label="AudioCVOut5" />
    <circle
       style="display:inline;opacity:1;vector-effect:none;fill:#0000ff;fill-opacity:1;fill-rule:evenodd;stroke:none;stroke-width:1;stroke-linecap:butt;stroke-linejoin:miter;stroke-miterlimit:4;stroke-dasharray:none;stroke-dashoffset:0;stroke-opacity:1;paint-order:normal"
       id="circle537"
       cx="12.7"
       cy="56.914436"
       r="4"
       inkscape:label="AudioCVOut3" />
  </g>
  <g
     inkscape:groupmode="layer"
     id="layer3"
     inkscape:label="text"
     style="display:inline">
    <path
       d="m 15.330725,116.03447 c -0.03025,0.0364 -0.055,0.0935 -0.055,0.12677 0,0.0333 -0.01133,0.0607 -0.02494,0.0608 -0.02985,0 -0.108057,0.17572 -0.108057,0.24238 v 0.0472 h -0.03325 -0.03325 v 0.0725 0.0725 h -0.03322 -0.03325 v 0.0724 0.0725 h -0.03325 -0.03327 v 0.0533 c 0,0.0293 -0.03218,0.11486 -0.07152,0.19015 -0.03934,0.0753 -0.128193,0.25688 -0.197468,0.40341 -0.06927,0.14653 -0.149708,0.29502 -0.178734,0.33 l -0.05278,0.0635 0.0091,0.53943 0.0093,0.53944 0.557314,0.01 0.557314,0.01 -0.02223,0.0987 c -0.01222,0.0543 -0.03485,0.10417 -0.05029,0.11082 -0.01556,0.007 -0.02811,0.0433 -0.02811,0.0815 v 0.0695 h -0.03325 -0.03322 v 0.0509 c 0,0.0604 -0.13864,0.36038 -0.174556,0.37775 -0.01378,0.007 -0.02494,0.0329 -0.02494,0.0584 0,0.0255 -0.05985,0.17308 -0.132995,0.32803 -0.07314,0.15491 -0.132995,0.30389 -0.132995,0.33102 0,0.0271 -0.01133,0.0494 -0.02538,0.0494 -0.014,0 -0.05225,0.0612 -0.08506,0.13586 -0.03283,0.0747 -0.09603,0.20919 -0.140507,0.29884 -0.0831,0.16764 -0.09639,0.2416 -0.06132,0.3412 l 0.02022,0.0573 h 0.0563 c 0.03094,0 0.07047,0.014 0.08785,0.0312 0.04552,0.045 0.481327,0.29481 0.514286,0.29481 0.02967,0 0.13235,-0.20478 0.13235,-0.26396 0,-0.0196 0.02618,-0.062 0.05819,-0.0944 0.07492,-0.0759 0.141306,-0.20516 0.141306,-0.27506 v -0.0549 h 0.03325 0.03322 v -0.0724 -0.0725 h 0.03327 0.03325 v -0.0725 -0.0725 h 0.0308 c 0.03549,0 0.135417,-0.20464 0.135417,-0.27725 v -0.0488 h 0.03325 0.03325 v -0.0724 -0.0725 h 0.03325 0.03322 v -0.0725 -0.0725 h 0.03327 0.03325 v -0.0848 -0.0847 l 0.165376,-0.354 0.165421,-0.35395 0.07028,-0.0664 0.07027,-0.0664 0.0085,-0.35525 c 0.0046,-0.19538 0.0022,-0.43267 -0.0062,-0.52728 l -0.01467,-0.1721 h -0.521932 -0.521953 l -0.03496,-0.0381 -0.03496,-0.0381 0.01556,-0.0887 0.01556,-0.0887 h 0.02936 0.02938 v -0.0725 -0.0725 h 0.03325 0.03325 l 0.0031,-0.0634 c 0.0022,-0.0349 0.04643,-0.14491 0.09946,-0.24455 0.05308,-0.0996 0.105835,-0.20965 0.117259,-0.24451 0.01133,-0.0348 0.03396,-0.0633 0.05009,-0.0633 h 0.02938 v -0.0507 c 0,-0.0279 0.04487,-0.14362 0.09975,-0.25725 l 0.09974,-0.20661 v -0.0869 -0.0869 h -0.06652 -0.06647 v -0.0271 c 0,-0.0328 -0.161508,-0.11775 -0.223494,-0.11775 h -0.04429 l -0.01911,-0.0543 -0.01911,-0.0543 h -0.06094 c -0.03354,0 -0.07024,-0.0162 -0.08154,-0.0362 l -0.02045,-0.0362 h -0.07601 -0.07599 l -0.05505,0.0662 m -6.3801454,0.53834 -0.058187,0.0166 v 1.64109 1.6411 l 0.1038796,0.0227 0.1039014,0.0227 h 0.9349784 0.935049 l 0.07598,-0.0222 0.07601,-0.0222 -0.0096,-0.3305 -0.0096,-0.33053 -0.736047,-0.01 -0.7360241,-0.01 -0.019784,-0.0808 -0.019784,-0.0808 v -1.21878 -1.21875 l -0.052587,-0.022 c -0.059159,-0.0248 -0.4978616,-0.0225 -0.5873834,0.003 m -3.2356462,0.0594 c -0.00934,0.0265 -0.01267,0.19358 -0.00735,0.37131 l 0.00978,0.32318 0.8083218,0.01 0.8083226,0.01 0.081007,0.0883 0.081007,0.0883 v 0.0758 0.0758 l -0.081007,0.0882 -0.081007,0.0883 -0.8083226,0.01 -0.8083218,0.01 v 0.41659 0.41661 l 0.8130118,0.01 0.8130563,0.01 0.076317,0.0781 0.076274,0.0781 v 0.0732 0.0732 l -0.089322,0.10159 -0.089345,0.10161 H 6.5094991 5.6999322 l 0.00955,0.33509 0.00955,0.33508 1.0126361,0.01 1.0126369,0.01 0.1011234,-0.0525 c 0.1619312,-0.0841 0.3836931,-0.37862 0.3836931,-0.50959 v -0.0549 h 0.03325 0.033267 v -0.0725 -0.0724 h 0.033224 0.03325 v -0.27167 -0.27172 h -0.03325 -0.033224 v -0.0725 -0.0725 h -0.033267 -0.03325 v -0.0549 c 0,-0.0302 -0.018672,-0.0893 -0.041536,-0.13153 l -0.04158,-0.0767 0.04158,-0.0164 c 0.022846,-0.009 0.041536,-0.0362 0.041536,-0.0605 0,-0.0643 0.078898,-0.23908 0.1080577,-0.23941 h 0.024937 v -0.24859 -0.24856 l -0.1320606,-0.27977 -0.1320617,-0.27972 -0.091301,-0.0785 c -0.050207,-0.0431 -0.1271265,-0.0988 -0.1709542,-0.12375 l -0.07966,-0.0452 H 6.7448171 5.7335583 l -0.016887,0.0481 m 5.8787277,0.012 -0.04154,0.0182 v 1.22655 1.22653 l 0.03322,0.0224 0.03325,0.0224 v 0.0703 0.0704 h 0.03325 0.03322 v 0.0541 0.0541 l 0.196624,0.21756 0.196625,0.2176 h 0.05274 0.05274 v 0.0362 0.0362 h 0.06452 0.06454 l 0.02045,0.0362 0.02045,0.0362 h 0.444899 0.4449 l 0.02045,-0.0362 0.02045,-0.0362 h 0.06454 0.06452 v -0.0362 -0.0362 h 0.05472 0.0547 l 0.194646,-0.2229 0.194646,-0.22287 v -0.0488 -0.0488 h 0.03322 0.03325 v -0.0725 -0.0724 h 0.03327 0.03325 v -1.24913 -1.24909 l -0.07552,-0.0207 c -0.04152,-0.0113 -0.17991,-0.0157 -0.307527,-0.01 l -0.232028,0.0109 -0.0087,1.14641 -0.0087,1.14643 -0.136462,0.14866 -0.136417,0.14867 h -0.341091 -0.341153 l -0.136995,-0.14487 -0.136995,-0.14485 v -1.13731 -1.13726 l -0.05259,-0.022 c -0.06207,-0.026 -0.477504,-0.0244 -0.537556,0.003 m 5.518595,0.003 -0.07512,0.0157 0.0087,1.65478 0.0087,1.65478 h 0.332463 0.332464 l 0.01667,-0.60389 0.01667,-0.6039 0.02758,-0.0301 0.02761,-0.0301 0.43621,-0.012 0.43621,-0.012 0.142173,0.0233 0.142151,0.0232 0.0091,0.62283 0.0091,0.62281 h 0.349065 0.349111 l 0.0087,-1.65273 0.0087,-1.65277 -0.104236,-0.0228 c -0.05734,-0.0124 -0.183667,-0.0228 -0.280768,-0.0228 h -0.17651 l -0.08448,0.035 -0.08448,0.035 -0.0091,0.60801 -0.0091,0.60803 -0.565025,0.01 -0.565026,0.01 -0.04172,-0.0622 -0.04174,-0.0621 v -0.56847 -0.56845 l -0.07481,-0.0218 c -0.08206,-0.024 -0.429698,-0.0222 -0.54889,0.003 m 0.06418,3.75364 -0.105412,0.11848 v 0.069 0.0689 l 0.03989,-0.0435 0.03989,-0.0435 h 0.142973 0.142973 v 0.0362 c 0,0.02 0.01489,0.0362 0.03322,0.0362 h 0.03325 v -0.0633 -0.0634 l -0.110325,-0.11677 -0.110348,-0.11678 -0.105412,0.11852 m 0.526265,0.009 v 0.12935 l 0.04749,0.0518 0.0475,0.0517 h 0.139995 0.14004 l 0.04416,-0.0633 0.04413,-0.0633 v -0.0975 -0.0975 l -0.0312,-0.0211 -0.0312,-0.0209 -0.01045,0.13661 -0.01045,0.13658 -0.157908,0.0111 -0.157931,0.0111 v -0.14687 -0.1469 h -0.03325 -0.03325 v 0.12939 m 0.653858,-0.10523 c -0.01222,0.0133 -0.02222,0.0948 -0.02222,0.18113 v 0.15695 h 0.185245 0.185224 l 0.04752,-0.0517 0.04749,-0.0518 v -0.0776 -0.0776 l -0.04749,-0.0517 -0.04752,-0.0517 h -0.163066 c -0.08968,0 -0.173043,0.0108 -0.185222,0.0241 m 0.642769,0.15697 v 0.1854 l 0.03325,-0.0224 0.03325,-0.0224 v -0.14061 -0.14064 l -0.03325,-0.0224 -0.03325,-0.0224 v 0.18543 m 0.274278,-0.12695 -0.04156,0.0515 v 0.0766 0.0766 l 0.04749,0.0518 0.0475,0.0517 h 0.137728 0.137751 l 0.04749,-0.0517 0.04747,-0.0518 v -0.0776 -0.0776 l -0.04747,-0.0517 -0.04749,-0.0517 -0.143685,0.003 -0.143662,0.003 -0.04156,0.0514 m -1.903369,0.14248 c 0,0.0113 -0.03741,0.0207 -0.08312,0.0207 h -0.08312 v -0.029 c 0,-0.016 0.01712,-0.0475 0.03778,-0.0701 l 0.03776,-0.0411 0.04534,0.0494 c 0.02495,0.0272 0.04536,0.0587 0.04536,0.0702 m 1.363102,-0.0156 v 0.10869 H 18.56738 18.40116 v -0.0845 c 0,-0.11664 0.02298,-0.13283 0.188401,-0.13283 H 18.7336 v 0.10867 m 0.897667,0 v 0.10869 h -0.166244 -0.16622 v -0.10869 -0.10867 h 0.16622 0.166242 v 0.10867"
       id="gge1502"
       stroke="none"
       layerid="3"
       style="display:inline;fill:#ffffff;fill-opacity:1;stroke:none;stroke-width:0.22225;stroke-linecap:round;stroke-linejoin:round;shape-rendering:crispEdges" />
    <g
       aria-label="Buff Mix"
       id="text4149"
       style="font-size:3.52778px;line-height:1.25;font-family:Excluded;-inkscape-font-specification:'Excluded, Normal';fill:#ffffff;stroke-width:0.0700042"
       transform="matrix(0.90911902,0,0,0.90911902,-1.1549736,-152.4788)">
      <path
         d="m 7.9819781,176.28746 q 0.1622779,0 0.2751669,0.11289 0.1128889,0.11289 0.1128889,0.27516 v 0.39864 q 0,0.0564 -0.038805,0.11289 -0.035278,0.0529 -0.091722,0.0706 0.056444,0.0176 0.091722,0.0741 0.038805,0.0529 0.038805,0.10936 v 0.39864 q 0,0.16228 -0.1128889,0.27517 -0.112889,0.11289 -0.2751669,0.11289 h -1.940279 v -1.94028 z m -0.2575279,1.42169 v -0.19402 H 6.6872829 v 0.19402 z m 0,-0.70908 v -0.19403 H 6.6872829 v 0.19403 z"
         id="path24740" />
      <path
         d="m 11.180903,176.28746 v 1.55222 q 0,0.16228 -0.112889,0.27517 -0.112889,0.11289 -0.275167,0.11289 H 9.2406238 q -0.1622779,0 -0.2751668,-0.11289 -0.112889,-0.11289 -0.112889,-0.27517 v -1.55222 h 0.6455838 v 1.42169 h 1.0371672 v -1.42169 z"
         id="path24742" />
      <path
         d="m 12.337243,176.80604 v 0.25753 h 1.425223 v 0.51858 h -1.425223 v 0.64559 h -0.645584 v -1.55223 q 0,-0.16227 0.112889,-0.27516 0.112889,-0.11289 0.275167,-0.11289 h 1.940279 v 0.51858 z"
         id="path24744" />
      <path
         d="m 15.162223,176.80604 v 0.25753 h 1.425223 v 0.51858 h -1.425223 v 0.64559 h -0.645584 v -1.55223 q 0,-0.16227 0.112889,-0.27516 0.112889,-0.11289 0.275167,-0.11289 h 1.940279 v 0.51858 z"
         id="path24746" />
      <path
         d="m 20.630282,176.67551 v 1.55223 H 19.98117 v -1.016 l -0.645584,1.016 -0.645583,-1.016 v 1.016 h -0.649112 v -1.55223 q 0,-0.16227 0.112889,-0.27516 0.116417,-0.11289 0.275167,-0.11289 h 0.28575 l 0.620889,0.97719 0.62089,-0.97719 h 0.28575 q 0.15875,0 0.271639,0.11289 0.116417,0.11289 0.116417,0.27516 z"
         id="path24748" />
      <path
         d="m 21.032945,178.22774 v -1.94028 h 0.649112 v 1.94028 z"
         id="path24750" />
      <path
         d="m 23.683355,177.2576 0.754945,0.97014 h -0.818445 l -0.345722,-0.4445 -0.345722,0.4445 h -0.818445 l 0.754945,-0.97014 -0.754945,-0.97014 h 0.818445 l 0.345722,0.4445 0.345722,-0.4445 H 24.4383 Z"
         id="path24752" />
    </g>
    <g
       aria-label="Input 1"
       id="text7507"
       style="font-size:2.46944px;line-height:1.25;font-family:Excluded;-inkscape-font-specification:'Excluded, Normal';fill:#ffffff;stroke-width:0.0700042"
       transform="matrix(0.92399667,0,0,0.92399667,-1.3817094,-154.73871)">
      <path
         d="m 10.286747,182.41968 v -1.35819 h 0.454377 v 1.35819 z"
         id="path24755" />
      <path
         d="m 12.660612,181.06149 v 1.08655 q 0,0.11359 -0.07902,0.19262 -0.07902,0.079 -0.192617,0.079 h -0.232127 l -0.674157,-0.84208 v 0.84208 h -0.451907 v -1.08656 q 0,-0.11359 0.07902,-0.19261 0.07902,-0.079 0.192616,-0.079 h 0.232127 l 0.674157,0.84207 v -0.84207 z"
         id="path24757" />
      <path
         d="m 14.366455,181.06149 q 0.113594,0 0.192616,0.079 0.07902,0.079 0.07902,0.19261 v 0.36301 q 0,0.11113 -0.07902,0.19262 -0.07902,0.079 -0.192616,0.079 H 13.46017 v 0.45191 h -0.451907 v -1.35819 z m -0.180269,0.54327 v -0.18027 H 13.46017 v 0.18027 z"
         id="path24759" />
      <path
         d="m 16.605697,181.06149 v 1.08655 q 0,0.11359 -0.07902,0.19262 -0.07902,0.079 -0.192617,0.079 h -1.086553 q -0.113594,0 -0.192617,-0.079 -0.07902,-0.079 -0.07902,-0.19262 v -1.08655 h 0.451908 v 0.99518 h 0.726015 v -0.99518 z"
         id="path24761" />
      <path
         d="m 18.610342,181.06149 v 0.363 h -0.590197 v 0.99519 h -0.451907 v -0.99519 h -0.587727 v -0.363 z"
         id="path24763" />
      <path
         d="m 20.193253,181.06149 v 1.35819 h -0.451907 v -0.99519 h -0.363008 v -0.363 z"
         id="path24765" />
    </g>
    <g
       aria-label="Output 1"
       id="text8567"
       style="font-size:2.46944px;line-height:1.25;font-family:Excluded;-inkscape-font-specification:'Excluded, Normal';fill:#ffffff;stroke-width:0.0700042"
       transform="matrix(0.92399667,0,0,0.92399667,-1.3817089,-151.8382)">
      <path
         d="M 9.8592056,220.21957 V 219.5874 H 9.1331902 v 0.63217 z m 0.1802694,-0.99518 q 0.113594,0 0.192616,0.079 0.07902,0.079 0.07902,0.19262 v 0.81491 q 0,0.1136 -0.07902,0.19262 -0.07902,0.079 -0.192616,0.079 H 8.9529211 q -0.1135942,0 -0.1926163,-0.079 -0.079022,-0.079 -0.079022,-0.19262 v -0.81491 q 0,-0.1136 0.079022,-0.19262 0.079022,-0.079 0.1926163,-0.079 z"
         id="path24768" />
      <path
         d="m 12.278717,219.22439 v 1.08655 q 0,0.1136 -0.07902,0.19262 -0.07902,0.079 -0.192616,0.079 h -1.086553 q -0.113595,0 -0.192617,-0.079 -0.07902,-0.079 -0.07902,-0.19262 v -1.08655 h 0.451908 v 0.99518 h 0.726015 v -0.99518 z"
         id="path24770" />
      <path
         d="m 14.283362,219.22439 v 0.36301 h -0.590196 v 0.99518 h -0.451908 v -0.99518 h -0.587727 v -0.36301 z"
         id="path24772" />
      <path
         d="m 15.971918,219.22439 q 0.113595,0 0.192617,0.079 0.07902,0.079 0.07902,0.19262 v 0.363 q 0,0.11113 -0.07902,0.19262 -0.07902,0.079 -0.192617,0.079 h -0.906284 v 0.45191 h -0.451908 v -1.35819 z m -0.180269,0.54328 v -0.18027 h -0.726015 v 0.18027 z"
         id="path24774" />
      <path
         d="m 18.21116,219.22439 v 1.08655 q 0,0.1136 -0.07902,0.19262 -0.07902,0.079 -0.192616,0.079 H 16.85297 q -0.113594,0 -0.192616,-0.079 -0.07902,-0.079 -0.07902,-0.19262 v -1.08655 h 0.451907 v 0.99518 h 0.726016 v -0.99518 z"
         id="path24776" />
      <path
         d="m 20.215806,219.22439 v 0.36301 h -0.590197 v 0.99518 h -0.451907 v -0.99518 h -0.587727 v -0.36301 z"
         id="path24778" />
      <path
         d="m 21.798716,219.22439 v 1.35819 h -0.451907 v -0.99518 h -0.363008 v -0.36301 z"
         id="path24780" />
    </g>
    <g
       aria-label="Input 2"
       id="text7507-4"
       style="font-size:2.46944px;line-height:1.25;font-family:Excluded;-inkscape-font-specification:'Excluded, Normal';display:inline;fill:#ffffff;stroke-width:0.0700042"
       transform="matrix(0.92398987,0,0,0.92398987,-1.3816066,-153.76893)">
      <path
         d="m 9.9953527,195.162 v -1.35819 H 10.44973 v 1.35819 z"
         id="path24783" />
      <path
         d="m 12.369218,193.80381 v 1.08655 q 0,0.1136 -0.07902,0.19262 -0.07902,0.079 -0.192617,0.079 h -0.232127 l -0.674157,-0.84208 v 0.84208 h -0.451908 v -1.08655 q 0,-0.1136 0.07902,-0.19262 0.07902,-0.079 0.192617,-0.079 h 0.232127 l 0.674157,0.84208 v -0.84208 z"
         id="path24785" />
      <path
         d="m 14.075061,193.80381 q 0.113594,0 0.192616,0.079 0.07902,0.079 0.07902,0.19262 v 0.36301 q 0,0.11112 -0.07902,0.19261 -0.07902,0.079 -0.192616,0.079 h -0.906285 v 0.4519 h -0.451907 v -1.35819 z m -0.18027,0.54328 v -0.18027 h -0.726015 v 0.18027 z"
         id="path24787" />
      <path
         d="m 16.314303,193.80381 v 1.08655 q 0,0.1136 -0.07902,0.19262 -0.07902,0.079 -0.192616,0.079 h -1.086553 q -0.113595,0 -0.192617,-0.079 -0.07902,-0.079 -0.07902,-0.19262 v -1.08655 h 0.451908 v 0.99518 H 15.8624 v -0.99518 z"
         id="path24789" />
      <path
         d="m 18.318947,193.80381 v 0.36301 h -0.590196 v 0.99518 h -0.451907 v -0.99518 h -0.587727 v -0.36301 z"
         id="path24791" />
      <path
         d="m 20.484647,193.80381 v 0.58773 q 0,0.11359 -0.08149,0.19261 -0.07902,0.079 -0.190147,0.079 h -0.634646 v 0.13581 h 0.906285 v 0.36301 h -1.358192 v -0.58772 q 0,-0.1136 0.07902,-0.19262 0.07902,-0.079 0.192616,-0.079 h 0.634646 v -0.13582 h -0.906284 v -0.36301 z"
         id="path24793" />
    </g>
    <g
       aria-label="Input 3"
       id="text7507-5"
       style="font-size:2.46944px;line-height:1.25;font-family:Excluded;-inkscape-font-specification:'Excluded, Normal';display:inline;fill:#ffffff;stroke-width:0.0700042"
       transform="matrix(0.92399667,0,0,0.92399667,-1.3817088,-152.80422)">
      <path
         d="m 9.9941177,207.8723 v -1.35819 h 0.4543773 v 1.35819 z"
         id="path24796" />
      <path
         d="m 12.367983,206.51411 v 1.08655 q 0,0.1136 -0.07902,0.19262 -0.07902,0.079 -0.192617,0.079 h -0.232127 l -0.674157,-0.84208 v 0.84208 h -0.451908 v -1.08655 q 0,-0.1136 0.07902,-0.19262 0.07902,-0.079 0.192617,-0.079 h 0.232127 l 0.674157,0.84208 v -0.84208 z"
         id="path24798" />
      <path
         d="m 14.073826,206.51411 q 0.113594,0 0.192616,0.079 0.07902,0.079 0.07902,0.19262 v 0.363 q 0,0.11113 -0.07902,0.19262 -0.07902,0.079 -0.192616,0.079 h -0.906285 v 0.45191 h -0.451907 v -1.35819 z m -0.18027,0.54327 v -0.18027 h -0.726015 v 0.18027 z"
         id="path24800" />
      <path
         d="m 16.313068,206.51411 v 1.08655 q 0,0.1136 -0.07902,0.19262 -0.07902,0.079 -0.192616,0.079 h -1.086553 q -0.113595,0 -0.192617,-0.079 -0.07902,-0.079 -0.07902,-0.19262 v -1.08655 h 0.451908 v 0.99518 h 0.726015 v -0.99518 z"
         id="path24802" />
      <path
         d="m 18.317712,206.51411 v 0.363 h -0.590196 v 0.99519 h -0.451907 v -0.99519 h -0.587727 v -0.363 z"
         id="path24804" />
      <path
         d="m 20.485881,206.78575 v 0.81491 q 0,0.1136 -0.07902,0.19262 -0.07902,0.079 -0.192616,0.079 h -1.086554 v -0.36301 h 0.906285 v -0.13582 h -0.906285 v -0.36054 h 0.906285 v -0.13582 h -0.906285 v -0.363 h 1.086554 q 0.113594,0 0.192616,0.079 0.07902,0.079 0.07902,0.19262 z m -1.358192,0.69885 z"
         id="path24806" />
    </g>
    <g
       aria-label="Input 4"
       id="text7507-52"
       style="font-size:2.46944px;line-height:1.25;font-family:Excluded;-inkscape-font-specification:'Excluded, Normal';display:inline;fill:#ffffff;stroke-width:0.0700042"
       transform="matrix(0.92399667,0,0,0.92399667,-1.3817089,-150.87217)">
      <path
         d="m 9.9978218,233.29288 v -1.35819 h 0.4543772 v 1.35819 z"
         id="path24809" />
      <path
         d="m 12.371687,231.93469 v 1.08655 q 0,0.11359 -0.07902,0.19262 -0.07902,0.079 -0.192617,0.079 h -0.232127 l -0.674157,-0.84208 v 0.84208 h -0.451908 v -1.08656 q 0,-0.11359 0.07902,-0.19261 0.07902,-0.079 0.192617,-0.079 h 0.232127 l 0.674157,0.84207 v -0.84207 z"
         id="path24811" />
      <path
         d="m 14.07753,231.93469 q 0.113594,0 0.192616,0.079 0.07902,0.079 0.07902,0.19261 v 0.36301 q 0,0.11113 -0.07902,0.19262 -0.07902,0.079 -0.192616,0.079 h -0.906285 v 0.45191 h -0.451907 v -1.35819 z m -0.180269,0.54327 v -0.18027 h -0.726016 v 0.18027 z"
         id="path24813" />
      <path
         d="m 16.316772,231.93469 v 1.08655 q 0,0.11359 -0.07902,0.19262 -0.07902,0.079 -0.192617,0.079 H 14.95858 q -0.113595,0 -0.192617,-0.079 -0.07902,-0.079 -0.07902,-0.19262 v -1.08655 h 0.451908 v 0.99518 h 0.726015 v -0.99518 z"
         id="path24815" />
      <path
         d="m 18.321416,231.93469 v 0.363 H 17.73122 v 0.99519 h -0.451907 v -0.99519 h -0.587727 v -0.363 z"
         id="path24817" />
      <path
         d="m 20.482177,231.93469 v 1.35819 h -0.451908 v -0.49883 h -0.634646 q -0.113594,0 -0.192616,-0.079 -0.07902,-0.079 -0.07902,-0.19262 v -0.58772 h 0.451907 v 0.49882 h 0.454377 v -0.49882 z"
         id="path24819" />
    </g>
    <g
       aria-label="Output 2"
       id="text8567-1"
       style="font-size:2.46944px;line-height:1.25;font-family:Excluded;-inkscape-font-specification:'Excluded, Normal';display:inline;fill:#ffffff;stroke-width:0.0700042"
       transform="matrix(0.92398307,0,0,0.92398307,-1.3815033,-147.97043)">
      <path
         d="m 9.5678123,271.06073 v -0.63218 H 8.8417969 v 0.63218 z m 0.1802691,-0.99519 q 0.1135942,0 0.1926163,0.079 0.079022,0.079 0.079022,0.19261 v 0.81492 q 0,0.11359 -0.079022,0.19261 -0.079022,0.079 -0.1926163,0.079 H 8.6615278 q -0.1135942,0 -0.1926163,-0.079 -0.079022,-0.079 -0.079022,-0.19261 v -0.81492 q 0,-0.11359 0.079022,-0.19261 0.079022,-0.079 0.1926163,-0.079 z"
         id="path24822" />
      <path
         d="m 11.987323,270.06554 v 1.08656 q 0,0.11359 -0.07902,0.19261 -0.07902,0.079 -0.192616,0.079 h -1.086554 q -0.113594,0 -0.192616,-0.079 -0.07902,-0.079 -0.07902,-0.19261 v -1.08656 H 10.8094 v 0.99519 h 0.726016 v -0.99519 z"
         id="path24824" />
      <path
         d="m 13.991968,270.06554 v 0.36301 h -0.590196 v 0.99519 h -0.451907 v -0.99519 h -0.587727 v -0.36301 z"
         id="path24826" />
      <path
         d="m 15.680525,270.06554 q 0.113594,0 0.192616,0.079 0.07902,0.079 0.07902,0.19261 v 0.36301 q 0,0.11113 -0.07902,0.19262 -0.07902,0.079 -0.192616,0.079 h -0.906284 v 0.45191 h -0.451908 v -1.3582 z m -0.180269,0.54328 v -0.18027 h -0.726015 v 0.18027 z"
         id="path24828" />
      <path
         d="m 17.919767,270.06554 v 1.08656 q 0,0.11359 -0.07902,0.19261 -0.07902,0.079 -0.192616,0.079 h -1.086554 q -0.113594,0 -0.192616,-0.079 -0.07902,-0.079 -0.07902,-0.19261 v -1.08656 h 0.451907 v 0.99519 h 0.726016 v -0.99519 z"
         id="path24830" />
      <path
         d="m 19.924412,270.06554 v 0.36301 h -0.590196 v 0.99519 h -0.451907 v -0.99519 h -0.587727 v -0.36301 z"
         id="path24832" />
      <path
         d="m 22.090111,270.06554 v 0.58773 q 0,0.1136 -0.08149,0.19262 -0.07902,0.079 -0.190147,0.079 h -0.634646 v 0.13582 h 0.906285 v 0.36301 h -1.358192 v -0.58773 q 0,-0.11359 0.07902,-0.19262 0.07902,-0.079 0.192616,-0.079 h 0.634646 v -0.13582 h -0.906284 v -0.36301 z"
         id="path24834" />
    </g>
    <g
       aria-label="Input 5"
       id="text7507-4-1"
       style="font-size:2.46944px;line-height:1.25;font-family:Excluded;-inkscape-font-specification:'Excluded, Normal';display:inline;fill:#ffffff;stroke-width:0.0700042"
       transform="matrix(0.92399667,0,0,0.92399667,-1.3817088,-149.90615)">
      <path
         d="m 9.9941177,246.00316 v -1.35819 h 0.4543773 v 1.35819 z"
         id="path24837" />
      <path
         d="m 12.367983,244.64497 v 1.08655 q 0,0.11359 -0.07902,0.19262 -0.07902,0.079 -0.192617,0.079 h -0.232127 l -0.674157,-0.84208 v 0.84208 h -0.451908 v -1.08656 q 0,-0.11359 0.07902,-0.19261 0.07902,-0.079 0.192617,-0.079 h 0.232127 l 0.674157,0.84208 v -0.84208 z"
         id="path24839" />
      <path
         d="m 14.073826,244.64497 q 0.113594,0 0.192616,0.079 0.07902,0.079 0.07902,0.19261 v 0.36301 q 0,0.11113 -0.07902,0.19262 -0.07902,0.079 -0.192616,0.079 h -0.906285 v 0.45191 h -0.451907 v -1.35819 z m -0.18027,0.54327 v -0.18027 h -0.726015 v 0.18027 z"
         id="path24841" />
      <path
         d="m 16.313068,244.64497 v 1.08655 q 0,0.11359 -0.07902,0.19262 -0.07902,0.079 -0.192616,0.079 h -1.086553 q -0.113595,0 -0.192617,-0.079 -0.07902,-0.079 -0.07902,-0.19262 v -1.08655 h 0.451908 v 0.99518 h 0.726015 v -0.99518 z"
         id="path24843" />
      <path
         d="m 18.317712,244.64497 v 0.363 h -0.590196 v 0.99519 h -0.451907 v -0.99519 h -0.587727 v -0.363 z"
         id="path24845" />
      <path
         d="m 19.579597,245.00797 v 0.13582 h 0.634646 q 0.113594,0 0.192616,0.079 0.07902,0.079 0.07902,0.19261 v 0.58773 h -1.358192 v -0.36301 h 0.906285 v -0.13582 h -0.634647 q -0.113594,0 -0.192616,-0.079 -0.07902,-0.079 -0.07902,-0.19262 v -0.58772 h 1.358192 v 0.363 z"
         id="path24847" />
    </g>
    <g
       aria-label="Input 6"
       id="text7507-5-7"
       style="font-size:2.46944px;line-height:1.25;font-family:Excluded;-inkscape-font-specification:'Excluded, Normal';display:inline;fill:#ffffff;stroke-width:0.0700042"
       transform="matrix(0.92399667,0,0,0.92399667,-1.3817098,-148.94013)">
      <path
         d="m 9.9941177,258.71344 v -1.35819 h 0.4543773 v 1.35819 z"
         id="path24850" />
      <path
         d="m 12.367983,257.35525 v 1.08655 q 0,0.1136 -0.07902,0.19262 -0.07902,0.079 -0.192617,0.079 h -0.232127 l -0.674157,-0.84208 v 0.84208 h -0.451908 v -1.08655 q 0,-0.1136 0.07902,-0.19262 0.07902,-0.079 0.192617,-0.079 h 0.232127 l 0.674157,0.84208 v -0.84208 z"
         id="path24852" />
      <path
         d="m 14.073826,257.35525 q 0.113594,0 0.192616,0.079 0.07902,0.079 0.07902,0.19262 v 0.363 q 0,0.11113 -0.07902,0.19262 -0.07902,0.079 -0.192616,0.079 h -0.906285 v 0.45191 h -0.451907 v -1.35819 z m -0.18027,0.54327 v -0.18026 h -0.726015 v 0.18026 z"
         id="path24854" />
      <path
         d="m 16.313068,257.35525 v 1.08655 q 0,0.1136 -0.07902,0.19262 -0.07902,0.079 -0.192616,0.079 h -1.086553 q -0.113595,0 -0.192617,-0.079 -0.07902,-0.079 -0.07902,-0.19262 v -1.08655 h 0.451908 v 0.99518 h 0.726015 v -0.99518 z"
         id="path24856" />
      <path
         d="m 18.317712,257.35525 v 0.36301 h -0.590196 v 0.99518 h -0.451907 v -0.99518 h -0.587727 v -0.36301 z"
         id="path24858" />
      <path
         d="m 20.485881,257.71826 h -0.906284 v 0.13581 h 0.906284 v 0.85937 h -1.086554 q -0.113594,0 -0.192616,-0.079 -0.07902,-0.079 -0.07902,-0.19262 v -1.08655 h 1.358192 z m -0.451907,0.49635 h -0.454377 v 0.13582 h 0.454377 z"
         id="path24860" />
    </g>
  </g>
</svg>
