<?xml version="1.0" encoding="UTF-8" standalone="no"?>
<!-- Created with Inkscape (http://www.inkscape.org/) -->

<svg
   width="30.48mm"
   height="128.5mm"
   viewBox="0 0 30.480002 128.50002"
   version="1.1"
   id="svg8"
   inkscape:version="1.1.2 (b8e25be8, 2022-02-05)"
   sodipodi:docname="BuffMix.svg"
   xmlns:inkscape="http://www.inkscape.org/namespaces/inkscape"
   xmlns:sodipodi="http://sodipodi.sourceforge.net/DTD/sodipodi-0.dtd"
   xmlns="http://www.w3.org/2000/svg"
   xmlns:svg="http://www.w3.org/2000/svg"
   xmlns:rdf="http://www.w3.org/1999/02/22-rdf-syntax-ns#"
   xmlns:cc="http://creativecommons.org/ns#"
   xmlns:dc="http://purl.org/dc/elements/1.1/">
  <defs
     id="defs2" />
  <sodipodi:namedview
     id="base"
     pagecolor="#ffffff"
     bordercolor="#666666"
     borderopacity="1.0"
     inkscape:pageopacity="0.0"
     inkscape:pageshadow="2"
     inkscape:zoom="1.6961572"
     inkscape:cx="151.2242"
     inkscape:cy="247.61857"
     inkscape:document-units="mm"
     inkscape:current-layer="text3019"
     showgrid="false"
     units="mm"
     inkscape:snap-bbox="true"
     inkscape:snap-page="true"
     inkscape:bbox-nodes="false"
     inkscape:snap-bbox-edge-midpoints="false"
     inkscape:window-width="1920"
     inkscape:window-height="956"
     inkscape:window-x="1920"
     inkscape:window-y="25"
     inkscape:window-maximized="0"
     inkscape:snap-bbox-midpoints="true"
     inkscape:snap-nodes="false"
     inkscape:pagecheckerboard="0" />
  <metadata
     id="metadata5">
    <rdf:RDF>
      <cc:Work
         rdf:about="">
        <dc:format>image/svg+xml</dc:format>
        <dc:type
           rdf:resource="http://purl.org/dc/dcmitype/StillImage" />
        <dc:title />
      </cc:Work>
    </rdf:RDF>
  </metadata>
  <g
     inkscape:label="Layer 1"
     inkscape:groupmode="layer"
     id="layer1"
     transform="translate(0,-168.49998)"
     style="display:inline">
    <rect
       style="display:inline;opacity:1;vector-effect:none;fill:#000000;fill-opacity:1;fill-rule:evenodd;stroke:none;stroke-width:0.649358;stroke-linecap:butt;stroke-linejoin:miter;stroke-miterlimit:4;stroke-dasharray:none;stroke-dashoffset:0;stroke-opacity:1;paint-order:normal"
       id="rect420"
       width="30.48"
       height="128.5"
       x="5.9211732e-17"
       y="168.49997" />
  </g>
  <g
     inkscape:groupmode="layer"
     id="layer4"
     inkscape:label="graphics"
     style="display:inline">
    <path
       style="display:inline;fill:#ffffff;stroke:#000000;stroke-width:0.264583px;stroke-linecap:butt;stroke-linejoin:miter;stroke-opacity:1"
       d="m 18.737133,19.11473 5.027977,3.36542 v 8.57317 h -4.872358 v 0.66035 h 4.872358 v 12.11275 h -5.030392 v 0.70227 h 4.969921 l 0.03951,8.21995 -4.990884,4.02988 -10e-7,0.76033 c -0.03951,0.15803 5.677027,-4.30644 5.677027,-4.30644 l -1e-6,-31.23603 -5.553669,-3.69114 z"
       id="path230"
       sodipodi:nodetypes="ccccccccccccccccc" />
    <path
       sodipodi:type="star"
       style="fill:#ffffff"
       id="path2110"
       inkscape:flatsided="true"
       sodipodi:sides="3"
       sodipodi:cx="80.528915"
       sodipodi:cy="77.116203"
       sodipodi:r1="4.2643762"
       sodipodi:r2="2.1321881"
       sodipodi:arg1="2.7299213"
       sodipodi:arg2="3.7771189"
       inkscape:rounded="0"
       inkscape:randomized="0"
       transform="matrix(0.26458333,0,0,0.26458333,0.05097275,-0.00728182)"
       inkscape:transform-center-x="0.063011423"
       inkscape:transform-center-y="-0.22573674"
       d="m 76.620814,78.822558 4.384406,-5.944047 2.955492,6.769031 z" />
    <path
       sodipodi:type="star"
       style="fill:#ffffff"
       id="path2294"
       inkscape:flatsided="true"
       sodipodi:sides="3"
       sodipodi:cx="80.528915"
       sodipodi:cy="77.116203"
       sodipodi:r1="4.2643762"
       sodipodi:r2="2.1321881"
       sodipodi:arg1="2.7299213"
       sodipodi:arg2="3.7771189"
       inkscape:rounded="0"
       inkscape:randomized="0"
       transform="matrix(0.21276314,-0.1572774,0.1572774,0.21276314,-7.9046413,27.646302)"
       inkscape:transform-center-x="-0.28156249"
       inkscape:transform-center-y="0.00058532252"
       d="m 76.620814,78.822558 4.384406,-5.944047 2.955492,6.769031 z" />
    <path
       sodipodi:type="star"
       style="fill:#ffffff"
       id="path2296"
       inkscape:flatsided="true"
       sodipodi:sides="3"
       sodipodi:cx="80.528915"
       sodipodi:cy="77.116203"
       sodipodi:r1="4.2643762"
       sodipodi:r2="2.1321881"
       sodipodi:arg1="2.7299213"
       sodipodi:arg2="3.7771189"
       inkscape:rounded="0"
       inkscape:randomized="0"
       transform="matrix(0.21070532,-0.16002376,0.16002376,0.21070532,-7.9562087,40.814043)"
       inkscape:transform-center-x="-0.27519871"
       inkscape:transform-center-y="0.0079006617"
       d="m 76.620814,78.822558 4.384406,-5.944047 2.955492,6.769031 z" />
    <path
       sodipodi:type="star"
       style="fill:#ffffff"
       id="path2391"
       inkscape:flatsided="true"
       sodipodi:sides="3"
       sodipodi:cx="80.528915"
       sodipodi:cy="77.116203"
       sodipodi:r1="4.2643762"
       sodipodi:r2="2.1321881"
       sodipodi:arg1="2.7299213"
       sodipodi:arg2="3.7771189"
       inkscape:rounded="0"
       inkscape:randomized="0"
       transform="matrix(-0.07563962,0.2535409,-0.2535409,-0.07563962,46.951525,40.640686)"
       inkscape:transform-center-x="-0.068511875"
       inkscape:transform-center-y="-0.22065086"
       d="m 76.620814,78.822558 4.384406,-5.944047 2.955492,6.769031 z" />
    <path
       style="display:inline;fill:#ffffff;stroke:#000000;stroke-width:0.264583px;stroke-linecap:butt;stroke-linejoin:miter;stroke-opacity:1"
       d="m 18.737133,69.97711 5.027977,3.36542 v 8.57317 h -4.872358 v 0.66035 H 23.76511 V 94.6888 h -5.030392 v 0.70227 h 4.969921 l 0.03951,8.21995 -4.990884,4.02988 -10e-7,0.76033 c -0.03951,0.15803 5.677027,-4.30644 5.677027,-4.30644 l -1e-6,-31.23603 -5.553669,-3.69114 z"
       id="path2494"
       sodipodi:nodetypes="ccccccccccccccccc" />
    <path
       sodipodi:type="star"
       style="fill:#ffffff"
       id="path2496"
       inkscape:flatsided="true"
       sodipodi:sides="3"
       sodipodi:cx="80.528915"
       sodipodi:cy="77.116203"
       sodipodi:r1="4.2643762"
       sodipodi:r2="2.1321881"
       sodipodi:arg1="2.7299213"
       sodipodi:arg2="3.7771189"
       inkscape:rounded="0"
       inkscape:randomized="0"
       transform="matrix(0.26458333,0,0,0.26458333,0.05097275,50.855095)"
       inkscape:transform-center-x="0.063011423"
       inkscape:transform-center-y="-0.22573674"
       d="m 76.620814,78.822558 4.384406,-5.944047 2.955492,6.769031 z" />
    <path
       sodipodi:type="star"
       style="fill:#ffffff"
       id="path2498"
       inkscape:flatsided="true"
       sodipodi:sides="3"
       sodipodi:cx="80.528915"
       sodipodi:cy="77.116203"
       sodipodi:r1="4.2643762"
       sodipodi:r2="2.1321881"
       sodipodi:arg1="2.7299213"
       sodipodi:arg2="3.7771189"
       inkscape:rounded="0"
       inkscape:randomized="0"
       transform="matrix(0.21221664,-0.15801404,0.15801404,0.21221664,-7.917438,78.610145)"
       inkscape:transform-center-x="-0.27986724"
       inkscape:transform-center-y="0.0025421923"
       d="m 76.620814,78.822558 4.384406,-5.944047 2.955492,6.769031 z" />
    <path
       sodipodi:type="star"
       style="fill:#ffffff"
       id="path2500"
       inkscape:flatsided="true"
       sodipodi:sides="3"
       sodipodi:cx="80.528915"
       sodipodi:cy="77.116203"
       sodipodi:r1="4.2643762"
       sodipodi:r2="2.1321881"
       sodipodi:arg1="2.7299213"
       sodipodi:arg2="3.7771189"
       inkscape:rounded="0"
       inkscape:randomized="0"
       transform="matrix(0.21366802,-0.15604587,0.15604587,0.21366802,-7.8880312,91.127614)"
       inkscape:transform-center-x="-0.27975083"
       inkscape:transform-center-y="-0.002673443"
       d="m 76.620814,78.822558 4.384406,-5.944047 2.955492,6.769031 z" />
    <path
       sodipodi:type="star"
       style="fill:#ffffff"
       id="path2502"
       inkscape:flatsided="true"
       sodipodi:sides="3"
       sodipodi:cx="80.528915"
       sodipodi:cy="77.116203"
       sodipodi:r1="4.2643762"
       sodipodi:r2="2.1321881"
       sodipodi:arg1="2.7299213"
       sodipodi:arg2="3.7771189"
       inkscape:rounded="0"
       inkscape:randomized="0"
       transform="matrix(-0.07563962,0.2535409,-0.2535409,-0.07563962,46.951525,91.503063)"
       inkscape:transform-center-x="-0.068511875"
       inkscape:transform-center-y="-0.22065086"
       d="m 76.620814,78.822558 4.384406,-5.944047 2.955492,6.769031 z" />
  </g>
  <g
     inkscape:groupmode="layer"
     id="layer2"
     inkscape:label="components"
     style="display:none">
    <circle
       r="4"
       cy="69.639145"
       cx="15.24"
       id="circle4956"
       style="display:inline;opacity:1;vector-effect:none;fill:#00ff00;fill-opacity:1;fill-rule:evenodd;stroke:none;stroke-width:1;stroke-linecap:butt;stroke-linejoin:miter;stroke-miterlimit:4;stroke-dasharray:none;stroke-dashoffset:0;stroke-opacity:1;paint-order:normal"
       inkscape:label="AudioCVIn2" />
    <circle
       style="display:inline;opacity:1;vector-effect:none;fill:#0000ff;fill-opacity:1;fill-rule:evenodd;stroke:none;stroke-width:1;stroke-linecap:butt;stroke-linejoin:miter;stroke-miterlimit:4;stroke-dasharray:none;stroke-dashoffset:0;stroke-opacity:1;paint-order:normal"
       id="circle4958"
       cx="15.24"
       cy="107.81326"
       r="4"
       inkscape:label="AudioCVOut6" />
    <circle
       r="4"
       cy="18.740318"
       cx="15.24"
       id="circle527"
       style="display:inline;opacity:1;vector-effect:none;fill:#00ff00;fill-opacity:1;fill-rule:evenodd;stroke:none;stroke-width:1;stroke-linecap:butt;stroke-linejoin:miter;stroke-miterlimit:4;stroke-dasharray:none;stroke-dashoffset:0;stroke-opacity:1;paint-order:normal"
       inkscape:label="AudioCVIn1" />
    <circle
       r="4"
       cy="31.465025"
       cx="15.24"
       id="circle529"
       style="display:inline;opacity:1;vector-effect:none;fill:#00ff00;fill-opacity:1;fill-rule:evenodd;stroke:none;stroke-width:1;stroke-linecap:butt;stroke-linejoin:miter;stroke-miterlimit:4;stroke-dasharray:none;stroke-dashoffset:0;stroke-opacity:1;paint-order:normal"
       inkscape:label="AudioCVOut1" />
    <circle
       r="4"
       cy="44.189732"
       cx="15.24"
       id="circle531"
       style="display:inline;opacity:1;vector-effect:none;fill:#00ff00;fill-opacity:1;fill-rule:evenodd;stroke:none;stroke-width:1;stroke-linecap:butt;stroke-linejoin:miter;stroke-miterlimit:4;stroke-dasharray:none;stroke-dashoffset:0;stroke-opacity:1;paint-order:normal"
       inkscape:label="AudioCVOut2" />
    <circle
       r="4"
       cy="82.363853"
       cx="15.24"
       id="circle533"
       style="display:inline;opacity:1;vector-effect:none;fill:#00ff00;fill-opacity:1;fill-rule:evenodd;stroke:none;stroke-width:1;stroke-linecap:butt;stroke-linejoin:miter;stroke-miterlimit:4;stroke-dasharray:none;stroke-dashoffset:0;stroke-opacity:1;paint-order:normal"
       inkscape:label="AudioCVOut4" />
    <circle
       r="4"
       cy="95.088539"
       cx="15.24"
       id="circle535"
       style="display:inline;opacity:1;vector-effect:none;fill:#00ff00;fill-opacity:1;fill-rule:evenodd;stroke:none;stroke-width:1;stroke-linecap:butt;stroke-linejoin:miter;stroke-miterlimit:4;stroke-dasharray:none;stroke-dashoffset:0;stroke-opacity:1;paint-order:normal"
       inkscape:label="AudioCVOut5" />
    <circle
       style="display:inline;opacity:1;vector-effect:none;fill:#0000ff;fill-opacity:1;fill-rule:evenodd;stroke:none;stroke-width:1;stroke-linecap:butt;stroke-linejoin:miter;stroke-miterlimit:4;stroke-dasharray:none;stroke-dashoffset:0;stroke-opacity:1;paint-order:normal"
       id="circle537"
       cx="15.24"
       cy="56.914436"
       r="4"
       inkscape:label="AudioCVOut3" />
  </g>
  <g
     inkscape:groupmode="layer"
     id="layer3"
     inkscape:label="text"
     style="display:inline">
    <path
       d="m 18.246633,284.5439 c -0.03457,0.0416 -0.06286,0.10683 -0.06286,0.14488 0,0.0381 -0.01295,0.0694 -0.0285,0.0695 -0.03411,0 -0.123495,0.20083 -0.123495,0.27701 v 0.0539 h -0.038 -0.038 v 0.0828 0.0828 h -0.03797 -0.038 v 0.0828 0.0828 h -0.038 -0.03802 v 0.0609 c 0,0.0335 -0.03678,0.13127 -0.08174,0.21732 -0.04496,0.0861 -0.146507,0.29358 -0.225679,0.46104 -0.07917,0.16746 -0.171095,0.33716 -0.204268,0.37714 l -0.06032,0.0726 0.01041,0.61649 0.01067,0.61651 0.636933,0.0114 0.636932,0.0114 -0.0254,0.11282 c -0.01397,0.0621 -0.03983,0.11905 -0.05748,0.12665 -0.01778,0.008 -0.03213,0.0495 -0.03213,0.0931 v 0.0794 h -0.038 -0.03797 v 0.0582 c 0,0.069 -0.158446,0.41186 -0.199493,0.43172 -0.01575,0.008 -0.0285,0.0376 -0.0285,0.0667 0,0.0291 -0.0684,0.19781 -0.151994,0.3749 -0.08359,0.17704 -0.151995,0.3473 -0.151995,0.37831 0,0.031 -0.01295,0.0564 -0.02901,0.0564 -0.016,0 -0.05972,0.0699 -0.09721,0.15527 -0.03752,0.0854 -0.109754,0.23907 -0.16058,0.34153 -0.09497,0.19159 -0.11016,0.27612 -0.07008,0.38994 l 0.02311,0.0655 h 0.06434 c 0.03536,0 0.08054,0.016 0.100406,0.0357 0.05202,0.0514 0.55009,0.33693 0.587758,0.33693 0.03391,0 0.151258,-0.23403 0.151258,-0.30167 0,-0.0224 0.02992,-0.0709 0.0665,-0.10793 0.08562,-0.0868 0.161494,-0.23447 0.161494,-0.31435 v -0.0627 h 0.038 0.03797 v -0.0828 -0.0828 h 0.03802 0.038 v -0.0828 -0.0828 h 0.0352 c 0.04056,0 0.154763,-0.23388 0.154763,-0.31686 v -0.0558 h 0.038 0.038 v -0.0828 -0.0828 h 0.038 0.03797 v -0.0828 -0.0828 h 0.03802 0.038 v -0.0969 -0.0968 l 0.189002,-0.40457 0.189053,-0.40452 0.08032,-0.0759 0.08031,-0.0759 0.0097,-0.406 c 0.0053,-0.22329 0.0025,-0.49448 -0.0071,-0.60261 l -0.01676,-0.19668 h -0.596496 -0.59652 l -0.03996,-0.0435 -0.03995,-0.0435 0.01778,-0.1014 0.01778,-0.10137 h 0.03355 0.03358 v -0.0828 -0.0828 h 0.038 0.038 l 0.0036,-0.0725 c 0.0025,-0.0399 0.05306,-0.16561 0.113666,-0.27948 0.06066,-0.11384 0.120955,-0.2396 0.134011,-0.27945 0.01295,-0.0398 0.03881,-0.0724 0.05725,-0.0724 h 0.03358 v -0.0579 c 0,-0.0319 0.05128,-0.16414 0.113996,-0.29401 l 0.113995,-0.23612 v -0.0993 -0.0993 h -0.07602 -0.07597 v -0.031 c 0,-0.0375 -0.184582,-0.13457 -0.255423,-0.13457 h -0.05062 l -0.02184,-0.0621 -0.02184,-0.0621 h -0.06965 c -0.03833,0 -0.08027,-0.0185 -0.09319,-0.0414 l -0.02337,-0.0414 h -0.08687 -0.08684 l -0.06292,0.0757 m -7.291625,0.61525 -0.0665,0.019 v 1.87554 1.87554 l 0.11872,0.0259 0.118745,0.0259 h 1.068551 1.068632 l 0.08684,-0.0254 0.08687,-0.0254 -0.01092,-0.37772 -0.01092,-0.37775 -0.8412,-0.0112 -0.841174,-0.0112 -0.02261,-0.0924 -0.02261,-0.0923 v -1.39289 -1.39286 l -0.0601,-0.0251 c -0.06761,-0.0283 -0.568987,-0.0257 -0.671298,0.003 m -3.6978962,0.0679 c -0.01067,0.0303 -0.01448,0.22124 -0.0084,0.42436 l 0.01118,0.36935 0.9238,0.0112 0.923801,0.0112 0.09258,0.10089 0.09258,0.10089 v 0.0866 0.0866 l -0.09258,0.10084 -0.09258,0.10089 -0.923801,0.0112 -0.9238,0.0112 v 0.4761 0.47613 l 0.92916,0.0112 0.929211,0.0112 0.08722,0.0893 0.08717,0.0892 v 0.0837 0.0837 l -0.102083,0.1161 -0.102109,0.11613 h -0.92519 -0.925223 l 0.01092,0.38296 0.01092,0.38295 1.157303,0.0109 1.157304,0.0109 0.11557,-0.06 c 0.185065,-0.0961 0.4385082,-0.43272 0.4385082,-0.5824 v -0.0627 h 0.038 0.03802 v -0.0828 -0.0828 h 0.03797 0.038 v -0.31049 -0.31054 h -0.038 -0.03797 v -0.0828 -0.0828 h -0.03802 -0.038 v -0.0627 c 0,-0.0345 -0.02134,-0.10209 -0.04747,-0.15032 l -0.04752,-0.0877 0.04752,-0.0188 c 0.02611,-0.0104 0.04747,-0.0414 0.04747,-0.0691 0,-0.0735 0.09017,-0.27323 0.123495,-0.27361 h 0.0285 v -0.2841 -0.28407 l -0.150927,-0.31974 -0.1509282,-0.31968 -0.104344,-0.0897 c -0.05738,-0.0493 -0.145288,-0.11295 -0.195377,-0.14143 l -0.09104,-0.0517 h -1.155745 -1.155729 l -0.0193,0.055 m 6.7185742,0.0137 -0.04747,0.0208 v 1.40178 1.40176 l 0.03797,0.0256 0.038,0.0256 v 0.0803 0.0804 h 0.038 0.03797 v 0.0618 0.0618 l 0.224714,0.24864 0.224715,0.24869 h 0.06028 0.06027 v 0.0414 0.0414 h 0.07374 0.07376 l 0.02337,0.0414 0.02337,0.0414 h 0.508458 0.508459 l 0.02337,-0.0414 0.02337,-0.0414 h 0.07376 0.07374 v -0.0414 -0.0414 h 0.06254 0.06251 l 0.222454,-0.25474 0.222454,-0.25471 v -0.0558 -0.0558 h 0.03797 0.038 v -0.0828 -0.0828 h 0.03802 0.038 v -1.42758 -1.42754 l -0.08631,-0.0236 c -0.04745,-0.0129 -0.205613,-0.018 -0.351461,-0.0112 l -0.265176,0.0124 -0.0099,1.31019 -0.0099,1.31021 -0.155957,0.1699 -0.155906,0.1699 H 15.35494 14.965049 l -0.156566,-0.16556 -0.156566,-0.16555 v -1.29978 -1.29974 l -0.0601,-0.0251 c -0.07094,-0.0297 -0.545721,-0.0279 -0.614352,0.003 m 6.306991,0.003 -0.08585,0.018 0.0099,1.89118 0.0099,1.89119 h 0.37996 0.37996 l 0.01905,-0.69017 0.01905,-0.69017 0.03152,-0.0344 0.03155,-0.0344 0.498527,-0.0137 0.498528,-0.0137 0.162484,0.0266 0.162459,0.0265 0.01041,0.71181 0.01041,0.71179 h 0.398933 0.398985 l 0.0099,-1.88885 0.0099,-1.88888 -0.119127,-0.026 c -0.06553,-0.0142 -0.209906,-0.026 -0.320879,-0.026 h -0.201727 l -0.09655,0.04 -0.09655,0.04 -0.01041,0.69487 -0.01041,0.69489 -0.645746,0.0114 -0.645746,0.0114 -0.04768,-0.0711 -0.0477,-0.071 v -0.64968 -0.64966 l -0.0855,-0.0249 c -0.09378,-0.0274 -0.491085,-0.0254 -0.627305,0.003 m 0.07335,4.28989 -0.120472,0.13541 v 0.0788 0.0787 l 0.04559,-0.0497 0.04559,-0.0497 h 0.163399 0.163398 v 0.0414 c 0,0.0229 0.01702,0.0414 0.03797,0.0414 h 0.038 v -0.0724 -0.0725 l -0.126086,-0.13345 -0.126112,-0.13347 -0.120472,0.13545 m 0.601448,0.0102 v 0.14783 l 0.05428,0.0592 0.05428,0.0591 h 0.159995 0.160046 l 0.05047,-0.0724 0.05044,-0.0724 v -0.11141 -0.11143 l -0.03566,-0.0241 -0.03566,-0.0239 -0.01194,0.15613 -0.01194,0.15609 -0.180467,0.0127 -0.180493,0.0127 v -0.16785 -0.16789 h -0.038 -0.038 v 0.14788 m 0.74727,-0.12027 c -0.01397,0.0152 -0.0254,0.10833 -0.0254,0.20701 v 0.17937 h 0.211709 0.211685 l 0.05431,-0.0591 0.05428,-0.0592 v -0.0887 -0.0887 l -0.05428,-0.0591 -0.05431,-0.0591 h -0.186361 c -0.102489,0 -0.197765,0.0124 -0.211684,0.0276 m 0.734596,0.1794 v 0.21189 l 0.038,-0.0256 0.038,-0.0256 v -0.1607 -0.16073 l -0.038,-0.0256 -0.038,-0.0256 v 0.21192 m 0.313462,-0.14509 -0.0475,0.0588 v 0.0875 0.0875 l 0.05428,0.0592 0.05428,0.0591 h 0.157404 0.15743 l 0.05428,-0.0591 0.05425,-0.0592 v -0.0887 -0.0887 l -0.05425,-0.0591 -0.05428,-0.0591 -0.164212,0.003 -0.164186,0.003 -0.0475,0.0587 m -2.175288,0.16284 c 0,0.0129 -0.04275,0.0236 -0.095,0.0236 h -0.095 v -0.0331 c 0,-0.0183 0.01956,-0.0543 0.04318,-0.0801 l 0.04315,-0.047 0.05182,0.0565 c 0.02852,0.0311 0.05184,0.0671 0.05184,0.0802 m 1.557837,-0.0178 v 0.12421 h -0.18997 -0.189967 v -0.0966 c 0,-0.1333 0.02626,-0.15181 0.215317,-0.15181 h 0.164617 v 0.1242 m 1.025909,0 v 0.12421 H 22.97138 22.781413 v -0.12421 -0.1242 h 0.189967 0.189992 v 0.1242"
       id="gge1502"
       stroke="none"
       layerid="3"
       style="display:inline;fill:#ffffff;fill-opacity:1;stroke:none;stroke-width:0.254001;stroke-linecap:round;stroke-linejoin:round;shape-rendering:crispEdges"
       transform="translate(0,-168.49998)" />
    <g
       aria-label="Buff Mult"
       id="text3019"
       style="font-size:3.52778px;line-height:1.25;font-family:Excluded;-inkscape-font-specification:'Excluded, Normal';display:inline;fill:#ffffff;stroke-width:0.264583"
       transform="translate(0,-168.49998)">
      <g
         id="g24738">
        <g
           aria-label="Buff Mix"
           id="text4149"
           style="font-size:3.52778px;stroke-width:0.0700042">
          <path
             d="m 7.9819781,176.28746 q 0.1622779,0 0.2751669,0.11289 0.1128889,0.11289 0.1128889,0.27516 v 0.39864 q 0,0.0564 -0.038805,0.11289 -0.035278,0.0529 -0.091722,0.0706 0.056444,0.0176 0.091722,0.0741 0.038805,0.0529 0.038805,0.10936 v 0.39864 q 0,0.16228 -0.1128889,0.27517 -0.112889,0.11289 -0.2751669,0.11289 h -1.940279 v -1.94028 z m -0.2575279,1.42169 v -0.19402 H 6.6872829 v 0.19402 z m 0,-0.70908 v -0.19403 H 6.6872829 v 0.19403 z"
             id="path24740" />
          <path
             d="m 11.180903,176.28746 v 1.55222 q 0,0.16228 -0.112889,0.27517 -0.112889,0.11289 -0.275167,0.11289 H 9.2406238 q -0.1622779,0 -0.2751668,-0.11289 -0.112889,-0.11289 -0.112889,-0.27517 v -1.55222 h 0.6455838 v 1.42169 h 1.0371672 v -1.42169 z"
             id="path24742" />
          <path
             d="m 12.337243,176.80604 v 0.25753 h 1.425223 v 0.51858 h -1.425223 v 0.64559 h -0.645584 v -1.55223 q 0,-0.16227 0.112889,-0.27516 0.112889,-0.11289 0.275167,-0.11289 h 1.940279 v 0.51858 z"
             id="path24744" />
          <path
             d="m 15.162223,176.80604 v 0.25753 h 1.425223 v 0.51858 h -1.425223 v 0.64559 h -0.645584 v -1.55223 q 0,-0.16227 0.112889,-0.27516 0.112889,-0.11289 0.275167,-0.11289 h 1.940279 v 0.51858 z"
             id="path24746" />
          <path
             d="m 20.630282,176.67551 v 1.55223 H 19.98117 v -1.016 l -0.645584,1.016 -0.645583,-1.016 v 1.016 h -0.649112 v -1.55223 q 0,-0.16227 0.112889,-0.27516 0.116417,-0.11289 0.275167,-0.11289 h 0.28575 l 0.620889,0.97719 0.62089,-0.97719 h 0.28575 q 0.15875,0 0.271639,0.11289 0.116417,0.11289 0.116417,0.27516 z"
             id="path24748" />
          <path
             d="m 21.032945,178.22774 v -1.94028 h 0.649112 v 1.94028 z"
             id="path24750" />
          <path
             d="m 23.683355,177.2576 0.754945,0.97014 h -0.818445 l -0.345722,-0.4445 -0.345722,0.4445 h -0.818445 l 0.754945,-0.97014 -0.754945,-0.97014 h 0.818445 l 0.345722,0.4445 0.345722,-0.4445 H 24.4383 Z"
             id="path24752" />
        </g>
        <g
           aria-label="Input 1"
           id="text7507"
           style="font-size:2.46944px;stroke-width:0.0700042">
          <path
             d="m 10.286747,182.41968 v -1.35819 h 0.454377 v 1.35819 z"
             id="path24755" />
          <path
             d="m 12.660612,181.06149 v 1.08655 q 0,0.11359 -0.07902,0.19262 -0.07902,0.079 -0.192617,0.079 h -0.232127 l -0.674157,-0.84208 v 0.84208 h -0.451907 v -1.08656 q 0,-0.11359 0.07902,-0.19261 0.07902,-0.079 0.192616,-0.079 h 0.232127 l 0.674157,0.84207 v -0.84207 z"
             id="path24757" />
          <path
             d="m 14.366455,181.06149 q 0.113594,0 0.192616,0.079 0.07902,0.079 0.07902,0.19261 v 0.36301 q 0,0.11113 -0.07902,0.19262 -0.07902,0.079 -0.192616,0.079 H 13.46017 v 0.45191 h -0.451907 v -1.35819 z m -0.180269,0.54327 v -0.18027 H 13.46017 v 0.18027 z"
             id="path24759" />
          <path
             d="m 16.605697,181.06149 v 1.08655 q 0,0.11359 -0.07902,0.19262 -0.07902,0.079 -0.192617,0.079 h -1.086553 q -0.113594,0 -0.192617,-0.079 -0.07902,-0.079 -0.07902,-0.19262 v -1.08655 h 0.451908 v 0.99518 h 0.726015 v -0.99518 z"
             id="path24761" />
          <path
             d="m 18.610342,181.06149 v 0.363 h -0.590197 v 0.99519 h -0.451907 v -0.99519 h -0.587727 v -0.363 z"
             id="path24763" />
          <path
             d="m 20.193253,181.06149 v 1.35819 h -0.451907 v -0.99519 h -0.363008 v -0.363 z"
             id="path24765" />
        </g>
        <g
           aria-label="Output 1"
           id="text8567"
           style="font-size:2.46944px;stroke-width:0.0700042">
          <path
             d="M 9.8592056,220.21957 V 219.5874 H 9.1331902 v 0.63217 z m 0.1802694,-0.99518 q 0.113594,0 0.192616,0.079 0.07902,0.079 0.07902,0.19262 v 0.81491 q 0,0.1136 -0.07902,0.19262 -0.07902,0.079 -0.192616,0.079 H 8.9529211 q -0.1135942,0 -0.1926163,-0.079 -0.079022,-0.079 -0.079022,-0.19262 v -0.81491 q 0,-0.1136 0.079022,-0.19262 0.079022,-0.079 0.1926163,-0.079 z"
             id="path24768" />
          <path
             d="m 12.278717,219.22439 v 1.08655 q 0,0.1136 -0.07902,0.19262 -0.07902,0.079 -0.192616,0.079 h -1.086553 q -0.113595,0 -0.192617,-0.079 -0.07902,-0.079 -0.07902,-0.19262 v -1.08655 h 0.451908 v 0.99518 h 0.726015 v -0.99518 z"
             id="path24770" />
          <path
             d="m 14.283362,219.22439 v 0.36301 h -0.590196 v 0.99518 h -0.451908 v -0.99518 h -0.587727 v -0.36301 z"
             id="path24772" />
          <path
             d="m 15.971918,219.22439 q 0.113595,0 0.192617,0.079 0.07902,0.079 0.07902,0.19262 v 0.363 q 0,0.11113 -0.07902,0.19262 -0.07902,0.079 -0.192617,0.079 h -0.906284 v 0.45191 h -0.451908 v -1.35819 z m -0.180269,0.54328 v -0.18027 h -0.726015 v 0.18027 z"
             id="path24774" />
          <path
             d="m 18.21116,219.22439 v 1.08655 q 0,0.1136 -0.07902,0.19262 -0.07902,0.079 -0.192616,0.079 h -1.086554 q -0.113594,0 -0.192616,-0.079 -0.07902,-0.079 -0.07902,-0.19262 v -1.08655 h 0.451907 v 0.99518 h 0.726016 v -0.99518 z"
             id="path24776" />
          <path
             d="m 20.215806,219.22439 v 0.36301 h -0.590197 v 0.99518 h -0.451907 v -0.99518 h -0.587727 v -0.36301 z"
             id="path24778" />
          <path
             d="m 21.798716,219.22439 v 1.35819 h -0.451907 v -0.99518 h -0.363008 v -0.36301 z"
             id="path24780" />
        </g>
        <g
           aria-label="Input 2"
           id="text7507-4"
           style="font-size:2.46944px;display:inline;stroke-width:0.0700042">
          <path
             d="m 9.9953527,195.162 v -1.35819 H 10.44973 v 1.35819 z"
             id="path24783" />
          <path
             d="m 12.369218,193.80381 v 1.08655 q 0,0.1136 -0.07902,0.19262 -0.07902,0.079 -0.192617,0.079 h -0.232127 l -0.674157,-0.84208 v 0.84208 h -0.451908 v -1.08655 q 0,-0.1136 0.07902,-0.19262 0.07902,-0.079 0.192617,-0.079 h 0.232127 l 0.674157,0.84208 v -0.84208 z"
             id="path24785" />
          <path
             d="m 14.075061,193.80381 q 0.113594,0 0.192616,0.079 0.07902,0.079 0.07902,0.19262 v 0.36301 q 0,0.11112 -0.07902,0.19261 -0.07902,0.079 -0.192616,0.079 h -0.906285 v 0.4519 h -0.451907 v -1.35819 z m -0.18027,0.54328 v -0.18027 h -0.726015 v 0.18027 z"
             id="path24787" />
          <path
             d="m 16.314303,193.80381 v 1.08655 q 0,0.1136 -0.07902,0.19262 -0.07902,0.079 -0.192616,0.079 h -1.086553 q -0.113595,0 -0.192617,-0.079 -0.07902,-0.079 -0.07902,-0.19262 v -1.08655 h 0.451908 v 0.99518 h 0.726015 v -0.99518 z"
             id="path24789" />
          <path
             d="m 18.318947,193.80381 v 0.36301 h -0.590196 v 0.99518 h -0.451907 v -0.99518 h -0.587727 v -0.36301 z"
             id="path24791" />
          <path
             d="m 20.484647,193.80381 v 0.58773 q 0,0.11359 -0.08149,0.19261 -0.07902,0.079 -0.190147,0.079 h -0.634646 v 0.13581 h 0.906285 v 0.36301 h -1.358192 v -0.58772 q 0,-0.1136 0.07902,-0.19262 0.07902,-0.079 0.192616,-0.079 h 0.634646 v -0.13582 h -0.906284 v -0.36301 z"
             id="path24793" />
        </g>
        <g
           aria-label="Input 3"
           id="text7507-5"
           style="font-size:2.46944px;display:inline;stroke-width:0.0700042">
          <path
             d="m 9.9941177,207.8723 v -1.35819 h 0.4543773 v 1.35819 z"
             id="path24796" />
          <path
             d="m 12.367983,206.51411 v 1.08655 q 0,0.1136 -0.07902,0.19262 -0.07902,0.079 -0.192617,0.079 h -0.232127 l -0.674157,-0.84208 v 0.84208 h -0.451908 v -1.08655 q 0,-0.1136 0.07902,-0.19262 0.07902,-0.079 0.192617,-0.079 h 0.232127 l 0.674157,0.84208 v -0.84208 z"
             id="path24798" />
          <path
             d="m 14.073826,206.51411 q 0.113594,0 0.192616,0.079 0.07902,0.079 0.07902,0.19262 v 0.363 q 0,0.11113 -0.07902,0.19262 -0.07902,0.079 -0.192616,0.079 h -0.906285 v 0.45191 h -0.451907 v -1.35819 z m -0.18027,0.54327 v -0.18027 h -0.726015 v 0.18027 z"
             id="path24800" />
          <path
             d="m 16.313068,206.51411 v 1.08655 q 0,0.1136 -0.07902,0.19262 -0.07902,0.079 -0.192616,0.079 h -1.086553 q -0.113595,0 -0.192617,-0.079 -0.07902,-0.079 -0.07902,-0.19262 v -1.08655 h 0.451908 v 0.99518 h 0.726015 v -0.99518 z"
             id="path24802" />
          <path
             d="m 18.317712,206.51411 v 0.363 h -0.590196 v 0.99519 h -0.451907 v -0.99519 h -0.587727 v -0.363 z"
             id="path24804" />
          <path
             d="m 20.485881,206.78575 v 0.81491 q 0,0.1136 -0.07902,0.19262 -0.07902,0.079 -0.192616,0.079 h -1.086554 v -0.36301 h 0.906285 v -0.13582 h -0.906285 v -0.36054 h 0.906285 v -0.13582 h -0.906285 v -0.363 h 1.086554 q 0.113594,0 0.192616,0.079 0.07902,0.079 0.07902,0.19262 z m -1.358192,0.69885 z"
             id="path24806" />
        </g>
        <g
           aria-label="Input 4"
           id="text7507-52"
           style="font-size:2.46944px;display:inline;stroke-width:0.0700042">
          <path
             d="m 9.9978218,233.29288 v -1.35819 h 0.4543772 v 1.35819 z"
             id="path24809" />
          <path
             d="m 12.371687,231.93469 v 1.08655 q 0,0.11359 -0.07902,0.19262 -0.07902,0.079 -0.192617,0.079 h -0.232127 l -0.674157,-0.84208 v 0.84208 h -0.451908 v -1.08656 q 0,-0.11359 0.07902,-0.19261 0.07902,-0.079 0.192617,-0.079 h 0.232127 l 0.674157,0.84207 v -0.84207 z"
             id="path24811" />
          <path
             d="m 14.07753,231.93469 q 0.113594,0 0.192616,0.079 0.07902,0.079 0.07902,0.19261 v 0.36301 q 0,0.11113 -0.07902,0.19262 -0.07902,0.079 -0.192616,0.079 h -0.906285 v 0.45191 h -0.451907 v -1.35819 z m -0.180269,0.54327 v -0.18027 h -0.726016 v 0.18027 z"
             id="path24813" />
          <path
             d="m 16.316772,231.93469 v 1.08655 q 0,0.11359 -0.07902,0.19262 -0.07902,0.079 -0.192617,0.079 H 14.95858 q -0.113595,0 -0.192617,-0.079 -0.07902,-0.079 -0.07902,-0.19262 v -1.08655 h 0.451908 v 0.99518 h 0.726015 v -0.99518 z"
             id="path24815" />
          <path
             d="m 18.321416,231.93469 v 0.363 H 17.73122 v 0.99519 h -0.451907 v -0.99519 h -0.587727 v -0.363 z"
             id="path24817" />
          <path
             d="m 20.482177,231.93469 v 1.35819 h -0.451908 v -0.49883 h -0.634646 q -0.113594,0 -0.192616,-0.079 -0.07902,-0.079 -0.07902,-0.19262 v -0.58772 h 0.451907 v 0.49882 h 0.454377 v -0.49882 z"
             id="path24819" />
        </g>
        <g
           aria-label="Output 2"
           id="text8567-1"
           style="font-size:2.46944px;display:inline;stroke-width:0.0700042">
          <path
             d="m 9.5678123,271.06073 v -0.63218 H 8.8417969 v 0.63218 z m 0.1802691,-0.99519 q 0.1135942,0 0.1926163,0.079 0.079022,0.079 0.079022,0.19261 v 0.81492 q 0,0.11359 -0.079022,0.19261 -0.079022,0.079 -0.1926163,0.079 H 8.6615278 q -0.1135942,0 -0.1926163,-0.079 -0.079022,-0.079 -0.079022,-0.19261 v -0.81492 q 0,-0.11359 0.079022,-0.19261 0.079022,-0.079 0.1926163,-0.079 z"
             id="path24822" />
          <path
             d="m 11.987323,270.06554 v 1.08656 q 0,0.11359 -0.07902,0.19261 -0.07902,0.079 -0.192616,0.079 h -1.086554 q -0.113594,0 -0.192616,-0.079 -0.07902,-0.079 -0.07902,-0.19261 v -1.08656 H 10.8094 v 0.99519 h 0.726016 v -0.99519 z"
             id="path24824" />
          <path
             d="m 13.991968,270.06554 v 0.36301 h -0.590196 v 0.99519 h -0.451907 v -0.99519 h -0.587727 v -0.36301 z"
             id="path24826" />
          <path
             d="m 15.680525,270.06554 q 0.113594,0 0.192616,0.079 0.07902,0.079 0.07902,0.19261 v 0.36301 q 0,0.11113 -0.07902,0.19262 -0.07902,0.079 -0.192616,0.079 h -0.906284 v 0.45191 h -0.451908 v -1.3582 z m -0.180269,0.54328 v -0.18027 h -0.726015 v 0.18027 z"
             id="path24828" />
          <path
             d="m 17.919767,270.06554 v 1.08656 q 0,0.11359 -0.07902,0.19261 -0.07902,0.079 -0.192616,0.079 h -1.086554 q -0.113594,0 -0.192616,-0.079 -0.07902,-0.079 -0.07902,-0.19261 v -1.08656 h 0.451907 v 0.99519 h 0.726016 v -0.99519 z"
             id="path24830" />
          <path
             d="m 19.924412,270.06554 v 0.36301 h -0.590196 v 0.99519 h -0.451907 v -0.99519 h -0.587727 v -0.36301 z"
             id="path24832" />
          <path
             d="m 22.090111,270.06554 v 0.58773 q 0,0.1136 -0.08149,0.19262 -0.07902,0.079 -0.190147,0.079 h -0.634646 v 0.13582 h 0.906285 v 0.36301 h -1.358192 v -0.58773 q 0,-0.11359 0.07902,-0.19262 0.07902,-0.079 0.192616,-0.079 h 0.634646 v -0.13582 h -0.906284 v -0.36301 z"
             id="path24834" />
        </g>
        <g
           aria-label="Input 5"
           id="text7507-4-1"
           style="font-size:2.46944px;display:inline;stroke-width:0.0700042">
          <path
             d="m 9.9941177,246.00316 v -1.35819 h 0.4543773 v 1.35819 z"
             id="path24837" />
          <path
             d="m 12.367983,244.64497 v 1.08655 q 0,0.11359 -0.07902,0.19262 -0.07902,0.079 -0.192617,0.079 h -0.232127 l -0.674157,-0.84208 v 0.84208 h -0.451908 v -1.08656 q 0,-0.11359 0.07902,-0.19261 0.07902,-0.079 0.192617,-0.079 h 0.232127 l 0.674157,0.84208 v -0.84208 z"
             id="path24839" />
          <path
             d="m 14.073826,244.64497 q 0.113594,0 0.192616,0.079 0.07902,0.079 0.07902,0.19261 v 0.36301 q 0,0.11113 -0.07902,0.19262 -0.07902,0.079 -0.192616,0.079 h -0.906285 v 0.45191 h -0.451907 v -1.35819 z m -0.18027,0.54327 v -0.18027 h -0.726015 v 0.18027 z"
             id="path24841" />
          <path
             d="m 16.313068,244.64497 v 1.08655 q 0,0.11359 -0.07902,0.19262 -0.07902,0.079 -0.192616,0.079 h -1.086553 q -0.113595,0 -0.192617,-0.079 -0.07902,-0.079 -0.07902,-0.19262 v -1.08655 h 0.451908 v 0.99518 h 0.726015 v -0.99518 z"
             id="path24843" />
          <path
             d="m 18.317712,244.64497 v 0.363 h -0.590196 v 0.99519 h -0.451907 v -0.99519 h -0.587727 v -0.363 z"
             id="path24845" />
          <path
             d="m 19.579597,245.00797 v 0.13582 h 0.634646 q 0.113594,0 0.192616,0.079 0.07902,0.079 0.07902,0.19261 v 0.58773 h -1.358192 v -0.36301 h 0.906285 v -0.13582 h -0.634647 q -0.113594,0 -0.192616,-0.079 -0.07902,-0.079 -0.07902,-0.19262 v -0.58772 h 1.358192 v 0.363 z"
             id="path24847" />
        </g>
        <g
           aria-label="Input 6"
           id="text7507-5-7"
           style="font-size:2.46944px;display:inline;stroke-width:0.0700042">
          <path
             d="m 9.9941177,258.71344 v -1.35819 h 0.4543773 v 1.35819 z"
             id="path24850" />
          <path
             d="m 12.367983,257.35525 v 1.08655 q 0,0.1136 -0.07902,0.19262 -0.07902,0.079 -0.192617,0.079 h -0.232127 l -0.674157,-0.84208 v 0.84208 h -0.451908 v -1.08655 q 0,-0.1136 0.07902,-0.19262 0.07902,-0.079 0.192617,-0.079 h 0.232127 l 0.674157,0.84208 v -0.84208 z"
             id="path24852" />
          <path
             d="m 14.073826,257.35525 q 0.113594,0 0.192616,0.079 0.07902,0.079 0.07902,0.19262 v 0.363 q 0,0.11113 -0.07902,0.19262 -0.07902,0.079 -0.192616,0.079 h -0.906285 v 0.45191 h -0.451907 v -1.35819 z m -0.18027,0.54327 v -0.18026 h -0.726015 v 0.18026 z"
             id="path24854" />
          <path
             d="m 16.313068,257.35525 v 1.08655 q 0,0.1136 -0.07902,0.19262 -0.07902,0.079 -0.192616,0.079 h -1.086553 q -0.113595,0 -0.192617,-0.079 -0.07902,-0.079 -0.07902,-0.19262 v -1.08655 h 0.451908 v 0.99518 h 0.726015 v -0.99518 z"
             id="path24856" />
          <path
             d="m 18.317712,257.35525 v 0.36301 h -0.590196 v 0.99518 h -0.451907 v -0.99518 h -0.587727 v -0.36301 z"
             id="path24858" />
          <path
             d="m 20.485881,257.71826 h -0.906284 v 0.13581 h 0.906284 v 0.85937 h -1.086554 q -0.113594,0 -0.192616,-0.079 -0.07902,-0.079 -0.07902,-0.19262 v -1.08655 h 1.358192 z m -0.451907,0.49635 h -0.454377 v 0.13582 h 0.454377 z"
             id="path24860" />
        </g>
      </g>
    </g>
  </g>
</svg>
