<?xml version="1.0" encoding="UTF-8" standalone="no"?>
<!-- Created with Inkscape (http://www.inkscape.org/) -->

<svg
   width="30.48mm"
   height="128.5mm"
   viewBox="0 0 30.480002 128.50002"
   version="1.1"
   id="svg8"
   inkscape:version="1.1.2 (b8e25be8, 2022-02-05)"
   sodipodi:docname="ButtonTest.svg"
   xmlns:inkscape="http://www.inkscape.org/namespaces/inkscape"
   xmlns:sodipodi="http://sodipodi.sourceforge.net/DTD/sodipodi-0.dtd"
   xmlns="http://www.w3.org/2000/svg"
   xmlns:svg="http://www.w3.org/2000/svg"
   xmlns:rdf="http://www.w3.org/1999/02/22-rdf-syntax-ns#"
   xmlns:cc="http://creativecommons.org/ns#"
   xmlns:dc="http://purl.org/dc/elements/1.1/">
  <defs
     id="defs2" />
  <sodipodi:namedview
     id="base"
     pagecolor="#ffffff"
     bordercolor="#666666"
     borderopacity="1.0"
     inkscape:pageopacity="0.0"
     inkscape:pageshadow="2"
     inkscape:zoom="0.71358549"
     inkscape:cx="-86.184488"
     inkscape:cy="30.129536"
     inkscape:document-units="mm"
     inkscape:current-layer="layer1"
     showgrid="false"
     units="mm"
     inkscape:snap-bbox="true"
     inkscape:snap-page="true"
     inkscape:bbox-nodes="false"
     inkscape:snap-bbox-edge-midpoints="false"
     inkscape:window-width="1920"
     inkscape:window-height="1027"
     inkscape:window-x="0"
     inkscape:window-y="25"
     inkscape:window-maximized="1"
     inkscape:snap-bbox-midpoints="true"
     inkscape:snap-nodes="false"
     inkscape:pagecheckerboard="0" />
  <metadata
     id="metadata5">
    <rdf:RDF>
      <cc:Work
         rdf:about="">
        <dc:format>image/svg+xml</dc:format>
        <dc:type
           rdf:resource="http://purl.org/dc/dcmitype/StillImage" />
      </cc:Work>
    </rdf:RDF>
  </metadata>
  <g
     inkscape:label="background"
     inkscape:groupmode="layer"
     id="layer1"
     transform="translate(0,-168.49998)"
     style="display:inline">
    <rect
       style="display:inline;opacity:1;vector-effect:none;fill:#000000;fill-opacity:1;fill-rule:evenodd;stroke:none;stroke-width:0.649358;stroke-linecap:butt;stroke-linejoin:miter;stroke-miterlimit:4;stroke-dasharray:none;stroke-dashoffset:0;stroke-opacity:1;paint-order:normal"
       id="rect420"
       width="30.48"
       height="128.5"
       x="5.9211732e-17"
       y="168.49997" />
  </g>
  <g
     inkscape:groupmode="layer"
     id="layer3"
     inkscape:label="text"
     style="display:inline">
    <path
       d="m 18.246565,284.54361 c -0.03457,0.0416 -0.06285,0.10683 -0.06285,0.14488 0,0.0381 -0.01295,0.0694 -0.0285,0.0695 -0.03411,0 -0.123493,0.20083 -0.123493,0.27701 v 0.0539 h -0.038 -0.038 v 0.0828 0.0828 h -0.03797 -0.03799 v 0.0828 0.0828 h -0.038 -0.03802 v 0.0609 c 0,0.0335 -0.03678,0.13127 -0.08174,0.21732 -0.04496,0.0861 -0.146505,0.29358 -0.225676,0.46104 -0.07917,0.16746 -0.171095,0.33716 -0.204267,0.37714 l -0.06032,0.0726 0.01041,0.61649 0.01067,0.61651 0.636927,0.0114 0.636926,0.0114 -0.0254,0.11282 c -0.01397,0.0621 -0.03983,0.11905 -0.05748,0.12665 -0.01779,0.008 -0.03213,0.0495 -0.03213,0.0931 v 0.0794 h -0.038 -0.03797 v 0.0582 c 0,0.069 -0.158444,0.41186 -0.199491,0.43172 -0.01575,0.008 -0.0285,0.0376 -0.0285,0.0667 0,0.0291 -0.0684,0.19781 -0.151992,0.3749 -0.08359,0.17704 -0.151993,0.3473 -0.151993,0.37831 0,0.031 -0.01295,0.0564 -0.02901,0.0564 -0.016,0 -0.05972,0.0699 -0.09721,0.15527 -0.03751,0.0854 -0.109754,0.23907 -0.160579,0.34153 -0.09497,0.19159 -0.110159,0.27612 -0.07008,0.38994 l 0.02311,0.0655 h 0.06434 c 0.03536,0 0.08054,0.016 0.100405,0.0357 0.05202,0.0514 0.550085,0.33693 0.587752,0.33693 0.03391,0 0.151257,-0.23403 0.151257,-0.30167 0,-0.0224 0.02992,-0.0709 0.0665,-0.10793 0.08562,-0.0868 0.161492,-0.23447 0.161492,-0.31435 v -0.0627 h 0.038 0.03796 v -0.0828 -0.0828 h 0.03802 0.038 v -0.0828 -0.0828 h 0.0352 c 0.04056,0 0.154762,-0.23388 0.154762,-0.31686 v -0.0558 h 0.038 0.038 v -0.0828 -0.0828 h 0.038 0.03797 v -0.0828 -0.0828 h 0.03802 0.038 v -0.0969 -0.0968 l 0.189,-0.40457 0.189052,-0.40452 0.08032,-0.0759 0.08031,-0.0759 0.0097,-0.406 c 0.0053,-0.22329 0.0025,-0.49448 -0.0071,-0.60261 l -0.01676,-0.19668 h -0.596491 -0.596514 l -0.03996,-0.0435 -0.03995,-0.0435 0.01778,-0.1014 0.01779,-0.10137 h 0.03355 0.03358 v -0.0828 -0.0828 h 0.03799 0.038 l 0.0036,-0.0725 c 0.0025,-0.0399 0.05306,-0.16561 0.113665,-0.27948 0.06066,-0.11384 0.120954,-0.2396 0.13401,-0.27945 0.01295,-0.0398 0.03881,-0.0724 0.05725,-0.0724 h 0.03358 v -0.0579 c 0,-0.0319 0.05128,-0.16414 0.113995,-0.29401 l 0.113994,-0.23612 v -0.0993 -0.0993 h -0.07602 -0.07597 v -0.031 c 0,-0.0375 -0.18458,-0.13457 -0.25542,-0.13457 h -0.05062 l -0.02184,-0.0621 -0.02184,-0.0621 h -0.06965 c -0.03833,0 -0.08027,-0.0185 -0.09319,-0.0414 l -0.02337,-0.0414 h -0.08687 -0.08684 l -0.06292,0.0757 m -7.291558,0.61525 -0.0665,0.019 v 1.87554 1.87554 l 0.118719,0.0259 0.118744,0.0259 H 12.195378 13.264 l 0.08684,-0.0254 0.08687,-0.0254 -0.01092,-0.37772 -0.01092,-0.37775 -0.841192,-0.0112 -0.841166,-0.0112 -0.02262,-0.0924 -0.02262,-0.0923 v -1.39289 -1.39286 l -0.0601,-0.0251 c -0.0676,-0.0283 -0.568982,-0.0257 -0.671292,0.003 m -3.6978632,0.0679 c -0.01067,0.0303 -0.01448,0.22124 -0.0084,0.42436 l 0.01118,0.36935 0.9237916,0.0112 0.9237925,0.0112 0.092579,0.10089 0.092579,0.10089 v 0.0866 0.0866 l -0.092579,0.10084 -0.092579,0.10089 -0.9237925,0.0112 -0.9237916,0.0112 v 0.4761 0.47613 l 0.9291515,0.0112 0.9292025,0.0112 0.087219,0.0893 0.087169,0.0892 v 0.0837 0.0837 l -0.1020821,0.1161 -0.102108,0.11613 H 8.1652145 7.24 l 0.01092,0.38296 0.01092,0.38295 1.1572924,0.0109 1.1572934,0.0109 0.115569,-0.06 c 0.1850633,-0.0961 0.4385042,-0.43272 0.4385042,-0.5824 v -0.0627 h 0.038 0.03802 v -0.0828 -0.0828 h 0.03797 0.038 v -0.31049 -0.31054 h -0.038 -0.03797 v -0.0828 -0.0828 h -0.03802 -0.038 v -0.0627 c 0,-0.0345 -0.02134,-0.10209 -0.04747,-0.15032 l -0.04751,-0.0877 0.04751,-0.0188 c 0.02611,-0.0104 0.04747,-0.0414 0.04747,-0.0691 0,-0.0735 0.09017,-0.27323 0.123495,-0.27361 h 0.0285 v -0.2841 -0.28407 l -0.150927,-0.31974 -0.1509268,-0.31968 -0.1043431,-0.0897 c -0.057379,-0.0493 -0.1452867,-0.11295 -0.1953752,-0.14143 l -0.09104,-0.0517 H 8.4341481 7.2784297 l -0.019299,0.055 m 6.7185123,0.0137 -0.04748,0.0208 v 1.40178 1.40176 l 0.03797,0.0256 0.038,0.0256 v 0.0803 0.0804 h 0.038 0.03797 v 0.0618 0.0618 l 0.224712,0.24864 0.224712,0.24869 h 0.06028 0.06027 v 0.0414 0.0414 h 0.07374 0.07376 l 0.02337,0.0414 0.02337,0.0414 h 0.508452 0.508455 l 0.02337,-0.0414 0.02337,-0.0414 h 0.07376 0.07374 v -0.0414 -0.0414 h 0.06255 0.06251 l 0.222451,-0.25474 0.222452,-0.25471 v -0.0558 -0.0558 h 0.03797 0.038 v -0.0828 -0.0828 h 0.03802 0.03799 v -1.42758 -1.42754 l -0.08631,-0.0236 c -0.04745,-0.0129 -0.205612,-0.018 -0.351457,-0.0112 l -0.265175,0.0124 -0.0099,1.31019 -0.0099,1.31021 -0.155957,0.1699 -0.155904,0.1699 h -0.389813 -0.389887 l -0.156565,-0.16556 -0.156565,-0.16555 v -1.29978 -1.29974 l -0.0601,-0.0251 c -0.07094,-0.0297 -0.545715,-0.0279 -0.614345,0.003 m 6.306933,0.003 -0.08585,0.018 0.0099,1.89118 0.0099,1.89119 h 0.379956 0.379957 l 0.01905,-0.69017 0.01905,-0.69017 0.03152,-0.0344 0.03155,-0.0344 0.498522,-0.0137 0.498524,-0.0137 0.162482,0.0266 0.162457,0.0265 0.01041,0.71181 0.01041,0.71179 h 0.398929 0.398982 l 0.0099,-1.88885 0.0099,-1.88888 -0.119126,-0.026 c -0.06553,-0.0142 -0.209904,-0.026 -0.320876,-0.026 h -0.201725 l -0.09655,0.04 -0.09655,0.04 -0.01041,0.69487 -0.01041,0.69489 -0.64574,0.0114 -0.64574,0.0114 -0.04768,-0.0711 -0.04771,-0.071 v -0.64968 -0.64966 l -0.0855,-0.0249 c -0.09378,-0.0274 -0.49108,-0.0254 -0.627299,0.003 m 0.07335,4.28989 -0.120472,0.13541 v 0.0788 0.0787 l 0.04559,-0.0497 0.04559,-0.0497 h 0.163398 0.163396 v 0.0414 c 0,0.0229 0.01702,0.0414 0.03797,0.0414 h 0.038 v -0.0724 -0.0725 l -0.126085,-0.13345 -0.12611,-0.13347 -0.120472,0.13545 m 0.601443,0.0102 v 0.14783 l 0.05428,0.0592 0.05428,0.0591 h 0.159993 0.160045 l 0.05047,-0.0724 0.05044,-0.0724 v -0.11141 -0.11143 l -0.03566,-0.0241 -0.03566,-0.0239 -0.01194,0.15613 -0.01194,0.15609 -0.180466,0.0127 -0.180491,0.0127 v -0.16785 -0.16789 h -0.038 -0.038 v 0.14788 m 0.747263,-0.12027 c -0.01397,0.0152 -0.0254,0.10833 -0.0254,0.20701 v 0.17937 h 0.211707 0.211684 l 0.05431,-0.0591 0.05428,-0.0592 v -0.0887 -0.0887 l -0.05428,-0.0591 -0.05431,-0.0591 h -0.18636 c -0.102488,0 -0.197762,0.0124 -0.211682,0.0276 m 0.734589,0.1794 v 0.21189 l 0.038,-0.0256 0.038,-0.0256 v -0.1607 -0.16073 l -0.038,-0.0256 -0.038,-0.0256 v 0.21192 m 0.31346,-0.14509 -0.0475,0.0588 v 0.0875 0.0875 l 0.05428,0.0592 0.05428,0.0591 h 0.157402 0.157429 l 0.05428,-0.0591 0.05425,-0.0592 v -0.0887 -0.0887 l -0.05425,-0.0591 -0.05428,-0.0591 -0.16421,0.003 -0.164185,0.003 -0.04751,0.0587 m -2.175267,0.16284 c 0,0.0129 -0.04275,0.0236 -0.095,0.0236 h -0.095 v -0.0331 c 0,-0.0183 0.01956,-0.0543 0.04318,-0.0801 l 0.04315,-0.047 0.05182,0.0565 c 0.02852,0.0311 0.05184,0.0671 0.05184,0.0802 m 1.557822,-0.0178 v 0.12421 h -0.189969 -0.189965 v -0.0966 c 0,-0.1333 0.02626,-0.15181 0.215316,-0.15181 h 0.164615 v 0.1242 m 1.0259,0 v 0.12421 h -0.190049 -0.189965 v -0.12421 -0.1242 h 0.189965 0.189991 v 0.1242"
       id="gge1502"
       stroke="none"
       layerid="3"
       style="display:inline;fill:#ffffff;fill-opacity:1;stroke:none;stroke-width:0.253999;stroke-linecap:round;stroke-linejoin:round;shape-rendering:crispEdges"
       transform="translate(0,-168.49998)" />
    <g
       aria-label="ButtonTest"
       id="text3707"
       style="font-size:3.52778px;line-height:1.25;font-family:Excluded;-inkscape-font-specification:'Excluded, Normal';fill:#ffffff;stroke-width:0.264583">
      <path
         d="m 3.2913541,7.7869959 q 0.1622779,0 0.2751669,0.1128889 0.1128889,0.112889 0.1128889,0.2751669 v 0.3986391 q 0,0.056444 -0.038806,0.112889 -0.035278,0.052917 -0.091722,0.070556 0.056445,0.017639 0.091722,0.074083 0.038806,0.052917 0.038806,0.1093611 v 0.3986392 q 0,0.1622779 -0.1128889,0.2751668 -0.112889,0.112889 -0.2751669,0.112889 H 1.3510751 V 7.7869959 Z M 3.0338262,9.2086912 V 9.0146633 H 1.9966589 v 0.1940279 z m 0,-0.7090838 V 8.3055795 H 1.9966589 v 0.1940279 z"
         id="path8587" />
      <path
         d="m 6.4902788,7.7869959 v 1.5522232 q 0,0.1622779 -0.1128889,0.2751668 -0.112889,0.112889 -0.2751669,0.112889 H 4.5499998 q -0.1622779,0 -0.2751668,-0.112889 Q 4.161944,9.501497 4.161944,9.3392191 V 7.7869959 H 4.8075278 V 9.2086912 H 5.8446951 V 7.7869959 Z"
         id="path8589" />
      <path
         d="M 9.3540644,7.7869959 V 8.3055795 H 8.510925 V 9.7272749 H 7.8653413 V 8.3055795 H 7.0257296 V 7.7869959 Z"
         id="path8591" />
      <path
         d="m 12.179045,7.7869959 v 0.5185836 h -0.84314 V 9.7272749 H 10.690322 V 8.3055795 H 9.8507099 V 7.7869959 Z"
         id="path8593" />
      <path
         d="M 14.333746,9.2086912 V 8.3055795 h -1.037167 v 0.9031117 z m 0.257528,-1.4216953 q 0.162278,0 0.275167,0.1128889 0.112889,0.112889 0.112889,0.2751669 v 1.1641674 q 0,0.1622779 -0.112889,0.2751668 -0.112889,0.112889 -0.275167,0.112889 h -1.552223 q -0.162278,0 -0.275167,-0.112889 Q 12.650995,9.501497 12.650995,9.3392191 V 8.1750517 q 0,-0.1622779 0.112889,-0.2751669 0.112889,-0.1128889 0.275167,-0.1128889 z"
         id="path8595" />
      <path
         d="m 17.80431,7.7869959 v 1.5522232 q 0,0.1622779 -0.112889,0.2751668 -0.112889,0.112889 -0.275167,0.112889 h -0.331611 l -0.963084,-1.202973 v 1.202973 H 15.475975 V 8.1750517 q 0,-0.1622779 0.112889,-0.2751669 0.112889,-0.1128889 0.275167,-0.1128889 h 0.331611 l 0.963084,1.202973 v -1.202973 z"
         id="path8597" />
      <path
         d="M 20.653985,7.7869959 V 8.3055795 H 19.810846 V 9.7272749 H 19.165262 V 8.3055795 H 18.32565 V 7.7869959 Z"
         id="path8599" />
      <path
         d="m 21.771519,8.3055795 v 0.1940279 h 1.393473 v 0.5150559 h -1.393473 v 0.1940279 h 1.682751 v 0.5185837 h -1.940279 q -0.162278,0 -0.275167,-0.112889 Q 21.125935,9.501497 21.125935,9.3392191 V 8.1750517 q 0,-0.1622779 0.112889,-0.2751669 0.112889,-0.1128889 0.275167,-0.1128889 h 1.940279 v 0.5185836 z"
         id="path8601" />
      <path
         d="M 26.27925,8.4996074 V 9.0146633 Z M 24.596499,8.3055795 v 0.1940279 h 1.682751 v 0.8396117 q 0,0.014111 0,0.017639 -0.0071,0.1516945 -0.119944,0.2610557 -0.112889,0.1093612 -0.268112,0.1093612 0,0 -1.940279,0 V 9.2086912 h 1.682751 V 9.0146633 H 23.950915 V 8.1750517 q 0,-0.010583 0,-0.017639 0.0071,-0.1552224 0.119945,-0.2610558 0.116417,-0.1093611 0.268111,-0.1093611 h 1.940279 v 0.5185836 z"
         id="path8603" />
      <path
         d="M 29.128924,7.7869959 V 8.3055795 H 28.285785 V 9.7272749 H 27.640201 V 8.3055795 H 26.80059 V 7.7869959 Z"
         id="path8605" />
    </g>
  </g>
  <g
     inkscape:groupmode="layer"
     id="layer2"
     inkscape:label="components"
     style="display:none">
    <circle
       inkscape:label="blink"
       r="4"
       cy="103.78201"
       cx="15.24"
       id="circle687"
       style="display:inline;opacity:1;vector-effect:none;fill:#ff00ff;fill-opacity:1;fill-rule:evenodd;stroke:none;stroke-width:1;stroke-linecap:butt;stroke-linejoin:miter;stroke-miterlimit:4;stroke-dasharray:none;stroke-dashoffset:0;stroke-opacity:1;paint-order:normal" />
    <circle
       inkscape:label="blink"
       r="4"
       cy="90.490334"
       cx="15.24"
       id="circle1843"
       style="display:inline;opacity:1;vector-effect:none;fill:#ff00ff;fill-opacity:1;fill-rule:evenodd;stroke:none;stroke-width:1;stroke-linecap:butt;stroke-linejoin:miter;stroke-miterlimit:4;stroke-dasharray:none;stroke-dashoffset:0;stroke-opacity:1;paint-order:normal" />
    <circle
       inkscape:label="blink"
       r="4"
       cy="77.198616"
       cx="15.24"
       id="circle1845"
       style="display:inline;opacity:1;vector-effect:none;fill:#ff00ff;fill-opacity:1;fill-rule:evenodd;stroke:none;stroke-width:1;stroke-linecap:butt;stroke-linejoin:miter;stroke-miterlimit:4;stroke-dasharray:none;stroke-dashoffset:0;stroke-opacity:1;paint-order:normal" />
    <circle
       inkscape:label="blink"
       r="4"
       cy="63.906952"
       cx="15.24"
       id="circle1847"
       style="display:inline;opacity:1;vector-effect:none;fill:#ff00ff;fill-opacity:1;fill-rule:evenodd;stroke:none;stroke-width:1;stroke-linecap:butt;stroke-linejoin:miter;stroke-miterlimit:4;stroke-dasharray:none;stroke-dashoffset:0;stroke-opacity:1;paint-order:normal" />
    <circle
       inkscape:label="blink"
       r="4"
       cy="50.61528"
       cx="15.24"
       id="circle1849"
       style="display:inline;opacity:1;vector-effect:none;fill:#ff00ff;fill-opacity:1;fill-rule:evenodd;stroke:none;stroke-width:1;stroke-linecap:butt;stroke-linejoin:miter;stroke-miterlimit:4;stroke-dasharray:none;stroke-dashoffset:0;stroke-opacity:1;paint-order:normal" />
    <circle
       inkscape:label="blink"
       r="4"
       cy="37.323616"
       cx="15.24"
       id="circle1851"
       style="display:inline;opacity:1;vector-effect:none;fill:#ff00ff;fill-opacity:1;fill-rule:evenodd;stroke:none;stroke-width:1;stroke-linecap:butt;stroke-linejoin:miter;stroke-miterlimit:4;stroke-dasharray:none;stroke-dashoffset:0;stroke-opacity:1;paint-order:normal" />
    <circle
       style="display:inline;fill:#ffff00;stroke-width:0.264583"
       id="path1103"
       cx="15.24"
       cy="23.469196"
       r="2.8630769" />
  </g>
</svg>
