<?xml version="1.0" encoding="UTF-8" standalone="no"?>
<!-- Created with Inkscape (http://www.inkscape.org/) -->

<svg
   width="30.48mm"
   height="128.5mm"
   viewBox="0 0 30.480002 128.50002"
   version="1.1"
   id="svg8"
   inkscape:version="1.1.2 (b8e25be8, 2022-02-05)"
   sodipodi:docname="Coloratura.svg"
   xmlns:inkscape="http://www.inkscape.org/namespaces/inkscape"
   xmlns:sodipodi="http://sodipodi.sourceforge.net/DTD/sodipodi-0.dtd"
   xmlns="http://www.w3.org/2000/svg"
   xmlns:svg="http://www.w3.org/2000/svg"
   xmlns:rdf="http://www.w3.org/1999/02/22-rdf-syntax-ns#"
   xmlns:cc="http://creativecommons.org/ns#"
   xmlns:dc="http://purl.org/dc/elements/1.1/">
  <defs
     id="defs2">
    <inkscape:path-effect
       effect="fillet_chamfer"
       id="path-effect963"
       is_visible="true"
       lpeversion="1"
       satellites_param="F,0,0,1,0,1.4332636,0,1 @ F,0,0,1,0,1.2740121,0,1 @ F,0,0,1,0,1.369563,0,1 @ F,0,0,1,0,1.4014133,0,1"
       unit="px"
       method="auto"
       mode="F"
       radius="0"
       chamfer_steps="1"
       flexible="false"
       use_knot_distance="true"
       apply_no_radius="true"
       apply_with_radius="true"
       only_selected="false"
       hide_knots="false" />
    <inkscape:path-effect
       effect="fillet_chamfer"
       id="path-effect887"
       is_visible="true"
       lpeversion="1"
       satellites_param="F,0,0,1,0,1.4332636,0,1 @ F,0,0,1,0,1.2740121,0,1 @ F,0,0,1,0,1.369563,0,1 @ F,0,0,1,0,1.4014133,0,1"
       unit="px"
       method="auto"
       mode="F"
       radius="0"
       chamfer_steps="1"
       flexible="false"
       use_knot_distance="true"
       apply_no_radius="true"
       apply_with_radius="true"
       only_selected="false"
       hide_knots="false" />
    <inkscape:path-effect
       effect="fillet_chamfer"
       id="path-effect879"
       is_visible="true"
       lpeversion="1"
       satellites_param="F,0,0,1,0,1.4332636,0,1 @ F,0,0,1,0,1.2740121,0,1 @ F,0,0,1,0,1.369563,0,1 @ F,0,0,1,0,1.4014133,0,1"
       unit="px"
       method="auto"
       mode="F"
       radius="0"
       chamfer_steps="1"
       flexible="false"
       use_knot_distance="true"
       apply_no_radius="true"
       apply_with_radius="true"
       only_selected="false"
       hide_knots="false" />
    <inkscape:path-effect
       effect="fillet_chamfer"
       id="path-effect873"
       is_visible="true"
       lpeversion="1"
       satellites_param="F,0,0,1,0,1.4332636,0,1 @ F,0,0,1,0,1.2740121,0,1 @ F,0,0,1,0,1.369563,0,1 @ F,0,0,1,0,1.4014133,0,1"
       unit="px"
       method="auto"
       mode="F"
       radius="0"
       chamfer_steps="1"
       flexible="false"
       use_knot_distance="true"
       apply_no_radius="true"
       apply_with_radius="true"
       only_selected="false"
       hide_knots="false" />
    <inkscape:path-effect
       effect="fillet_chamfer"
       id="path-effect420"
       is_visible="true"
       lpeversion="1"
       satellites_param="F,0,0,1,0,1.4332636,0,1 @ F,0,0,1,0,1.2740121,0,1 @ F,0,0,1,0,1.369563,0,1 @ F,0,0,1,0,1.4014133,0,1"
       unit="px"
       method="auto"
       mode="F"
       radius="0"
       chamfer_steps="1"
       flexible="false"
       use_knot_distance="true"
       apply_no_radius="true"
       apply_with_radius="true"
       only_selected="false"
       hide_knots="false" />
    <inkscape:path-effect
       effect="fillet_chamfer"
       id="path-effect216"
       is_visible="true"
       lpeversion="1"
       satellites_param="F,0,0,1,0,1.4332636,0,1 @ F,0,0,1,0,1.2740121,0,1 @ F,0,0,1,0,1.369563,0,1 @ F,0,0,1,0,1.4014133,0,1"
       unit="px"
       method="auto"
       mode="F"
       radius="0"
       chamfer_steps="1"
       flexible="false"
       use_knot_distance="true"
       apply_no_radius="true"
       apply_with_radius="true"
       only_selected="false"
       hide_knots="false" />
  </defs>
  <sodipodi:namedview
     id="base"
     pagecolor="#ffffff"
     bordercolor="#666666"
     borderopacity="1.0"
     inkscape:pageopacity="0.0"
     inkscape:pageshadow="2"
     inkscape:zoom="1.2483207"
     inkscape:cx="175.43569"
     inkscape:cy="199.06744"
     inkscape:document-units="mm"
     inkscape:current-layer="layer2"
     showgrid="false"
     units="mm"
     inkscape:snap-bbox="true"
     inkscape:snap-page="true"
     inkscape:bbox-nodes="false"
     inkscape:snap-bbox-edge-midpoints="false"
     inkscape:window-width="1920"
     inkscape:window-height="1027"
     inkscape:window-x="0"
     inkscape:window-y="25"
     inkscape:window-maximized="1"
     inkscape:snap-bbox-midpoints="true"
     inkscape:snap-nodes="false"
     inkscape:pagecheckerboard="0" />
  <metadata
     id="metadata5">
    <rdf:RDF>
      <cc:Work
         rdf:about="">
        <dc:format>image/svg+xml</dc:format>
        <dc:type
           rdf:resource="http://purl.org/dc/dcmitype/StillImage" />
      </cc:Work>
    </rdf:RDF>
  </metadata>
  <g
     inkscape:label="background"
     inkscape:groupmode="layer"
     id="layer1"
     transform="translate(0,-168.49998)"
     style="display:inline">
    <rect
       style="display:inline;opacity:1;vector-effect:none;fill:#00659b;fill-opacity:1;fill-rule:evenodd;stroke:none;stroke-width:0.649358;stroke-linecap:butt;stroke-linejoin:miter;stroke-miterlimit:4;stroke-dasharray:none;stroke-dashoffset:0;stroke-opacity:1;paint-order:normal"
       id="rect420"
       width="30.48"
       height="128.5"
       x="5.9211732e-17"
       y="168.49997" />
    <rect
       style="fill:#ff7522;fill-opacity:1;stroke:#ff7522;stroke-width:0.23616;stroke-opacity:1"
       id="rect1043"
       width="30.243839"
       height="0.60835814"
       x="0.11808014"
       y="170.61806" />
    <rect
       style="fill:#ff7522;fill-opacity:1;stroke:#ff7522;stroke-width:0.23616;stroke-opacity:1"
       id="rect1391"
       width="30.243839"
       height="0.60835814"
       x="0.11808014"
       y="294.21805" />
    <path
       style="fill:#ffffff;stroke-width:0.247591"
       id="path959"
       width="8.5019999"
       height="8.5019999"
       x="17.931"
       y="267.83527"
       sodipodi:type="rect"
       inkscape:path-effect="#path-effect963"
       d="m 19.364263,267.83527 h 5.794725 a 1.2740121,1.2740121 45 0 1 1.274012,1.27401 v 5.85842 a 1.369563,1.369563 135 0 1 -1.369563,1.36957 H 19.332413 A 1.4014133,1.4014133 45 0 1 17.931,274.93585 v -5.66732 a 1.4332636,1.4332636 135 0 1 1.433263,-1.43326 z" />
  </g>
  <g
     inkscape:groupmode="layer"
     id="layer3"
     inkscape:label="text"
     style="display:inline">
    <g
       aria-label="input"
       transform="translate(0,-92.767225)"
       id="text4838"
       style="font-size:2.46944px;line-height:1.25;font-family:Excluded;-inkscape-font-specification:'Excluded, Normal';display:inline;fill:#ffffff;stroke-width:0.264583">
      <path
         d="m 4.7282085,190.44817 v -1.3582 h 0.454377 v 1.3582 z"
         id="path10773" />
      <path
         d="m 7.1020735,189.08997 v 1.08656 q 0,0.11359 -0.079022,0.19261 -0.079022,0.079 -0.1926163,0.079 H 6.5983077 l -0.6741571,-0.84208 v 0.84208 H 5.4722431 v -1.08656 q 0,-0.11359 0.079022,-0.19261 0.079022,-0.079 0.1926164,-0.079 h 0.2321273 l 0.6741571,0.84208 v -0.84208 z"
         id="path10775" />
      <path
         d="m 8.8079164,189.08997 q 0.1135942,0 0.1926163,0.079 0.079022,0.079 0.079022,0.19261 v 0.36301 q 0,0.11112 -0.079022,0.19262 -0.079022,0.079 -0.1926163,0.079 H 7.9016319 v 0.45191 H 7.4497244 v -1.3582 z m -0.1802692,0.54328 v -0.18027 H 7.9016319 v 0.18027 z"
         id="path10777" />
      <path
         d="m 11.047158,189.08997 v 1.08656 q 0,0.11359 -0.07902,0.19261 -0.07902,0.079 -0.192616,0.079 H 9.6889664 q -0.1135943,0 -0.1926163,-0.079 -0.079022,-0.079 -0.079022,-0.19261 v -1.08656 h 0.4519075 v 0.99519 h 0.7260154 v -0.99519 z"
         id="path10779" />
      <path
         d="m 13.051803,189.08997 v 0.36301 h -0.590196 v 0.99519 h -0.451908 v -0.99519 h -0.587726 v -0.36301 z"
         id="path10781" />
    </g>
    <g
       aria-label="coloratura"
       id="text4584"
       style="font-size:3.52778px;line-height:1.25;font-family:Excluded;-inkscape-font-specification:'Excluded, Normal';fill:#ffffff;stroke-width:0.264583">
      <path
         d="m 2.0143073,8.2174438 v 0.9031117 h 1.6827511 v 0.5185837 h -1.940279 q -0.1622779,0 -0.2751669,-0.112889 Q 1.3687236,9.4133613 1.3687236,9.2510834 V 8.086916 q 0,-0.1622779 0.1128889,-0.2751669 0.112889,-0.112889 0.2751669,-0.112889 h 1.940279 v 0.5185837 z"
         id="path7183" />
      <path
         d="M 5.8764547,9.1205555 V 8.2174438 H 4.8392873 V 9.1205555 Z M 6.1339826,7.6988601 q 0.1622779,0 0.2751669,0.112889 0.1128889,0.112889 0.1128889,0.2751669 v 1.1641674 q 0,0.1622779 -0.1128889,0.2751668 -0.112889,0.112889 -0.2751669,0.112889 H 4.5817594 q -0.1622779,0 -0.2751668,-0.112889 Q 4.1937036,9.4133613 4.1937036,9.2510834 V 8.086916 q 0,-0.1622779 0.112889,-0.2751669 0.1128889,-0.112889 0.2751668,-0.112889 z"
         id="path7185" />
      <path
         d="m 9.3470184,9.1205555 v 0.5185837 h -1.940279 q -0.1622779,0 -0.2751668,-0.112889 Q 7.0186836,9.4133613 7.0186836,9.2510834 V 7.6988601 h 0.6455838 v 1.4216954 z"
         id="path7187" />
      <path
         d="M 11.526415,9.1205555 V 8.2174438 h -1.037167 v 0.9031117 z m 0.257528,-1.4216954 q 0.162278,0 0.275167,0.112889 0.112889,0.112889 0.112889,0.2751669 v 1.1641674 q 0,0.1622779 -0.112889,0.2751668 -0.112889,0.112889 -0.275167,0.112889 H 10.23172 q -0.162278,0 -0.2751672,-0.112889 Q 9.8436639,9.4133613 9.8436639,9.2510834 V 8.086916 q 0,-0.1622779 0.1128889,-0.2751669 0.1128892,-0.112889 0.2751672,-0.112889 z"
         id="path7189" />
      <path
         d="m 14.608923,7.6988601 q 0.162278,0 0.275167,0.112889 0.112888,0.112889 0.112888,0.2751669 v 0.5185836 q 0,0.1587501 -0.112888,0.2751669 -0.112889,0.1128889 -0.275167,0.1128889 h -0.151695 l 0.53975,0.6455838 H 14.323172 L 13.779894,8.9935554 H 13.314227 V 9.6391392 H 12.668644 V 7.6988601 Z m -0.257528,0.7761117 v -0.257528 h -1.037168 v 0.257528 z"
         id="path7191" />
      <path
         d="m 17.423319,7.6988601 q 0.15875,0 0.271639,0.112889 0.116417,0.112889 0.116417,0.2751669 V 9.6391392 H 17.162263 V 8.9935554 H 16.128624 V 9.6391392 H 15.48304 V 8.086916 q 0,-0.1622779 0.112889,-0.2751669 0.112889,-0.112889 0.275167,-0.112889 z m -0.261056,0.7761117 v -0.257528 h -1.033639 v 0.257528 z"
         id="path7193" />
      <path
         d="M 20.671633,7.6988601 V 8.2174438 H 19.828494 V 9.6391392 H 19.18291 V 8.2174438 H 18.343299 V 7.6988601 Z"
         id="path7195" />
      <path
         d="m 23.457808,7.6988601 v 1.5522233 q 0,0.1622779 -0.112889,0.2751668 -0.112889,0.112889 -0.275167,0.112889 h -1.552223 q -0.162278,0 -0.275167,-0.112889 Q 21.129473,9.4133613 21.129473,9.2510834 V 7.6988601 h 0.645584 v 1.4216954 h 1.037167 V 7.6988601 Z"
         id="path7197" />
      <path
         d="m 25.908843,7.6988601 q 0.162278,0 0.275167,0.112889 0.112889,0.112889 0.112889,0.2751669 v 0.5185836 q 0,0.1587501 -0.112889,0.2751669 -0.112889,0.1128889 -0.275167,0.1128889 h -0.151695 l 0.539751,0.6455838 H 25.623093 L 25.079814,8.9935554 H 24.614147 V 9.6391392 H 23.968564 V 7.6988601 Z m -0.257528,0.7761117 v -0.257528 h -1.037168 v 0.257528 z"
         id="path7199" />
      <path
         d="m 28.723239,7.6988601 q 0.15875,0 0.271639,0.112889 0.116417,0.112889 0.116417,0.2751669 V 9.6391392 H 28.462183 V 8.9935554 H 27.428544 V 9.6391392 H 26.78296 V 8.086916 q 0,-0.1622779 0.112889,-0.2751669 0.112889,-0.112889 0.275167,-0.112889 z m -0.261056,0.7761117 v -0.257528 h -1.033639 v 0.257528 z"
         id="path7201" />
    </g>
    <path
       d="m 17.870708,116.03418 c -0.03025,0.0364 -0.05499,0.0935 -0.05499,0.12677 0,0.0333 -0.01133,0.0607 -0.02494,0.0608 -0.02985,0 -0.108057,0.17572 -0.108057,0.24238 v 0.0472 h -0.03325 -0.03325 v 0.0724 0.0725 H 17.583 17.54976 v 0.0725 0.0725 h -0.03325 -0.03327 v 0.0533 c 0,0.0293 -0.03218,0.11486 -0.07152,0.19016 -0.03934,0.0753 -0.128191,0.25688 -0.197466,0.40341 -0.06927,0.14652 -0.149708,0.29501 -0.178733,0.32999 l -0.05278,0.0635 0.0091,0.53943 0.0093,0.53944 0.55731,0.01 0.55731,0.01 -0.02222,0.0987 c -0.01222,0.0543 -0.03485,0.10417 -0.0503,0.11082 -0.01557,0.007 -0.02811,0.0433 -0.02811,0.0815 v 0.0695 h -0.03325 -0.03322 v 0.0509 c 0,0.0604 -0.138639,0.36038 -0.174555,0.37776 -0.01378,0.007 -0.02494,0.0329 -0.02494,0.0584 0,0.0255 -0.05985,0.17308 -0.132993,0.32804 -0.07314,0.15491 -0.132994,0.30388 -0.132994,0.33102 0,0.0271 -0.01133,0.0494 -0.02538,0.0494 -0.014,0 -0.05226,0.0612 -0.08506,0.13586 -0.03282,0.0747 -0.09604,0.20918 -0.140507,0.29884 -0.0831,0.16764 -0.09639,0.2416 -0.06132,0.34119 l 0.02022,0.0573 h 0.0563 c 0.03094,0 0.07047,0.014 0.08785,0.0312 0.04552,0.045 0.481324,0.29482 0.514283,0.29482 0.02967,0 0.13235,-0.20478 0.13235,-0.26396 0,-0.0196 0.02618,-0.062 0.05819,-0.0944 0.07492,-0.0759 0.141306,-0.20516 0.141306,-0.27506 v -0.0549 h 0.03325 0.03321 v -0.0724 -0.0725 h 0.03327 0.03325 v -0.0725 -0.0725 h 0.0308 c 0.03549,0 0.135417,-0.20465 0.135417,-0.27725 v -0.0488 h 0.03325 0.03325 v -0.0725 -0.0725 h 0.03325 0.03322 v -0.0725 -0.0724 h 0.03327 0.03325 v -0.0848 -0.0847 l 0.165375,-0.35399 0.16542,-0.35396 0.07028,-0.0664 0.07027,-0.0664 0.0085,-0.35525 c 0.0046,-0.19538 0.0022,-0.43267 -0.0062,-0.52729 l -0.01467,-0.17209 h -0.521929 -0.52195 l -0.03496,-0.0381 -0.03496,-0.0381 0.01556,-0.0887 0.01557,-0.0887 h 0.02936 0.02938 v -0.0725 -0.0724 h 0.03324 0.03325 l 0.0032,-0.0634 c 0.0022,-0.0349 0.04643,-0.14491 0.09946,-0.24454 0.05308,-0.0996 0.105834,-0.20965 0.117258,-0.24452 0.01133,-0.0348 0.03396,-0.0633 0.05009,-0.0633 h 0.02938 v -0.0507 c 0,-0.0279 0.04487,-0.14363 0.09974,-0.25726 l 0.09974,-0.20661 v -0.0869 -0.0869 h -0.06652 -0.06647 v -0.0271 c 0,-0.0328 -0.161508,-0.11775 -0.223493,-0.11775 h -0.04429 l -0.01911,-0.0543 -0.01911,-0.0543 h -0.06094 c -0.03354,0 -0.07024,-0.0162 -0.08154,-0.0362 l -0.02045,-0.0362 h -0.07601 -0.07599 l -0.05505,0.0662 m -6.380109,0.53834 -0.05819,0.0166 v 1.64109 1.6411 l 0.103879,0.0227 0.103901,0.0227 h 0.934943 0.935043 l 0.07598,-0.0222 0.07601,-0.0222 -0.0096,-0.3305 -0.0096,-0.33053 -0.736043,-0.01 -0.73602,-0.01 -0.01979,-0.0809 -0.01979,-0.0808 v -1.21878 -1.21875 l -0.05259,-0.022 c -0.05915,-0.0248 -0.497859,-0.0225 -0.58738,0.003 m -3.235628,0.0594 c -0.00934,0.0265 -0.01267,0.19359 -0.00735,0.37132 l 0.00978,0.32318 0.8083171,0.01 0.8083179,0.01 0.081006,0.0883 0.081007,0.0883 v 0.0758 0.0758 l -0.081007,0.0882 -0.081006,0.0883 -0.8083179,0.01 -0.8083171,0.01 v 0.41658 0.41662 l 0.813007,0.01 0.8130516,0.01 0.076317,0.0781 0.076273,0.0781 v 0.0732 0.0732 l -0.089322,0.10159 -0.089344,0.10161 H 9.0495324 8.2399703 l 0.00955,0.33509 0.00955,0.33508 1.0126301,0.01 1.0126306,0.01 0.101123,-0.0525 c 0.161931,-0.0841 0.383691,-0.37863 0.383691,-0.5096 v -0.0549 h 0.03325 0.03327 v -0.0725 -0.0724 h 0.03322 0.03325 v -0.27168 -0.27173 h -0.03325 -0.03322 v -0.0725 -0.0724 h -0.03327 -0.03325 v -0.0549 c 0,-0.0302 -0.01867,-0.0893 -0.04154,-0.13153 l -0.04157,-0.0767 0.04157,-0.0165 c 0.02285,-0.009 0.04154,-0.0362 0.04154,-0.0605 0,-0.0643 0.0789,-0.23907 0.108058,-0.23941 h 0.02494 v -0.24858 -0.24856 l -0.132061,-0.27978 -0.132061,-0.27972 -0.0913,-0.0785 c -0.05021,-0.0431 -0.127126,-0.0988 -0.170953,-0.12376 l -0.07966,-0.0452 H 9.2848492 8.2735963 l -0.016887,0.0481 m 5.8786947,0.012 -0.04154,0.0182 v 1.22656 1.22654 l 0.03322,0.0224 0.03325,0.0224 v 0.0703 0.0704 h 0.03325 0.03322 v 0.0541 0.0541 l 0.196623,0.21756 0.196623,0.2176 h 0.05274 0.05274 v 0.0362 0.0362 h 0.06452 0.06454 l 0.02045,0.0362 0.02045,0.0362 h 0.444895 0.444898 l 0.02045,-0.0362 0.02045,-0.0362 h 0.06454 0.06452 v -0.0362 -0.0362 h 0.05473 0.0547 l 0.194645,-0.2229 0.194645,-0.22287 v -0.0488 -0.0488 h 0.03322 0.03325 v -0.0724 -0.0725 h 0.03327 0.03324 v -1.24913 -1.2491 l -0.07552,-0.0206 c -0.04152,-0.0113 -0.17991,-0.0158 -0.307524,-0.01 l -0.232028,0.0108 -0.0087,1.14642 -0.0087,1.14643 -0.136463,0.14867 -0.136416,0.14866 h -0.341086 -0.341151 l -0.136994,-0.14487 -0.136994,-0.14485 v -1.13731 -1.13727 l -0.05259,-0.022 c -0.06207,-0.026 -0.4775,-0.0244 -0.537551,0.003 m 5.518562,0.003 -0.07512,0.0158 0.0087,1.65478 0.0087,1.65479 h 0.332461 0.332462 l 0.01667,-0.6039 0.01667,-0.6039 0.02758,-0.0301 0.02761,-0.0301 0.436206,-0.012 0.436208,-0.012 0.142172,0.0233 0.14215,0.0232 0.0091,0.62283 0.0091,0.62282 h 0.349063 0.349109 l 0.0087,-1.65275 0.0087,-1.65276 -0.104235,-0.0228 c -0.05734,-0.0124 -0.183666,-0.0228 -0.280766,-0.0228 h -0.17651 l -0.08448,0.035 -0.08448,0.035 -0.0091,0.60801 -0.0091,0.60802 -0.565022,0.01 -0.565022,0.01 -0.04172,-0.0622 -0.04175,-0.0621 v -0.56847 -0.56845 l -0.07481,-0.0218 c -0.08206,-0.024 -0.429695,-0.0222 -0.548887,0.003 m 0.06418,3.75365 -0.105412,0.11849 v 0.069 0.0689 l 0.03989,-0.0435 0.03989,-0.0435 h 0.142973 0.142972 v 0.0362 c 0,0.02 0.01489,0.0362 0.03322,0.0362 h 0.03325 v -0.0633 -0.0634 l -0.110324,-0.11677 -0.110346,-0.11679 -0.105413,0.11852 m 0.526262,0.009 v 0.12935 l 0.0475,0.0518 0.04749,0.0517 h 0.139994 0.140039 l 0.04416,-0.0633 0.04413,-0.0633 v -0.0975 -0.0975 l -0.0312,-0.0211 -0.0312,-0.0209 -0.01045,0.13661 -0.01045,0.13658 -0.157907,0.0111 -0.15793,0.0111 v -0.14687 -0.1469 h -0.03325 -0.03325 v 0.1294 m 0.653855,-0.10524 c -0.01222,0.0133 -0.02223,0.0948 -0.02223,0.18113 v 0.15695 h 0.185243 0.185224 l 0.04752,-0.0517 0.0475,-0.0518 v -0.0776 -0.0776 l -0.0475,-0.0517 -0.04752,-0.0517 h -0.163065 c -0.08968,0 -0.173042,0.0108 -0.185222,0.0241 m 0.642765,0.15697 v 0.18541 l 0.03325,-0.0224 0.03325,-0.0224 v -0.14061 -0.14064 l -0.03325,-0.0224 -0.03325,-0.0224 v 0.18543 m 0.274278,-0.12696 -0.04156,0.0515 v 0.0766 0.0766 l 0.04749,0.0518 0.0475,0.0517 h 0.137727 0.13775 l 0.0475,-0.0517 0.04747,-0.0518 v -0.0776 -0.0776 l -0.04747,-0.0517 -0.0475,-0.0517 -0.143684,0.003 -0.143661,0.003 -0.04157,0.0514 m -1.903357,0.14249 c 0,0.0113 -0.03741,0.0207 -0.08312,0.0207 h -0.08312 v -0.029 c 0,-0.016 0.01712,-0.0475 0.03778,-0.0701 l 0.03776,-0.0411 0.04534,0.0494 c 0.02495,0.0272 0.04536,0.0587 0.04536,0.0702 m 1.363094,-0.0156 v 0.10868 H 21.107319 20.9411 v -0.0845 c 0,-0.11664 0.02298,-0.13284 0.188401,-0.13284 h 0.144038 v 0.10868 m 0.897662,0 v 0.10868 h -0.166293 -0.166219 v -0.10868 -0.10868 h 0.166219 0.166242 v 0.10868"
       id="gge1502"
       stroke="none"
       layerid="3"
       style="display:inline;fill:#ffffff;fill-opacity:1;stroke:none;stroke-width:0.222249;stroke-linecap:round;stroke-linejoin:round;shape-rendering:crispEdges" />
    <g
       aria-label="rate"
       transform="translate(0,-168.49998)"
       id="text1896"
       style="font-size:2.46944px;line-height:1.25;font-family:Excluded;-inkscape-font-specification:'Excluded, Normal';display:inline;fill:#ffffff;stroke-width:0.264583">
      <path
         d="m 6.4670536,190.49938 q 0.1135943,0 0.1926163,0.079 0.079022,0.079 0.079022,0.19262 v 0.36301 q 0,0.11112 -0.079022,0.19261 -0.079022,0.079 -0.1926163,0.079 H 6.3608677 l 0.3778243,0.4519 H 6.267029 l -0.3802938,-0.4519 H 5.5607691 v 0.4519 H 5.1088616 v -1.35819 z m -0.1802691,0.54328 v -0.18027 H 5.5607691 v 0.18027 z"
         id="path13334" />
      <path
         d="m 8.4371265,190.49938 q 0.1111248,0 0.1901469,0.079 0.081492,0.079 0.081492,0.19262 v 1.08655 H 8.254388 v -0.4519 H 7.5308421 v 0.4519 H 7.0789345 v -1.08655 q 0,-0.11359 0.079022,-0.19262 0.079022,-0.079 0.1926163,-0.079 z m -0.1827385,0.54328 v -0.18027 H 7.5308421 v 0.18027 z"
         id="path13336" />
      <path
         d="m 10.710941,190.49938 v 0.36301 h -0.590197 v 0.99518 H 9.6688369 v -0.99518 H 9.0811102 v -0.36301 z"
         id="path13338" />
      <path
         d="m 11.493213,190.86239 v 0.13582 h 0.975429 v 0.36054 h -0.975429 v 0.13582 h 1.177923 v 0.363 h -1.358192 q -0.113595,0 -0.192617,-0.079 -0.07902,-0.079 -0.07902,-0.19261 v -0.81492 q 0,-0.11359 0.07902,-0.19262 0.07902,-0.079 0.192617,-0.079 h 1.358192 v 0.36301 z"
         id="path13340" />
    </g>
    <g
       aria-label="depth"
       transform="translate(0,-168.49998)"
       id="text6584"
       style="font-size:2.46944px;line-height:1.25;font-family:Excluded;-inkscape-font-specification:'Excluded, Normal';display:inline;fill:#ffffff;stroke-width:0.264583">
      <path
         d="m 18.770313,190.49938 q 0.113594,0 0.192616,0.079 0.07902,0.079 0.07902,0.19262 v 0.81492 q 0,0.11359 -0.07902,0.19261 -0.07902,0.079 -0.192616,0.079 h -1.358192 v -1.35819 z m -0.18027,0.99519 v -0.63218 h -0.726015 v 0.63218 z"
         id="path13323" />
      <path
         d="m 19.841509,190.86239 v 0.13582 h 0.975429 v 0.36054 h -0.975429 v 0.13582 h 1.177923 v 0.363 H 19.66124 q -0.113594,0 -0.192616,-0.079 -0.07902,-0.079 -0.07902,-0.19261 v -0.81492 q 0,-0.11359 0.07902,-0.19262 0.07902,-0.079 0.192616,-0.079 h 1.358192 v 0.36301 z"
         id="path13325" />
      <path
         d="m 22.725275,190.49938 q 0.113594,0 0.192616,0.079 0.07902,0.079 0.07902,0.19262 v 0.36301 q 0,0.11112 -0.07902,0.19261 -0.07902,0.079 -0.192616,0.079 h -0.906284 v 0.4519 h -0.451908 v -1.35819 z m -0.180269,0.54328 v -0.18027 h -0.726015 v 0.18027 z"
         id="path13327" />
      <path
         d="m 24.991681,190.49938 v 0.36301 h -0.590197 v 0.99518 h -0.451907 v -0.99518 H 23.36185 v -0.36301 z"
         id="path13329" />
      <path
         d="m 26.951876,190.49938 v 1.35819 h -0.451908 v -0.49882 h -0.726015 v 0.49882 h -0.451907 v -1.35819 h 0.451907 v 0.49883 h 0.726015 v -0.49883 z"
         id="path13331" />
    </g>
    <g
       aria-label="delay"
       transform="translate(0,-168.49998)"
       id="text6588"
       style="font-size:2.46944px;line-height:1.25;font-family:Excluded;-inkscape-font-specification:'Excluded, Normal';display:inline;fill:#ffffff;stroke-width:0.264583">
      <path
         d="m 5.4832589,211.1366 q 0.1135943,0 0.1926163,0.079 0.079022,0.079 0.079022,0.19261 v 0.81492 q 0,0.11359 -0.079022,0.19261 -0.079022,0.079 -0.1926163,0.079 h -1.358192 v -1.3582 z m -0.1802691,0.99519 v -0.63218 H 4.5769745 v 0.63218 z"
         id="path13312" />
      <path
         d="m 6.5544557,211.49961 v 0.13582 h 0.9754288 v 0.36054 H 6.5544557 v 0.13582 h 1.1779229 v 0.36301 h -1.358192 q -0.1135943,0 -0.1926163,-0.079 -0.079022,-0.079 -0.079022,-0.19261 v -0.81492 q 0,-0.11359 0.079022,-0.19261 0.079022,-0.079 0.1926163,-0.079 h 1.358192 v 0.36301 z"
         id="path13314" />
      <path
         d="m 9.7098598,212.13179 v 0.36301 h -1.358192 q -0.1135942,0 -0.1926163,-0.079 -0.079022,-0.079 -0.079022,-0.19261 v -1.08656 h 0.4519075 v 0.99519 z"
         id="path13316" />
      <path
         d="m 11.408294,211.1366 q 0.111125,0 0.190147,0.079 0.08149,0.079 0.08149,0.19261 v 1.08656 h -0.454377 v -0.45191 H 10.50201 v 0.45191 h -0.451908 v -1.08656 q 0,-0.11359 0.07902,-0.19261 0.07902,-0.079 0.192617,-0.079 z m -0.182738,0.54328 v -0.18027 H 10.50201 v 0.18027 z"
         id="path13318" />
      <path
         d="m 13.654945,211.1366 v 1.08656 q 0,0.11359 -0.07902,0.19261 -0.07902,0.079 -0.192616,0.079 h -1.358192 v -0.0914 q 0,-0.11113 0.07902,-0.19015 0.07902,-0.0815 0.192617,-0.0815 h 0.814915 q 0.03704,0 0.0642,-0.0247 0.02716,-0.0272 0.02716,-0.0642 v -0.0469 h -0.906284 q -0.113595,0 -0.192617,-0.079 -0.07902,-0.079 -0.07902,-0.19262 v -0.58773 h 0.451908 v 0.49883 h 0.634646 q 0.03704,0 0.0642,-0.0272 0.02716,-0.0272 0.02716,-0.0642 v -0.40746 z"
         id="path13320" />
    </g>
    <g
       aria-label="regen"
       transform="translate(0,-168.49998)"
       id="text6592"
       style="font-size:2.46944px;line-height:1.25;font-family:Excluded;-inkscape-font-specification:'Excluded, Normal';display:inline;fill:#ffffff;stroke-width:0.264583">
      <path
         d="m 18.770313,211.1366 q 0.113594,0 0.192616,0.079 0.07902,0.079 0.07902,0.19261 v 0.36301 q 0,0.11113 -0.07902,0.19262 -0.07902,0.079 -0.192616,0.079 h -0.106186 l 0.377824,0.45191 h -0.471663 l -0.380294,-0.45191 h -0.325966 v 0.45191 h -0.451907 v -1.3582 z m -0.18027,0.54328 v -0.18027 h -0.726015 v 0.18027 z"
         id="path13301" />
      <path
         d="m 19.841509,211.49961 v 0.13582 h 0.975429 v 0.36054 h -0.975429 v 0.13582 h 1.177923 v 0.36301 H 19.66124 q -0.113594,0 -0.192616,-0.079 -0.07902,-0.079 -0.07902,-0.19261 v -0.81492 q 0,-0.11359 0.07902,-0.19261 0.07902,-0.079 0.192616,-0.079 h 1.358192 v 0.36301 z"
         id="path13303" />
      <path
         d="m 21.818991,211.49961 v 0.63218 h 0.726015 v -0.13582 H 21.95481 v -0.36054 h 1.042103 v 0.85937 h -1.358192 q -0.113594,0 -0.192616,-0.079 -0.07902,-0.079 -0.07902,-0.19261 v -0.81492 q 0,-0.11359 0.07902,-0.19261 0.07902,-0.079 0.192616,-0.079 h 1.358192 v 0.36301 z"
         id="path13305" />
      <path
         d="m 23.796472,211.49961 v 0.13582 H 24.7719 v 0.36054 h -0.975428 v 0.13582 h 1.177923 v 0.36301 h -1.358192 q -0.113595,0 -0.192617,-0.079 -0.07902,-0.079 -0.07902,-0.19261 v -0.81492 q 0,-0.11359 0.07902,-0.19261 0.07902,-0.079 0.192617,-0.079 h 1.358192 v 0.36301 z"
         id="path13307" />
      <path
         d="m 26.951876,211.1366 v 1.08656 q 0,0.11359 -0.07902,0.19261 -0.07902,0.079 -0.192617,0.079 H 26.44811 l -0.674157,-0.84208 v 0.84208 h -0.451907 v -1.08656 q 0,-0.11359 0.07902,-0.19261 0.07902,-0.079 0.192616,-0.079 h 0.232127 l 0.674157,0.84208 v -0.84208 z"
         id="path13309" />
    </g>
    <g
       aria-label="output"
       transform="translate(0,-168.49998)"
       id="text10264"
       style="font-size:2.46944px;line-height:1.25;font-family:Excluded;-inkscape-font-specification:'Excluded, Normal';display:inline;fill:#ffffff;stroke-width:0.264583">
      <path
         d="m 17.59266,265.8179 v -0.63218 h -0.726015 v 0.63218 z m 0.180269,-0.99518 q 0.113595,0 0.192617,0.079 0.07902,0.079 0.07902,0.19261 v 0.81492 q 0,0.11359 -0.07902,0.19262 -0.07902,0.079 -0.192617,0.079 h -1.086553 q -0.113594,0 -0.192617,-0.079 -0.07902,-0.079 -0.07902,-0.19262 v -0.81492 q 0,-0.11359 0.07902,-0.19261 0.07902,-0.079 0.192617,-0.079 z"
         id="path13288" />
      <path
         d="m 20.012171,264.82272 v 1.08655 q 0,0.11359 -0.07902,0.19262 -0.07902,0.079 -0.192616,0.079 h -1.086554 q -0.113594,0 -0.192616,-0.079 -0.07902,-0.079 -0.07902,-0.19262 v -1.08655 h 0.451907 v 0.99518 h 0.726016 v -0.99518 z"
         id="path13290" />
      <path
         d="m 22.016816,264.82272 v 0.363 H 21.42662 v 0.99519 h -0.451907 v -0.99519 h -0.587727 v -0.363 z"
         id="path13292" />
      <path
         d="m 23.705373,264.82272 q 0.113594,0 0.192616,0.079 0.07902,0.079 0.07902,0.19261 v 0.36301 q 0,0.11113 -0.07902,0.19262 -0.07902,0.079 -0.192616,0.079 h -0.906284 v 0.45191 h -0.451908 v -1.35819 z m -0.180269,0.54327 v -0.18027 h -0.726015 v 0.18027 z"
         id="path13294" />
      <path
         d="m 25.944615,264.82272 v 1.08655 q 0,0.11359 -0.07902,0.19262 -0.07902,0.079 -0.192616,0.079 h -1.086554 q -0.113594,0 -0.192616,-0.079 -0.07902,-0.079 -0.07902,-0.19262 v -1.08655 h 0.451907 v 0.99518 h 0.726015 v -0.99518 z"
         id="path13296" />
      <path
         d="m 27.94926,264.82272 v 0.363 h -0.590196 v 0.99519 h -0.451907 v -0.99519 H 26.31943 v -0.363 z"
         id="path13298" />
    </g>
  </g>
  <g
     inkscape:groupmode="layer"
     id="layer2"
     inkscape:label="components"
     style="display:none">
    <circle
       r="4"
       cy="103.58636"
       cx="8.8900051"
       id="circle4956"
       style="display:inline;opacity:1;vector-effect:none;fill:#00ff00;fill-opacity:1;fill-rule:evenodd;stroke:none;stroke-width:1;stroke-linecap:butt;stroke-linejoin:miter;stroke-miterlimit:4;stroke-dasharray:none;stroke-dashoffset:0;stroke-opacity:1;paint-order:normal"
       inkscape:label="pitch" />
    <circle
       style="display:inline;opacity:1;vector-effect:none;fill:#0000ff;fill-opacity:1;fill-rule:evenodd;stroke:none;stroke-width:1;stroke-linecap:butt;stroke-linejoin:miter;stroke-miterlimit:4;stroke-dasharray:none;stroke-dashoffset:0;stroke-opacity:1;paint-order:normal"
       id="circle881"
       cx="22.181999"
       cy="103.58636"
       r="4"
       inkscape:label="sine" />
    <circle
       r="4"
       cy="52.139999"
       cx="8.8900051"
       id="circle971"
       style="display:inline;opacity:1;vector-effect:none;fill:#ff0000;fill-opacity:1;fill-rule:evenodd;stroke:none;stroke-width:1;stroke-linecap:butt;stroke-linejoin:miter;stroke-miterlimit:4;stroke-dasharray:none;stroke-dashoffset:0;stroke-opacity:1;paint-order:normal"
       inkscape:label="pitch" />
    <circle
       r="4"
       cy="52.139999"
       cx="22.181999"
       id="circle973"
       style="display:inline;opacity:1;vector-effect:none;fill:#ff0000;fill-opacity:1;fill-rule:evenodd;stroke:none;stroke-width:1;stroke-linecap:butt;stroke-linejoin:miter;stroke-miterlimit:4;stroke-dasharray:none;stroke-dashoffset:0;stroke-opacity:1;paint-order:normal"
       inkscape:label="pitch" />
    <circle
       r="4"
       cy="30.974001"
       cx="8.8900051"
       id="circle1011"
       style="display:inline;opacity:1;vector-effect:none;fill:#ff0000;fill-opacity:1;fill-rule:evenodd;stroke:none;stroke-width:1;stroke-linecap:butt;stroke-linejoin:miter;stroke-miterlimit:4;stroke-dasharray:none;stroke-dashoffset:0;stroke-opacity:1;paint-order:normal"
       inkscape:label="pitch" />
    <circle
       r="4"
       cy="30.974001"
       cx="22.181999"
       id="circle1013"
       style="display:inline;opacity:1;vector-effect:none;fill:#ff0000;fill-opacity:1;fill-rule:evenodd;stroke:none;stroke-width:1;stroke-linecap:butt;stroke-linejoin:miter;stroke-miterlimit:4;stroke-dasharray:none;stroke-dashoffset:0;stroke-opacity:1;paint-order:normal"
       inkscape:label="pitch" />
  </g>
</svg>
