<?xml version="1.0" encoding="UTF-8" standalone="no"?>
<!-- Created with Inkscape (http://www.inkscape.org/) -->

<svg
   width="30.48mm"
   height="128.5mm"
   viewBox="0 0 30.480002 128.50002"
   version="1.1"
   id="svg8"
   inkscape:version="1.1.2 (b8e25be8, 2022-02-05)"
   sodipodi:docname="Logician.svg"
   xmlns:inkscape="http://www.inkscape.org/namespaces/inkscape"
   xmlns:sodipodi="http://sodipodi.sourceforge.net/DTD/sodipodi-0.dtd"
   xmlns="http://www.w3.org/2000/svg"
   xmlns:svg="http://www.w3.org/2000/svg"
   xmlns:rdf="http://www.w3.org/1999/02/22-rdf-syntax-ns#"
   xmlns:cc="http://creativecommons.org/ns#"
   xmlns:dc="http://purl.org/dc/elements/1.1/">
  <defs
     id="defs2">
    <inkscape:path-effect
       effect="fillet_chamfer"
       id="path-effect887"
       is_visible="true"
       lpeversion="1"
       satellites_param="F,0,0,1,0,1.4332636,0,1 @ F,0,0,1,0,1.2740121,0,1 @ F,0,0,1,0,1.369563,0,1 @ F,0,0,1,0,1.4014133,0,1"
       unit="px"
       method="auto"
       mode="F"
       radius="0"
       chamfer_steps="1"
       flexible="false"
       use_knot_distance="true"
       apply_no_radius="true"
       apply_with_radius="true"
       only_selected="false"
       hide_knots="false" />
    <inkscape:path-effect
       effect="fillet_chamfer"
       id="path-effect879"
       is_visible="true"
       lpeversion="1"
       satellites_param="F,0,0,1,0,1.4332636,0,1 @ F,0,0,1,0,1.2740121,0,1 @ F,0,0,1,0,1.369563,0,1 @ F,0,0,1,0,1.4014133,0,1"
       unit="px"
       method="auto"
       mode="F"
       radius="0"
       chamfer_steps="1"
       flexible="false"
       use_knot_distance="true"
       apply_no_radius="true"
       apply_with_radius="true"
       only_selected="false"
       hide_knots="false" />
    <inkscape:path-effect
       effect="fillet_chamfer"
       id="path-effect873"
       is_visible="true"
       lpeversion="1"
       satellites_param="F,0,0,1,0,1.4332636,0,1 @ F,0,0,1,0,1.2740121,0,1 @ F,0,0,1,0,1.369563,0,1 @ F,0,0,1,0,1.4014133,0,1"
       unit="px"
       method="auto"
       mode="F"
       radius="0"
       chamfer_steps="1"
       flexible="false"
       use_knot_distance="true"
       apply_no_radius="true"
       apply_with_radius="true"
       only_selected="false"
       hide_knots="false" />
    <inkscape:path-effect
       effect="fillet_chamfer"
       id="path-effect420"
       is_visible="true"
       lpeversion="1"
       satellites_param="F,0,0,1,0,1.4332636,0,1 @ F,0,0,1,0,1.2740121,0,1 @ F,0,0,1,0,1.369563,0,1 @ F,0,0,1,0,1.4014133,0,1"
       unit="px"
       method="auto"
       mode="F"
       radius="0"
       chamfer_steps="1"
       flexible="false"
       use_knot_distance="true"
       apply_no_radius="true"
       apply_with_radius="true"
       only_selected="false"
       hide_knots="false" />
    <inkscape:path-effect
       effect="fillet_chamfer"
       id="path-effect216"
       is_visible="true"
       lpeversion="1"
       satellites_param="F,0,0,1,0,1.4332636,0,1 @ F,0,0,1,0,1.2740121,0,1 @ F,0,0,1,0,1.369563,0,1 @ F,0,0,1,0,1.4014133,0,1"
       unit="px"
       method="auto"
       mode="F"
       radius="0"
       chamfer_steps="1"
       flexible="false"
       use_knot_distance="true"
       apply_no_radius="true"
       apply_with_radius="true"
       only_selected="false"
       hide_knots="false" />
  </defs>
  <sodipodi:namedview
     id="base"
     pagecolor="#ffffff"
     bordercolor="#666666"
     borderopacity="1.0"
     inkscape:pageopacity="0.0"
     inkscape:pageshadow="2"
     inkscape:zoom="1.2538734"
     inkscape:cx="27.913504"
     inkscape:cy="264.38076"
     inkscape:document-units="mm"
     inkscape:current-layer="layer3"
     showgrid="false"
     units="mm"
     inkscape:snap-bbox="true"
     inkscape:snap-page="true"
     inkscape:bbox-nodes="false"
     inkscape:snap-bbox-edge-midpoints="false"
     inkscape:window-width="1920"
     inkscape:window-height="961"
     inkscape:window-x="1920"
     inkscape:window-y="25"
     inkscape:window-maximized="0"
     inkscape:snap-bbox-midpoints="true"
     inkscape:snap-nodes="false"
     inkscape:pagecheckerboard="0" />
  <metadata
     id="metadata5">
    <rdf:RDF>
      <cc:Work
         rdf:about="">
        <dc:format>image/svg+xml</dc:format>
        <dc:type
           rdf:resource="http://purl.org/dc/dcmitype/StillImage" />
      </cc:Work>
    </rdf:RDF>
  </metadata>
  <g
     inkscape:label="background"
     inkscape:groupmode="layer"
     id="layer1"
     transform="translate(0,-168.49998)"
     style="display:inline">
    <rect
       style="display:inline;opacity:1;vector-effect:none;fill:#00659b;fill-opacity:1;fill-rule:evenodd;stroke:none;stroke-width:0.649358;stroke-linecap:butt;stroke-linejoin:miter;stroke-miterlimit:4;stroke-dasharray:none;stroke-dashoffset:0;stroke-opacity:1;paint-order:normal"
       id="rect420"
       width="30.48"
       height="128.5"
       x="5.9211732e-17"
       y="168.49997" />
    <path
       style="fill:#ffffff;stroke-width:0.247591"
       id="rect30896"
       width="8.5019999"
       height="8.5019999"
       x="4.6390052"
       y="200.99213"
       sodipodi:type="rect"
       inkscape:path-effect="#path-effect216"
       d="m 6.0722688,200.99213 h 5.7947242 a 1.2740121,1.2740121 45 0 1 1.274012,1.27401 v 5.85842 a 1.369563,1.369563 135 0 1 -1.369563,1.36957 H 6.0404185 a 1.4014133,1.4014133 45 0 1 -1.4014133,-1.40142 v -5.66732 a 1.4332636,1.4332636 135 0 1 1.4332636,-1.43326 z" />
    <path
       style="fill:#ffffff;stroke-width:0.247591"
       id="path416"
       width="8.5019999"
       height="8.5019999"
       x="17.930672"
       y="200.99213"
       sodipodi:type="rect"
       inkscape:path-effect="#path-effect420"
       d="m 19.363935,200.99213 h 5.794724 a 1.2740121,1.2740121 45 0 1 1.274013,1.27401 v 5.85842 a 1.369563,1.369563 135 0 1 -1.369563,1.36957 h -5.731024 a 1.4014133,1.4014133 45 0 1 -1.401413,-1.40142 v -5.66732 a 1.4332636,1.4332636 135 0 1 1.433263,-1.43326 z" />
    <path
       style="fill:#ffffff;stroke-width:0.247591"
       id="path869"
       width="8.5019999"
       height="8.5019999"
       x="4.6390052"
       y="271.95184"
       sodipodi:type="rect"
       inkscape:path-effect="#path-effect873"
       d="m 6.0722688,271.95184 h 5.7947242 a 1.2740121,1.2740121 45 0 1 1.274012,1.27402 v 5.85842 a 1.369563,1.369563 135 0 1 -1.369563,1.36956 H 6.0404185 a 1.4014133,1.4014133 45 0 1 -1.4014133,-1.40141 v -5.66732 a 1.4332636,1.4332636 135 0 1 1.4332636,-1.43327 z" />
    <path
       style="fill:#ffffff;stroke-width:0.247591"
       id="path875"
       width="8.5019999"
       height="8.5019999"
       x="4.6390052"
       y="271.95184"
       sodipodi:type="rect"
       inkscape:path-effect="#path-effect879"
       d="m 6.0722688,271.95184 h 5.7947242 a 1.2740121,1.2740121 45 0 1 1.274012,1.27402 v 5.85842 a 1.369563,1.369563 135 0 1 -1.369563,1.36956 H 6.0404185 a 1.4014133,1.4014133 45 0 1 -1.4014133,-1.40141 v -5.66732 a 1.4332636,1.4332636 135 0 1 1.4332636,-1.43327 z" />
    <path
       style="fill:#ffffff;stroke-width:0.247591"
       id="path883"
       width="8.5019999"
       height="8.5019999"
       x="17.930672"
       y="271.95184"
       sodipodi:type="rect"
       inkscape:path-effect="#path-effect887"
       d="m 19.363935,271.95184 h 5.794724 a 1.2740121,1.2740121 45 0 1 1.274013,1.27402 v 5.85842 a 1.369563,1.369563 135 0 1 -1.369563,1.36956 h -5.731024 a 1.4014133,1.4014133 45 0 1 -1.401413,-1.40141 v -5.66732 a 1.4332636,1.4332636 135 0 1 1.433263,-1.43327 z" />
    <rect
       style="fill:#ff7522;stroke:#ff7522;stroke-width:0.23616;fill-opacity:1;stroke-opacity:1"
       id="rect1043"
       width="30.243839"
       height="0.60835814"
       x="0.11808014"
       y="170.61806" />
    <rect
       style="fill:#ff7522;stroke:#ff7522;stroke-width:0.23616;fill-opacity:1;stroke-opacity:1"
       id="rect1391"
       width="30.243839"
       height="0.60835814"
       x="0.11808014"
       y="294.21805" />
    <rect
       style="fill:#ffffff;stroke:#ffffff;stroke-width:0.109386"
       id="rect5835"
       width="10.514614"
       height="0.19061348"
       x="16.924364"
       y="197.95856" />
    <rect
       style="fill:#ffffff;stroke:#ffffff;stroke-width:0.1113"
       id="rect5977"
       width="10.9847"
       height="0.18889695"
       x="16.689322"
       y="268.86725" />
  </g>
  <g
     inkscape:groupmode="layer"
     id="layer3"
     inkscape:label="text"
     style="display:inline">
    <g
       aria-label="AND/NAND"
       id="text3177"
       style="font-size:1.76389px;line-height:1.25;font-family:Excluded;-inkscape-font-specification:'Excluded, Normal';stroke-width:0.264583"
       transform="matrix(1.1317944,0,0,1.1317944,-2.0085494,-6.8513097)">
      <path
         d="m 10.859117,56.001761 q 0.07938,0 0.135819,0.05644 0.05821,0.05644 0.05821,0.137583 v 0.776112 H 10.72859 v -0.322792 h -0.51682 v 0.322792 H 9.8889774 v -0.776112 q 0,-0.08114 0.056444,-0.137583 0.056444,-0.05644 0.1375836,-0.05644 z m -0.130528,0.388056 v -0.128764 h -0.51682 v 0.128764 z"
         style="fill:#ffffff"
         id="path25748" />
      <path
         d="m 12.470927,56.001761 v 0.776112 q 0,0.08114 -0.05645,0.137583 -0.05644,0.05645 -0.137583,0.05645 h -0.165806 l -0.481542,-0.601487 v 0.601487 h -0.322792 v -0.776112 q 0,-0.08114 0.05645,-0.137583 0.05644,-0.05644 0.137583,-0.05644 h 0.165806 l 0.481542,0.601487 v -0.601487 z"
         style="fill:#ffffff"
         id="path25750" />
      <path
         d="m 13.689389,56.001761 q 0.08114,0 0.137583,0.05644 0.05645,0.05644 0.05645,0.137583 v 0.582084 q 0,0.08114 -0.05645,0.137583 -0.05644,0.05645 -0.137583,0.05645 h -0.97014 v -0.97014 z m -0.128764,0.710848 v -0.451556 h -0.518584 v 0.451556 z"
         style="fill:#ffffff"
         id="path25752" />
      <path
         d="m 14.98017,55.999998 -0.560917,0.971903 h -0.324555 l 0.560917,-0.971903 z"
         style="fill:#ffffff"
         id="path25754" />
      <path
         d="m 16.353551,56.001761 v 0.776112 q 0,0.08114 -0.05644,0.137583 -0.05644,0.05645 -0.137583,0.05645 H 15.993722 L 15.51218,56.370419 v 0.601487 h -0.322792 v -0.776112 q 0,-0.08114 0.05645,-0.137583 0.05644,-0.05644 0.137583,-0.05644 h 0.165806 l 0.481542,0.601487 v -0.601487 z"
         style="fill:#ffffff"
         id="path25756" />
      <path
         d="m 17.566722,56.001761 q 0.07938,0 0.135819,0.05644 0.05821,0.05644 0.05821,0.137583 v 0.776112 h -0.324556 v -0.322792 h -0.51682 v 0.322792 h -0.322792 v -0.776112 q 0,-0.08114 0.05645,-0.137583 0.05644,-0.05644 0.137583,-0.05644 z m -0.130528,0.388056 v -0.128764 h -0.51682 v 0.128764 z"
         style="fill:#ffffff"
         id="path25758" />
      <path
         d="m 19.178532,56.001761 v 0.776112 q 0,0.08114 -0.05645,0.137583 -0.05644,0.05645 -0.137583,0.05645 h -0.165806 l -0.481542,-0.601487 v 0.601487 h -0.322792 v -0.776112 q 0,-0.08114 0.05645,-0.137583 0.05644,-0.05644 0.137583,-0.05644 h 0.165806 l 0.481542,0.601487 v -0.601487 z"
         style="fill:#ffffff"
         id="path25760" />
      <path
         d="m 20.396994,56.001761 q 0.08114,0 0.137583,0.05644 0.05645,0.05644 0.05645,0.137583 v 0.582084 q 0,0.08114 -0.05645,0.137583 -0.05644,0.05645 -0.137583,0.05645 h -0.97014 v -0.97014 z m -0.128764,0.710848 v -0.451556 h -0.518584 v 0.451556 z"
         style="fill:#ffffff"
         id="path25762" />
    </g>
    <path
       d="m 17.870708,116.03418 c -0.03025,0.0364 -0.05499,0.0935 -0.05499,0.12677 0,0.0333 -0.01133,0.0607 -0.02494,0.0608 -0.02985,0 -0.108057,0.17572 -0.108057,0.24238 v 0.0472 h -0.03325 -0.03325 v 0.0724 0.0725 H 17.583 17.54976 v 0.0725 0.0725 h -0.03325 -0.03327 v 0.0533 c 0,0.0293 -0.03218,0.11486 -0.07152,0.19016 -0.03934,0.0753 -0.128191,0.25688 -0.197466,0.40341 -0.06927,0.14652 -0.149708,0.29501 -0.178733,0.32999 l -0.05278,0.0635 0.0091,0.53943 0.0093,0.53944 0.55731,0.01 0.55731,0.01 -0.02222,0.0987 c -0.01222,0.0543 -0.03485,0.10417 -0.0503,0.11082 -0.01557,0.007 -0.02811,0.0433 -0.02811,0.0815 v 0.0695 h -0.03325 -0.03322 v 0.0509 c 0,0.0604 -0.138639,0.36038 -0.174555,0.37776 -0.01378,0.007 -0.02494,0.0329 -0.02494,0.0584 0,0.0255 -0.05985,0.17308 -0.132993,0.32804 -0.07314,0.15491 -0.132994,0.30388 -0.132994,0.33102 0,0.0271 -0.01133,0.0494 -0.02538,0.0494 -0.014,0 -0.05226,0.0612 -0.08506,0.13586 -0.03282,0.0747 -0.09604,0.20918 -0.140507,0.29884 -0.0831,0.16764 -0.09639,0.2416 -0.06132,0.34119 l 0.02022,0.0573 h 0.0563 c 0.03094,0 0.07047,0.014 0.08785,0.0312 0.04552,0.045 0.481324,0.29482 0.514283,0.29482 0.02967,0 0.13235,-0.20478 0.13235,-0.26396 0,-0.0196 0.02618,-0.062 0.05819,-0.0944 0.07492,-0.0759 0.141306,-0.20516 0.141306,-0.27506 v -0.0549 h 0.03325 0.03321 v -0.0724 -0.0725 h 0.03327 0.03325 v -0.0725 -0.0725 h 0.0308 c 0.03549,0 0.135417,-0.20465 0.135417,-0.27725 v -0.0488 h 0.03325 0.03325 v -0.0725 -0.0725 h 0.03325 0.03322 v -0.0725 -0.0724 h 0.03327 0.03325 v -0.0848 -0.0847 l 0.165375,-0.35399 0.16542,-0.35396 0.07028,-0.0664 0.07027,-0.0664 0.0085,-0.35525 c 0.0046,-0.19538 0.0022,-0.43267 -0.0062,-0.52729 l -0.01467,-0.17209 h -0.521929 -0.52195 l -0.03496,-0.0381 -0.03496,-0.0381 0.01556,-0.0887 0.01557,-0.0887 h 0.02936 0.02938 v -0.0725 -0.0724 h 0.03324 0.03325 l 0.0032,-0.0634 c 0.0022,-0.0349 0.04643,-0.14491 0.09946,-0.24454 0.05308,-0.0996 0.105834,-0.20965 0.117258,-0.24452 0.01133,-0.0348 0.03396,-0.0633 0.05009,-0.0633 h 0.02938 v -0.0507 c 0,-0.0279 0.04487,-0.14363 0.09974,-0.25726 l 0.09974,-0.20661 v -0.0869 -0.0869 h -0.06652 -0.06647 v -0.0271 c 0,-0.0328 -0.161508,-0.11775 -0.223493,-0.11775 h -0.04429 l -0.01911,-0.0543 -0.01911,-0.0543 h -0.06094 c -0.03354,0 -0.07024,-0.0162 -0.08154,-0.0362 l -0.02045,-0.0362 h -0.07601 -0.07599 l -0.05505,0.0662 m -6.380109,0.53834 -0.05819,0.0166 v 1.64109 1.6411 l 0.103879,0.0227 0.103901,0.0227 h 0.934943 0.935043 l 0.07598,-0.0222 0.07601,-0.0222 -0.0096,-0.3305 -0.0096,-0.33053 -0.736043,-0.01 -0.73602,-0.01 -0.01979,-0.0809 -0.01979,-0.0808 v -1.21878 -1.21875 l -0.05259,-0.022 c -0.05915,-0.0248 -0.497859,-0.0225 -0.58738,0.003 m -3.235628,0.0594 c -0.00934,0.0265 -0.01267,0.19359 -0.00735,0.37132 l 0.00978,0.32318 0.8083171,0.01 0.8083179,0.01 0.081006,0.0883 0.081007,0.0883 v 0.0758 0.0758 l -0.081007,0.0882 -0.081006,0.0883 -0.8083179,0.01 -0.8083171,0.01 v 0.41658 0.41662 l 0.813007,0.01 0.8130516,0.01 0.076317,0.0781 0.076273,0.0781 v 0.0732 0.0732 l -0.089322,0.10159 -0.089344,0.10161 H 9.0495324 8.2399703 l 0.00955,0.33509 0.00955,0.33508 1.0126301,0.01 1.0126306,0.01 0.101123,-0.0525 c 0.161931,-0.0841 0.383691,-0.37863 0.383691,-0.5096 v -0.0549 h 0.03325 0.03327 v -0.0725 -0.0724 h 0.03322 0.03325 v -0.27168 -0.27173 h -0.03325 -0.03322 v -0.0725 -0.0724 h -0.03327 -0.03325 v -0.0549 c 0,-0.0302 -0.01867,-0.0893 -0.04154,-0.13153 l -0.04157,-0.0767 0.04157,-0.0165 c 0.02285,-0.009 0.04154,-0.0362 0.04154,-0.0605 0,-0.0643 0.0789,-0.23907 0.108058,-0.23941 h 0.02494 v -0.24858 -0.24856 l -0.132061,-0.27978 -0.132061,-0.27972 -0.0913,-0.0785 c -0.05021,-0.0431 -0.127126,-0.0988 -0.170953,-0.12376 l -0.07966,-0.0452 H 9.2848492 8.2735963 l -0.016887,0.0481 m 5.8786947,0.012 -0.04154,0.0182 v 1.22656 1.22654 l 0.03322,0.0224 0.03325,0.0224 v 0.0703 0.0704 h 0.03325 0.03322 v 0.0541 0.0541 l 0.196623,0.21756 0.196623,0.2176 h 0.05274 0.05274 v 0.0362 0.0362 h 0.06452 0.06454 l 0.02045,0.0362 0.02045,0.0362 h 0.444895 0.444898 l 0.02045,-0.0362 0.02045,-0.0362 h 0.06454 0.06452 v -0.0362 -0.0362 h 0.05473 0.0547 l 0.194645,-0.2229 0.194645,-0.22287 v -0.0488 -0.0488 h 0.03322 0.03325 v -0.0724 -0.0725 h 0.03327 0.03324 v -1.24913 -1.2491 l -0.07552,-0.0206 c -0.04152,-0.0113 -0.17991,-0.0158 -0.307524,-0.01 l -0.232028,0.0108 -0.0087,1.14642 -0.0087,1.14643 -0.136463,0.14867 -0.136416,0.14866 h -0.341086 -0.341151 l -0.136994,-0.14487 -0.136994,-0.14485 v -1.13731 -1.13727 l -0.05259,-0.022 c -0.06207,-0.026 -0.4775,-0.0244 -0.537551,0.003 m 5.518562,0.003 -0.07512,0.0158 0.0087,1.65478 0.0087,1.65479 h 0.332461 0.332462 l 0.01667,-0.6039 0.01667,-0.6039 0.02758,-0.0301 0.02761,-0.0301 0.436206,-0.012 0.436208,-0.012 0.142172,0.0233 0.14215,0.0232 0.0091,0.62283 0.0091,0.62282 h 0.349063 0.349109 l 0.0087,-1.65275 0.0087,-1.65276 -0.104235,-0.0228 c -0.05734,-0.0124 -0.183666,-0.0228 -0.280766,-0.0228 h -0.17651 l -0.08448,0.035 -0.08448,0.035 -0.0091,0.60801 -0.0091,0.60802 -0.565022,0.01 -0.565022,0.01 -0.04172,-0.0622 -0.04175,-0.0621 v -0.56847 -0.56845 l -0.07481,-0.0218 c -0.08206,-0.024 -0.429695,-0.0222 -0.548887,0.003 m 0.06418,3.75365 -0.105412,0.11849 v 0.069 0.0689 l 0.03989,-0.0435 0.03989,-0.0435 h 0.142973 0.142972 v 0.0362 c 0,0.02 0.01489,0.0362 0.03322,0.0362 h 0.03325 v -0.0633 -0.0634 l -0.110324,-0.11677 -0.110346,-0.11679 -0.105413,0.11852 m 0.526262,0.009 v 0.12935 l 0.0475,0.0518 0.04749,0.0517 h 0.139994 0.140039 l 0.04416,-0.0633 0.04413,-0.0633 v -0.0975 -0.0975 l -0.0312,-0.0211 -0.0312,-0.0209 -0.01045,0.13661 -0.01045,0.13658 -0.157907,0.0111 -0.15793,0.0111 v -0.14687 -0.1469 h -0.03325 -0.03325 v 0.1294 m 0.653855,-0.10524 c -0.01222,0.0133 -0.02223,0.0948 -0.02223,0.18113 v 0.15695 h 0.185243 0.185224 l 0.04752,-0.0517 0.0475,-0.0518 v -0.0776 -0.0776 l -0.0475,-0.0517 -0.04752,-0.0517 h -0.163065 c -0.08968,0 -0.173042,0.0108 -0.185222,0.0241 m 0.642765,0.15697 v 0.18541 l 0.03325,-0.0224 0.03325,-0.0224 v -0.14061 -0.14064 l -0.03325,-0.0224 -0.03325,-0.0224 v 0.18543 m 0.274278,-0.12696 -0.04156,0.0515 v 0.0766 0.0766 l 0.04749,0.0518 0.0475,0.0517 h 0.137727 0.13775 l 0.0475,-0.0517 0.04747,-0.0518 v -0.0776 -0.0776 l -0.04747,-0.0517 -0.0475,-0.0517 -0.143684,0.003 -0.143661,0.003 -0.04157,0.0514 m -1.903357,0.14249 c 0,0.0113 -0.03741,0.0207 -0.08312,0.0207 h -0.08312 v -0.029 c 0,-0.016 0.01712,-0.0475 0.03778,-0.0701 l 0.03776,-0.0411 0.04534,0.0494 c 0.02495,0.0272 0.04536,0.0587 0.04536,0.0702 m 1.363094,-0.0156 v 0.10868 H 21.107319 20.9411 v -0.0845 c 0,-0.11664 0.02298,-0.13284 0.188401,-0.13284 h 0.144038 v 0.10868 m 0.897662,0 v 0.10868 h -0.166293 -0.166219 v -0.10868 -0.10868 h 0.166219 0.166242 v 0.10868"
       id="gge1502"
       stroke="none"
       layerid="3"
       style="display:inline;fill:#ffffff;fill-opacity:1;stroke:none;stroke-width:0.222249;stroke-linecap:round;stroke-linejoin:round;shape-rendering:crispEdges" />
    <g
       aria-label="Logician"
       id="text850"
       style="font-size:3.52778px;line-height:1.25;font-family:Excluded;-inkscape-font-specification:'Excluded, Normal';display:inline;fill:#ffffff;stroke-width:0.264583"
       transform="matrix(0.90915182,0,0,0.90915182,1.0674941,-148.52963)">
      <path
         d="m 8.7051357,173.35846 v 0.51858 H 6.764858 q -0.1622778,0 -0.2751667,-0.11288 -0.1128888,-0.11289 -0.1128888,-0.27517 v -1.55222 h 0.6455833 v 1.42169 z"
         style="font-size:3.52778px"
         id="path6888" />
      <path
         d="m 10.884531,173.35846 v -0.90311 H 9.8473639 v 0.90311 z m 0.257527,-1.42169 q 0.162278,0 0.275167,0.11289 0.112889,0.11288 0.112889,0.27516 v 1.16417 q 0,0.16228 -0.112889,0.27517 -0.112889,0.11288 -0.275167,0.11288 H 9.5898361 q -0.1622778,0 -0.2751666,-0.11288 -0.1128889,-0.11289 -0.1128889,-0.27517 v -1.16417 q 0,-0.16228 0.1128889,-0.27516 0.1128888,-0.11289 0.2751666,-0.11289 z"
         style="font-size:3.52778px"
         id="path6890" />
      <path
         d="m 12.672342,172.45535 v 0.90311 h 1.037167 v -0.19403 H 12.86637 v -0.51505 h 1.488722 v 1.22766 h -1.940278 q -0.162278,0 -0.275166,-0.11288 -0.112889,-0.11289 -0.112889,-0.27517 v -1.16417 q 0,-0.16228 0.112889,-0.27516 0.112888,-0.11289 0.275166,-0.11289 h 1.940278 v 0.51858 z"
         style="font-size:3.52778px"
         id="path6892" />
      <path
         d="m 14.774126,173.87704 v -1.94027 h 0.649111 v 1.94027 z"
         style="font-size:3.52778px"
         id="path6894" />
      <path
         d="m 16.482618,172.45535 v 0.90311 h 1.682749 v 0.51858 H 16.22509 q -0.162278,0 -0.275167,-0.11288 -0.112889,-0.11289 -0.112889,-0.27517 v -1.16417 q 0,-0.16228 0.112889,-0.27516 0.112889,-0.11289 0.275167,-0.11289 h 1.940277 v 0.51858 z"
         style="font-size:3.52778px"
         id="path6896" />
      <path
         d="m 18.584401,173.87704 v -1.94027 h 0.649111 v 1.94027 z"
         style="font-size:3.52778px"
         id="path6898" />
      <path
         d="m 21.577004,171.93677 q 0.15875,0 0.271639,0.11289 0.116416,0.11288 0.116416,0.27516 v 1.55222 h -0.649111 v -0.64558 h -1.033639 v 0.64558 h -0.645583 v -1.55222 q 0,-0.16228 0.112889,-0.27516 0.112889,-0.11289 0.275167,-0.11289 z m -0.261056,0.77611 v -0.25753 h -1.033639 v 0.25753 z"
         style="font-size:3.52778px"
         id="path6900" />
      <path
         d="m 24.800621,171.93677 v 1.55222 q 0,0.16228 -0.112888,0.27517 -0.112889,0.11288 -0.275167,0.11288 h -0.331611 l -0.963084,-1.20297 v 1.20297 h -0.645583 v -1.55222 q 0,-0.16228 0.112889,-0.27516 0.112889,-0.11289 0.275167,-0.11289 h 0.331611 l 0.963083,1.20297 v -1.20297 z"
         style="font-size:3.52778px"
         id="path6902" />
    </g>
    <g
       aria-label="Input 1A"
       id="text9066"
       style="font-size:2.46944px;line-height:1.25;font-family:Excluded;-inkscape-font-specification:'Excluded, Normal';display:inline;fill:#ffffff;stroke-width:0.264583"
       transform="matrix(0.8098716,0,0,0.8098716,-1.0856903,-143.92646)">
      <path
         d="m 6.4029019,194.61938 v -1.35819 h 0.4543777 v 1.35819 z"
         style="font-size:2.46944px"
         id="path12895" />
      <path
         d="m 8.7767711,193.26119 v 1.08656 q 0,0.11359 -0.079022,0.19261 -0.079022,0.079 -0.1926167,0.079 H 8.2730044 L 7.5988461,193.7773 v 0.84208 H 7.1469377 v -1.08655 q 0,-0.1136 0.079022,-0.19262 0.079022,-0.079 0.1926166,-0.079 h 0.2321278 l 0.6741584,0.84208 v -0.84208 z"
         style="font-size:2.46944px"
         id="path12897" />
      <path
         d="m 10.482617,193.26119 q 0.113594,0 0.192617,0.079 0.07902,0.079 0.07902,0.19262 v 0.36301 q 0,0.11112 -0.07902,0.19261 -0.07902,0.079 -0.192617,0.079 H 9.5763309 v 0.4519 H 9.1244226 v -1.35819 z m -0.180269,0.54328 V 193.6242 H 9.5763309 v 0.18027 z"
         style="font-size:2.46944px"
         id="path12899" />
      <path
         d="m 12.721863,193.26119 v 1.08656 q 0,0.11359 -0.07902,0.19261 -0.07902,0.079 -0.192617,0.079 H 11.36367 q -0.113594,0 -0.192616,-0.079 -0.07902,-0.079 -0.07902,-0.19261 v -1.08656 h 0.451909 v 0.99519 h 0.726017 v -0.99519 z"
         style="font-size:2.46944px"
         id="path12901" />
      <path
         d="m 14.726512,193.26119 v 0.36301 h -0.590197 v 0.99518 h -0.451909 v -0.99518 h -0.587727 v -0.36301 z"
         style="font-size:2.46944px"
         id="path12903" />
      <path
         d="m 16.309426,193.26119 v 1.35819 h -0.451909 v -0.99518 h -0.363008 v -0.36301 z"
         style="font-size:2.46944px"
         id="path12905" />
      <path
         d="m 17.960712,193.26119 q 0.111125,0 0.190148,0.079 0.08149,0.079 0.08149,0.19262 v 1.08655 h -0.454378 v -0.4519 h -0.723547 v 0.4519 h -0.451908 v -1.08655 q 0,-0.1136 0.07902,-0.19262 0.07902,-0.079 0.192617,-0.079 z m -0.182739,0.54328 v -0.18027 h -0.723547 v 0.18027 z"
         style="font-size:2.46944px"
         id="path12907" />
    </g>
    <g
       aria-label="Input 1B"
       id="text15010"
       style="font-size:2.46944px;line-height:1.25;font-family:Excluded;-inkscape-font-specification:'Excluded, Normal';fill:#ffffff;stroke-width:0.264583"
       transform="matrix(0.80989664,0,0,0.80989664,4.2168107,2.4005825)">
      <path
         d="m 16.263253,13.985973 v -1.358192 h 0.454377 v 1.358192 z"
         id="path31112" />
      <path
         d="m 18.637118,12.627781 v 1.086554 q 0,0.113594 -0.07902,0.192616 -0.07902,0.07902 -0.192616,0.07902 h -0.232128 l -0.674157,-0.842079 v 0.842079 H 17.007288 V 12.89942 q 0,-0.113594 0.07902,-0.192617 0.07902,-0.07902 0.192616,-0.07902 h 0.232127 l 0.674158,0.842079 v -0.842079 z"
         id="path31114" />
      <path
         d="m 20.342961,12.627781 q 0.113594,0 0.192616,0.07902 0.07902,0.07902 0.07902,0.192617 v 0.363007 q 0,0.111125 -0.07902,0.192617 -0.07902,0.07902 -0.192616,0.07902 h -0.906284 v 0.451907 h -0.451908 v -1.358192 z m -0.180269,0.543277 v -0.180269 h -0.726015 v 0.180269 z"
         id="path31116" />
      <path
         d="m 22.582203,12.627781 v 1.086554 q 0,0.113594 -0.07902,0.192616 -0.07902,0.07902 -0.192616,0.07902 h -1.086554 q -0.113594,0 -0.192616,-0.07902 -0.07902,-0.07902 -0.07902,-0.192616 v -1.086554 h 0.451907 v 0.995185 H 22.1303 v -0.995185 z"
         id="path31118" />
      <path
         d="m 24.586848,12.627781 v 0.363008 h -0.590196 v 0.995184 h -0.451908 v -0.995184 h -0.587727 v -0.363008 z"
         id="path31120" />
      <path
         d="m 26.169759,12.627781 v 1.358192 h -0.451907 v -0.995184 h -0.363008 v -0.363008 z"
         id="path31122" />
      <path
         d="m 27.828451,12.627781 q 0.113595,0 0.192617,0.07902 0.07902,0.07902 0.07902,0.192617 v 0.279046 q 0,0.03951 -0.02716,0.07902 -0.02469,0.03704 -0.06421,0.04939 0.03951,0.01235 0.06421,0.05186 0.02716,0.03704 0.02716,0.07655 v 0.279047 q 0,0.113594 -0.07902,0.192616 -0.07902,0.07902 -0.192617,0.07902 h -1.358192 v -1.358192 z m -0.180269,0.995185 v -0.13582 h -0.726015 v 0.13582 z m 0,-0.496358 v -0.135819 h -0.726015 v 0.135819 z"
         id="path31124" />
    </g>
    <g
       aria-label="Output 1"
       id="text22428"
       style="font-size:2.46944px;line-height:1.25;font-family:Excluded;-inkscape-font-specification:'Excluded, Normal';fill:#ffffff;stroke-width:0.264583"
       transform="matrix(0.80990022,0,0,0.80990022,1.6899879,5.7201583)">
      <path
         d="M 3.5092114,31.085479 V 30.453302 H 2.783196 v 0.632177 z m 0.1802691,-0.995185 q 0.1135942,0 0.1926163,0.07902 0.079022,0.07902 0.079022,0.192617 v 0.814915 q 0,0.113594 -0.079022,0.192616 -0.079022,0.07902 -0.1926163,0.07902 H 2.6029269 q -0.1135942,0 -0.1926163,-0.07902 -0.079022,-0.07902 -0.079022,-0.192616 v -0.814915 q 0,-0.113595 0.079022,-0.192617 0.079022,-0.07902 0.1926163,-0.07902 z"
         id="path31138" />
      <path
         d="m 5.9287224,30.090294 v 1.086554 q 0,0.113594 -0.079022,0.192616 -0.079022,0.07902 -0.1926163,0.07902 H 4.5705304 q -0.1135942,0 -0.1926163,-0.07902 -0.079022,-0.07902 -0.079022,-0.192616 v -1.086554 h 0.4519075 v 0.995185 H 5.476815 v -0.995185 z"
         id="path31140" />
      <path
         d="m 7.9333675,30.090294 v 0.363008 H 7.3431713 v 0.995184 H 6.8912638 V 30.453302 H 6.3035371 v -0.363008 z"
         id="path31142" />
      <path
         d="m 9.6219241,30.090294 q 0.1135943,0 0.1926163,0.07902 0.079022,0.07902 0.079022,0.192617 v 0.363007 q 0,0.111125 -0.079022,0.192617 -0.079022,0.07902 -0.1926163,0.07902 H 8.7156396 v 0.451907 H 8.2637321 V 30.090294 Z M 9.441655,30.633571 V 30.453302 H 8.7156396 v 0.180269 z"
         id="path31144" />
      <path
         d="m 11.861166,30.090294 v 1.086554 q 0,0.113594 -0.07902,0.192616 -0.07902,0.07902 -0.192616,0.07902 h -1.086554 q -0.113594,0 -0.192616,-0.07902 -0.07902,-0.07902 -0.07902,-0.192616 v -1.086554 h 0.451907 v 0.995185 h 0.726016 v -0.995185 z"
         id="path31146" />
      <path
         d="m 13.865811,30.090294 v 0.363008 h -0.590196 v 0.995184 h -0.451907 v -0.995184 h -0.587727 v -0.363008 z"
         id="path31148" />
      <path
         d="m 15.448722,30.090294 v 1.358192 h -0.451908 v -0.995184 h -0.363007 v -0.363008 z"
         id="path31150" />
    </g>
    <g
       aria-label="Input 2A"
       id="text24828"
       style="font-size:2.46944px;line-height:1.25;font-family:Excluded;-inkscape-font-specification:'Excluded, Normal';fill:#ffffff;stroke-width:0.264583"
       transform="matrix(0.80990022,0,0,0.80990022,1.6899888,15.880209)">
      <path
         d="m 2.6666114,84.894371 v -1.358192 h 0.454377 v 1.358192 z"
         id="path31153" />
      <path
         d="m 5.0404763,83.536179 v 1.086554 q 0,0.113594 -0.079022,0.192616 -0.079022,0.07902 -0.1926163,0.07902 H 4.5367106 L 3.8625535,84.052292 v 0.842079 H 3.410646 v -1.086554 q 0,-0.113594 0.079022,-0.192616 0.079022,-0.07902 0.1926164,-0.07902 h 0.2321273 l 0.6741571,0.842079 v -0.842079 z"
         id="path31155" />
      <path
         d="m 6.7463193,83.536179 q 0.1135942,0 0.1926163,0.07902 0.079022,0.07902 0.079022,0.192616 v 0.363008 q 0,0.111125 -0.079022,0.192616 -0.079022,0.07902 -0.1926163,0.07902 H 5.8400348 v 0.451907 H 5.3881273 V 83.536179 Z M 6.5660501,84.079456 V 83.899187 H 5.8400348 v 0.180269 z"
         id="path31157" />
      <path
         d="m 8.9855613,83.536179 v 1.086554 q 0,0.113594 -0.079022,0.192616 -0.079022,0.07902 -0.1926163,0.07902 H 7.6273693 q -0.1135943,0 -0.1926164,-0.07902 -0.079022,-0.07902 -0.079022,-0.192616 v -1.086554 h 0.4519075 v 0.995184 h 0.7260153 v -0.995184 z"
         id="path31159" />
      <path
         d="m 10.990206,83.536179 v 0.363008 H 10.40001 v 0.995184 H 9.9481023 V 83.899187 H 9.3603756 v -0.363008 z"
         id="path31161" />
      <path
         d="m 13.155905,83.536179 v 0.587727 q 0,0.113594 -0.08149,0.192616 -0.07902,0.07902 -0.190147,0.07902 h -0.634646 v 0.135819 h 0.906284 v 0.363008 h -1.358192 v -0.587727 q 0,-0.113594 0.07902,-0.192616 0.07902,-0.07902 0.192617,-0.07902 h 0.634646 v -0.135819 h -0.906285 v -0.363008 z"
         id="path31163" />
      <path
         d="m 14.84176,83.536179 q 0.111125,0 0.190147,0.07902 0.08149,0.07902 0.08149,0.192616 v 1.086554 H 14.65902 v -0.451907 h -0.723546 v 0.451907 h -0.451908 v -1.086554 q 0,-0.113594 0.07902,-0.192616 0.07902,-0.07902 0.192616,-0.07902 z m -0.182738,0.543277 v -0.180269 h -0.723546 v 0.180269 z"
         id="path31165" />
    </g>
    <g
       aria-label="Input 2B"
       id="text27816"
       style="font-size:2.46944px;line-height:1.25;font-family:Excluded;-inkscape-font-specification:'Excluded, Normal';fill:#ffffff;stroke-width:0.264583"
       transform="matrix(0.80989664,0,0,0.80989664,4.2168115,15.880507)">
      <path
         d="m 15.954573,84.894371 v -1.358192 h 0.454377 v 1.358192 z"
         id="path31168" />
      <path
         d="m 18.328438,83.536179 v 1.086554 q 0,0.113594 -0.07902,0.192616 -0.07902,0.07902 -0.192617,0.07902 H 17.824674 L 17.150517,84.05229 v 0.842079 h -0.451908 v -1.086554 q 0,-0.113594 0.07902,-0.192616 0.07902,-0.07902 0.192617,-0.07902 h 0.232127 l 0.674157,0.842079 v -0.842079 z"
         id="path31170" />
      <path
         d="m 20.034281,83.536179 q 0.113594,0 0.192616,0.07902 0.07902,0.07902 0.07902,0.192616 v 0.363008 q 0,0.111125 -0.07902,0.192616 -0.07902,0.07902 -0.192616,0.07902 h -0.906285 v 0.451907 h -0.451907 v -1.358192 z m -0.18027,0.543277 v -0.180269 h -0.726015 v 0.180269 z"
         id="path31172" />
      <path
         d="m 22.273523,83.536179 v 1.086554 q 0,0.113594 -0.07902,0.192616 -0.07902,0.07902 -0.192616,0.07902 h -1.086553 q -0.113595,0 -0.192617,-0.07902 -0.07902,-0.07902 -0.07902,-0.192616 V 83.536179 H 21.0956 v 0.995184 h 0.726015 v -0.995184 z"
         id="path31174" />
      <path
         d="m 24.278167,83.536179 v 0.363008 h -0.590196 v 0.995184 h -0.451907 v -0.995184 h -0.587727 v -0.363008 z"
         id="path31176" />
      <path
         d="m 26.443867,83.536179 v 0.587727 q 0,0.113594 -0.08149,0.192616 -0.07902,0.07902 -0.190147,0.07902 h -0.634646 v 0.135819 h 0.906285 v 0.363008 h -1.358192 v -0.587727 q 0,-0.113594 0.07902,-0.192616 0.07902,-0.07902 0.192616,-0.07902 h 0.634646 v -0.135819 h -0.906284 v -0.363008 z"
         id="path31178" />
      <path
         d="m 28.13713,83.536179 q 0.113594,0 0.192616,0.07902 0.07902,0.07902 0.07902,0.192616 v 0.279047 q 0,0.03951 -0.02716,0.07902 -0.0247,0.03704 -0.06421,0.04939 0.03951,0.01235 0.06421,0.05186 0.02716,0.03704 0.02716,0.07655 v 0.279047 q 0,0.113594 -0.07902,0.192616 -0.07902,0.07902 -0.192616,0.07902 h -1.358192 v -1.358192 z m -0.180269,0.995184 v -0.135819 h -0.726015 v 0.135819 z m 0,-0.496357 v -0.135819 h -0.726015 v 0.135819 z"
         id="path31180" />
    </g>
    <g
       aria-label="Output 2"
       id="text28832"
       style="font-size:2.46944px;line-height:1.25;font-family:Excluded;-inkscape-font-specification:'Excluded, Normal';fill:#ffffff;stroke-width:0.264583"
       transform="matrix(0.80990141,0,0,0.80990141,1.6899765,19.19971)">
      <path
         d="M 3.2178174,101.99388 V 101.3617 H 2.491802 v 0.63218 z m 0.1802691,-0.99518 q 0.1135942,0 0.1926163,0.079 0.079022,0.079 0.079022,0.19261 v 0.81492 q 0,0.11359 -0.079022,0.19262 -0.079022,0.079 -0.1926163,0.079 H 2.3115329 q -0.1135942,0 -0.1926163,-0.079 -0.079022,-0.079 -0.079022,-0.19262 v -0.81492 q 0,-0.11359 0.079022,-0.19261 0.079022,-0.079 0.1926163,-0.079 z"
         id="path31194" />
      <path
         d="m 5.6373284,100.9987 v 1.08655 q 0,0.11359 -0.079022,0.19262 -0.079022,0.079 -0.1926163,0.079 H 4.2791364 q -0.1135942,0 -0.1926163,-0.079 -0.079022,-0.079 -0.079022,-0.19262 v -1.08655 h 0.4519075 v 0.99518 H 5.185421 v -0.99518 z"
         id="path31196" />
      <path
         d="m 7.6419735,100.9987 v 0.363 H 7.0517773 v 0.99519 H 6.5998698 V 101.3617 H 6.0121431 v -0.363 z"
         id="path31198" />
      <path
         d="m 9.3305301,100.9987 q 0.1135943,0 0.1926163,0.079 0.079022,0.079 0.079022,0.19261 v 0.36301 q 0,0.11113 -0.079022,0.19262 -0.079022,0.079 -0.1926163,0.079 H 8.4242457 v 0.45191 H 7.9723381 V 100.9987 Z M 9.150261,101.54197 V 101.3617 H 8.4242457 v 0.18027 z"
         id="path31200" />
      <path
         d="m 11.569772,100.9987 v 1.08655 q 0,0.11359 -0.07902,0.19262 -0.07902,0.079 -0.192616,0.079 H 10.21158 q -0.113594,0 -0.192616,-0.079 -0.079022,-0.079 -0.079022,-0.19262 v -1.08655 h 0.451907 v 0.99518 h 0.726016 v -0.99518 z"
         id="path31202" />
      <path
         d="m 13.574417,100.9987 v 0.363 h -0.590196 v 0.99519 h -0.451907 v -0.99519 h -0.587727 v -0.363 z"
         id="path31204" />
      <path
         d="m 15.740116,100.9987 v 0.58772 q 0,0.1136 -0.08149,0.19262 -0.07902,0.079 -0.190147,0.079 h -0.634646 v 0.13582 h 0.906285 v 0.36301 h -1.358192 v -0.58773 q 0,-0.11359 0.07902,-0.19262 0.07902,-0.079 0.192616,-0.079 h 0.634646 v -0.13582 h -0.906284 v -0.363 z"
         id="path31206" />
    </g>
    <g
       aria-label="OR/NOR"
       id="text14353"
       style="font-size:1.76389px;line-height:1.25;font-family:Excluded;-inkscape-font-specification:'Excluded, Normal';stroke-width:0.264583"
       transform="matrix(1.1318002,0,0,1.1318002,-2.0086347,-6.3983946)">
      <path
         d="m 12.145489,61.588612 v -0.451555 h -0.518584 v 0.451555 z m 0.128764,-0.710847 q 0.08114,0 0.137583,0.05644 0.05645,0.05644 0.05645,0.137584 v 0.582083 q 0,0.08114 -0.05645,0.137584 -0.05644,0.05644 -0.137583,0.05644 h -0.776112 q -0.08114,0 -0.137583,-0.05644 -0.05645,-0.05645 -0.05645,-0.137584 v -0.582083 q 0,-0.08114 0.05645,-0.137584 0.05644,-0.05644 0.137583,-0.05644 z"
         style="fill:#ffffff"
         id="path25765" />
      <path
         d="m 13.686743,60.877765 q 0.08114,0 0.137583,0.05644 0.05645,0.05644 0.05645,0.137584 v 0.259291 q 0,0.07938 -0.05645,0.137584 -0.05644,0.05644 -0.137583,0.05644 h -0.07585 l 0.269875,0.322792 h -0.336903 l -0.271639,-0.322792 h -0.232834 v 0.322792 H 12.7166 v -0.970139 z m -0.128764,0.388055 v -0.128763 h -0.518584 v 0.128763 z"
         style="fill:#ffffff"
         id="path25767" />
      <path
         d="m 14.977525,60.876001 -0.560917,0.971903 h -0.324556 l 0.560917,-0.971903 z"
         style="fill:#ffffff"
         id="path25769" />
      <path
         d="m 16.350906,60.877765 v 0.776111 q 0,0.08114 -0.05644,0.137584 -0.05645,0.05644 -0.137584,0.05644 h -0.16581 L 15.50953,61.246418 v 0.601486 h -0.322791 v -0.776111 q 0,-0.08114 0.05644,-0.137584 0.05645,-0.05644 0.137583,-0.05644 h 0.165806 l 0.481542,0.601486 v -0.601486 z"
         style="fill:#ffffff"
         id="path25771" />
      <path
         d="M 17.440604,61.588612 V 61.137057 H 16.92202 v 0.451555 z m 0.128764,-0.710847 q 0.08114,0 0.137583,0.05644 0.05645,0.05644 0.05645,0.137584 v 0.582083 q 0,0.08114 -0.05645,0.137584 -0.05644,0.05644 -0.137583,0.05644 h -0.776112 q -0.08114,0 -0.137583,-0.05644 -0.05645,-0.05645 -0.05645,-0.137584 v -0.582083 q 0,-0.08114 0.05645,-0.137584 0.05644,-0.05644 0.137583,-0.05644 z"
         style="fill:#ffffff"
         id="path25773" />
      <path
         d="m 18.981858,60.877765 q 0.08114,0 0.137583,0.05644 0.05645,0.05644 0.05645,0.137584 v 0.259291 q 0,0.07938 -0.05645,0.137584 -0.05644,0.05644 -0.137583,0.05644 h -0.07585 l 0.269875,0.322792 h -0.3369 L 18.567344,61.525112 H 18.33451 v 0.322792 H 18.011718 V 60.877765 Z M 18.853094,61.26582 V 61.137057 H 18.33451 v 0.128763 z"
         style="fill:#ffffff"
         id="path25775" />
    </g>
    <g
       aria-label="XOR/XNOR"
       id="text21297"
       style="font-size:1.76389px;line-height:1.25;font-family:Excluded;-inkscape-font-specification:'Excluded, Normal';stroke-width:0.264583"
       transform="matrix(1.131799,0,0,1.131799,-2.0086201,-5.9450623)">
      <path
         d="m 10.681846,66.23883 0.377473,0.48507 H 10.650096 L 10.477235,66.50165 10.304374,66.7239 H 9.8951515 L 10.272624,66.23883 9.8951515,65.75376 h 0.4092225 l 0.172861,0.22225 0.172861,-0.22225 h 0.409223 z"
         style="fill:#ffffff"
         id="path25778" />
      <path
         d="m 12.141961,66.464608 v -0.451556 h -0.518583 v 0.451556 z m 0.128764,-0.710848 q 0.08114,0 0.137584,0.05644 0.05644,0.05644 0.05644,0.137583 v 0.582084 q 0,0.08114 -0.05644,0.137583 -0.05644,0.05644 -0.137584,0.05644 h -0.776111 q -0.08114,0 -0.137584,-0.05644 -0.05644,-0.05644 -0.05644,-0.137583 v -0.582084 q 0,-0.08114 0.05644,-0.137583 0.05645,-0.05644 0.137584,-0.05644 z"
         style="fill:#ffffff"
         id="path25780" />
      <path
         d="m 13.683215,65.75376 q 0.08114,0 0.137584,0.05644 0.05644,0.05644 0.05644,0.137583 v 0.259292 q 0,0.07937 -0.05644,0.137583 -0.05644,0.05644 -0.137584,0.05644 h -0.07585 L 13.877243,66.7239 H 13.54034 L 13.268701,66.401108 H 13.035868 V 66.7239 h -0.322792 v -0.97014 z m -0.128763,0.388056 v -0.128764 h -0.518584 v 0.128764 z"
         style="fill:#ffffff"
         id="path25782" />
      <path
         d="M 14.973997,65.751996 14.41308,66.7239 h -0.324556 l 0.560917,-0.971904 z"
         style="fill:#ffffff"
         id="path25784" />
      <path
         d="m 15.976961,66.23883 0.377473,0.48507 H 15.945211 L 15.77235,66.50165 15.599489,66.7239 h -0.409223 l 0.377473,-0.48507 -0.377473,-0.48507 h 0.409223 l 0.172861,0.22225 0.172861,-0.22225 h 0.409223 z"
         style="fill:#ffffff"
         id="path25786" />
      <path
         d="m 17.759868,65.75376 v 0.776112 q 0,0.08114 -0.05644,0.137583 -0.05644,0.05644 -0.137584,0.05644 H 17.400035 L 16.918493,66.122413 V 66.7239 h -0.322792 v -0.776112 q 0,-0.08114 0.05644,-0.137583 0.05645,-0.05644 0.137584,-0.05644 h 0.165805 l 0.481542,0.601487 V 65.75376 Z"
         style="fill:#ffffff"
         id="path25788" />
      <path
         d="m 18.849567,66.464608 v -0.451556 h -0.518584 v 0.451556 z m 0.128764,-0.710848 q 0.08114,0 0.137583,0.05644 0.05645,0.05644 0.05645,0.137583 v 0.582084 q 0,0.08114 -0.05645,0.137583 -0.05644,0.05644 -0.137583,0.05644 h -0.776112 q -0.08114,0 -0.137583,-0.05644 -0.05645,-0.05644 -0.05645,-0.137583 v -0.582084 q 0,-0.08114 0.05645,-0.137583 0.05644,-0.05644 0.137583,-0.05644 z"
         style="fill:#ffffff"
         id="path25790" />
      <path
         d="m 20.390821,65.75376 q 0.08114,0 0.137583,0.05644 0.05645,0.05644 0.05645,0.137583 v 0.259292 q 0,0.07937 -0.05645,0.137583 -0.05644,0.05644 -0.137583,0.05644 h -0.07585 l 0.269876,0.322792 h -0.336903 l -0.27164,-0.322792 H 19.743473 V 66.7239 h -0.322792 v -0.97014 z m -0.128764,0.388056 v -0.128764 h -0.518584 v 0.128764 z"
         style="fill:#ffffff"
         id="path25792" />
    </g>
    <g
       aria-label="NOT/Thru"
       id="text23725"
       style="font-size:1.76389px;line-height:1.25;font-family:Excluded;-inkscape-font-specification:'Excluded, Normal';stroke-width:0.264583"
       transform="matrix(1.1318002,0,0,1.1318002,-2.0086348,-5.4918881)">
      <path
         d="m 11.059319,70.62976 v 0.776111 q 0,0.08114 -0.05645,0.137584 -0.05644,0.05644 -0.137583,0.05644 H 10.69948 l -0.481542,-0.601486 v 0.601486 H 9.8951512 v -0.776111 q 0,-0.08114 0.056444,-0.137584 0.056444,-0.05644 0.1375838,-0.05644 h 0.165806 l 0.481542,0.601486 V 70.62976 Z"
         style="fill:#ffffff"
         id="path25795" />
      <path
         d="m 12.149017,71.340607 v -0.451555 h -0.518584 v 0.451555 z m 0.128764,-0.710847 q 0.08114,0 0.137583,0.05644 0.05645,0.05644 0.05645,0.137584 v 0.582083 q 0,0.08114 -0.05645,0.137584 -0.05644,0.05644 -0.137583,0.05644 h -0.776112 q -0.08114,0 -0.137583,-0.05644 -0.05645,-0.05644 -0.05645,-0.137584 v -0.582083 q 0,-0.08114 0.05645,-0.137584 0.05644,-0.05644 0.137583,-0.05644 z"
         style="fill:#ffffff"
         id="path25797" />
      <path
         d="m 13.896646,70.62976 v 0.259292 h -0.42157 v 0.710847 H 13.152284 V 70.889052 H 12.732478 V 70.62976 Z"
         style="fill:#ffffff"
         id="path25799" />
      <path
         d="m 14.981052,70.627996 -0.560917,0.971903 H 14.09558 l 0.560917,-0.971903 z"
         style="fill:#ffffff"
         id="path25801" />
      <path
         d="m 16.366781,70.62976 v 0.259292 h -0.42157 v 0.710847 H 15.622419 V 70.889052 H 15.202613 V 70.62976 Z"
         style="fill:#ffffff"
         id="path25803" />
      <path
         d="m 17.766924,70.62976 v 0.970139 h -0.322792 v -0.356305 h -0.518584 v 0.356305 H 16.602756 V 70.62976 h 0.322792 v 0.356306 h 0.518584 V 70.62976 Z"
         style="fill:#ffffff"
         id="path25805" />
      <path
         d="m 18.985386,70.62976 q 0.08114,0 0.137583,0.05644 0.05645,0.05644 0.05645,0.137584 v 0.259292 q 0,0.07937 -0.05645,0.137583 -0.05644,0.05644 -0.137583,0.05644 h -0.07585 l 0.269875,0.322792 h -0.336903 l -0.271639,-0.322792 h -0.232834 v 0.322792 H 18.015246 V 70.62976 Z m -0.128764,0.388056 v -0.128764 h -0.518584 v 0.128764 z"
         style="fill:#ffffff"
         id="path25807" />
      <path
         d="m 20.584848,70.62976 v 0.776111 q 0,0.08114 -0.05644,0.137584 -0.05645,0.05644 -0.137584,0.05644 h -0.776111 q -0.08114,0 -0.137584,-0.05644 -0.05644,-0.05644 -0.05644,-0.137584 V 70.62976 h 0.322792 v 0.710847 h 0.518583 V 70.62976 Z"
         style="fill:#ffffff"
         id="path25809" />
    </g>
    <g
       aria-label="Output 1"
       id="g5811"
       style="font-size:2.46944px;line-height:1.25;font-family:Excluded;-inkscape-font-specification:'Excluded, Normal';fill:#ffffff;stroke-width:0.264583"
       transform="matrix(0.80990022,0,0,0.80990022,14.981654,5.7201583)">
      <path
         d="M 3.5092114,31.085479 V 30.453302 H 2.783196 v 0.632177 z m 0.1802691,-0.995185 q 0.1135942,0 0.1926163,0.07902 0.079022,0.07902 0.079022,0.192617 v 0.814915 q 0,0.113594 -0.079022,0.192616 -0.079022,0.07902 -0.1926163,0.07902 H 2.6029269 q -0.1135942,0 -0.1926163,-0.07902 -0.079022,-0.07902 -0.079022,-0.192616 v -0.814915 q 0,-0.113595 0.079022,-0.192617 0.079022,-0.07902 0.1926163,-0.07902 z"
         id="path5797" />
      <path
         d="m 5.9287224,30.090294 v 1.086554 q 0,0.113594 -0.079022,0.192616 -0.079022,0.07902 -0.1926163,0.07902 H 4.5705304 q -0.1135942,0 -0.1926163,-0.07902 -0.079022,-0.07902 -0.079022,-0.192616 v -1.086554 h 0.4519075 v 0.995185 H 5.476815 v -0.995185 z"
         id="path5799" />
      <path
         d="m 7.9333675,30.090294 v 0.363008 H 7.3431713 v 0.995184 H 6.8912638 V 30.453302 H 6.3035371 v -0.363008 z"
         id="path5801" />
      <path
         d="m 9.6219241,30.090294 q 0.1135943,0 0.1926163,0.07902 0.079022,0.07902 0.079022,0.192617 v 0.363007 q 0,0.111125 -0.079022,0.192617 -0.079022,0.07902 -0.1926163,0.07902 H 8.7156396 v 0.451907 H 8.2637321 V 30.090294 Z M 9.441655,30.633571 V 30.453302 H 8.7156396 v 0.180269 z"
         id="path5803" />
      <path
         d="m 11.861166,30.090294 v 1.086554 q 0,0.113594 -0.07902,0.192616 -0.07902,0.07902 -0.192616,0.07902 h -1.086554 q -0.113594,0 -0.192616,-0.07902 -0.07902,-0.07902 -0.07902,-0.192616 v -1.086554 h 0.451907 v 0.995185 h 0.726016 v -0.995185 z"
         id="path5805" />
      <path
         d="m 13.865811,30.090294 v 0.363008 h -0.590196 v 0.995184 h -0.451907 v -0.995184 h -0.587727 v -0.363008 z"
         id="path5807" />
      <path
         d="m 15.448722,30.090294 v 1.358192 h -0.451908 v -0.995184 h -0.363007 v -0.363008 z"
         id="path5809" />
    </g>
    <g
       aria-label="Output 2"
       id="g5975"
       style="font-size:2.46944px;line-height:1.25;font-family:Excluded;-inkscape-font-specification:'Excluded, Normal';fill:#ffffff;stroke-width:0.264583"
       transform="matrix(0.80990141,0,0,0.80990141,14.981643,19.19971)">
      <path
         d="M 3.2178174,101.99388 V 101.3617 H 2.491802 v 0.63218 z m 0.1802691,-0.99518 q 0.1135942,0 0.1926163,0.079 0.079022,0.079 0.079022,0.19261 v 0.81492 q 0,0.11359 -0.079022,0.19262 -0.079022,0.079 -0.1926163,0.079 H 2.3115329 q -0.1135942,0 -0.1926163,-0.079 -0.079022,-0.079 -0.079022,-0.19262 v -0.81492 q 0,-0.11359 0.079022,-0.19261 0.079022,-0.079 0.1926163,-0.079 z"
         id="path5961" />
      <path
         d="m 5.6373284,100.9987 v 1.08655 q 0,0.11359 -0.079022,0.19262 -0.079022,0.079 -0.1926163,0.079 H 4.2791364 q -0.1135942,0 -0.1926163,-0.079 -0.079022,-0.079 -0.079022,-0.19262 v -1.08655 h 0.4519075 v 0.99518 H 5.185421 v -0.99518 z"
         id="path5963" />
      <path
         d="m 7.6419735,100.9987 v 0.363 H 7.0517773 v 0.99519 H 6.5998698 V 101.3617 H 6.0121431 v -0.363 z"
         id="path5965" />
      <path
         d="m 9.3305301,100.9987 q 0.1135943,0 0.1926163,0.079 0.079022,0.079 0.079022,0.19261 v 0.36301 q 0,0.11113 -0.079022,0.19262 -0.079022,0.079 -0.1926163,0.079 H 8.4242457 v 0.45191 H 7.9723381 V 100.9987 Z M 9.150261,101.54197 V 101.3617 H 8.4242457 v 0.18027 z"
         id="path5967" />
      <path
         d="m 11.569772,100.9987 v 1.08655 q 0,0.11359 -0.07902,0.19262 -0.07902,0.079 -0.192616,0.079 H 10.21158 q -0.113594,0 -0.192616,-0.079 -0.079022,-0.079 -0.079022,-0.19262 v -1.08655 h 0.451907 v 0.99518 h 0.726016 v -0.99518 z"
         id="path5969" />
      <path
         d="m 13.574417,100.9987 v 0.363 h -0.590196 v 0.99519 h -0.451907 v -0.99519 h -0.587727 v -0.363 z"
         id="path5971" />
      <path
         d="m 15.740116,100.9987 v 0.58772 q 0,0.1136 -0.08149,0.19262 -0.07902,0.079 -0.190147,0.079 h -0.634646 v 0.13582 h 0.906285 v 0.36301 h -1.358192 v -0.58773 q 0,-0.11359 0.07902,-0.19262 0.07902,-0.079 0.192616,-0.079 h 0.634646 v -0.13582 h -0.906284 v -0.363 z"
         id="path5973" />
    </g>
  </g>
  <g
     inkscape:groupmode="layer"
     id="layer2"
     inkscape:label="components"
     style="display:none">
    <circle
       r="4"
       cy="19.269485"
       cx="8.8900051"
       id="circle4956"
       style="display:inline;opacity:1;vector-effect:none;fill:#00ff00;fill-opacity:1;fill-rule:evenodd;stroke:none;stroke-width:1;stroke-linecap:butt;stroke-linejoin:miter;stroke-miterlimit:4;stroke-dasharray:none;stroke-dashoffset:0;stroke-opacity:1;paint-order:normal"
       inkscape:label="pitch" />
    <circle
       style="display:inline;opacity:1;vector-effect:none;fill:#0000ff;fill-opacity:1;fill-rule:evenodd;stroke:none;stroke-width:1;stroke-linecap:butt;stroke-linejoin:miter;stroke-miterlimit:4;stroke-dasharray:none;stroke-dashoffset:0;stroke-opacity:1;paint-order:normal"
       id="circle4958"
       cx="8.8900051"
       cy="36.794487"
       r="4"
       inkscape:label="sine" />
    <circle
       inkscape:label="blink"
       r="4"
       cy="36.794487"
       cx="22.181671"
       id="circle66"
       style="display:inline;opacity:1;vector-effect:none;fill:#ff00ff;fill-opacity:1;fill-rule:evenodd;stroke:none;stroke-width:1;stroke-linecap:butt;stroke-linejoin:miter;stroke-miterlimit:4;stroke-dasharray:none;stroke-dashoffset:0;stroke-opacity:1;paint-order:normal" />
    <circle
       r="4"
       cy="19.269485"
       cx="22.181671"
       id="circle681"
       style="display:inline;opacity:1;vector-effect:none;fill:#00ff00;fill-opacity:1;fill-rule:evenodd;stroke:none;stroke-width:1;stroke-linecap:butt;stroke-linejoin:miter;stroke-miterlimit:4;stroke-dasharray:none;stroke-dashoffset:0;stroke-opacity:1;paint-order:normal"
       inkscape:label="pitch" />
    <circle
       r="4"
       cy="90.177887"
       cx="8.8900051"
       id="circle683"
       style="display:inline;opacity:1;vector-effect:none;fill:#00ff00;fill-opacity:1;fill-rule:evenodd;stroke:none;stroke-width:1;stroke-linecap:butt;stroke-linejoin:miter;stroke-miterlimit:4;stroke-dasharray:none;stroke-dashoffset:0;stroke-opacity:1;paint-order:normal"
       inkscape:label="pitch" />
    <circle
       style="display:inline;opacity:1;vector-effect:none;fill:#0000ff;fill-opacity:1;fill-rule:evenodd;stroke:none;stroke-width:1;stroke-linecap:butt;stroke-linejoin:miter;stroke-miterlimit:4;stroke-dasharray:none;stroke-dashoffset:0;stroke-opacity:1;paint-order:normal"
       id="circle685"
       cx="8.8900051"
       cy="107.70286"
       r="4"
       inkscape:label="sine" />
    <circle
       inkscape:label="blink"
       r="4"
       cy="107.70286"
       cx="22.181671"
       id="circle687"
       style="display:inline;opacity:1;vector-effect:none;fill:#ff00ff;fill-opacity:1;fill-rule:evenodd;stroke:none;stroke-width:1;stroke-linecap:butt;stroke-linejoin:miter;stroke-miterlimit:4;stroke-dasharray:none;stroke-dashoffset:0;stroke-opacity:1;paint-order:normal" />
    <circle
       r="4"
       cy="90.177887"
       cx="22.181671"
       id="circle689"
       style="display:inline;opacity:1;vector-effect:none;fill:#00ff00;fill-opacity:1;fill-rule:evenodd;stroke:none;stroke-width:1;stroke-linecap:butt;stroke-linejoin:miter;stroke-miterlimit:4;stroke-dasharray:none;stroke-dashoffset:0;stroke-opacity:1;paint-order:normal"
       inkscape:label="pitch" />
    <circle
       style="display:inline;opacity:1;vector-effect:none;fill:#0000ff;fill-opacity:1;fill-rule:evenodd;stroke:none;stroke-width:1;stroke-linecap:butt;stroke-linejoin:miter;stroke-miterlimit:4;stroke-dasharray:none;stroke-dashoffset:0;stroke-opacity:1;paint-order:normal"
       id="circle206"
       cx="8.8900051"
       cy="36.794487"
       r="4"
       inkscape:label="sine" />
    <circle
       style="display:inline;opacity:1;vector-effect:none;fill:#0000ff;fill-opacity:1;fill-rule:evenodd;stroke:none;stroke-width:1;stroke-linecap:butt;stroke-linejoin:miter;stroke-miterlimit:4;stroke-dasharray:none;stroke-dashoffset:0;stroke-opacity:1;paint-order:normal"
       id="circle881"
       cx="8.8900051"
       cy="107.70286"
       r="4"
       inkscape:label="sine" />
  </g>
</svg>
