<?xml version="1.0" encoding="UTF-8" standalone="no"?>
<!-- Created with Inkscape (http://www.inkscape.org/) -->

<svg
   width="30.48mm"
   height="128.5mm"
   viewBox="0 0 30.480002 128.50002"
   version="1.1"
   id="svg8"
   inkscape:version="1.1.2 (b8e25be8, 2022-02-05)"
   sodipodi:docname="Logician.svg"
   xmlns:inkscape="http://www.inkscape.org/namespaces/inkscape"
   xmlns:sodipodi="http://sodipodi.sourceforge.net/DTD/sodipodi-0.dtd"
   xmlns="http://www.w3.org/2000/svg"
   xmlns:svg="http://www.w3.org/2000/svg"
   xmlns:rdf="http://www.w3.org/1999/02/22-rdf-syntax-ns#"
   xmlns:cc="http://creativecommons.org/ns#"
   xmlns:dc="http://purl.org/dc/elements/1.1/">
  <defs
     id="defs2" />
  <sodipodi:namedview
     id="base"
     pagecolor="#ffffff"
     bordercolor="#666666"
     borderopacity="1.0"
     inkscape:pageopacity="0.0"
     inkscape:pageshadow="2"
     inkscape:zoom="1.6877865"
     inkscape:cx="197.29984"
     inkscape:cy="233.1456"
     inkscape:document-units="mm"
     inkscape:current-layer="layer3"
     showgrid="false"
     units="mm"
     inkscape:snap-bbox="true"
     inkscape:snap-page="true"
     inkscape:bbox-nodes="false"
     inkscape:snap-bbox-edge-midpoints="false"
     inkscape:window-width="1920"
     inkscape:window-height="1027"
     inkscape:window-x="0"
     inkscape:window-y="25"
     inkscape:window-maximized="0"
     inkscape:snap-bbox-midpoints="true"
     inkscape:snap-nodes="false"
     inkscape:pagecheckerboard="0" />
  <metadata
     id="metadata5">
    <rdf:RDF>
      <cc:Work
         rdf:about="">
        <dc:format>image/svg+xml</dc:format>
        <dc:type
           rdf:resource="http://purl.org/dc/dcmitype/StillImage" />
      </cc:Work>
    </rdf:RDF>
  </metadata>
  <g
     inkscape:label="background"
     inkscape:groupmode="layer"
     id="layer1"
     transform="translate(0,-168.49998)"
     style="display:inline">
    <rect
       style="display:inline;opacity:1;vector-effect:none;fill:#000000;fill-opacity:1;fill-rule:evenodd;stroke:none;stroke-width:0.649358;stroke-linecap:butt;stroke-linejoin:miter;stroke-miterlimit:4;stroke-dasharray:none;stroke-dashoffset:0;stroke-opacity:1;paint-order:normal"
       id="rect420"
       width="30.48"
       height="128.5"
       x="5.9211732e-17"
       y="168.49997" />
    <rect
       style="fill:#ffffff;stroke-width:0.247591"
       id="rect30896"
       width="8.5019999"
       height="8.5019999"
       x="4.6390052"
       y="200.99213" />
    <rect
       style="fill:#ffffff;stroke-width:0.247591"
       id="rect31060"
       width="8.5019999"
       height="8.5019999"
       x="4.6390052"
       y="271.89996" />
    <rect
       style="fill:#ffffff;stroke-width:0.247591"
       id="rect208"
       width="8.5019999"
       height="8.5019999"
       x="17.930672"
       y="200.99213" />
    <rect
       style="fill:#ffffff;stroke-width:0.247591"
       id="rect210"
       width="8.5019999"
       height="8.5019999"
       x="17.930672"
       y="271.89996" />
  </g>
  <g
     inkscape:groupmode="layer"
     id="layer3"
     inkscape:label="text"
     style="display:inline">
    <g
       aria-label="AND/NAND"
       id="text3177"
       style="font-size:1.76389px;line-height:1.25;font-family:Excluded;-inkscape-font-specification:'Excluded, Normal';stroke-width:0.264583"
       transform="matrix(1.1317944,0,0,1.1317944,-2.0085494,-6.8513097)">
      <path
         d="m 10.859117,56.001761 q 0.07938,0 0.135819,0.05644 0.05821,0.05644 0.05821,0.137583 v 0.776112 H 10.72859 v -0.322792 h -0.51682 v 0.322792 H 9.8889774 v -0.776112 q 0,-0.08114 0.056444,-0.137583 0.056444,-0.05644 0.1375836,-0.05644 z m -0.130528,0.388056 v -0.128764 h -0.51682 v 0.128764 z"
         style="fill:#ffffff"
         id="path25748" />
      <path
         d="m 12.470927,56.001761 v 0.776112 q 0,0.08114 -0.05645,0.137583 -0.05644,0.05645 -0.137583,0.05645 h -0.165806 l -0.481542,-0.601487 v 0.601487 h -0.322792 v -0.776112 q 0,-0.08114 0.05645,-0.137583 0.05644,-0.05644 0.137583,-0.05644 h 0.165806 l 0.481542,0.601487 v -0.601487 z"
         style="fill:#ffffff"
         id="path25750" />
      <path
         d="m 13.689389,56.001761 q 0.08114,0 0.137583,0.05644 0.05645,0.05644 0.05645,0.137583 v 0.582084 q 0,0.08114 -0.05645,0.137583 -0.05644,0.05645 -0.137583,0.05645 h -0.97014 v -0.97014 z m -0.128764,0.710848 v -0.451556 h -0.518584 v 0.451556 z"
         style="fill:#ffffff"
         id="path25752" />
      <path
         d="m 14.98017,55.999998 -0.560917,0.971903 h -0.324555 l 0.560917,-0.971903 z"
         style="fill:#ffffff"
         id="path25754" />
      <path
         d="m 16.353551,56.001761 v 0.776112 q 0,0.08114 -0.05644,0.137583 -0.05644,0.05645 -0.137583,0.05645 H 15.993722 L 15.51218,56.370419 v 0.601487 h -0.322792 v -0.776112 q 0,-0.08114 0.05645,-0.137583 0.05644,-0.05644 0.137583,-0.05644 h 0.165806 l 0.481542,0.601487 v -0.601487 z"
         style="fill:#ffffff"
         id="path25756" />
      <path
         d="m 17.566722,56.001761 q 0.07938,0 0.135819,0.05644 0.05821,0.05644 0.05821,0.137583 v 0.776112 h -0.324556 v -0.322792 h -0.51682 v 0.322792 h -0.322792 v -0.776112 q 0,-0.08114 0.05645,-0.137583 0.05644,-0.05644 0.137583,-0.05644 z m -0.130528,0.388056 v -0.128764 h -0.51682 v 0.128764 z"
         style="fill:#ffffff"
         id="path25758" />
      <path
         d="m 19.178532,56.001761 v 0.776112 q 0,0.08114 -0.05645,0.137583 -0.05644,0.05645 -0.137583,0.05645 h -0.165806 l -0.481542,-0.601487 v 0.601487 h -0.322792 v -0.776112 q 0,-0.08114 0.05645,-0.137583 0.05644,-0.05644 0.137583,-0.05644 h 0.165806 l 0.481542,0.601487 v -0.601487 z"
         style="fill:#ffffff"
         id="path25760" />
      <path
         d="m 20.396994,56.001761 q 0.08114,0 0.137583,0.05644 0.05645,0.05644 0.05645,0.137583 v 0.582084 q 0,0.08114 -0.05645,0.137583 -0.05644,0.05645 -0.137583,0.05645 h -0.97014 v -0.97014 z m -0.128764,0.710848 v -0.451556 h -0.518584 v 0.451556 z"
         style="fill:#ffffff"
         id="path25762" />
    </g>
    <path
       d="m 18.246565,284.54361 c -0.03457,0.0416 -0.06285,0.10683 -0.06285,0.14488 0,0.0381 -0.01295,0.0694 -0.0285,0.0695 -0.03411,0 -0.123493,0.20083 -0.123493,0.27701 v 0.0539 h -0.038 -0.038 v 0.0828 0.0828 h -0.03797 -0.03799 v 0.0828 0.0828 h -0.038 -0.03802 v 0.0609 c 0,0.0335 -0.03678,0.13127 -0.08174,0.21732 -0.04496,0.0861 -0.146505,0.29358 -0.225676,0.46104 -0.07917,0.16746 -0.171095,0.33716 -0.204267,0.37714 l -0.06032,0.0726 0.01041,0.61649 0.01067,0.61651 0.636927,0.0114 0.636926,0.0114 -0.0254,0.11282 c -0.01397,0.0621 -0.03983,0.11905 -0.05748,0.12665 -0.01779,0.008 -0.03213,0.0495 -0.03213,0.0931 v 0.0794 h -0.038 -0.03797 v 0.0582 c 0,0.069 -0.158444,0.41186 -0.199491,0.43172 -0.01575,0.008 -0.0285,0.0376 -0.0285,0.0667 0,0.0291 -0.0684,0.19781 -0.151992,0.3749 -0.08359,0.17704 -0.151993,0.3473 -0.151993,0.37831 0,0.031 -0.01295,0.0564 -0.02901,0.0564 -0.016,0 -0.05972,0.0699 -0.09721,0.15527 -0.03751,0.0854 -0.109754,0.23907 -0.160579,0.34153 -0.09497,0.19159 -0.110159,0.27612 -0.07008,0.38994 l 0.02311,0.0655 h 0.06434 c 0.03536,0 0.08054,0.016 0.100405,0.0357 0.05202,0.0514 0.550085,0.33693 0.587752,0.33693 0.03391,0 0.151257,-0.23403 0.151257,-0.30167 0,-0.0224 0.02992,-0.0709 0.0665,-0.10793 0.08562,-0.0868 0.161492,-0.23447 0.161492,-0.31435 v -0.0627 h 0.038 0.03796 v -0.0828 -0.0828 h 0.03802 0.038 v -0.0828 -0.0828 h 0.0352 c 0.04056,0 0.154762,-0.23388 0.154762,-0.31686 v -0.0558 h 0.038 0.038 v -0.0828 -0.0828 h 0.038 0.03797 v -0.0828 -0.0828 h 0.03802 0.038 v -0.0969 -0.0968 l 0.189,-0.40457 0.189052,-0.40452 0.08032,-0.0759 0.08031,-0.0759 0.0097,-0.406 c 0.0053,-0.22329 0.0025,-0.49448 -0.0071,-0.60261 l -0.01676,-0.19668 h -0.596491 -0.596514 l -0.03996,-0.0435 -0.03995,-0.0435 0.01778,-0.1014 0.01779,-0.10137 h 0.03355 0.03358 v -0.0828 -0.0828 h 0.03799 0.038 l 0.0036,-0.0725 c 0.0025,-0.0399 0.05306,-0.16561 0.113665,-0.27948 0.06066,-0.11384 0.120954,-0.2396 0.13401,-0.27945 0.01295,-0.0398 0.03881,-0.0724 0.05725,-0.0724 h 0.03358 v -0.0579 c 0,-0.0319 0.05128,-0.16414 0.113995,-0.29401 l 0.113994,-0.23612 v -0.0993 -0.0993 h -0.07602 -0.07597 v -0.031 c 0,-0.0375 -0.18458,-0.13457 -0.25542,-0.13457 h -0.05062 l -0.02184,-0.0621 -0.02184,-0.0621 h -0.06965 c -0.03833,0 -0.08027,-0.0185 -0.09319,-0.0414 l -0.02337,-0.0414 h -0.08687 -0.08684 l -0.06292,0.0757 m -7.291558,0.61525 -0.0665,0.019 v 1.87554 1.87554 l 0.118719,0.0259 0.118744,0.0259 H 12.195378 13.264 l 0.08684,-0.0254 0.08687,-0.0254 -0.01092,-0.37772 -0.01092,-0.37775 -0.841192,-0.0112 -0.841166,-0.0112 -0.02262,-0.0924 -0.02262,-0.0923 v -1.39289 -1.39286 l -0.0601,-0.0251 c -0.0676,-0.0283 -0.568982,-0.0257 -0.671292,0.003 m -3.6978632,0.0679 c -0.01067,0.0303 -0.01448,0.22124 -0.0084,0.42436 l 0.01118,0.36935 0.9237916,0.0112 0.9237925,0.0112 0.092579,0.10089 0.092579,0.10089 v 0.0866 0.0866 l -0.092579,0.10084 -0.092579,0.10089 -0.9237925,0.0112 -0.9237916,0.0112 v 0.4761 0.47613 l 0.9291515,0.0112 0.9292025,0.0112 0.087219,0.0893 0.087169,0.0892 v 0.0837 0.0837 l -0.1020821,0.1161 -0.102108,0.11613 H 8.1652145 7.24 l 0.01092,0.38296 0.01092,0.38295 1.1572924,0.0109 1.1572934,0.0109 0.115569,-0.06 c 0.1850633,-0.0961 0.4385042,-0.43272 0.4385042,-0.5824 v -0.0627 h 0.038 0.03802 v -0.0828 -0.0828 h 0.03797 0.038 v -0.31049 -0.31054 h -0.038 -0.03797 v -0.0828 -0.0828 h -0.03802 -0.038 v -0.0627 c 0,-0.0345 -0.02134,-0.10209 -0.04747,-0.15032 l -0.04751,-0.0877 0.04751,-0.0188 c 0.02611,-0.0104 0.04747,-0.0414 0.04747,-0.0691 0,-0.0735 0.09017,-0.27323 0.123495,-0.27361 h 0.0285 v -0.2841 -0.28407 l -0.150927,-0.31974 -0.1509268,-0.31968 -0.1043431,-0.0897 c -0.057379,-0.0493 -0.1452867,-0.11295 -0.1953752,-0.14143 l -0.09104,-0.0517 H 8.4341481 7.2784297 l -0.019299,0.055 m 6.7185123,0.0137 -0.04748,0.0208 v 1.40178 1.40176 l 0.03797,0.0256 0.038,0.0256 v 0.0803 0.0804 h 0.038 0.03797 v 0.0618 0.0618 l 0.224712,0.24864 0.224712,0.24869 h 0.06028 0.06027 v 0.0414 0.0414 h 0.07374 0.07376 l 0.02337,0.0414 0.02337,0.0414 h 0.508452 0.508455 l 0.02337,-0.0414 0.02337,-0.0414 h 0.07376 0.07374 v -0.0414 -0.0414 h 0.06255 0.06251 l 0.222451,-0.25474 0.222452,-0.25471 v -0.0558 -0.0558 h 0.03797 0.038 v -0.0828 -0.0828 h 0.03802 0.03799 v -1.42758 -1.42754 l -0.08631,-0.0236 c -0.04745,-0.0129 -0.205612,-0.018 -0.351457,-0.0112 l -0.265175,0.0124 -0.0099,1.31019 -0.0099,1.31021 -0.155957,0.1699 -0.155904,0.1699 h -0.389813 -0.389887 l -0.156565,-0.16556 -0.156565,-0.16555 v -1.29978 -1.29974 l -0.0601,-0.0251 c -0.07094,-0.0297 -0.545715,-0.0279 -0.614345,0.003 m 6.306933,0.003 -0.08585,0.018 0.0099,1.89118 0.0099,1.89119 h 0.379956 0.379957 l 0.01905,-0.69017 0.01905,-0.69017 0.03152,-0.0344 0.03155,-0.0344 0.498522,-0.0137 0.498524,-0.0137 0.162482,0.0266 0.162457,0.0265 0.01041,0.71181 0.01041,0.71179 h 0.398929 0.398982 l 0.0099,-1.88885 0.0099,-1.88888 -0.119126,-0.026 c -0.06553,-0.0142 -0.209904,-0.026 -0.320876,-0.026 h -0.201725 l -0.09655,0.04 -0.09655,0.04 -0.01041,0.69487 -0.01041,0.69489 -0.64574,0.0114 -0.64574,0.0114 -0.04768,-0.0711 -0.04771,-0.071 v -0.64968 -0.64966 l -0.0855,-0.0249 c -0.09378,-0.0274 -0.49108,-0.0254 -0.627299,0.003 m 0.07335,4.28989 -0.120472,0.13541 v 0.0788 0.0787 l 0.04559,-0.0497 0.04559,-0.0497 h 0.163398 0.163396 v 0.0414 c 0,0.0229 0.01702,0.0414 0.03797,0.0414 h 0.038 v -0.0724 -0.0725 l -0.126085,-0.13345 -0.12611,-0.13347 -0.120472,0.13545 m 0.601443,0.0102 v 0.14783 l 0.05428,0.0592 0.05428,0.0591 h 0.159993 0.160045 l 0.05047,-0.0724 0.05044,-0.0724 v -0.11141 -0.11143 l -0.03566,-0.0241 -0.03566,-0.0239 -0.01194,0.15613 -0.01194,0.15609 -0.180466,0.0127 -0.180491,0.0127 v -0.16785 -0.16789 h -0.038 -0.038 v 0.14788 m 0.747263,-0.12027 c -0.01397,0.0152 -0.0254,0.10833 -0.0254,0.20701 v 0.17937 h 0.211707 0.211684 l 0.05431,-0.0591 0.05428,-0.0592 v -0.0887 -0.0887 l -0.05428,-0.0591 -0.05431,-0.0591 h -0.18636 c -0.102488,0 -0.197762,0.0124 -0.211682,0.0276 m 0.734589,0.1794 v 0.21189 l 0.038,-0.0256 0.038,-0.0256 v -0.1607 -0.16073 l -0.038,-0.0256 -0.038,-0.0256 v 0.21192 m 0.31346,-0.14509 -0.0475,0.0588 v 0.0875 0.0875 l 0.05428,0.0592 0.05428,0.0591 h 0.157402 0.157429 l 0.05428,-0.0591 0.05425,-0.0592 v -0.0887 -0.0887 l -0.05425,-0.0591 -0.05428,-0.0591 -0.16421,0.003 -0.164185,0.003 -0.04751,0.0587 m -2.175267,0.16284 c 0,0.0129 -0.04275,0.0236 -0.095,0.0236 h -0.095 v -0.0331 c 0,-0.0183 0.01956,-0.0543 0.04318,-0.0801 l 0.04315,-0.047 0.05182,0.0565 c 0.02852,0.0311 0.05184,0.0671 0.05184,0.0802 m 1.557822,-0.0178 v 0.12421 h -0.189969 -0.189965 v -0.0966 c 0,-0.1333 0.02626,-0.15181 0.215316,-0.15181 h 0.164615 v 0.1242 m 1.0259,0 v 0.12421 h -0.190049 -0.189965 v -0.12421 -0.1242 h 0.189965 0.189991 v 0.1242"
       id="gge1502"
       stroke="none"
       layerid="3"
       style="display:inline;fill:#ffffff;fill-opacity:1;stroke:none;stroke-width:0.253999;stroke-linecap:round;stroke-linejoin:round;shape-rendering:crispEdges"
       transform="translate(0,-168.49998)" />
    <g
       aria-label="Logician"
       id="text850"
       style="font-size:3.52778px;line-height:1.25;font-family:Excluded;-inkscape-font-specification:'Excluded, Normal';display:inline;fill:#ffffff;stroke-width:0.264583"
       transform="translate(-0.33480251,-164.14977)">
      <path
         d="m 8.7051357,173.35846 v 0.51858 H 6.764858 q -0.1622778,0 -0.2751667,-0.11288 -0.1128888,-0.11289 -0.1128888,-0.27517 v -1.55222 h 0.6455833 v 1.42169 z"
         style="font-size:3.52778px"
         id="path6888" />
      <path
         d="m 10.884531,173.35846 v -0.90311 H 9.8473639 v 0.90311 z m 0.257527,-1.42169 q 0.162278,0 0.275167,0.11289 0.112889,0.11288 0.112889,0.27516 v 1.16417 q 0,0.16228 -0.112889,0.27517 -0.112889,0.11288 -0.275167,0.11288 H 9.5898361 q -0.1622778,0 -0.2751666,-0.11288 -0.1128889,-0.11289 -0.1128889,-0.27517 v -1.16417 q 0,-0.16228 0.1128889,-0.27516 0.1128888,-0.11289 0.2751666,-0.11289 z"
         style="font-size:3.52778px"
         id="path6890" />
      <path
         d="m 12.672342,172.45535 v 0.90311 h 1.037167 v -0.19403 H 12.86637 v -0.51505 h 1.488722 v 1.22766 h -1.940278 q -0.162278,0 -0.275166,-0.11288 -0.112889,-0.11289 -0.112889,-0.27517 v -1.16417 q 0,-0.16228 0.112889,-0.27516 0.112888,-0.11289 0.275166,-0.11289 h 1.940278 v 0.51858 z"
         style="font-size:3.52778px"
         id="path6892" />
      <path
         d="m 14.774126,173.87704 v -1.94027 h 0.649111 v 1.94027 z"
         style="font-size:3.52778px"
         id="path6894" />
      <path
         d="m 16.482618,172.45535 v 0.90311 h 1.682749 v 0.51858 H 16.22509 q -0.162278,0 -0.275167,-0.11288 -0.112889,-0.11289 -0.112889,-0.27517 v -1.16417 q 0,-0.16228 0.112889,-0.27516 0.112889,-0.11289 0.275167,-0.11289 h 1.940277 v 0.51858 z"
         style="font-size:3.52778px"
         id="path6896" />
      <path
         d="m 18.584401,173.87704 v -1.94027 h 0.649111 v 1.94027 z"
         style="font-size:3.52778px"
         id="path6898" />
      <path
         d="m 21.577004,171.93677 q 0.15875,0 0.271639,0.11289 0.116416,0.11288 0.116416,0.27516 v 1.55222 h -0.649111 v -0.64558 h -1.033639 v 0.64558 h -0.645583 v -1.55222 q 0,-0.16228 0.112889,-0.27516 0.112889,-0.11289 0.275167,-0.11289 z m -0.261056,0.77611 v -0.25753 h -1.033639 v 0.25753 z"
         style="font-size:3.52778px"
         id="path6900" />
      <path
         d="m 24.800621,171.93677 v 1.55222 q 0,0.16228 -0.112888,0.27517 -0.112889,0.11288 -0.275167,0.11288 h -0.331611 l -0.963084,-1.20297 v 1.20297 h -0.645583 v -1.55222 q 0,-0.16228 0.112889,-0.27516 0.112889,-0.11289 0.275167,-0.11289 h 0.331611 l 0.963083,1.20297 v -1.20297 z"
         style="font-size:3.52778px"
         id="path6902" />
    </g>
    <g
       aria-label="Input 1A"
       id="text9066"
       style="font-size:2.46944px;line-height:1.25;font-family:Excluded;-inkscape-font-specification:'Excluded, Normal';display:inline;fill:#ffffff;stroke-width:0.264583"
       transform="matrix(0.95712098,0,0,0.95712098,-2.8994531,-172.38404)">
      <path
         d="m 6.4029019,194.61938 v -1.35819 h 0.4543777 v 1.35819 z"
         style="font-size:2.46944px"
         id="path12895" />
      <path
         d="m 8.7767711,193.26119 v 1.08656 q 0,0.11359 -0.079022,0.19261 -0.079022,0.079 -0.1926167,0.079 H 8.2730044 L 7.5988461,193.7773 v 0.84208 H 7.1469377 v -1.08655 q 0,-0.1136 0.079022,-0.19262 0.079022,-0.079 0.1926166,-0.079 h 0.2321278 l 0.6741584,0.84208 v -0.84208 z"
         style="font-size:2.46944px"
         id="path12897" />
      <path
         d="m 10.482617,193.26119 q 0.113594,0 0.192617,0.079 0.07902,0.079 0.07902,0.19262 v 0.36301 q 0,0.11112 -0.07902,0.19261 -0.07902,0.079 -0.192617,0.079 H 9.5763309 v 0.4519 H 9.1244226 v -1.35819 z m -0.180269,0.54328 V 193.6242 H 9.5763309 v 0.18027 z"
         style="font-size:2.46944px"
         id="path12899" />
      <path
         d="m 12.721863,193.26119 v 1.08656 q 0,0.11359 -0.07902,0.19261 -0.07902,0.079 -0.192617,0.079 H 11.36367 q -0.113594,0 -0.192616,-0.079 -0.07902,-0.079 -0.07902,-0.19261 v -1.08656 h 0.451909 v 0.99519 h 0.726017 v -0.99519 z"
         style="font-size:2.46944px"
         id="path12901" />
      <path
         d="m 14.726512,193.26119 v 0.36301 h -0.590197 v 0.99518 h -0.451909 v -0.99518 h -0.587727 v -0.36301 z"
         style="font-size:2.46944px"
         id="path12903" />
      <path
         d="m 16.309426,193.26119 v 1.35819 h -0.451909 v -0.99518 h -0.363008 v -0.36301 z"
         style="font-size:2.46944px"
         id="path12905" />
      <path
         d="m 17.960712,193.26119 q 0.111125,0 0.190148,0.079 0.08149,0.079 0.08149,0.19262 v 1.08655 h -0.454378 v -0.4519 h -0.723547 v 0.4519 h -0.451908 v -1.08655 q 0,-0.1136 0.07902,-0.19262 0.07902,-0.079 0.192617,-0.079 z m -0.182739,0.54328 v -0.18027 h -0.723547 v 0.18027 z"
         style="font-size:2.46944px"
         id="path12907" />
    </g>
    <g
       aria-label="Input 1B"
       id="text15010"
       style="font-size:2.46944px;line-height:1.25;font-family:Excluded;-inkscape-font-specification:'Excluded, Normal';fill:#ffffff;stroke-width:0.264583"
       transform="matrix(0.95715058,0,0,0.95715058,0.95047236,0.54109287)">
      <path
         d="m 16.263253,13.985973 v -1.358192 h 0.454377 v 1.358192 z"
         id="path31112" />
      <path
         d="m 18.637118,12.627781 v 1.086554 q 0,0.113594 -0.07902,0.192616 -0.07902,0.07902 -0.192616,0.07902 h -0.232128 l -0.674157,-0.842079 v 0.842079 H 17.007288 V 12.89942 q 0,-0.113594 0.07902,-0.192617 0.07902,-0.07902 0.192616,-0.07902 h 0.232127 l 0.674158,0.842079 v -0.842079 z"
         id="path31114" />
      <path
         d="m 20.342961,12.627781 q 0.113594,0 0.192616,0.07902 0.07902,0.07902 0.07902,0.192617 v 0.363007 q 0,0.111125 -0.07902,0.192617 -0.07902,0.07902 -0.192616,0.07902 h -0.906284 v 0.451907 h -0.451908 v -1.358192 z m -0.180269,0.543277 v -0.180269 h -0.726015 v 0.180269 z"
         id="path31116" />
      <path
         d="m 22.582203,12.627781 v 1.086554 q 0,0.113594 -0.07902,0.192616 -0.07902,0.07902 -0.192616,0.07902 h -1.086554 q -0.113594,0 -0.192616,-0.07902 -0.07902,-0.07902 -0.07902,-0.192616 v -1.086554 h 0.451907 v 0.995185 H 22.1303 v -0.995185 z"
         id="path31118" />
      <path
         d="m 24.586848,12.627781 v 0.363008 h -0.590196 v 0.995184 h -0.451908 v -0.995184 h -0.587727 v -0.363008 z"
         id="path31120" />
      <path
         d="m 26.169759,12.627781 v 1.358192 h -0.451907 v -0.995184 h -0.363008 v -0.363008 z"
         id="path31122" />
      <path
         d="m 27.828451,12.627781 q 0.113595,0 0.192617,0.07902 0.07902,0.07902 0.07902,0.192617 v 0.279046 q 0,0.03951 -0.02716,0.07902 -0.02469,0.03704 -0.06421,0.04939 0.03951,0.01235 0.06421,0.05186 0.02716,0.03704 0.02716,0.07655 v 0.279047 q 0,0.113594 -0.07902,0.192616 -0.07902,0.07902 -0.192617,0.07902 h -1.358192 v -1.358192 z m -0.180269,0.995185 v -0.13582 h -0.726015 v 0.13582 z m 0,-0.496358 v -0.135819 h -0.726015 v 0.135819 z"
         id="path31124" />
    </g>
    <g
       aria-label="Hi/Lo"
       id="text19086"
       style="font-size:2.46944px;line-height:1.25;font-family:Excluded;-inkscape-font-specification:'Excluded, Normal';fill:#ffffff;stroke-width:0.264583"
       transform="matrix(0.95541799,0,0,0.95541799,0.98890505,1.3413756)">
      <path
         d="m 19.933902,30.090294 v 1.358192 h -0.451908 v -0.498827 h -0.726015 v 0.498827 h -0.451908 v -1.358192 h 0.451908 v 0.498827 h 0.726015 v -0.498827 z"
         id="path31127" />
      <path
         d="m 20.227225,31.448486 v -1.358192 h 0.454377 v 1.358192 z"
         id="path31129" />
      <path
         d="m 22.15906,30.087825 -0.785282,1.360661 h -0.454377 l 0.785282,-1.360661 z"
         id="path31131" />
      <path
         d="m 24.081789,31.085479 v 0.363007 h -1.358192 q -0.113594,0 -0.192616,-0.07902 -0.07902,-0.07902 -0.07902,-0.192616 v -1.086554 h 0.451907 v 0.995185 z"
         id="path31133" />
      <path
         d="m 25.607363,31.085479 v -0.632177 h -0.726016 v 0.632177 z m 0.180269,-0.995185 q 0.113594,0 0.192616,0.07902 0.07902,0.07902 0.07902,0.192617 v 0.814915 q 0,0.113594 -0.07902,0.192616 -0.07902,0.07902 -0.192616,0.07902 h -1.086554 q -0.113594,0 -0.192616,-0.07902 -0.07902,-0.07902 -0.07902,-0.192616 v -0.814915 q 0,-0.113595 0.07902,-0.192617 0.07902,-0.07902 0.192616,-0.07902 z"
         id="path31135" />
    </g>
    <g
       aria-label="Output 1"
       id="text22428"
       style="font-size:2.46944px;line-height:1.25;font-family:Excluded;-inkscape-font-specification:'Excluded, Normal';fill:#ffffff;stroke-width:0.264583"
       transform="matrix(0.95715481,0,0,0.95715481,0.38089378,1.2892245)">
      <path
         d="M 3.5092114,31.085479 V 30.453302 H 2.783196 v 0.632177 z m 0.1802691,-0.995185 q 0.1135942,0 0.1926163,0.07902 0.079022,0.07902 0.079022,0.192617 v 0.814915 q 0,0.113594 -0.079022,0.192616 -0.079022,0.07902 -0.1926163,0.07902 H 2.6029269 q -0.1135942,0 -0.1926163,-0.07902 -0.079022,-0.07902 -0.079022,-0.192616 v -0.814915 q 0,-0.113595 0.079022,-0.192617 0.079022,-0.07902 0.1926163,-0.07902 z"
         id="path31138" />
      <path
         d="m 5.9287224,30.090294 v 1.086554 q 0,0.113594 -0.079022,0.192616 -0.079022,0.07902 -0.1926163,0.07902 H 4.5705304 q -0.1135942,0 -0.1926163,-0.07902 -0.079022,-0.07902 -0.079022,-0.192616 v -1.086554 h 0.4519075 v 0.995185 H 5.476815 v -0.995185 z"
         id="path31140" />
      <path
         d="m 7.9333675,30.090294 v 0.363008 H 7.3431713 v 0.995184 H 6.8912638 V 30.453302 H 6.3035371 v -0.363008 z"
         id="path31142" />
      <path
         d="m 9.6219241,30.090294 q 0.1135943,0 0.1926163,0.07902 0.079022,0.07902 0.079022,0.192617 v 0.363007 q 0,0.111125 -0.079022,0.192617 -0.079022,0.07902 -0.1926163,0.07902 H 8.7156396 v 0.451907 H 8.2637321 V 30.090294 Z M 9.441655,30.633571 V 30.453302 H 8.7156396 v 0.180269 z"
         id="path31144" />
      <path
         d="m 11.861166,30.090294 v 1.086554 q 0,0.113594 -0.07902,0.192616 -0.07902,0.07902 -0.192616,0.07902 h -1.086554 q -0.113594,0 -0.192616,-0.07902 -0.07902,-0.07902 -0.07902,-0.192616 v -1.086554 h 0.451907 v 0.995185 h 0.726016 v -0.995185 z"
         id="path31146" />
      <path
         d="m 13.865811,30.090294 v 0.363008 h -0.590196 v 0.995184 h -0.451907 v -0.995184 h -0.587727 v -0.363008 z"
         id="path31148" />
      <path
         d="m 15.448722,30.090294 v 1.358192 h -0.451908 v -0.995184 h -0.363007 v -0.363008 z"
         id="path31150" />
    </g>
    <g
       aria-label="Input 2A"
       id="text24828"
       style="font-size:2.46944px;line-height:1.25;font-family:Excluded;-inkscape-font-specification:'Excluded, Normal';fill:#ffffff;stroke-width:0.264583"
       transform="matrix(0.95715481,0,0,0.95715481,0.38089483,3.5791238)">
      <path
         d="m 2.6666114,84.894371 v -1.358192 h 0.454377 v 1.358192 z"
         id="path31153" />
      <path
         d="m 5.0404763,83.536179 v 1.086554 q 0,0.113594 -0.079022,0.192616 -0.079022,0.07902 -0.1926163,0.07902 H 4.5367106 L 3.8625535,84.052292 v 0.842079 H 3.410646 v -1.086554 q 0,-0.113594 0.079022,-0.192616 0.079022,-0.07902 0.1926164,-0.07902 h 0.2321273 l 0.6741571,0.842079 v -0.842079 z"
         id="path31155" />
      <path
         d="m 6.7463193,83.536179 q 0.1135942,0 0.1926163,0.07902 0.079022,0.07902 0.079022,0.192616 v 0.363008 q 0,0.111125 -0.079022,0.192616 -0.079022,0.07902 -0.1926163,0.07902 H 5.8400348 v 0.451907 H 5.3881273 V 83.536179 Z M 6.5660501,84.079456 V 83.899187 H 5.8400348 v 0.180269 z"
         id="path31157" />
      <path
         d="m 8.9855613,83.536179 v 1.086554 q 0,0.113594 -0.079022,0.192616 -0.079022,0.07902 -0.1926163,0.07902 H 7.6273693 q -0.1135943,0 -0.1926164,-0.07902 -0.079022,-0.07902 -0.079022,-0.192616 v -1.086554 h 0.4519075 v 0.995184 h 0.7260153 v -0.995184 z"
         id="path31159" />
      <path
         d="m 10.990206,83.536179 v 0.363008 H 10.40001 v 0.995184 H 9.9481023 V 83.899187 H 9.3603756 v -0.363008 z"
         id="path31161" />
      <path
         d="m 13.155905,83.536179 v 0.587727 q 0,0.113594 -0.08149,0.192616 -0.07902,0.07902 -0.190147,0.07902 h -0.634646 v 0.135819 h 0.906284 v 0.363008 h -1.358192 v -0.587727 q 0,-0.113594 0.07902,-0.192616 0.07902,-0.07902 0.192617,-0.07902 h 0.634646 v -0.135819 h -0.906285 v -0.363008 z"
         id="path31163" />
      <path
         d="m 14.84176,83.536179 q 0.111125,0 0.190147,0.07902 0.08149,0.07902 0.08149,0.192616 v 1.086554 H 14.65902 v -0.451907 h -0.723546 v 0.451907 h -0.451908 v -1.086554 q 0,-0.113594 0.07902,-0.192616 0.07902,-0.07902 0.192616,-0.07902 z m -0.182738,0.543277 v -0.180269 h -0.723546 v 0.180269 z"
         id="path31165" />
    </g>
    <g
       aria-label="Input 2B"
       id="text27816"
       style="font-size:2.46944px;line-height:1.25;font-family:Excluded;-inkscape-font-specification:'Excluded, Normal';fill:#ffffff;stroke-width:0.264583"
       transform="matrix(0.95715058,0,0,0.95715058,0.95047332,3.5794768)">
      <path
         d="m 15.954573,84.894371 v -1.358192 h 0.454377 v 1.358192 z"
         id="path31168" />
      <path
         d="m 18.328438,83.536179 v 1.086554 q 0,0.113594 -0.07902,0.192616 -0.07902,0.07902 -0.192617,0.07902 H 17.824674 L 17.150517,84.05229 v 0.842079 h -0.451908 v -1.086554 q 0,-0.113594 0.07902,-0.192616 0.07902,-0.07902 0.192617,-0.07902 h 0.232127 l 0.674157,0.842079 v -0.842079 z"
         id="path31170" />
      <path
         d="m 20.034281,83.536179 q 0.113594,0 0.192616,0.07902 0.07902,0.07902 0.07902,0.192616 v 0.363008 q 0,0.111125 -0.07902,0.192616 -0.07902,0.07902 -0.192616,0.07902 h -0.906285 v 0.451907 h -0.451907 v -1.358192 z m -0.18027,0.543277 v -0.180269 h -0.726015 v 0.180269 z"
         id="path31172" />
      <path
         d="m 22.273523,83.536179 v 1.086554 q 0,0.113594 -0.07902,0.192616 -0.07902,0.07902 -0.192616,0.07902 h -1.086553 q -0.113595,0 -0.192617,-0.07902 -0.07902,-0.07902 -0.07902,-0.192616 V 83.536179 H 21.0956 v 0.995184 h 0.726015 v -0.995184 z"
         id="path31174" />
      <path
         d="m 24.278167,83.536179 v 0.363008 h -0.590196 v 0.995184 h -0.451907 v -0.995184 h -0.587727 v -0.363008 z"
         id="path31176" />
      <path
         d="m 26.443867,83.536179 v 0.587727 q 0,0.113594 -0.08149,0.192616 -0.07902,0.07902 -0.190147,0.07902 h -0.634646 v 0.135819 h 0.906285 v 0.363008 h -1.358192 v -0.587727 q 0,-0.113594 0.07902,-0.192616 0.07902,-0.07902 0.192616,-0.07902 h 0.634646 v -0.135819 h -0.906284 v -0.363008 z"
         id="path31178" />
      <path
         d="m 28.13713,83.536179 q 0.113594,0 0.192616,0.07902 0.07902,0.07902 0.07902,0.192616 v 0.279047 q 0,0.03951 -0.02716,0.07902 -0.0247,0.03704 -0.06421,0.04939 0.03951,0.01235 0.06421,0.05186 0.02716,0.03704 0.02716,0.07655 v 0.279047 q 0,0.113594 -0.07902,0.192616 -0.07902,0.07902 -0.192616,0.07902 h -1.358192 v -1.358192 z m -0.180269,0.995184 v -0.135819 h -0.726015 v 0.135819 z m 0,-0.496357 v -0.135819 h -0.726015 v 0.135819 z"
         id="path31180" />
    </g>
    <g
       aria-label="Output 2"
       id="text28832"
       style="font-size:2.46944px;line-height:1.25;font-family:Excluded;-inkscape-font-specification:'Excluded, Normal';fill:#ffffff;stroke-width:0.264583"
       transform="matrix(0.95715622,0,0,0.95715622,0.38088029,4.3271666)">
      <path
         d="M 3.2178174,101.99388 V 101.3617 H 2.491802 v 0.63218 z m 0.1802691,-0.99518 q 0.1135942,0 0.1926163,0.079 0.079022,0.079 0.079022,0.19261 v 0.81492 q 0,0.11359 -0.079022,0.19262 -0.079022,0.079 -0.1926163,0.079 H 2.3115329 q -0.1135942,0 -0.1926163,-0.079 -0.079022,-0.079 -0.079022,-0.19262 v -0.81492 q 0,-0.11359 0.079022,-0.19261 0.079022,-0.079 0.1926163,-0.079 z"
         id="path31194" />
      <path
         d="m 5.6373284,100.9987 v 1.08655 q 0,0.11359 -0.079022,0.19262 -0.079022,0.079 -0.1926163,0.079 H 4.2791364 q -0.1135942,0 -0.1926163,-0.079 -0.079022,-0.079 -0.079022,-0.19262 v -1.08655 h 0.4519075 v 0.99518 H 5.185421 v -0.99518 z"
         id="path31196" />
      <path
         d="m 7.6419735,100.9987 v 0.363 H 7.0517773 v 0.99519 H 6.5998698 V 101.3617 H 6.0121431 v -0.363 z"
         id="path31198" />
      <path
         d="m 9.3305301,100.9987 q 0.1135943,0 0.1926163,0.079 0.079022,0.079 0.079022,0.19261 v 0.36301 q 0,0.11113 -0.079022,0.19262 -0.079022,0.079 -0.1926163,0.079 H 8.4242457 v 0.45191 H 7.9723381 V 100.9987 Z M 9.150261,101.54197 V 101.3617 H 8.4242457 v 0.18027 z"
         id="path31200" />
      <path
         d="m 11.569772,100.9987 v 1.08655 q 0,0.11359 -0.07902,0.19262 -0.07902,0.079 -0.192616,0.079 H 10.21158 q -0.113594,0 -0.192616,-0.079 -0.079022,-0.079 -0.079022,-0.19262 v -1.08655 h 0.451907 v 0.99518 h 0.726016 v -0.99518 z"
         id="path31202" />
      <path
         d="m 13.574417,100.9987 v 0.363 h -0.590196 v 0.99519 h -0.451907 v -0.99519 h -0.587727 v -0.363 z"
         id="path31204" />
      <path
         d="m 15.740116,100.9987 v 0.58772 q 0,0.1136 -0.08149,0.19262 -0.07902,0.079 -0.190147,0.079 h -0.634646 v 0.13582 h 0.906285 v 0.36301 h -1.358192 v -0.58773 q 0,-0.11359 0.07902,-0.19262 0.07902,-0.079 0.192616,-0.079 h 0.634646 v -0.13582 h -0.906284 v -0.363 z"
         id="path31206" />
    </g>
    <g
       aria-label="Hi/Lo"
       id="text30826"
       style="font-size:2.46944px;line-height:1.25;font-family:Excluded;-inkscape-font-specification:'Excluded, Normal';fill:#ffffff;stroke-width:0.264583"
       transform="matrix(0.95541869,0,0,0.95541869,0.98888953,4.502599)">
      <path
         d="m 19.933902,100.99993 v 1.35819 h -0.451908 v -0.49882 h -0.726015 v 0.49882 h -0.451908 v -1.35819 h 0.451908 v 0.49883 h 0.726015 v -0.49883 z"
         id="path31183" />
      <path
         d="m 20.227225,102.35812 v -1.35819 h 0.454377 v 1.35819 z"
         id="path31185" />
      <path
         d="m 22.15906,100.99746 -0.785282,1.36066 h -0.454377 l 0.785282,-1.36066 z"
         id="path31187" />
      <path
         d="m 24.081789,101.99512 v 0.363 h -1.358192 q -0.113594,0 -0.192616,-0.079 -0.07902,-0.079 -0.07902,-0.19261 v -1.08656 h 0.451907 v 0.99519 z"
         id="path31189" />
      <path
         d="m 25.607363,101.99512 v -0.63218 h -0.726016 v 0.63218 z m 0.180269,-0.99519 q 0.113594,0 0.192616,0.079 0.07902,0.079 0.07902,0.19262 v 0.81492 q 0,0.11359 -0.07902,0.19261 -0.07902,0.079 -0.192616,0.079 h -1.086554 q -0.113594,0 -0.192616,-0.079 -0.07902,-0.079 -0.07902,-0.19261 v -0.81492 q 0,-0.11359 0.07902,-0.19262 0.07902,-0.079 0.192616,-0.079 z"
         id="path31191" />
    </g>
    <g
       aria-label="OR/NOR"
       id="text14353"
       style="font-size:1.76389px;line-height:1.25;font-family:Excluded;-inkscape-font-specification:'Excluded, Normal';stroke-width:0.264583"
       transform="matrix(1.1318002,0,0,1.1318002,-2.0086347,-6.3983946)">
      <path
         d="m 12.145489,61.588612 v -0.451555 h -0.518584 v 0.451555 z m 0.128764,-0.710847 q 0.08114,0 0.137583,0.05644 0.05645,0.05644 0.05645,0.137584 v 0.582083 q 0,0.08114 -0.05645,0.137584 -0.05644,0.05644 -0.137583,0.05644 h -0.776112 q -0.08114,0 -0.137583,-0.05644 -0.05645,-0.05645 -0.05645,-0.137584 v -0.582083 q 0,-0.08114 0.05645,-0.137584 0.05644,-0.05644 0.137583,-0.05644 z"
         style="fill:#ffffff"
         id="path25765" />
      <path
         d="m 13.686743,60.877765 q 0.08114,0 0.137583,0.05644 0.05645,0.05644 0.05645,0.137584 v 0.259291 q 0,0.07938 -0.05645,0.137584 -0.05644,0.05644 -0.137583,0.05644 h -0.07585 l 0.269875,0.322792 h -0.336903 l -0.271639,-0.322792 h -0.232834 v 0.322792 H 12.7166 v -0.970139 z m -0.128764,0.388055 v -0.128763 h -0.518584 v 0.128763 z"
         style="fill:#ffffff"
         id="path25767" />
      <path
         d="m 14.977525,60.876001 -0.560917,0.971903 h -0.324556 l 0.560917,-0.971903 z"
         style="fill:#ffffff"
         id="path25769" />
      <path
         d="m 16.350906,60.877765 v 0.776111 q 0,0.08114 -0.05644,0.137584 -0.05645,0.05644 -0.137584,0.05644 h -0.16581 L 15.50953,61.246418 v 0.601486 h -0.322791 v -0.776111 q 0,-0.08114 0.05644,-0.137584 0.05645,-0.05644 0.137583,-0.05644 h 0.165806 l 0.481542,0.601486 v -0.601486 z"
         style="fill:#ffffff"
         id="path25771" />
      <path
         d="M 17.440604,61.588612 V 61.137057 H 16.92202 v 0.451555 z m 0.128764,-0.710847 q 0.08114,0 0.137583,0.05644 0.05645,0.05644 0.05645,0.137584 v 0.582083 q 0,0.08114 -0.05645,0.137584 -0.05644,0.05644 -0.137583,0.05644 h -0.776112 q -0.08114,0 -0.137583,-0.05644 -0.05645,-0.05645 -0.05645,-0.137584 v -0.582083 q 0,-0.08114 0.05645,-0.137584 0.05644,-0.05644 0.137583,-0.05644 z"
         style="fill:#ffffff"
         id="path25773" />
      <path
         d="m 18.981858,60.877765 q 0.08114,0 0.137583,0.05644 0.05645,0.05644 0.05645,0.137584 v 0.259291 q 0,0.07938 -0.05645,0.137584 -0.05644,0.05644 -0.137583,0.05644 h -0.07585 l 0.269875,0.322792 h -0.3369 L 18.567344,61.525112 H 18.33451 v 0.322792 H 18.011718 V 60.877765 Z M 18.853094,61.26582 V 61.137057 H 18.33451 v 0.128763 z"
         style="fill:#ffffff"
         id="path25775" />
    </g>
    <g
       aria-label="XOR/XNOR"
       id="text21297"
       style="font-size:1.76389px;line-height:1.25;font-family:Excluded;-inkscape-font-specification:'Excluded, Normal';stroke-width:0.264583"
       transform="matrix(1.131799,0,0,1.131799,-2.0086201,-5.9450623)">
      <path
         d="m 10.681846,66.23883 0.377473,0.48507 H 10.650096 L 10.477235,66.50165 10.304374,66.7239 H 9.8951515 L 10.272624,66.23883 9.8951515,65.75376 h 0.4092225 l 0.172861,0.22225 0.172861,-0.22225 h 0.409223 z"
         style="fill:#ffffff"
         id="path25778" />
      <path
         d="m 12.141961,66.464608 v -0.451556 h -0.518583 v 0.451556 z m 0.128764,-0.710848 q 0.08114,0 0.137584,0.05644 0.05644,0.05644 0.05644,0.137583 v 0.582084 q 0,0.08114 -0.05644,0.137583 -0.05644,0.05644 -0.137584,0.05644 h -0.776111 q -0.08114,0 -0.137584,-0.05644 -0.05644,-0.05644 -0.05644,-0.137583 v -0.582084 q 0,-0.08114 0.05644,-0.137583 0.05645,-0.05644 0.137584,-0.05644 z"
         style="fill:#ffffff"
         id="path25780" />
      <path
         d="m 13.683215,65.75376 q 0.08114,0 0.137584,0.05644 0.05644,0.05644 0.05644,0.137583 v 0.259292 q 0,0.07937 -0.05644,0.137583 -0.05644,0.05644 -0.137584,0.05644 h -0.07585 L 13.877243,66.7239 H 13.54034 L 13.268701,66.401108 H 13.035868 V 66.7239 h -0.322792 v -0.97014 z m -0.128763,0.388056 v -0.128764 h -0.518584 v 0.128764 z"
         style="fill:#ffffff"
         id="path25782" />
      <path
         d="M 14.973997,65.751996 14.41308,66.7239 h -0.324556 l 0.560917,-0.971904 z"
         style="fill:#ffffff"
         id="path25784" />
      <path
         d="m 15.976961,66.23883 0.377473,0.48507 H 15.945211 L 15.77235,66.50165 15.599489,66.7239 h -0.409223 l 0.377473,-0.48507 -0.377473,-0.48507 h 0.409223 l 0.172861,0.22225 0.172861,-0.22225 h 0.409223 z"
         style="fill:#ffffff"
         id="path25786" />
      <path
         d="m 17.759868,65.75376 v 0.776112 q 0,0.08114 -0.05644,0.137583 -0.05644,0.05644 -0.137584,0.05644 H 17.400035 L 16.918493,66.122413 V 66.7239 h -0.322792 v -0.776112 q 0,-0.08114 0.05644,-0.137583 0.05645,-0.05644 0.137584,-0.05644 h 0.165805 l 0.481542,0.601487 V 65.75376 Z"
         style="fill:#ffffff"
         id="path25788" />
      <path
         d="m 18.849567,66.464608 v -0.451556 h -0.518584 v 0.451556 z m 0.128764,-0.710848 q 0.08114,0 0.137583,0.05644 0.05645,0.05644 0.05645,0.137583 v 0.582084 q 0,0.08114 -0.05645,0.137583 -0.05644,0.05644 -0.137583,0.05644 h -0.776112 q -0.08114,0 -0.137583,-0.05644 -0.05645,-0.05644 -0.05645,-0.137583 v -0.582084 q 0,-0.08114 0.05645,-0.137583 0.05644,-0.05644 0.137583,-0.05644 z"
         style="fill:#ffffff"
         id="path25790" />
      <path
         d="m 20.390821,65.75376 q 0.08114,0 0.137583,0.05644 0.05645,0.05644 0.05645,0.137583 v 0.259292 q 0,0.07937 -0.05645,0.137583 -0.05644,0.05644 -0.137583,0.05644 h -0.07585 l 0.269876,0.322792 h -0.336903 l -0.27164,-0.322792 H 19.743473 V 66.7239 h -0.322792 v -0.97014 z m -0.128764,0.388056 v -0.128764 h -0.518584 v 0.128764 z"
         style="fill:#ffffff"
         id="path25792" />
    </g>
    <g
       aria-label="NOT/Thru"
       id="text23725"
       style="font-size:1.76389px;line-height:1.25;font-family:Excluded;-inkscape-font-specification:'Excluded, Normal';stroke-width:0.264583"
       transform="matrix(1.1318002,0,0,1.1318002,-2.0086348,-5.4918881)">
      <path
         d="m 11.059319,70.62976 v 0.776111 q 0,0.08114 -0.05645,0.137584 -0.05644,0.05644 -0.137583,0.05644 H 10.69948 l -0.481542,-0.601486 v 0.601486 H 9.8951512 v -0.776111 q 0,-0.08114 0.056444,-0.137584 0.056444,-0.05644 0.1375838,-0.05644 h 0.165806 l 0.481542,0.601486 V 70.62976 Z"
         style="fill:#ffffff"
         id="path25795" />
      <path
         d="m 12.149017,71.340607 v -0.451555 h -0.518584 v 0.451555 z m 0.128764,-0.710847 q 0.08114,0 0.137583,0.05644 0.05645,0.05644 0.05645,0.137584 v 0.582083 q 0,0.08114 -0.05645,0.137584 -0.05644,0.05644 -0.137583,0.05644 h -0.776112 q -0.08114,0 -0.137583,-0.05644 -0.05645,-0.05644 -0.05645,-0.137584 v -0.582083 q 0,-0.08114 0.05645,-0.137584 0.05644,-0.05644 0.137583,-0.05644 z"
         style="fill:#ffffff"
         id="path25797" />
      <path
         d="m 13.896646,70.62976 v 0.259292 h -0.42157 v 0.710847 H 13.152284 V 70.889052 H 12.732478 V 70.62976 Z"
         style="fill:#ffffff"
         id="path25799" />
      <path
         d="m 14.981052,70.627996 -0.560917,0.971903 H 14.09558 l 0.560917,-0.971903 z"
         style="fill:#ffffff"
         id="path25801" />
      <path
         d="m 16.366781,70.62976 v 0.259292 h -0.42157 v 0.710847 H 15.622419 V 70.889052 H 15.202613 V 70.62976 Z"
         style="fill:#ffffff"
         id="path25803" />
      <path
         d="m 17.766924,70.62976 v 0.970139 h -0.322792 v -0.356305 h -0.518584 v 0.356305 H 16.602756 V 70.62976 h 0.322792 v 0.356306 h 0.518584 V 70.62976 Z"
         style="fill:#ffffff"
         id="path25805" />
      <path
         d="m 18.985386,70.62976 q 0.08114,0 0.137583,0.05644 0.05645,0.05644 0.05645,0.137584 v 0.259292 q 0,0.07937 -0.05645,0.137583 -0.05644,0.05644 -0.137583,0.05644 h -0.07585 l 0.269875,0.322792 h -0.336903 l -0.271639,-0.322792 h -0.232834 v 0.322792 H 18.015246 V 70.62976 Z m -0.128764,0.388056 v -0.128764 h -0.518584 v 0.128764 z"
         style="fill:#ffffff"
         id="path25807" />
      <path
         d="m 20.584848,70.62976 v 0.776111 q 0,0.08114 -0.05644,0.137584 -0.05645,0.05644 -0.137584,0.05644 h -0.776111 q -0.08114,0 -0.137584,-0.05644 -0.05644,-0.05644 -0.05644,-0.137584 V 70.62976 h 0.322792 v 0.710847 h 0.518583 V 70.62976 Z"
         style="fill:#ffffff"
         id="path25809" />
    </g>
  </g>
  <g
     inkscape:groupmode="layer"
     id="layer2"
     inkscape:label="components"
     style="display:none">
    <circle
       r="4"
       cy="19.269485"
       cx="8.8900051"
       id="circle4956"
       style="display:inline;opacity:1;vector-effect:none;fill:#00ff00;fill-opacity:1;fill-rule:evenodd;stroke:none;stroke-width:1;stroke-linecap:butt;stroke-linejoin:miter;stroke-miterlimit:4;stroke-dasharray:none;stroke-dashoffset:0;stroke-opacity:1;paint-order:normal"
       inkscape:label="pitch" />
    <circle
       style="display:inline;opacity:1;vector-effect:none;fill:#0000ff;fill-opacity:1;fill-rule:evenodd;stroke:none;stroke-width:1;stroke-linecap:butt;stroke-linejoin:miter;stroke-miterlimit:4;stroke-dasharray:none;stroke-dashoffset:0;stroke-opacity:1;paint-order:normal"
       id="circle4958"
       cx="8.8900051"
       cy="36.794487"
       r="4"
       inkscape:label="sine" />
    <circle
       inkscape:label="blink"
       r="4"
       cy="36.794487"
       cx="22.181671"
       id="circle66"
       style="display:inline;opacity:1;vector-effect:none;fill:#ff00ff;fill-opacity:1;fill-rule:evenodd;stroke:none;stroke-width:1;stroke-linecap:butt;stroke-linejoin:miter;stroke-miterlimit:4;stroke-dasharray:none;stroke-dashoffset:0;stroke-opacity:1;paint-order:normal" />
    <circle
       r="4"
       cy="19.269485"
       cx="22.181671"
       id="circle681"
       style="display:inline;opacity:1;vector-effect:none;fill:#00ff00;fill-opacity:1;fill-rule:evenodd;stroke:none;stroke-width:1;stroke-linecap:butt;stroke-linejoin:miter;stroke-miterlimit:4;stroke-dasharray:none;stroke-dashoffset:0;stroke-opacity:1;paint-order:normal"
       inkscape:label="pitch" />
    <circle
       r="4"
       cy="90.177887"
       cx="8.8900051"
       id="circle683"
       style="display:inline;opacity:1;vector-effect:none;fill:#00ff00;fill-opacity:1;fill-rule:evenodd;stroke:none;stroke-width:1;stroke-linecap:butt;stroke-linejoin:miter;stroke-miterlimit:4;stroke-dasharray:none;stroke-dashoffset:0;stroke-opacity:1;paint-order:normal"
       inkscape:label="pitch" />
    <circle
       style="display:inline;opacity:1;vector-effect:none;fill:#0000ff;fill-opacity:1;fill-rule:evenodd;stroke:none;stroke-width:1;stroke-linecap:butt;stroke-linejoin:miter;stroke-miterlimit:4;stroke-dasharray:none;stroke-dashoffset:0;stroke-opacity:1;paint-order:normal"
       id="circle685"
       cx="8.8900051"
       cy="107.70286"
       r="4"
       inkscape:label="sine" />
    <circle
       inkscape:label="blink"
       r="4"
       cy="107.70286"
       cx="22.181671"
       id="circle687"
       style="display:inline;opacity:1;vector-effect:none;fill:#ff00ff;fill-opacity:1;fill-rule:evenodd;stroke:none;stroke-width:1;stroke-linecap:butt;stroke-linejoin:miter;stroke-miterlimit:4;stroke-dasharray:none;stroke-dashoffset:0;stroke-opacity:1;paint-order:normal" />
    <circle
       r="4"
       cy="90.177887"
       cx="22.181671"
       id="circle689"
       style="display:inline;opacity:1;vector-effect:none;fill:#00ff00;fill-opacity:1;fill-rule:evenodd;stroke:none;stroke-width:1;stroke-linecap:butt;stroke-linejoin:miter;stroke-miterlimit:4;stroke-dasharray:none;stroke-dashoffset:0;stroke-opacity:1;paint-order:normal"
       inkscape:label="pitch" />
    <circle
       style="display:inline;opacity:1;vector-effect:none;fill:#0000ff;fill-opacity:1;fill-rule:evenodd;stroke:none;stroke-width:1;stroke-linecap:butt;stroke-linejoin:miter;stroke-miterlimit:4;stroke-dasharray:none;stroke-dashoffset:0;stroke-opacity:1;paint-order:normal"
       id="circle206"
       cx="8.8900051"
       cy="36.794487"
       r="4"
       inkscape:label="sine" />
  </g>
</svg>
