<?xml version="1.0" encoding="UTF-8" standalone="no"?>
<!-- Created with Inkscape (http://www.inkscape.org/) -->

<svg
   width="30.48mm"
   height="128.5mm"
   viewBox="0 0 30.480002 128.50002"
   version="1.1"
   id="svg8"
   inkscape:version="1.1.2 (b8e25be8, 2022-02-05)"
   sodipodi:docname="SimpleOsc.svg"
   xmlns:inkscape="http://www.inkscape.org/namespaces/inkscape"
   xmlns:sodipodi="http://sodipodi.sourceforge.net/DTD/sodipodi-0.dtd"
   xmlns="http://www.w3.org/2000/svg"
   xmlns:svg="http://www.w3.org/2000/svg"
   xmlns:rdf="http://www.w3.org/1999/02/22-rdf-syntax-ns#"
   xmlns:cc="http://creativecommons.org/ns#"
   xmlns:dc="http://purl.org/dc/elements/1.1/">
  <defs
     id="defs2" />
  <sodipodi:namedview
     id="base"
     pagecolor="#ffffff"
     bordercolor="#666666"
     borderopacity="1.0"
     inkscape:pageopacity="0.0"
     inkscape:pageshadow="2"
     inkscape:zoom="1.3422195"
     inkscape:cx="16.018244"
     inkscape:cy="248.46905"
     inkscape:document-units="mm"
     inkscape:current-layer="layer3"
     showgrid="false"
     units="mm"
     inkscape:snap-bbox="true"
     inkscape:snap-page="true"
     inkscape:bbox-nodes="false"
     inkscape:snap-bbox-edge-midpoints="false"
     inkscape:window-width="1920"
     inkscape:window-height="955"
     inkscape:window-x="1920"
     inkscape:window-y="25"
     inkscape:window-maximized="0"
     inkscape:snap-bbox-midpoints="true"
     inkscape:snap-nodes="false"
     inkscape:pagecheckerboard="0"
     inkscape:lockguides="false"
     inkscape:snap-object-midpoints="true" />
  <metadata
     id="metadata5">
    <rdf:RDF>
      <cc:Work
         rdf:about="">
        <dc:format>image/svg+xml</dc:format>
        <dc:type
           rdf:resource="http://purl.org/dc/dcmitype/StillImage" />
        <dc:title />
      </cc:Work>
    </rdf:RDF>
  </metadata>
  <g
     inkscape:groupmode="layer"
     id="layer3"
     inkscape:label="Background"
     style="display:inline;mix-blend-mode:normal">
    <rect
       style="display:inline;opacity:1;vector-effect:none;fill:#0000ff;fill-opacity:1;fill-rule:evenodd;stroke:none;stroke-width:0.649358;stroke-linecap:butt;stroke-linejoin:miter;stroke-miterlimit:4;stroke-dasharray:none;stroke-dashoffset:0;stroke-opacity:1;paint-order:normal"
       id="rect420"
       width="30.48"
       height="128.5"
       x="5.9211732e-17"
       y="168.49997"
       transform="translate(0,-168.49998)" />
    <rect
       x="9.473712"
       y="101.06841"
       width="11.532577"
       height="15.288368"
       rx="1.1395689"
       fill="#1f1f1f"
       id="rect22"
       style="stroke-width:0.396183" />
    <g
       aria-label="Out"
       id="text1409"
       style="font-size:2.82222px;line-height:1.25;font-family:Excluded;-inkscape-font-specification:'Excluded, Normal';fill:#ffffff;stroke-width:0.264583">
      <path
         d="m 13.385008,103.78216 v -0.72249 h -0.829733 v 0.72249 z m 0.206022,-1.13735 q 0.129822,0 0.220133,0.0903 0.09031,0.0903 0.09031,0.22013 v 0.93133 q 0,0.12983 -0.09031,0.22014 -0.09031,0.0903 -0.220133,0.0903 h -1.241777 q -0.129822,0 -0.220133,-0.0903 -0.09031,-0.0903 -0.09031,-0.22014 v -0.93133 q 0,-0.12982 0.09031,-0.22013 0.09031,-0.0903 0.220133,-0.0903 z"
         id="path116" />
      <path
         d="m 16.150166,102.64481 v 1.24177 q 0,0.12983 -0.09031,0.22014 -0.09031,0.0903 -0.220133,0.0903 h -1.241777 q -0.129822,0 -0.220133,-0.0903 -0.09031,-0.0903 -0.09031,-0.22014 v -1.24177 h 0.516466 v 1.13735 H 15.6337 v -1.13735 z"
         id="path118" />
      <path
         d="m 18.441191,102.64481 v 0.41486 h -0.67451 v 1.13736 h -0.516467 v -1.13736 h -0.671688 v -0.41486 z"
         id="path120" />
    </g>
  </g>
  <g
     inkscape:groupmode="layer"
     id="layer4"
     inkscape:label="Text"
     style="display:inline;mix-blend-mode:normal"
     sodipodi:insensitive="true">
    <path
       d="m 18.950451,9.5982043 c -0.04266,0.05299 -0.07757,0.135991 -0.07757,0.184426 0,0.04847 -0.01598,0.0883 -0.03517,0.08853 -0.04209,0 -0.152403,0.2556547 -0.152403,0.3526207 v 0.06858 h -0.04689 -0.0469 v 0.105372 0.105405 h -0.04686 -0.0469 v 0.105404 0.105373 h -0.0469 -0.04692 v 0.0775 c 0,0.04258 -0.04539,0.167095 -0.100874,0.276639 -0.05548,0.109607 -0.180802,0.373701 -0.278506,0.586871 -0.0977,0.21317 -0.211146,0.429185 -0.252084,0.480078 l -0.07444,0.09244 0.01285,0.784748 0.01317,0.784781 0.786029,0.01455 0.786028,0.01455 -0.03135,0.143622 c -0.01724,0.07899 -0.04915,0.151543 -0.07093,0.161211 -0.02194,0.0097 -0.03965,0.06305 -0.03965,0.118562 v 0.101046 h -0.0469 -0.04686 v 0.07407 c 0,0.08778 -0.195535,0.524276 -0.246191,0.549561 -0.01944,0.0097 -0.03517,0.04788 -0.03517,0.08494 0,0.03705 -0.08441,0.251806 -0.187574,0.477231 -0.103157,0.225358 -0.187574,0.442086 -0.187574,0.481563 0,0.03948 -0.01598,0.07178 -0.0358,0.07178 -0.01975,0 -0.0737,0.08892 -0.119965,0.197651 -0.0463,0.10867 -0.135446,0.304316 -0.198169,0.434747 -0.117201,0.243885 -0.135947,0.351488 -0.08648,0.49637 l 0.02852,0.08335 h 0.0794 c 0.04364,0 0.09939,0.02037 0.123909,0.04544 0.0642,0.06544 0.678857,0.428895 0.725343,0.428895 0.04185,0 0.186665,-0.297914 0.186665,-0.384017 0,-0.02845 0.03692,-0.09021 0.08207,-0.137382 0.105663,-0.110478 0.199298,-0.298463 0.199298,-0.40015 v -0.07976 h 0.04689 0.04686 V 16.669364 16.56399 h 0.04692 0.04689 v -0.105437 -0.105375 h 0.04344 c 0.05005,0 0.19099,-0.29772 0.19099,-0.40335 v -0.07097 h 0.0469 0.0469 v -0.105399 -0.1054 h 0.04689 0.04686 v -0.105411 -0.105399 h 0.04692 0.04689 v -0.123285 -0.123283 l 0.233244,-0.514995 0.233308,-0.514934 0.09911,-0.09664 0.09911,-0.09658 0.01197,-0.516807 c 0.0065,-0.284237 0.0031,-0.629453 -0.0088,-0.767093 l -0.02068,-0.250353 h -0.736127 -0.736155 l -0.0493,-0.05542 -0.0493,-0.05538 0.02194,-0.129072 0.02194,-0.129041 h 0.0414 0.04144 v -0.105429 -0.105373 h 0.0469 0.04689 l 0.0044,-0.09225 c 0.0031,-0.05073 0.06548,-0.210809 0.140273,-0.355757 0.07486,-0.144915 0.149269,-0.304995 0.165381,-0.355725 0.01598,-0.0507 0.04789,-0.09221 0.07065,-0.09221 h 0.04144 v -0.07372 c 0,-0.04054 0.06328,-0.208934 0.14068,-0.374251 l 0.140764,-0.300574 V 10.102656 9.9762683 h -0.09382 -0.09375 v -0.03951 c 0,-0.04776 -0.22779,-0.171299 -0.315213,-0.171299 h -0.06247 l -0.02695,-0.07905 -0.02695,-0.07902 h -0.08595 c -0.0473,0 -0.09905,-0.0236 -0.115005,-0.05274 l -0.02884,-0.0527 h -0.107212 -0.107168 l -0.07765,0.09642 m -8.9984779,0.7831637 -0.08207,0.02425 v 2.38745 2.387449 l 0.1465089,0.03294 0.146543,0.03294 h 1.318813 1.318782 l 0.107167,-0.03233 0.107205,-0.03234 -0.01348,-0.48082 -0.01348,-0.480853 -1.038112,-0.01423 -1.03808,-0.01424 -0.0279,-0.117632 -0.0279,-0.117531 v -1.773021 -1.77303 l -0.07417,-0.03201 c -0.08344,-0.03599 -0.702177,-0.03275 -0.8284379,0.0042 m -4.5636307,0.08639 c -0.013165,0.03854 -0.017867,0.281618 -0.010342,0.540183 l 0.013792,0.47015 1.140047,0.01423 1.140048,0.01423 0.1142515,0.128426 0.1142527,0.128425 v 0.11019 0.11019 l -0.1142527,0.128362 -0.1142515,0.128426 -1.140048,0.01423 -1.140047,0.01423 v 0.606045 0.606078 l 1.1466617,0.01423 1.1467244,0.01423 0.1076368,0.113648 0.1075763,0.113622 v 0.106507 0.106532 L 7.7769195,14.099052 7.6509084,14.246877 H 6.5091049 5.3673025 l 0.013479,0.487482 0.013479,0.48748 1.4282099,0.0139 1.4282109,0.0139 0.1426231,-0.0764 c 0.2283857,-0.122311 0.5411544,-0.550814 0.5411544,-0.741351 v -0.07976 h 0.046895 0.04692 v -0.1054 -0.105412 h 0.046858 0.046895 v -0.395234 -0.3953 h -0.046895 -0.046858 v -0.105374 -0.105437 h -0.04692 -0.046895 v -0.07976 c 0,-0.04388 -0.026335,-0.129946 -0.058582,-0.191346 l -0.058644,-0.11158 0.058644,-0.02393 c 0.032222,-0.01325 0.058582,-0.05271 0.058582,-0.08798 0,-0.09351 0.1112773,-0.347804 0.1524032,-0.348288 h 0.035171 v -0.361646 -0.36161 L 8.9357749,11.166827 8.749517,10.759887 8.620749,10.64572 C 8.5499385,10.582962 8.4414502,10.501936 8.3796362,10.465691 L 8.2672975,10.399829 H 6.8409945 5.4147287 l -0.023823,0.07003 m 8.2912843,0.01746 -0.05858,0.02651 v 1.78438 1.784346 l 0.04686,0.03256 0.0469,0.03259 v 0.102269 0.102306 h 0.04689 0.04686 v 0.07869 0.07873 l 0.277316,0.316505 0.277317,0.316569 h 0.07438 0.07438 v 0.05274 0.0527 h 0.091 0.09103 l 0.02884,0.05267 0.02884,0.0527 h 0.62748 0.627481 l 0.02884,-0.0527 0.02884,-0.05267 h 0.09103 0.091 v -0.0527 -0.05274 h 0.07718 0.07714 l 0.274527,-0.324264 0.274526,-0.324233 v -0.07101 -0.071 h 0.04686 0.04689 v -0.105394 -0.105412 h 0.04692 0.04689 v -1.817223 -1.817166 l -0.106514,-0.03007 c -0.05856,-0.01649 -0.253744,-0.02296 -0.433732,-0.01423 l -0.32725,0.01584 -0.01222,1.667787 -0.01222,1.667819 -0.192464,0.216274 -0.192401,0.216274 H 15.381819 14.90066 l -0.193215,-0.210744 -0.193216,-0.210745 v -1.654532 -1.654498 l -0.07417,-0.03201 c -0.08755,-0.03776 -0.673464,-0.0355 -0.758161,0.0032 m 7.783355,0.0032 -0.105946,0.02296 0.01222,2.407366 0.01222,2.407367 h 0.468902 0.468903 l 0.02351,-0.878546 0.02351,-0.878544 0.0389,-0.04376 0.03893,-0.04375 0.615224,-0.01746 0.615226,-0.01746 0.200519,0.03383 0.200488,0.03376 0.01285,0.906093 0.01285,0.90606 h 0.492317 0.492381 l 0.01222,-2.404392 0.01222,-2.404424 -0.147013,-0.03304 c -0.08087,-0.01811 -0.259041,-0.03304 -0.395991,-0.03304 h -0.248948 l -0.119151,0.05092 -0.119151,0.05089 -0.01285,0.884527 -0.01285,0.884559 -0.796904,0.01455 -0.796905,0.01455 -0.05884,-0.09047 -0.05887,-0.09044 v -0.82701 -0.826975 l -0.105513,-0.03169 c -0.115733,-0.03489 -0.60604,-0.03233 -0.774147,0.0042 m 0.09052,5.460775 -0.148673,0.172366 v 0.100269 0.100232 l 0.05626,-0.06321 0.05626,-0.06324 h 0.201648 0.201647 v 0.05267 c 0,0.0291 0.021,0.0527 0.04686,0.0527 h 0.04689 v -0.09221 -0.09221 l -0.1556,-0.169876 -0.155633,-0.16991 -0.148673,0.172431 m 0.742238,0.01293 v 0.188175 l 0.06699,0.07531 0.06699,0.07527 h 0.197447 0.19751 l 0.06228,-0.09221 0.06225,-0.09221 v -0.141811 -0.141845 l -0.04401,-0.03072 -0.04401,-0.0304 -0.01473,0.198749 -0.01474,0.198685 -0.222712,0.01617 -0.222743,0.01617 v -0.213653 -0.213721 h -0.04689 -0.0469 v 0.188241 m 0.922194,-0.153095 c -0.01724,0.0194 -0.03135,0.137899 -0.03135,0.263512 v 0.228333 h 0.261266 0.261237 l 0.06702,-0.07527 0.06699,-0.07531 v -0.11291 -0.112934 l -0.06699,-0.07527 -0.06702,-0.07531 h -0.229985 c -0.12648,0 -0.244058,0.01585 -0.261236,0.03515 m 0.906554,0.228367 v 0.269811 l 0.04689,-0.03256 0.04689,-0.03259 v -0.20457 -0.204602 l -0.04689,-0.03256 -0.04689,-0.03259 v 0.269751 m 0.386838,-0.184683 -0.05862,0.07485 v 0.111382 0.111357 l 0.06699,0.07531 0.06699,0.07527 h 0.19425 0.194282 l 0.06699,-0.07527 0.06695,-0.07531 v -0.11291 -0.112935 l -0.06695,-0.07527 -0.06699,-0.07531 -0.202652,0.0031 -0.202619,0.0031 -0.05862,0.07479 m -2.684488,0.207369 c 0,0.01648 -0.05276,0.03006 -0.117238,0.03006 h -0.117238 v -0.04216 c 0,-0.02328 0.02414,-0.06909 0.05329,-0.102013 l 0.05325,-0.05985 0.06395,0.07187 c 0.0352,0.03954 0.06397,0.08545 0.06397,0.102038 m 1.922501,-0.02263 V 16.2008 h -0.234435 -0.234435 v -0.122966 c 0,-0.169683 0.03241,-0.193252 0.265719,-0.193252 h 0.203151 v 0.158107 m 1.266058,0 v 0.158107 h -0.234458 -0.234435 v -0.158018 -0.158107 h 0.234435 0.234466 v 0.158107"
       id="gge1502"
       stroke="none"
       layerid="3"
       style="display:inline;fill:#ffffff;fill-opacity:1;stroke:none;stroke-width:0.318355;stroke-linecap:round;stroke-linejoin:round;shape-rendering:crispEdges" />
    <g
       aria-label="Pitch"
       id="text2164"
       style="font-size:5.64444px;line-height:1.25;font-family:Excluded;-inkscape-font-specification:'Excluded, Normal';fill:#ffffff;stroke-width:0.264583"
       transform="translate(0,1.5875)">
      <path
         d="m 8.9135892,51.919385 q 0.2596442,0 0.4402663,0.180622 0.1806221,0.180622 0.1806221,0.440266 v 0.829733 q 0,0.253999 -0.1806221,0.440266 -0.1806221,0.180622 -0.4402663,0.180622 H 6.8420796 v 1.032933 H 5.8091471 V 51.919385 Z M 8.501545,53.161161 V 52.749117 H 6.8420796 v 0.412044 z"
         id="path11476" />
      <path
         d="m 10.204931,55.023827 v -3.104442 h 1.038577 v 3.104442 z"
         id="path11478" />
      <path
         d="m 15.670425,51.919385 v 0.829732 h -1.349021 v 2.27471 h -1.032933 v -2.27471 h -1.343376 v -0.829732 z"
         id="path11480" />
      <path
         d="m 17.458477,52.749117 v 1.444977 h 2.692398 v 0.829733 h -3.104442 q -0.259644,0 -0.440266,-0.180622 -0.180622,-0.180623 -0.180622,-0.440267 v -1.862665 q 0,-0.259644 0.180622,-0.440266 0.180622,-0.180622 0.440266,-0.180622 h 3.104442 v 0.829732 z"
         id="path11482" />
      <path
         d="m 24.670838,51.919385 v 3.104442 H 23.637905 V 53.88365 H 21.97844 v 1.140177 h -1.032933 v -3.104442 h 1.032933 v 1.140176 h 1.659465 v -1.140176 z"
         id="path11484" />
    </g>
    <g
       aria-label="CV In"
       id="text8312"
       style="font-size:5.64444px;line-height:1.25;font-family:Excluded;-inkscape-font-specification:'Excluded, Normal';fill:#ffffff;stroke-width:0.264583"
       transform="translate(0,1.5875)">
      <path
         d="m 8.5398231,84.163729 v 1.444977 h 2.6923979 v 0.829732 H 8.1277789 q -0.2596442,0 -0.4402663,-0.180622 Q 7.5068905,86.077194 7.5068905,85.81755 v -1.862665 q 0,-0.259645 0.1806221,-0.440267 0.1806221,-0.180622 0.4402663,-0.180622 h 3.1044421 v 0.829733 z"
         id="path11505" />
      <path
         d="m 14.600717,83.333996 h 1.145821 l -1.450621,3.104442 h -0.829732 l -1.444977,-3.104442 h 1.140177 l 0.722488,1.546577 z"
         id="path11507" />
      <path
         d="m 17.547115,86.438438 v -3.104442 h 1.038577 v 3.104442 z"
         id="path11509" />
      <path
         d="m 22.973097,83.333996 v 2.483554 q 0,0.259644 -0.180622,0.440266 -0.180622,0.180622 -0.440266,0.180622 h -0.530578 l -1.540932,-1.924754 v 1.924754 h -1.032932 v -2.483553 q 0,-0.259645 0.180622,-0.440267 0.180622,-0.180622 0.440266,-0.180622 h 0.530577 l 1.540933,1.924754 v -1.924754 z"
         id="path11511" />
    </g>
  </g>
  <g
     inkscape:groupmode="layer"
     id="layer2"
     inkscape:label="components"
     style="display:none"
     sodipodi:insensitive="true">
    <circle
       style="display:inline;opacity:1;vector-effect:none;fill:#ff0000;fill-opacity:1;fill-rule:evenodd;stroke:none;stroke-width:1;stroke-linecap:butt;stroke-linejoin:miter;stroke-miterlimit:4;stroke-dasharray:none;stroke-dashoffset:0;stroke-opacity:1;paint-order:normal"
       id="path4954"
       cx="15.24"
       cy="46.063263"
       r="4"
       inkscape:label="pitch" />
    <circle
       r="4"
       cy="77.477875"
       cx="15.24"
       id="circle4956"
       style="display:inline;opacity:1;vector-effect:none;fill:#00ff00;fill-opacity:1;fill-rule:evenodd;stroke:none;stroke-width:1;stroke-linecap:butt;stroke-linejoin:miter;stroke-miterlimit:4;stroke-dasharray:none;stroke-dashoffset:0;stroke-opacity:1;paint-order:normal"
       inkscape:label="pitch" />
    <circle
       style="display:inline;opacity:1;vector-effect:none;fill:#0000ff;fill-opacity:1;fill-rule:evenodd;stroke:none;stroke-width:1;stroke-linecap:butt;stroke-linejoin:miter;stroke-miterlimit:4;stroke-dasharray:none;stroke-dashoffset:0;stroke-opacity:1;paint-order:normal"
       id="circle4958"
       cx="15.24"
       cy="108.71259"
       r="4"
       inkscape:label="sine" />
    <circle
       inkscape:label="blink"
       r="4"
       cy="25.80987"
       cx="15.24"
       id="circle66"
       style="display:inline;opacity:1;vector-effect:none;fill:#ff00ff;fill-opacity:1;fill-rule:evenodd;stroke:none;stroke-width:1;stroke-linecap:butt;stroke-linejoin:miter;stroke-miterlimit:4;stroke-dasharray:none;stroke-dashoffset:0;stroke-opacity:1;paint-order:normal" />
  </g>
</svg>
