<?xml version="1.0" encoding="UTF-8" standalone="no"?>
<!-- Created with Inkscape (http://www.inkscape.org/) -->

<svg
   width="30.48mm"
   height="128.5mm"
   viewBox="0 0 30.480002 128.50002"
   version="1.1"
   id="svg8"
   inkscape:version="1.1.2 (b8e25be8, 2022-02-05)"
   sodipodi:docname="TrackAndField.svg"
   xmlns:inkscape="http://www.inkscape.org/namespaces/inkscape"
   xmlns:sodipodi="http://sodipodi.sourceforge.net/DTD/sodipodi-0.dtd"
   xmlns="http://www.w3.org/2000/svg"
   xmlns:svg="http://www.w3.org/2000/svg"
   xmlns:rdf="http://www.w3.org/1999/02/22-rdf-syntax-ns#"
   xmlns:cc="http://creativecommons.org/ns#"
   xmlns:dc="http://purl.org/dc/elements/1.1/">
  <defs
     id="defs2">
    <inkscape:path-effect
       effect="fillet_chamfer"
       id="path-effect963"
       is_visible="true"
       lpeversion="1"
       satellites_param="F,0,0,1,0,1.4332636,0,1 @ F,0,0,1,0,1.2740121,0,1 @ F,0,0,1,0,1.369563,0,1 @ F,0,0,1,0,1.4014133,0,1"
       unit="px"
       method="auto"
       mode="F"
       radius="0"
       chamfer_steps="1"
       flexible="false"
       use_knot_distance="true"
       apply_no_radius="true"
       apply_with_radius="true"
       only_selected="false"
       hide_knots="false" />
    <inkscape:path-effect
       effect="fillet_chamfer"
       id="path-effect887"
       is_visible="true"
       lpeversion="1"
       satellites_param="F,0,0,1,0,1.4332636,0,1 @ F,0,0,1,0,1.2740121,0,1 @ F,0,0,1,0,1.369563,0,1 @ F,0,0,1,0,1.4014133,0,1"
       unit="px"
       method="auto"
       mode="F"
       radius="0"
       chamfer_steps="1"
       flexible="false"
       use_knot_distance="true"
       apply_no_radius="true"
       apply_with_radius="true"
       only_selected="false"
       hide_knots="false" />
    <inkscape:path-effect
       effect="fillet_chamfer"
       id="path-effect879"
       is_visible="true"
       lpeversion="1"
       satellites_param="F,0,0,1,0,1.4332636,0,1 @ F,0,0,1,0,1.2740121,0,1 @ F,0,0,1,0,1.369563,0,1 @ F,0,0,1,0,1.4014133,0,1"
       unit="px"
       method="auto"
       mode="F"
       radius="0"
       chamfer_steps="1"
       flexible="false"
       use_knot_distance="true"
       apply_no_radius="true"
       apply_with_radius="true"
       only_selected="false"
       hide_knots="false" />
    <inkscape:path-effect
       effect="fillet_chamfer"
       id="path-effect873"
       is_visible="true"
       lpeversion="1"
       satellites_param="F,0,0,1,0,1.4332636,0,1 @ F,0,0,1,0,1.2740121,0,1 @ F,0,0,1,0,1.369563,0,1 @ F,0,0,1,0,1.4014133,0,1"
       unit="px"
       method="auto"
       mode="F"
       radius="0"
       chamfer_steps="1"
       flexible="false"
       use_knot_distance="true"
       apply_no_radius="true"
       apply_with_radius="true"
       only_selected="false"
       hide_knots="false" />
    <inkscape:path-effect
       effect="fillet_chamfer"
       id="path-effect420"
       is_visible="true"
       lpeversion="1"
       satellites_param="F,0,0,1,0,1.4332636,0,1 @ F,0,0,1,0,1.2740121,0,1 @ F,0,0,1,0,1.369563,0,1 @ F,0,0,1,0,1.4014133,0,1"
       unit="px"
       method="auto"
       mode="F"
       radius="0"
       chamfer_steps="1"
       flexible="false"
       use_knot_distance="true"
       apply_no_radius="true"
       apply_with_radius="true"
       only_selected="false"
       hide_knots="false" />
    <inkscape:path-effect
       effect="fillet_chamfer"
       id="path-effect216"
       is_visible="true"
       lpeversion="1"
       satellites_param="F,0,0,1,0,1.4332636,0,1 @ F,0,0,1,0,1.2740121,0,1 @ F,0,0,1,0,1.369563,0,1 @ F,0,0,1,0,1.4014133,0,1"
       unit="px"
       method="auto"
       mode="F"
       radius="0"
       chamfer_steps="1"
       flexible="false"
       use_knot_distance="true"
       apply_no_radius="true"
       apply_with_radius="true"
       only_selected="false"
       hide_knots="false" />
  </defs>
  <sodipodi:namedview
     id="base"
     pagecolor="#ffffff"
     bordercolor="#666666"
     borderopacity="1.0"
     inkscape:pageopacity="0.0"
     inkscape:pageshadow="2"
     inkscape:zoom="2.0745441"
     inkscape:cx="40.00879"
     inkscape:cy="223.42258"
     inkscape:document-units="mm"
     inkscape:current-layer="layer3"
     showgrid="false"
     units="mm"
     inkscape:snap-bbox="true"
     inkscape:snap-page="true"
     inkscape:bbox-nodes="false"
     inkscape:snap-bbox-edge-midpoints="false"
     inkscape:window-width="1920"
     inkscape:window-height="1027"
     inkscape:window-x="0"
     inkscape:window-y="25"
     inkscape:window-maximized="0"
     inkscape:snap-bbox-midpoints="true"
     inkscape:snap-nodes="false"
     inkscape:pagecheckerboard="0" />
  <metadata
     id="metadata5">
    <rdf:RDF>
      <cc:Work
         rdf:about="">
        <dc:format>image/svg+xml</dc:format>
        <dc:type
           rdf:resource="http://purl.org/dc/dcmitype/StillImage" />
      </cc:Work>
    </rdf:RDF>
  </metadata>
  <g
     inkscape:label="background"
     inkscape:groupmode="layer"
     id="layer1"
     transform="translate(0,-168.49998)"
     style="display:inline">
    <rect
       style="display:inline;opacity:1;vector-effect:none;fill:#00659b;fill-opacity:1;fill-rule:evenodd;stroke:none;stroke-width:0.649358;stroke-linecap:butt;stroke-linejoin:miter;stroke-miterlimit:4;stroke-dasharray:none;stroke-dashoffset:0;stroke-opacity:1;paint-order:normal"
       id="rect420"
       width="30.48"
       height="128.5"
       x="5.9211732e-17"
       y="168.49997" />
    <path
       style="fill:#ffffff;stroke-width:0.247591"
       id="rect30896"
       width="8.5019999"
       height="8.5019999"
       x="4.6390052"
       y="202.99176"
       sodipodi:type="rect"
       inkscape:path-effect="#path-effect216"
       d="m 6.0722688,202.99176 h 5.7947242 a 1.2740121,1.2740121 45 0 1 1.274012,1.27401 v 5.85843 a 1.369563,1.369563 135 0 1 -1.369563,1.36956 H 6.0404185 a 1.4014133,1.4014133 45 0 1 -1.4014133,-1.40141 v -5.66733 a 1.4332636,1.4332636 135 0 1 1.4332636,-1.43326 z" />
    <rect
       style="fill:#ff7522;stroke:#ff7522;stroke-width:0.23616;fill-opacity:1;stroke-opacity:1"
       id="rect1043"
       width="30.243839"
       height="0.60835814"
       x="0.11808014"
       y="170.61806" />
    <rect
       style="fill:#ff7522;stroke:#ff7522;stroke-width:0.23616;fill-opacity:1;stroke-opacity:1"
       id="rect1391"
       width="30.243839"
       height="0.60835814"
       x="0.11808014"
       y="294.21805" />
    <g
       aria-label="Track and        Field"
       id="text2452"
       style="font-size:3.52778px;line-height:1.25;font-family:Excluded;-inkscape-font-specification:'Excluded, Normal';fill:#ffffff;stroke-width:0.264583">
      <path
         d="m 6.5628416,176.19884 v 0.51858 H 5.7197022 v 1.42169 H 5.0741185 v -1.42169 H 4.2345068 v -0.51858 z"
         id="path954" />
      <path
         d="m 8.9750714,176.19884 q 0.1622779,0 0.2751668,0.11288 0.112889,0.11289 0.112889,0.27517 v 0.51858 q 0,0.15875 -0.112889,0.27517 -0.1128889,0.11289 -0.2751668,0.11289 H 8.8233768 l 0.5397504,0.64558 h -0.673806 l -0.5432781,-0.64558 h -0.465667 v 0.64558 H 7.0347924 v -1.94027 z m -0.257528,0.77611 v -0.25753 H 7.6803761 v 0.25753 z"
         id="path956" />
      <path
         d="m 11.789468,176.19884 q 0.15875,0 0.271639,0.11288 0.116417,0.11289 0.116417,0.27517 v 1.55222 h -0.649112 v -0.64558 h -1.033639 v 0.64558 H 9.849189 v -1.55222 q 0,-0.16228 0.112889,-0.27517 0.112889,-0.11288 0.275167,-0.11288 z m -0.261056,0.77611 v -0.25753 h -1.033639 v 0.25753 z"
         id="path958" />
      <path
         d="m 13.330336,176.71742 v 0.90311 h 1.682751 v 0.51858 h -1.940279 q -0.162277,0 -0.275166,-0.11288 -0.112889,-0.11289 -0.112889,-0.27517 v -1.16417 q 0,-0.16228 0.112889,-0.27517 0.112889,-0.11288 0.275166,-0.11288 h 1.940279 v 0.51858 z"
         id="path960" />
      <path
         d="m 17.079595,177.16897 0.758472,0.97014 h -0.821972 l -0.55739,-0.71261 h -0.303389 v 0.71261 h -0.645584 v -1.94027 h 0.645584 v 0.71261 h 0.303389 l 0.55739,-0.71261 h 0.821972 z"
         id="path962" />
      <path
         d="m 20.967208,176.19884 q 0.15875,0 0.271639,0.11288 0.116416,0.11289 0.116416,0.27517 v 1.55222 h -0.649111 v -0.64558 h -1.03364 v 0.64558 h -0.645583 v -1.55222 q 0,-0.16228 0.112889,-0.27517 0.112889,-0.11288 0.275166,-0.11288 z m -0.261056,0.77611 v -0.25753 h -1.03364 v 0.25753 z"
         id="path964" />
      <path
         d="m 24.190827,176.19884 v 1.55222 q 0,0.16228 -0.112889,0.27517 -0.112889,0.11288 -0.275167,0.11288 h -0.331612 l -0.963083,-1.20297 v 1.20297 h -0.645584 v -1.55222 q 0,-0.16228 0.112889,-0.27517 0.112889,-0.11288 0.275167,-0.11288 h 0.331611 l 0.963084,1.20297 v -1.20297 z"
         id="path966" />
      <path
         d="m 26.627751,176.19884 q 0.162277,0 0.275166,0.11288 0.112889,0.11289 0.112889,0.27517 v 1.16417 q 0,0.16228 -0.112889,0.27517 -0.112889,0.11288 -0.275166,0.11288 h -1.940279 v -1.94027 z m -0.257528,1.42169 v -0.90311 h -1.037168 v 0.90311 z"
         id="path968" />
      <g
         id="g1004"
         transform="translate(0.21630182)">
        <path
           d="m 9.7749956,181.12714 v 0.25753 h 1.4252234 v 0.51859 H 9.7749956 v 0.64558 H 9.1294119 v -1.55222 q 0,-0.16228 0.1128889,-0.27517 0.112889,-0.11289 0.2751669,-0.11289 h 1.9402793 v 0.51858 z"
           id="path970" />
        <path
           d="m 11.87678,182.54884 v -1.94028 h 0.649112 v 1.94028 z"
           id="path972" />
        <path
           d="m 13.585274,181.12714 v 0.19403 h 1.393473 v 0.51506 h -1.393473 v 0.19403 h 1.682751 v 0.51858 h -1.940279 q -0.162278,0 -0.275167,-0.11289 -0.112889,-0.11289 -0.112889,-0.27517 v -1.16416 q 0,-0.16228 0.112889,-0.27517 0.112889,-0.11289 0.275167,-0.11289 h 1.940279 v 0.51858 z"
           id="path974" />
        <path
           d="m 18.093004,182.03026 v 0.51858 h -1.940279 q -0.162277,0 -0.275166,-0.11289 -0.112889,-0.11289 -0.112889,-0.27517 v -1.55222 h 0.645583 v 1.4217 z"
           id="path976" />
        <path
           d="m 20.529928,180.60856 q 0.162278,0 0.275167,0.11289 0.112889,0.11289 0.112889,0.27517 v 1.16416 q 0,0.16228 -0.112889,0.27517 -0.112889,0.11289 -0.275167,0.11289 h -1.940279 v -1.94028 z m -0.257528,1.4217 v -0.90312 h -1.037167 v 0.90312 z"
           id="path978" />
      </g>
    </g>
    <path
       style="fill:#ffffff;stroke-width:0.247591"
       id="path959"
       width="8.5019999"
       height="8.5019999"
       x="4.6390052"
       y="269.95197"
       sodipodi:type="rect"
       inkscape:path-effect="#path-effect963"
       d="m 6.0722688,269.95197 h 5.7947242 a 1.2740121,1.2740121 45 0 1 1.274012,1.27401 v 5.85842 a 1.369563,1.369563 135 0 1 -1.369563,1.36957 H 6.0404185 a 1.4014133,1.4014133 45 0 1 -1.4014133,-1.40142 v -5.66732 a 1.4332636,1.4332636 135 0 1 1.4332636,-1.43326 z" />
  </g>
  <g
     inkscape:groupmode="layer"
     id="layer3"
     inkscape:label="text"
     style="display:inline">
    <path
       d="m 17.870708,116.03418 c -0.03025,0.0364 -0.05499,0.0935 -0.05499,0.12677 0,0.0333 -0.01133,0.0607 -0.02494,0.0608 -0.02985,0 -0.108057,0.17572 -0.108057,0.24238 v 0.0472 h -0.03325 -0.03325 v 0.0724 0.0725 H 17.583 17.54976 v 0.0725 0.0725 h -0.03325 -0.03327 v 0.0533 c 0,0.0293 -0.03218,0.11486 -0.07152,0.19016 -0.03934,0.0753 -0.128191,0.25688 -0.197466,0.40341 -0.06927,0.14652 -0.149708,0.29501 -0.178733,0.32999 l -0.05278,0.0635 0.0091,0.53943 0.0093,0.53944 0.55731,0.01 0.55731,0.01 -0.02222,0.0987 c -0.01222,0.0543 -0.03485,0.10417 -0.0503,0.11082 -0.01557,0.007 -0.02811,0.0433 -0.02811,0.0815 v 0.0695 h -0.03325 -0.03322 v 0.0509 c 0,0.0604 -0.138639,0.36038 -0.174555,0.37776 -0.01378,0.007 -0.02494,0.0329 -0.02494,0.0584 0,0.0255 -0.05985,0.17308 -0.132993,0.32804 -0.07314,0.15491 -0.132994,0.30388 -0.132994,0.33102 0,0.0271 -0.01133,0.0494 -0.02538,0.0494 -0.014,0 -0.05226,0.0612 -0.08506,0.13586 -0.03282,0.0747 -0.09604,0.20918 -0.140507,0.29884 -0.0831,0.16764 -0.09639,0.2416 -0.06132,0.34119 l 0.02022,0.0573 h 0.0563 c 0.03094,0 0.07047,0.014 0.08785,0.0312 0.04552,0.045 0.481324,0.29482 0.514283,0.29482 0.02967,0 0.13235,-0.20478 0.13235,-0.26396 0,-0.0196 0.02618,-0.062 0.05819,-0.0944 0.07492,-0.0759 0.141306,-0.20516 0.141306,-0.27506 v -0.0549 h 0.03325 0.03321 v -0.0724 -0.0725 h 0.03327 0.03325 v -0.0725 -0.0725 h 0.0308 c 0.03549,0 0.135417,-0.20465 0.135417,-0.27725 v -0.0488 h 0.03325 0.03325 v -0.0725 -0.0725 h 0.03325 0.03322 v -0.0725 -0.0724 h 0.03327 0.03325 v -0.0848 -0.0847 l 0.165375,-0.35399 0.16542,-0.35396 0.07028,-0.0664 0.07027,-0.0664 0.0085,-0.35525 c 0.0046,-0.19538 0.0022,-0.43267 -0.0062,-0.52729 l -0.01467,-0.17209 h -0.521929 -0.52195 l -0.03496,-0.0381 -0.03496,-0.0381 0.01556,-0.0887 0.01557,-0.0887 h 0.02936 0.02938 v -0.0725 -0.0724 h 0.03324 0.03325 l 0.0032,-0.0634 c 0.0022,-0.0349 0.04643,-0.14491 0.09946,-0.24454 0.05308,-0.0996 0.105834,-0.20965 0.117258,-0.24452 0.01133,-0.0348 0.03396,-0.0633 0.05009,-0.0633 h 0.02938 v -0.0507 c 0,-0.0279 0.04487,-0.14363 0.09974,-0.25726 l 0.09974,-0.20661 v -0.0869 -0.0869 h -0.06652 -0.06647 v -0.0271 c 0,-0.0328 -0.161508,-0.11775 -0.223493,-0.11775 h -0.04429 l -0.01911,-0.0543 -0.01911,-0.0543 h -0.06094 c -0.03354,0 -0.07024,-0.0162 -0.08154,-0.0362 l -0.02045,-0.0362 h -0.07601 -0.07599 l -0.05505,0.0662 m -6.380109,0.53834 -0.05819,0.0166 v 1.64109 1.6411 l 0.103879,0.0227 0.103901,0.0227 h 0.934943 0.935043 l 0.07598,-0.0222 0.07601,-0.0222 -0.0096,-0.3305 -0.0096,-0.33053 -0.736043,-0.01 -0.73602,-0.01 -0.01979,-0.0809 -0.01979,-0.0808 v -1.21878 -1.21875 l -0.05259,-0.022 c -0.05915,-0.0248 -0.497859,-0.0225 -0.58738,0.003 m -3.235628,0.0594 c -0.00934,0.0265 -0.01267,0.19359 -0.00735,0.37132 l 0.00978,0.32318 0.8083171,0.01 0.8083179,0.01 0.081006,0.0883 0.081007,0.0883 v 0.0758 0.0758 l -0.081007,0.0882 -0.081006,0.0883 -0.8083179,0.01 -0.8083171,0.01 v 0.41658 0.41662 l 0.813007,0.01 0.8130516,0.01 0.076317,0.0781 0.076273,0.0781 v 0.0732 0.0732 l -0.089322,0.10159 -0.089344,0.10161 H 9.0495324 8.2399703 l 0.00955,0.33509 0.00955,0.33508 1.0126301,0.01 1.0126306,0.01 0.101123,-0.0525 c 0.161931,-0.0841 0.383691,-0.37863 0.383691,-0.5096 v -0.0549 h 0.03325 0.03327 v -0.0725 -0.0724 h 0.03322 0.03325 v -0.27168 -0.27173 h -0.03325 -0.03322 v -0.0725 -0.0724 h -0.03327 -0.03325 v -0.0549 c 0,-0.0302 -0.01867,-0.0893 -0.04154,-0.13153 l -0.04157,-0.0767 0.04157,-0.0165 c 0.02285,-0.009 0.04154,-0.0362 0.04154,-0.0605 0,-0.0643 0.0789,-0.23907 0.108058,-0.23941 h 0.02494 v -0.24858 -0.24856 l -0.132061,-0.27978 -0.132061,-0.27972 -0.0913,-0.0785 c -0.05021,-0.0431 -0.127126,-0.0988 -0.170953,-0.12376 l -0.07966,-0.0452 H 9.2848492 8.2735963 l -0.016887,0.0481 m 5.8786947,0.012 -0.04154,0.0182 v 1.22656 1.22654 l 0.03322,0.0224 0.03325,0.0224 v 0.0703 0.0704 h 0.03325 0.03322 v 0.0541 0.0541 l 0.196623,0.21756 0.196623,0.2176 h 0.05274 0.05274 v 0.0362 0.0362 h 0.06452 0.06454 l 0.02045,0.0362 0.02045,0.0362 h 0.444895 0.444898 l 0.02045,-0.0362 0.02045,-0.0362 h 0.06454 0.06452 v -0.0362 -0.0362 h 0.05473 0.0547 l 0.194645,-0.2229 0.194645,-0.22287 v -0.0488 -0.0488 h 0.03322 0.03325 v -0.0724 -0.0725 h 0.03327 0.03324 v -1.24913 -1.2491 l -0.07552,-0.0206 c -0.04152,-0.0113 -0.17991,-0.0158 -0.307524,-0.01 l -0.232028,0.0108 -0.0087,1.14642 -0.0087,1.14643 -0.136463,0.14867 -0.136416,0.14866 h -0.341086 -0.341151 l -0.136994,-0.14487 -0.136994,-0.14485 v -1.13731 -1.13727 l -0.05259,-0.022 c -0.06207,-0.026 -0.4775,-0.0244 -0.537551,0.003 m 5.518562,0.003 -0.07512,0.0158 0.0087,1.65478 0.0087,1.65479 h 0.332461 0.332462 l 0.01667,-0.6039 0.01667,-0.6039 0.02758,-0.0301 0.02761,-0.0301 0.436206,-0.012 0.436208,-0.012 0.142172,0.0233 0.14215,0.0232 0.0091,0.62283 0.0091,0.62282 h 0.349063 0.349109 l 0.0087,-1.65275 0.0087,-1.65276 -0.104235,-0.0228 c -0.05734,-0.0124 -0.183666,-0.0228 -0.280766,-0.0228 h -0.17651 l -0.08448,0.035 -0.08448,0.035 -0.0091,0.60801 -0.0091,0.60802 -0.565022,0.01 -0.565022,0.01 -0.04172,-0.0622 -0.04175,-0.0621 v -0.56847 -0.56845 l -0.07481,-0.0218 c -0.08206,-0.024 -0.429695,-0.0222 -0.548887,0.003 m 0.06418,3.75365 -0.105412,0.11849 v 0.069 0.0689 l 0.03989,-0.0435 0.03989,-0.0435 h 0.142973 0.142972 v 0.0362 c 0,0.02 0.01489,0.0362 0.03322,0.0362 h 0.03325 v -0.0633 -0.0634 l -0.110324,-0.11677 -0.110346,-0.11679 -0.105413,0.11852 m 0.526262,0.009 v 0.12935 l 0.0475,0.0518 0.04749,0.0517 h 0.139994 0.140039 l 0.04416,-0.0633 0.04413,-0.0633 v -0.0975 -0.0975 l -0.0312,-0.0211 -0.0312,-0.0209 -0.01045,0.13661 -0.01045,0.13658 -0.157907,0.0111 -0.15793,0.0111 v -0.14687 -0.1469 h -0.03325 -0.03325 v 0.1294 m 0.653855,-0.10524 c -0.01222,0.0133 -0.02223,0.0948 -0.02223,0.18113 v 0.15695 h 0.185243 0.185224 l 0.04752,-0.0517 0.0475,-0.0518 v -0.0776 -0.0776 l -0.0475,-0.0517 -0.04752,-0.0517 h -0.163065 c -0.08968,0 -0.173042,0.0108 -0.185222,0.0241 m 0.642765,0.15697 v 0.18541 l 0.03325,-0.0224 0.03325,-0.0224 v -0.14061 -0.14064 l -0.03325,-0.0224 -0.03325,-0.0224 v 0.18543 m 0.274278,-0.12696 -0.04156,0.0515 v 0.0766 0.0766 l 0.04749,0.0518 0.0475,0.0517 h 0.137727 0.13775 l 0.0475,-0.0517 0.04747,-0.0518 v -0.0776 -0.0776 l -0.04747,-0.0517 -0.0475,-0.0517 -0.143684,0.003 -0.143661,0.003 -0.04157,0.0514 m -1.903357,0.14249 c 0,0.0113 -0.03741,0.0207 -0.08312,0.0207 h -0.08312 v -0.029 c 0,-0.016 0.01712,-0.0475 0.03778,-0.0701 l 0.03776,-0.0411 0.04534,0.0494 c 0.02495,0.0272 0.04536,0.0587 0.04536,0.0702 m 1.363094,-0.0156 v 0.10868 H 21.107319 20.9411 v -0.0845 c 0,-0.11664 0.02298,-0.13284 0.188401,-0.13284 h 0.144038 v 0.10868 m 0.897662,0 v 0.10868 h -0.166293 -0.166219 v -0.10868 -0.10868 h 0.166219 0.166242 v 0.10868"
       id="gge1502"
       stroke="none"
       layerid="3"
       style="display:inline;fill:#ffffff;fill-opacity:1;stroke:none;stroke-width:0.222249;stroke-linecap:round;stroke-linejoin:round;shape-rendering:crispEdges" />
    <g
       aria-label="S and H"
       id="text5722"
       style="font-size:2.11667px;line-height:1.25;font-family:Excluded;-inkscape-font-specification:'Excluded, Normal';display:inline;stroke-width:0.264583"
       transform="translate(0,24.341676)">
      <path
         d="M 5.776847,32.289476 V 32.59851 Z M 4.7671955,32.173059 v 0.116417 H 5.776847 v 0.503768 q 0,0.0085 0,0.01058 -0.00423,0.09102 -0.071967,0.156634 -0.067734,0.06562 -0.160867,0.06562 0,0 -1.1641684,0 v -0.31115 H 5.3894964 V 32.59851 H 4.3798449 v -0.503767 q 0,-0.0063 0,-0.01058 0.00423,-0.09313 0.071967,-0.156633 0.06985,-0.06562 0.1608669,-0.06562 H 5.776847 v 0.31115 z"
         style="fill:#ffffff"
         id="path24140" />
      <path
         d="m 7.6543332,31.861909 q 0.09525,0 0.1629836,0.06773 0.06985,0.06773 0.06985,0.165101 v 0.931334 H 7.4976997 v -0.38735 H 6.8775154 v 0.38735 H 6.4901648 V 32.09474 q 0,-0.09737 0.067733,-0.165101 0.067733,-0.06773 0.1651003,-0.06773 z M 7.4976997,32.327576 V 32.173059 H 6.8775154 v 0.154517 z"
         style="fill:#ffffff"
         id="path24142" />
      <path
         d="m 9.5885064,31.861909 v 0.931335 q 0,0.09737 -0.067733,0.1651 -0.067733,0.06773 -0.1651002,0.06773 H 9.1567057 L 8.5788548,32.304293 v 0.721784 H 8.1915042 v -0.931334 q 0,-0.09737 0.067733,-0.165101 0.067733,-0.06773 0.1651002,-0.06773 h 0.198967 l 0.5778509,0.721784 v -0.721784 z"
         style="fill:#ffffff"
         id="path24144" />
      <path
         d="m 11.050662,31.861909 q 0.09737,0 0.165101,0.06773 0.06773,0.06773 0.06773,0.165101 v 0.698501 q 0,0.09737 -0.06773,0.1651 -0.06773,0.06773 -0.165101,0.06773 H 9.8864939 v -1.164168 z m -0.154517,0.853018 v -0.541868 h -0.6223 v 0.541868 z"
         style="fill:#ffffff"
         id="path24146" />
      <path
         d="m 13.400166,31.861909 v 1.164168 H 13.012815 V 32.59851 h -0.622301 v 0.427567 h -0.38735 v -1.164168 h 0.38735 v 0.427567 h 0.622301 v -0.427567 z"
         style="fill:#ffffff"
         id="path24148" />
    </g>
    <g
       aria-label="T and H"
       id="text22298"
       style="font-size:2.11667px;line-height:1.25;font-family:Excluded;-inkscape-font-specification:'Excluded, Normal';display:inline;stroke-width:0.264583"
       transform="translate(0,26.458344)">
      <path
         d="m 5.7842551,44.561921 v 0.311151 H 5.278371 v 0.853017 H 4.8910204 V 44.873072 H 4.387253 v -0.311151 z"
         style="fill:#ffffff"
         id="path24169" />
      <path
         d="m 7.6469246,44.561921 q 0.09525,0 0.1629836,0.06773 0.06985,0.06773 0.06985,0.165101 v 0.931334 H 7.490291 v -0.38735 H 6.8701068 v 0.38735 H 6.4827562 v -0.931334 q 0,-0.09737 0.067733,-0.165101 0.067733,-0.06773 0.1651003,-0.06773 z M 7.490291,45.027588 V 44.873072 H 6.8701068 v 0.154516 z"
         style="fill:#ffffff"
         id="path24171" />
      <path
         d="m 9.5810977,44.561921 v 0.931335 q 0,0.09737 -0.067733,0.1651 -0.067733,0.06773 -0.1651002,0.06773 H 9.1492971 L 8.5714462,45.004305 v 0.721784 H 8.1840956 v -0.931334 q 0,-0.09737 0.067734,-0.165101 0.067733,-0.06773 0.1651002,-0.06773 h 0.198967 l 0.5778509,0.721784 v -0.721784 z"
         style="fill:#ffffff"
         id="path24173" />
      <path
         d="m 11.043254,44.561921 q 0.09737,0 0.1651,0.06773 0.06773,0.06773 0.06773,0.165101 v 0.698501 q 0,0.09737 -0.06773,0.1651 -0.06773,0.06773 -0.1651,0.06773 H 9.8790853 v -1.164168 z m -0.154517,0.853018 v -0.541867 h -0.622301 v 0.541867 z"
         style="fill:#ffffff"
         id="path24175" />
      <path
         d="m 13.392757,44.561921 v 1.164168 h -0.387351 v -0.427567 h -0.6223 v 0.427567 h -0.387351 v -1.164168 h 0.387351 v 0.427567 h 0.6223 v -0.427567 z"
         style="fill:#ffffff"
         id="path24177" />
    </g>
    <g
       aria-label="S and H"
       id="g975"
       style="font-size:2.11667px;line-height:1.25;font-family:Excluded;-inkscape-font-specification:'Excluded, Normal';display:inline;stroke-width:0.264583"
       transform="translate(13.291666,24.341676)">
      <path
         d="M 5.776847,32.289476 V 32.59851 Z M 4.7671955,32.173059 v 0.116417 H 5.776847 v 0.503768 q 0,0.0085 0,0.01058 -0.00423,0.09102 -0.071967,0.156634 -0.067734,0.06562 -0.160867,0.06562 0,0 -1.1641684,0 v -0.31115 H 5.3894964 V 32.59851 H 4.3798449 v -0.503767 q 0,-0.0063 0,-0.01058 0.00423,-0.09313 0.071967,-0.156633 0.06985,-0.06562 0.1608669,-0.06562 H 5.776847 v 0.31115 z"
         style="fill:#ffffff"
         id="path965" />
      <path
         d="m 7.6543332,31.861909 q 0.09525,0 0.1629836,0.06773 0.06985,0.06773 0.06985,0.165101 v 0.931334 H 7.4976997 v -0.38735 H 6.8775154 v 0.38735 H 6.4901648 V 32.09474 q 0,-0.09737 0.067733,-0.165101 0.067733,-0.06773 0.1651003,-0.06773 z M 7.4976997,32.327576 V 32.173059 H 6.8775154 v 0.154517 z"
         style="fill:#ffffff"
         id="path967" />
      <path
         d="m 9.5885064,31.861909 v 0.931335 q 0,0.09737 -0.067733,0.1651 -0.067733,0.06773 -0.1651002,0.06773 H 9.1567057 L 8.5788548,32.304293 v 0.721784 H 8.1915042 v -0.931334 q 0,-0.09737 0.067733,-0.165101 0.067733,-0.06773 0.1651002,-0.06773 h 0.198967 l 0.5778509,0.721784 v -0.721784 z"
         style="fill:#ffffff"
         id="path969" />
      <path
         d="m 11.050662,31.861909 q 0.09737,0 0.165101,0.06773 0.06773,0.06773 0.06773,0.165101 v 0.698501 q 0,0.09737 -0.06773,0.1651 -0.06773,0.06773 -0.165101,0.06773 H 9.8864939 v -1.164168 z m -0.154517,0.853018 v -0.541868 h -0.6223 v 0.541868 z"
         style="fill:#ffffff"
         id="path971" />
      <path
         d="m 13.400166,31.861909 v 1.164168 H 13.012815 V 32.59851 h -0.622301 v 0.427567 h -0.38735 v -1.164168 h 0.38735 v 0.427567 h 0.622301 v -0.427567 z"
         style="fill:#ffffff"
         id="path973" />
    </g>
    <g
       aria-label="T and H"
       id="g987"
       style="font-size:2.11667px;line-height:1.25;font-family:Excluded;-inkscape-font-specification:'Excluded, Normal';display:inline;stroke-width:0.264583"
       transform="translate(13.291666,26.458344)">
      <path
         d="m 5.7842551,44.561921 v 0.311151 H 5.278371 v 0.853017 H 4.8910204 V 44.873072 H 4.387253 v -0.311151 z"
         style="fill:#ffffff"
         id="path977" />
      <path
         d="m 7.6469246,44.561921 q 0.09525,0 0.1629836,0.06773 0.06985,0.06773 0.06985,0.165101 v 0.931334 H 7.490291 v -0.38735 H 6.8701068 v 0.38735 H 6.4827562 v -0.931334 q 0,-0.09737 0.067733,-0.165101 0.067733,-0.06773 0.1651003,-0.06773 z M 7.490291,45.027588 V 44.873072 H 6.8701068 v 0.154516 z"
         style="fill:#ffffff"
         id="path979" />
      <path
         d="m 9.5810977,44.561921 v 0.931335 q 0,0.09737 -0.067733,0.1651 -0.067733,0.06773 -0.1651002,0.06773 H 9.1492971 L 8.5714462,45.004305 v 0.721784 H 8.1840956 v -0.931334 q 0,-0.09737 0.067734,-0.165101 0.067733,-0.06773 0.1651002,-0.06773 h 0.198967 l 0.5778509,0.721784 v -0.721784 z"
         style="fill:#ffffff"
         id="path981" />
      <path
         d="m 11.043254,44.561921 q 0.09737,0 0.1651,0.06773 0.06773,0.06773 0.06773,0.165101 v 0.698501 q 0,0.09737 -0.06773,0.1651 -0.06773,0.06773 -0.1651,0.06773 H 9.8790853 v -1.164168 z m -0.154517,0.853018 v -0.541867 h -0.622301 v 0.541867 z"
         style="fill:#ffffff"
         id="path983" />
      <path
         d="m 13.392757,44.561921 v 1.164168 h -0.387351 v -0.427567 h -0.6223 v 0.427567 h -0.387351 v -1.164168 h 0.387351 v 0.427567 h 0.6223 v -0.427567 z"
         style="fill:#ffffff"
         id="path985" />
    </g>
  </g>
  <g
     inkscape:groupmode="layer"
     id="layer2"
     inkscape:label="components"
     style="display:none">
    <circle
       r="4"
       cy="21.268999"
       cx="8.8900051"
       id="circle4956"
       style="display:inline;opacity:1;vector-effect:none;fill:#00ff00;fill-opacity:1;fill-rule:evenodd;stroke:none;stroke-width:1;stroke-linecap:butt;stroke-linejoin:miter;stroke-miterlimit:4;stroke-dasharray:none;stroke-dashoffset:0;stroke-opacity:1;paint-order:normal"
       inkscape:label="pitch" />
    <circle
       inkscape:label="blink"
       r="4"
       cy="38.793999"
       cx="22.181671"
       id="circle66"
       style="display:inline;opacity:1;vector-effect:none;fill:#ff00ff;fill-opacity:1;fill-rule:evenodd;stroke:none;stroke-width:1;stroke-linecap:butt;stroke-linejoin:miter;stroke-miterlimit:4;stroke-dasharray:none;stroke-dashoffset:0;stroke-opacity:1;paint-order:normal" />
    <circle
       r="4"
       cy="21.268999"
       cx="22.181671"
       id="circle681"
       style="display:inline;opacity:1;vector-effect:none;fill:#00ff00;fill-opacity:1;fill-rule:evenodd;stroke:none;stroke-width:1;stroke-linecap:butt;stroke-linejoin:miter;stroke-miterlimit:4;stroke-dasharray:none;stroke-dashoffset:0;stroke-opacity:1;paint-order:normal"
       inkscape:label="pitch" />
    <circle
       r="4"
       cy="88.178001"
       cx="8.8900051"
       id="circle683"
       style="display:inline;opacity:1;vector-effect:none;fill:#00ff00;fill-opacity:1;fill-rule:evenodd;stroke:none;stroke-width:1;stroke-linecap:butt;stroke-linejoin:miter;stroke-miterlimit:4;stroke-dasharray:none;stroke-dashoffset:0;stroke-opacity:1;paint-order:normal"
       inkscape:label="pitch" />
    <circle
       inkscape:label="blink"
       r="4"
       cy="105.70297"
       cx="22.181671"
       id="circle687"
       style="display:inline;opacity:1;vector-effect:none;fill:#ff00ff;fill-opacity:1;fill-rule:evenodd;stroke:none;stroke-width:1;stroke-linecap:butt;stroke-linejoin:miter;stroke-miterlimit:4;stroke-dasharray:none;stroke-dashoffset:0;stroke-opacity:1;paint-order:normal" />
    <circle
       r="4"
       cy="88.178001"
       cx="22.181671"
       id="circle689"
       style="display:inline;opacity:1;vector-effect:none;fill:#00ff00;fill-opacity:1;fill-rule:evenodd;stroke:none;stroke-width:1;stroke-linecap:butt;stroke-linejoin:miter;stroke-miterlimit:4;stroke-dasharray:none;stroke-dashoffset:0;stroke-opacity:1;paint-order:normal"
       inkscape:label="pitch" />
    <circle
       style="display:inline;opacity:1;vector-effect:none;fill:#0000ff;fill-opacity:1;fill-rule:evenodd;stroke:none;stroke-width:1;stroke-linecap:butt;stroke-linejoin:miter;stroke-miterlimit:4;stroke-dasharray:none;stroke-dashoffset:0;stroke-opacity:1;paint-order:normal"
       id="circle206"
       cx="8.8900051"
       cy="38.793999"
       r="4"
       inkscape:label="sine" />
    <circle
       style="display:inline;opacity:1;vector-effect:none;fill:#0000ff;fill-opacity:1;fill-rule:evenodd;stroke:none;stroke-width:1;stroke-linecap:butt;stroke-linejoin:miter;stroke-miterlimit:4;stroke-dasharray:none;stroke-dashoffset:0;stroke-opacity:1;paint-order:normal"
       id="circle881"
       cx="8.8900051"
       cy="105.70297"
       r="4"
       inkscape:label="sine" />
    <circle
       inkscape:label="blink"
       r="4"
       cy="64.25"
       cx="8.8900051"
       id="circle932"
       style="display:inline;opacity:1;vector-effect:none;fill:#ffff00;fill-opacity:1;fill-rule:evenodd;stroke:none;stroke-width:1;stroke-linecap:butt;stroke-linejoin:miter;stroke-miterlimit:4;stroke-dasharray:none;stroke-dashoffset:0;stroke-opacity:1;paint-order:normal" />
    <circle
       inkscape:label="blink"
       r="4"
       cy="64.25"
       cx="22.181671"
       id="circle952"
       style="display:inline;opacity:1;vector-effect:none;fill:#ffff00;fill-opacity:1;fill-rule:evenodd;stroke:none;stroke-width:1;stroke-linecap:butt;stroke-linejoin:miter;stroke-miterlimit:4;stroke-dasharray:none;stroke-dashoffset:0;stroke-opacity:1;paint-order:normal" />
  </g>
</svg>
