<?xml version="1.0" encoding="UTF-8" standalone="no"?>
<!-- Created with Inkscape (http://www.inkscape.org/) -->

<svg
   width="30.48mm"
   height="128.5mm"
   viewBox="0 0 30.480002 128.50002"
   version="1.1"
   id="svg8"
   inkscape:version="1.1.2 (b8e25be8, 2022-02-05)"
   sodipodi:docname="SimpleOsc.svg"
   xmlns:inkscape="http://www.inkscape.org/namespaces/inkscape"
   xmlns:sodipodi="http://sodipodi.sourceforge.net/DTD/sodipodi-0.dtd"
   xmlns="http://www.w3.org/2000/svg"
   xmlns:svg="http://www.w3.org/2000/svg"
   xmlns:rdf="http://www.w3.org/1999/02/22-rdf-syntax-ns#"
   xmlns:cc="http://creativecommons.org/ns#"
   xmlns:dc="http://purl.org/dc/elements/1.1/">
  <defs
     id="defs2" />
  <sodipodi:namedview
     id="base"
     pagecolor="#ffffff"
     bordercolor="#666666"
     borderopacity="1.0"
     inkscape:pageopacity="0.0"
     inkscape:pageshadow="2"
     inkscape:zoom="1.3422195"
     inkscape:cx="59.975287"
     inkscape:cy="248.46905"
     inkscape:document-units="mm"
     inkscape:current-layer="layer4"
     showgrid="false"
     units="mm"
     inkscape:snap-bbox="true"
     inkscape:snap-page="true"
     inkscape:bbox-nodes="false"
     inkscape:snap-bbox-edge-midpoints="false"
     inkscape:window-width="1920"
     inkscape:window-height="955"
     inkscape:window-x="1920"
     inkscape:window-y="25"
     inkscape:window-maximized="0"
     inkscape:snap-bbox-midpoints="true"
     inkscape:snap-nodes="false"
     inkscape:pagecheckerboard="0"
     inkscape:lockguides="false" />
  <metadata
     id="metadata5">
    <rdf:RDF>
      <cc:Work
         rdf:about="">
        <dc:format>image/svg+xml</dc:format>
        <dc:type
           rdf:resource="http://purl.org/dc/dcmitype/StillImage" />
        <dc:title />
      </cc:Work>
    </rdf:RDF>
  </metadata>
  <g
     inkscape:groupmode="layer"
     id="layer3"
     inkscape:label="Background"
     style="display:inline">
    <rect
       style="display:inline;opacity:1;vector-effect:none;fill:#0b65ac;fill-opacity:1;fill-rule:evenodd;stroke:none;stroke-width:0.649358;stroke-linecap:butt;stroke-linejoin:miter;stroke-miterlimit:4;stroke-dasharray:none;stroke-dashoffset:0;stroke-opacity:1;paint-order:normal"
       id="rect420"
       width="30.48"
       height="128.5"
       x="5.9211732e-17"
       y="168.49997"
       transform="translate(0,-168.49998)"
       sodipodi:insensitive="true" />
  </g>
  <g
     inkscape:groupmode="layer"
     id="layer4"
     inkscape:label="Text"
     style="display:inline;mix-blend-mode:normal">
    <g
       aria-label="Pitch
"
       id="text5484"
       style="font-size:5.64444px;line-height:1.25;-inkscape-font-specification:'sans-serif, Normal';display:inline;stroke-width:0.264583">
      <path
         d="m 11.514828,53.710959 q 0,0.272851 -0.09646,0.507118 -0.09371,0.23151 -0.264583,0.402386 -0.212217,0.212218 -0.501605,0.319705 -0.289388,0.104731 -0.73036,0.104731 H 9.3761143 V 56.57452 H 8.8304116 v -4.103795 h 1.113454 q 0.3693144,0 0.6256284,0.06339 0.256315,0.06063 0.454753,0.192925 0.234266,0.157097 0.361045,0.391363 0.129536,0.234266 0.129536,0.592556 z m -0.567751,0.01378 q 0,-0.212217 -0.07441,-0.369314 -0.07441,-0.157096 -0.225998,-0.256315 -0.132292,-0.08544 -0.303169,-0.121267 -0.16812,-0.03858 -0.4271911,-0.03858 H 9.3761143 v 1.639864 h 0.4602644 q 0.3307293,0 0.5374343,-0.05788 0.206706,-0.06063 0.336241,-0.190169 0.129536,-0.132292 0.181901,-0.278364 0.05512,-0.146072 0.05512,-0.327973 z"
         id="path106" />
      <path
         d="m 12.752305,52.980599 h -0.584288 v -0.537434 h 0.584288 z m -0.03307,3.593921 H 12.20109 v -3.078535 h 0.518142 z"
         id="path108" />
      <path
         d="m 15.348527,56.546959 q -0.146072,0.03858 -0.319704,0.06339 -0.170877,0.02481 -0.305925,0.02481 -0.471288,0 -0.716579,-0.253559 -0.245291,-0.253559 -0.245291,-0.813042 V 53.93145 h -0.350021 v -0.43546 h 0.350021 v -0.8847 h 0.518142 v 0.8847 h 1.069357 v 0.43546 H 14.27917 v 1.402842 q 0,0.242534 0.01103,0.380338 0.01102,0.135048 0.07717,0.253559 0.06063,0.110243 0.165364,0.162608 0.107487,0.04961 0.325217,0.04961 0.126779,0 0.264583,-0.03583 0.137804,-0.03859 0.198438,-0.06339 h 0.02756 z"
         id="path110" />
      <path
         d="m 18.253429,56.381595 q -0.259071,0.124023 -0.493337,0.192925 -0.23151,0.0689 -0.493337,0.0689 -0.333485,0 -0.611849,-0.09646 -0.278363,-0.09922 -0.476801,-0.297656 -0.201193,-0.198437 -0.311436,-0.501605 -0.110243,-0.303168 -0.110243,-0.708311 0,-0.755165 0.413411,-1.185112 0.416167,-0.429948 1.096918,-0.429948 0.264583,0 0.518142,0.07441 0.256315,0.07441 0.468532,0.181901 v 0.57602 h -0.02756 q -0.237023,-0.184657 -0.490582,-0.283876 -0.250802,-0.09922 -0.490581,-0.09922 -0.440972,0 -0.697287,0.297656 -0.253559,0.2949 -0.253559,0.868164 0,0.556727 0.248047,0.857139 0.250803,0.297656 0.702799,0.297656 0.157096,0 0.319705,-0.04134 0.162608,-0.04134 0.292144,-0.107487 0.112999,-0.05788 0.212217,-0.121267 0.09922,-0.06615 0.157097,-0.112999 h 0.02756 z"
         id="path112" />
      <path
         d="M 21.494572,56.57452 H 20.97643 v -1.752863 q 0,-0.212218 -0.0248,-0.396875 -0.02481,-0.187413 -0.09095,-0.292144 -0.0689,-0.115755 -0.198437,-0.170876 -0.129535,-0.05788 -0.336241,-0.05788 -0.212218,0 -0.443728,0.104731 -0.23151,0.104731 -0.443728,0.267339 v 2.298566 h -0.518142 v -4.288452 h 0.518142 v 1.55167 q 0.242535,-0.201193 0.501606,-0.314192 0.259071,-0.112999 0.531922,-0.112999 0.498849,0 0.760676,0.300412 0.261827,0.300412 0.261827,0.865407 z"
         id="path114" />
    </g>
    <g
       aria-label="CV In"
       id="text10330"
       style="font-size:5.64444px;line-height:1.25;-inkscape-font-specification:'sans-serif, Normal';stroke-width:0.264583">
      <path
         d="m 11.211402,87.816663 q -0.151584,0.06615 -0.275607,0.124023 -0.121268,0.05788 -0.319705,0.121267 -0.168121,0.05237 -0.366558,0.08819 -0.195681,0.03858 -0.4327036,0.03858 -0.446484,0 -0.8130419,-0.124023 -0.3638018,-0.12678 -0.6338971,-0.394119 -0.2645832,-0.261827 -0.4134112,-0.664214 -0.148828,-0.405143 -0.148828,-0.939821 0,-0.507118 0.1433159,-0.906749 0.1433158,-0.399631 0.4134111,-0.675238 0.2618271,-0.267339 0.631141,-0.407899 0.3720701,-0.14056 0.8240663,-0.14056 0.3307285,0 0.6587015,0.07993 0.330729,0.07993 0.733116,0.28112 v 0.647677 h -0.04134 q -0.338997,-0.283875 -0.672482,-0.413411 -0.333485,-0.129535 -0.7138235,-0.129535 -0.3114364,0 -0.5622392,0.101975 -0.2480466,0.09922 -0.4437279,0.311436 -0.1901692,0.206705 -0.297656,0.523654 -0.1047309,0.314192 -0.1047309,0.727604 0,0.432703 0.1157551,0.74414 0.1185112,0.311436 0.3031682,0.507117 0.1929252,0.20395 0.4492401,0.303169 0.259071,0.09646 0.5457027,0.09646 0.3941184,0 0.7386284,-0.135047 0.344509,-0.135048 0.644921,-0.405143 h 0.03858 z"
         id="path135" />
      <path
         d="m 15.224246,84.010524 -1.493792,4.103795 H 13.00285 l -1.493792,-4.103795 h 0.584288 l 1.287086,3.610458 1.287087,-3.610458 z"
         id="path137" />
      <path
         d="m 19.278431,88.114319 h -1.620572 v -0.418923 h 0.537435 v -3.265948 h -0.537435 v -0.418924 h 1.620572 v 0.418924 h -0.537434 v 3.265948 h 0.537434 z"
         id="path139" />
      <path
         d="m 22.745573,88.114319 h -0.518142 v -1.752863 q 0,-0.212218 -0.02481,-0.396875 -0.0248,-0.187413 -0.09095,-0.292144 -0.0689,-0.115755 -0.198438,-0.170877 -0.129535,-0.05788 -0.336241,-0.05788 -0.212217,0 -0.443728,0.104731 -0.23151,0.10473 -0.443728,0.267339 v 2.298566 h -0.518142 v -3.078535 h 0.518142 v 0.341753 q 0.242535,-0.201193 0.501606,-0.314192 0.259071,-0.112999 0.531922,-0.112999 0.49885,0 0.760677,0.300412 0.261827,0.300412 0.261827,0.865407 z"
         id="path141" />
    </g>
  </g>
  <g
     inkscape:groupmode="layer"
     id="layer2"
     inkscape:label="components"
     style="display:none">
    <circle
       style="display:inline;opacity:1;vector-effect:none;fill:#ff0000;fill-opacity:1;fill-rule:evenodd;stroke:none;stroke-width:1;stroke-linecap:butt;stroke-linejoin:miter;stroke-miterlimit:4;stroke-dasharray:none;stroke-dashoffset:0;stroke-opacity:1;paint-order:normal"
       id="path4954"
       cx="15.24"
       cy="46.063263"
       r="4"
       inkscape:label="pitch" />
    <circle
       r="4"
       cy="77.477875"
       cx="15.24"
       id="circle4956"
       style="display:inline;opacity:1;vector-effect:none;fill:#00ff00;fill-opacity:1;fill-rule:evenodd;stroke:none;stroke-width:1;stroke-linecap:butt;stroke-linejoin:miter;stroke-miterlimit:4;stroke-dasharray:none;stroke-dashoffset:0;stroke-opacity:1;paint-order:normal"
       inkscape:label="pitch" />
    <circle
       style="display:inline;opacity:1;vector-effect:none;fill:#0000ff;fill-opacity:1;fill-rule:evenodd;stroke:none;stroke-width:1;stroke-linecap:butt;stroke-linejoin:miter;stroke-miterlimit:4;stroke-dasharray:none;stroke-dashoffset:0;stroke-opacity:1;paint-order:normal"
       id="circle4958"
       cx="15.24"
       cy="108.71259"
       r="4"
       inkscape:label="sine" />
    <circle
       inkscape:label="blink"
       r="4"
       cy="25.80987"
       cx="15.24"
       id="circle66"
       style="display:inline;opacity:1;vector-effect:none;fill:#ff00ff;fill-opacity:1;fill-rule:evenodd;stroke:none;stroke-width:1;stroke-linecap:butt;stroke-linejoin:miter;stroke-miterlimit:4;stroke-dasharray:none;stroke-dashoffset:0;stroke-opacity:1;paint-order:normal" />
  </g>
</svg>
